M48
;GenerationSoftware,Autodesk,EAGLE,9.6.2*%
;CreationDate,2020-07-29T13:21:51Z*%
FMAT,2
ICI,OFF
METRIC,TZ,000.000
T1C0.350
%
G90
M71
T1
X34950Y43155
X39751Y24003
X19304Y33782
X21336Y33020
X42342Y26975
X42367Y24765
X35484Y32944
X39116Y40335
X29642Y40996
X30023Y27280
X33020Y28956
X23597Y39243
X32131Y28067
X27584Y44196
X44780Y32080
X32868Y44704
X36246Y44526
X42697Y41580
X40996Y27457
X38024Y23038
X45034Y33350
X47219Y34315
X46888Y38202
X27584Y42723
X31458Y45565
M30