G04 EAGLE Gerber RS-274X export*
G75*
%MOMM*%
%FSLAX34Y34*%
%LPD*%
%INTop Copper*%
%IPPOS*%
%AMOC8*
5,1,8,0,0,1.08239X$1,22.5*%
G01*
%ADD10R,0.800000X0.800000*%
%ADD11R,1.100000X1.000000*%
%ADD12C,0.499997*%
%ADD13C,1.000000*%
%ADD14R,1.270000X1.000000*%
%ADD15R,1.300000X1.500000*%
%ADD16R,1.000000X1.100000*%
%ADD17C,0.609600*%
%ADD18C,0.635000*%
%ADD19C,0.756400*%
%ADD20C,0.254000*%

G36*
X432878Y195718D02*
X432878Y195718D01*
X432956Y195727D01*
X432975Y195738D01*
X432997Y195742D01*
X433061Y195786D01*
X433129Y195825D01*
X433145Y195844D01*
X433161Y195855D01*
X433185Y195893D01*
X433235Y195953D01*
X442735Y212453D01*
X442744Y212480D01*
X442760Y212504D01*
X442775Y212574D01*
X442798Y212642D01*
X442795Y212670D01*
X442801Y212698D01*
X442788Y212769D01*
X442782Y212840D01*
X442769Y212865D01*
X442763Y212893D01*
X442723Y212953D01*
X442690Y213016D01*
X442668Y213034D01*
X442652Y213058D01*
X442569Y213116D01*
X442537Y213143D01*
X442526Y213146D01*
X442516Y213153D01*
X441197Y213777D01*
X460088Y246497D01*
X460115Y246579D01*
X460147Y246660D01*
X460147Y246674D01*
X460152Y246687D01*
X460145Y246774D01*
X460144Y246860D01*
X460138Y246873D01*
X460137Y246887D01*
X460098Y246964D01*
X460062Y247044D01*
X460052Y247054D01*
X460046Y247066D01*
X460003Y247101D01*
X459934Y247170D01*
X458814Y247933D01*
X458749Y247960D01*
X458687Y247995D01*
X458655Y248000D01*
X458629Y248011D01*
X458577Y248011D01*
X458509Y248021D01*
X458503Y248020D01*
X458028Y248462D01*
X457998Y248480D01*
X457968Y248509D01*
X457432Y248874D01*
X457431Y248880D01*
X457404Y248945D01*
X457386Y249013D01*
X457366Y249039D01*
X457356Y249065D01*
X457319Y249102D01*
X457278Y249157D01*
X455539Y250770D01*
X455479Y250806D01*
X455423Y250850D01*
X455392Y250860D01*
X455368Y250874D01*
X455317Y250882D01*
X455250Y250902D01*
X455245Y250902D01*
X454840Y251410D01*
X454814Y251432D01*
X454789Y251465D01*
X454313Y251906D01*
X454313Y251912D01*
X454296Y251980D01*
X454288Y252051D01*
X454272Y252079D01*
X454266Y252107D01*
X454235Y252148D01*
X454202Y252209D01*
X452723Y254063D01*
X452669Y254108D01*
X452621Y254159D01*
X452591Y254173D01*
X452570Y254191D01*
X452520Y254207D01*
X452458Y254236D01*
X452452Y254238D01*
X452128Y254800D01*
X452105Y254826D01*
X452085Y254862D01*
X451680Y255369D01*
X451681Y255375D01*
X451675Y255445D01*
X451677Y255516D01*
X451666Y255547D01*
X451664Y255575D01*
X451640Y255620D01*
X451616Y255685D01*
X450430Y257739D01*
X450383Y257792D01*
X450343Y257850D01*
X450316Y257868D01*
X450297Y257889D01*
X450251Y257911D01*
X450193Y257950D01*
X450188Y257952D01*
X449951Y258556D01*
X449932Y258585D01*
X449918Y258624D01*
X449593Y259186D01*
X449595Y259191D01*
X449599Y259262D01*
X449612Y259331D01*
X449606Y259363D01*
X449607Y259391D01*
X449590Y259440D01*
X449577Y259508D01*
X448710Y261715D01*
X448672Y261774D01*
X448641Y261838D01*
X448616Y261860D01*
X448601Y261884D01*
X448559Y261913D01*
X448507Y261959D01*
X448503Y261962D01*
X448358Y262595D01*
X448344Y262626D01*
X448336Y262667D01*
X448099Y263271D01*
X448101Y263276D01*
X448116Y263345D01*
X448139Y263412D01*
X448137Y263445D01*
X448143Y263472D01*
X448133Y263523D01*
X448130Y263592D01*
X447602Y265904D01*
X447573Y265968D01*
X447552Y266035D01*
X447531Y266061D01*
X447519Y266086D01*
X447482Y266121D01*
X447438Y266175D01*
X447434Y266179D01*
X447385Y266826D01*
X447376Y266859D01*
X447374Y266901D01*
X447229Y267533D01*
X447232Y267538D01*
X447257Y267604D01*
X447290Y267667D01*
X447293Y267699D01*
X447303Y267726D01*
X447301Y267777D01*
X447308Y267846D01*
X447131Y270211D01*
X447111Y270278D01*
X447101Y270348D01*
X447084Y270377D01*
X447076Y270404D01*
X447044Y270444D01*
X447009Y270504D01*
X447005Y270508D01*
X447054Y271155D01*
X447049Y271189D01*
X447054Y271231D01*
X447005Y271878D01*
X447009Y271882D01*
X447043Y271943D01*
X447085Y272000D01*
X447093Y272032D01*
X447107Y272057D01*
X447113Y272108D01*
X447130Y272175D01*
X447297Y274410D01*
X447294Y274434D01*
X447298Y274458D01*
X447281Y274533D01*
X447272Y274609D01*
X447260Y274630D01*
X447254Y274654D01*
X447210Y274717D01*
X447172Y274783D01*
X447152Y274798D01*
X447138Y274817D01*
X447073Y274858D01*
X447012Y274904D01*
X446989Y274910D01*
X446968Y274923D01*
X446872Y274941D01*
X446818Y274955D01*
X446805Y274953D01*
X446791Y274955D01*
X426940Y274955D01*
X426938Y274955D01*
X426935Y274955D01*
X426840Y274935D01*
X426744Y274916D01*
X426741Y274914D01*
X426739Y274914D01*
X426658Y274858D01*
X426578Y274803D01*
X426576Y274801D01*
X426574Y274799D01*
X426521Y274716D01*
X426469Y274635D01*
X426468Y274632D01*
X426467Y274630D01*
X426450Y274534D01*
X426433Y274438D01*
X426434Y274435D01*
X426433Y274433D01*
X426455Y274338D01*
X426477Y274242D01*
X426478Y274240D01*
X426479Y274237D01*
X426581Y274089D01*
X428725Y271946D01*
X428725Y268772D01*
X428735Y268721D01*
X428751Y268612D01*
X428751Y268610D01*
X428741Y268550D01*
X428726Y268496D01*
X428728Y268480D01*
X428725Y268463D01*
X428725Y267550D01*
X428520Y267345D01*
X428516Y267339D01*
X428510Y267334D01*
X428461Y267256D01*
X428409Y267178D01*
X428408Y267171D01*
X428404Y267164D01*
X428372Y266987D01*
X428372Y250665D01*
X428373Y250657D01*
X428372Y250650D01*
X428393Y250560D01*
X428411Y250469D01*
X428416Y250462D01*
X428418Y250455D01*
X428520Y250307D01*
X428979Y249848D01*
X428979Y245452D01*
X425870Y242343D01*
X421474Y242343D01*
X418365Y245452D01*
X418365Y249848D01*
X418824Y250307D01*
X418828Y250313D01*
X418834Y250318D01*
X418883Y250396D01*
X418935Y250474D01*
X418936Y250481D01*
X418940Y250488D01*
X418972Y250665D01*
X418972Y266479D01*
X418971Y266487D01*
X418972Y266494D01*
X418951Y266584D01*
X418933Y266675D01*
X418928Y266682D01*
X418926Y266689D01*
X418824Y266837D01*
X418111Y267550D01*
X418111Y271946D01*
X420255Y274089D01*
X420256Y274092D01*
X420258Y274093D01*
X420311Y274174D01*
X420365Y274256D01*
X420366Y274259D01*
X420367Y274261D01*
X420384Y274356D01*
X420403Y274453D01*
X420403Y274456D01*
X420403Y274458D01*
X420382Y274555D01*
X420361Y274649D01*
X420360Y274651D01*
X420359Y274654D01*
X420303Y274734D01*
X420247Y274814D01*
X420245Y274815D01*
X420243Y274817D01*
X420161Y274869D01*
X420078Y274921D01*
X420075Y274922D01*
X420073Y274923D01*
X419896Y274955D01*
X417014Y274955D01*
X417006Y274954D01*
X416999Y274955D01*
X416909Y274934D01*
X416818Y274916D01*
X416811Y274911D01*
X416804Y274909D01*
X416656Y274807D01*
X415411Y273562D01*
X415407Y273556D01*
X415401Y273551D01*
X415352Y273473D01*
X415300Y273396D01*
X415299Y273388D01*
X415295Y273381D01*
X415263Y273204D01*
X415263Y272376D01*
X412154Y269267D01*
X407758Y269267D01*
X404649Y272376D01*
X404649Y276772D01*
X407758Y279881D01*
X408586Y279881D01*
X408594Y279882D01*
X408601Y279881D01*
X408691Y279902D01*
X408782Y279920D01*
X408789Y279925D01*
X408796Y279927D01*
X408944Y280029D01*
X413016Y284101D01*
X449703Y284101D01*
X449714Y284103D01*
X449725Y284101D01*
X449812Y284123D01*
X449899Y284140D01*
X449909Y284147D01*
X449920Y284150D01*
X449991Y284203D01*
X450065Y284253D01*
X450071Y284263D01*
X450080Y284269D01*
X450167Y284410D01*
X450174Y284421D01*
X450174Y284422D01*
X450175Y284423D01*
X450180Y284435D01*
X450185Y284438D01*
X450243Y284478D01*
X450305Y284511D01*
X450326Y284536D01*
X450349Y284553D01*
X450376Y284596D01*
X450421Y284649D01*
X451606Y286703D01*
X451629Y286770D01*
X451659Y286834D01*
X451661Y286866D01*
X451670Y286893D01*
X451666Y286944D01*
X451671Y287014D01*
X451670Y287019D01*
X452075Y287526D01*
X452091Y287557D01*
X452117Y287589D01*
X452442Y288151D01*
X452447Y288153D01*
X452510Y288184D01*
X452577Y288208D01*
X452601Y288229D01*
X452626Y288242D01*
X452660Y288281D01*
X452712Y288326D01*
X454190Y290181D01*
X454222Y290244D01*
X454262Y290302D01*
X454269Y290334D01*
X454282Y290359D01*
X454286Y290411D01*
X454300Y290478D01*
X454300Y290484D01*
X454776Y290925D01*
X454796Y290953D01*
X454828Y290981D01*
X455232Y291488D01*
X455237Y291489D01*
X455305Y291510D01*
X455374Y291524D01*
X455402Y291542D01*
X455428Y291550D01*
X455467Y291584D01*
X455526Y291621D01*
X457263Y293235D01*
X457305Y293292D01*
X457352Y293344D01*
X457364Y293375D01*
X457380Y293397D01*
X457392Y293448D01*
X457417Y293512D01*
X457418Y293518D01*
X457954Y293883D01*
X457978Y293908D01*
X458013Y293931D01*
X458489Y294372D01*
X458494Y294372D01*
X458564Y294383D01*
X458634Y294386D01*
X458664Y294400D01*
X458692Y294404D01*
X458736Y294432D01*
X458799Y294460D01*
X460758Y295796D01*
X460807Y295847D01*
X460862Y295891D01*
X460878Y295920D01*
X460898Y295940D01*
X460917Y295988D01*
X460951Y296048D01*
X460952Y296053D01*
X461537Y296335D01*
X461565Y296356D01*
X461603Y296373D01*
X462139Y296739D01*
X462144Y296738D01*
X462215Y296738D01*
X462285Y296731D01*
X462316Y296740D01*
X462344Y296740D01*
X462392Y296761D01*
X462458Y296779D01*
X464595Y297809D01*
X464651Y297851D01*
X464712Y297887D01*
X464732Y297913D01*
X464754Y297930D01*
X464780Y297974D01*
X464823Y298029D01*
X464825Y298034D01*
X465446Y298225D01*
X465476Y298242D01*
X465516Y298253D01*
X466101Y298534D01*
X466106Y298533D01*
X466176Y298523D01*
X466244Y298505D01*
X466277Y298509D01*
X466304Y298505D01*
X466354Y298518D01*
X466423Y298527D01*
X468689Y299226D01*
X468751Y299260D01*
X468816Y299286D01*
X468840Y299309D01*
X468865Y299322D01*
X468897Y299363D01*
X468947Y299410D01*
X468950Y299415D01*
X469592Y299511D01*
X469625Y299523D01*
X469666Y299528D01*
X470286Y299720D01*
X470291Y299717D01*
X470313Y299711D01*
X470317Y299708D01*
X470330Y299706D01*
X470359Y299697D01*
X470423Y299669D01*
X470456Y299668D01*
X470483Y299660D01*
X470534Y299666D01*
X470604Y299664D01*
X472948Y300018D01*
X473015Y300043D01*
X473083Y300059D01*
X473110Y300077D01*
X473137Y300087D01*
X473175Y300122D01*
X473231Y300161D01*
X473235Y300165D01*
X473884Y300165D01*
X473918Y300172D01*
X473960Y300171D01*
X474601Y300268D01*
X474606Y300265D01*
X474670Y300235D01*
X474730Y300198D01*
X474762Y300192D01*
X474787Y300180D01*
X474839Y300178D01*
X474907Y300166D01*
X477278Y300167D01*
X477348Y300181D01*
X477418Y300186D01*
X477447Y300201D01*
X477475Y300206D01*
X477518Y300235D01*
X477580Y300266D01*
X477584Y300269D01*
X478226Y300173D01*
X478260Y300174D01*
X478301Y300167D01*
X478950Y300167D01*
X478954Y300163D01*
X479013Y300124D01*
X479067Y300078D01*
X479098Y300068D01*
X479121Y300052D01*
X479172Y300043D01*
X479237Y300020D01*
X481582Y299668D01*
X481653Y299671D01*
X481723Y299666D01*
X481754Y299676D01*
X481782Y299678D01*
X481829Y299700D01*
X481874Y299714D01*
X481880Y299716D01*
X481883Y299717D01*
X481895Y299721D01*
X481900Y299724D01*
X482520Y299532D01*
X482554Y299529D01*
X482594Y299516D01*
X483235Y299419D01*
X483239Y299415D01*
X483291Y299367D01*
X483337Y299314D01*
X483366Y299299D01*
X483387Y299280D01*
X483436Y299263D01*
X483497Y299231D01*
X485764Y298533D01*
X485834Y298526D01*
X485903Y298511D01*
X485935Y298516D01*
X485963Y298513D01*
X486012Y298528D01*
X486081Y298539D01*
X486086Y298541D01*
X486671Y298259D01*
X486704Y298251D01*
X486741Y298232D01*
X487361Y298041D01*
X487364Y298036D01*
X487409Y297981D01*
X487446Y297922D01*
X487473Y297902D01*
X487491Y297881D01*
X487536Y297857D01*
X487592Y297816D01*
X488830Y297220D01*
X488914Y297199D01*
X488997Y297173D01*
X489011Y297174D01*
X489024Y297171D01*
X489110Y297184D01*
X489196Y297192D01*
X489209Y297198D01*
X489223Y297200D01*
X489297Y297245D01*
X489373Y297286D01*
X489383Y297298D01*
X489394Y297305D01*
X489427Y297350D01*
X489489Y297424D01*
X508381Y330145D01*
X509618Y329291D01*
X509645Y329280D01*
X509667Y329261D01*
X509736Y329241D01*
X509801Y329213D01*
X509830Y329213D01*
X509858Y329205D01*
X509929Y329213D01*
X510000Y329213D01*
X510027Y329224D01*
X510056Y329227D01*
X510118Y329262D01*
X510183Y329290D01*
X510204Y329310D01*
X510229Y329325D01*
X510292Y329402D01*
X510322Y329432D01*
X510326Y329442D01*
X510335Y329453D01*
X519835Y345953D01*
X519845Y345985D01*
X519854Y345998D01*
X519858Y346022D01*
X519859Y346026D01*
X519890Y346096D01*
X519890Y346120D01*
X519898Y346142D01*
X519892Y346218D01*
X519893Y346295D01*
X519883Y346319D01*
X519882Y346340D01*
X519861Y346379D01*
X519835Y346451D01*
X510335Y362951D01*
X510316Y362973D01*
X510303Y362999D01*
X510250Y363047D01*
X510203Y363100D01*
X510177Y363113D01*
X510156Y363132D01*
X510088Y363155D01*
X510024Y363186D01*
X509995Y363188D01*
X509968Y363197D01*
X509896Y363192D01*
X509825Y363195D01*
X509798Y363185D01*
X509769Y363183D01*
X509679Y363141D01*
X509639Y363126D01*
X509631Y363119D01*
X509618Y363113D01*
X508381Y362259D01*
X489489Y394980D01*
X489432Y395045D01*
X489378Y395113D01*
X489366Y395120D01*
X489357Y395131D01*
X489279Y395168D01*
X489203Y395210D01*
X489189Y395212D01*
X489176Y395218D01*
X489090Y395222D01*
X489004Y395232D01*
X488989Y395228D01*
X488976Y395228D01*
X488924Y395210D01*
X488830Y395184D01*
X487592Y394588D01*
X487536Y394545D01*
X487475Y394510D01*
X487455Y394484D01*
X487432Y394467D01*
X487406Y394422D01*
X487364Y394368D01*
X487361Y394363D01*
X486741Y394172D01*
X486711Y394156D01*
X486671Y394145D01*
X486086Y393863D01*
X486081Y393865D01*
X486011Y393875D01*
X485942Y393893D01*
X485910Y393889D01*
X485882Y393893D01*
X485832Y393879D01*
X485764Y393871D01*
X483497Y393173D01*
X483435Y393139D01*
X483370Y393113D01*
X483346Y393090D01*
X483321Y393077D01*
X483289Y393037D01*
X483239Y392989D01*
X483235Y392985D01*
X482594Y392888D01*
X482561Y392877D01*
X482520Y392872D01*
X481900Y392680D01*
X481895Y392683D01*
X481827Y392703D01*
X481762Y392731D01*
X481730Y392732D01*
X481703Y392740D01*
X481651Y392734D01*
X481582Y392736D01*
X479237Y392384D01*
X479171Y392360D01*
X479102Y392343D01*
X479075Y392325D01*
X479049Y392315D01*
X479011Y392280D01*
X478954Y392241D01*
X478950Y392237D01*
X478301Y392237D01*
X478267Y392230D01*
X478226Y392231D01*
X477584Y392135D01*
X477580Y392138D01*
X477516Y392168D01*
X477456Y392205D01*
X477423Y392211D01*
X477398Y392223D01*
X477346Y392225D01*
X477278Y392237D01*
X474907Y392238D01*
X474838Y392224D01*
X474767Y392219D01*
X474738Y392204D01*
X474711Y392199D01*
X474668Y392170D01*
X474606Y392139D01*
X474601Y392136D01*
X473960Y392233D01*
X473925Y392231D01*
X473884Y392239D01*
X473235Y392239D01*
X473231Y392243D01*
X473173Y392282D01*
X473119Y392327D01*
X473088Y392338D01*
X473064Y392354D01*
X473014Y392363D01*
X472948Y392386D01*
X470604Y392740D01*
X470533Y392736D01*
X470463Y392741D01*
X470431Y392731D01*
X470403Y392730D01*
X470357Y392708D01*
X470291Y392687D01*
X470286Y392684D01*
X469666Y392876D01*
X469632Y392879D01*
X469592Y392893D01*
X468950Y392989D01*
X468947Y392994D01*
X468895Y393041D01*
X468849Y393095D01*
X468819Y393110D01*
X468799Y393129D01*
X468750Y393146D01*
X468689Y393178D01*
X466423Y393877D01*
X466353Y393884D01*
X466284Y393900D01*
X466251Y393895D01*
X466223Y393897D01*
X466174Y393882D01*
X466106Y393871D01*
X466101Y393870D01*
X465516Y394151D01*
X465482Y394160D01*
X465446Y394179D01*
X464825Y394370D01*
X464823Y394375D01*
X464778Y394430D01*
X464740Y394490D01*
X464714Y394509D01*
X464696Y394531D01*
X464651Y394555D01*
X464595Y394595D01*
X462458Y395625D01*
X462390Y395642D01*
X462324Y395668D01*
X462291Y395668D01*
X462264Y395675D01*
X462213Y395667D01*
X462144Y395666D01*
X462139Y395665D01*
X461603Y396031D01*
X461571Y396045D01*
X461537Y396069D01*
X460952Y396351D01*
X460951Y396356D01*
X460915Y396417D01*
X460886Y396481D01*
X460863Y396504D01*
X460848Y396528D01*
X460807Y396559D01*
X460758Y396608D01*
X458799Y397944D01*
X458734Y397972D01*
X458672Y398007D01*
X458640Y398011D01*
X458614Y398022D01*
X458563Y398022D01*
X458494Y398032D01*
X458489Y398032D01*
X458022Y398465D01*
X457941Y398515D01*
X457859Y398566D01*
X457855Y398567D01*
X457851Y398569D01*
X457756Y398584D01*
X457662Y398600D01*
X457658Y398599D01*
X457653Y398600D01*
X457560Y398576D01*
X457467Y398554D01*
X457463Y398552D01*
X457459Y398551D01*
X457428Y398528D01*
X457319Y398452D01*
X455063Y396196D01*
X455059Y396190D01*
X455053Y396185D01*
X455004Y396107D01*
X454952Y396030D01*
X454951Y396022D01*
X454947Y396015D01*
X454915Y395838D01*
X454915Y336644D01*
X454916Y336636D01*
X454915Y336629D01*
X454936Y336539D01*
X454954Y336448D01*
X454959Y336441D01*
X454961Y336434D01*
X455063Y336286D01*
X455649Y335700D01*
X455649Y331304D01*
X452540Y328195D01*
X448144Y328195D01*
X445035Y331304D01*
X445035Y335700D01*
X445621Y336286D01*
X445625Y336292D01*
X445631Y336297D01*
X445680Y336375D01*
X445732Y336453D01*
X445733Y336460D01*
X445737Y336467D01*
X445769Y336644D01*
X445769Y399836D01*
X448596Y402663D01*
X451341Y405408D01*
X451363Y405441D01*
X451393Y405468D01*
X451418Y405524D01*
X451452Y405575D01*
X451460Y405614D01*
X451476Y405650D01*
X451478Y405712D01*
X451490Y405772D01*
X451482Y405811D01*
X451483Y405851D01*
X451459Y405917D01*
X451448Y405968D01*
X451433Y405990D01*
X451422Y406020D01*
X450421Y407755D01*
X450374Y407808D01*
X450334Y407866D01*
X450307Y407884D01*
X450289Y407905D01*
X450242Y407928D01*
X450185Y407966D01*
X450180Y407969D01*
X449943Y408573D01*
X449924Y408602D01*
X449910Y408641D01*
X449586Y409203D01*
X449587Y409208D01*
X449592Y409279D01*
X449604Y409348D01*
X449598Y409380D01*
X449600Y409408D01*
X449583Y409457D01*
X449569Y409525D01*
X448704Y411733D01*
X448666Y411792D01*
X448635Y411855D01*
X448610Y411878D01*
X448595Y411901D01*
X448553Y411930D01*
X448502Y411977D01*
X448497Y411980D01*
X448353Y412613D01*
X448338Y412644D01*
X448330Y412685D01*
X448093Y413289D01*
X448096Y413294D01*
X448111Y413363D01*
X448134Y413430D01*
X448132Y413463D01*
X448138Y413490D01*
X448129Y413541D01*
X448125Y413610D01*
X447598Y415922D01*
X447570Y415986D01*
X447548Y416054D01*
X447528Y416079D01*
X447516Y416105D01*
X447478Y416140D01*
X447435Y416194D01*
X447431Y416197D01*
X447382Y416844D01*
X447373Y416878D01*
X447371Y416919D01*
X447227Y417552D01*
X447230Y417557D01*
X447255Y417623D01*
X447288Y417685D01*
X447291Y417718D01*
X447301Y417744D01*
X447299Y417796D01*
X447306Y417864D01*
X447130Y420229D01*
X447111Y420297D01*
X447100Y420367D01*
X447083Y420395D01*
X447076Y420422D01*
X447044Y420462D01*
X447009Y420522D01*
X447005Y420526D01*
X447054Y421173D01*
X447049Y421208D01*
X447054Y421249D01*
X447005Y421896D01*
X447009Y421900D01*
X447044Y421962D01*
X447085Y422019D01*
X447094Y422051D01*
X447107Y422075D01*
X447113Y422127D01*
X447131Y422193D01*
X447308Y424558D01*
X447300Y424628D01*
X447299Y424699D01*
X447287Y424729D01*
X447284Y424757D01*
X447258Y424802D01*
X447232Y424866D01*
X447229Y424871D01*
X447374Y425503D01*
X447375Y425538D01*
X447385Y425578D01*
X447434Y426225D01*
X447438Y426229D01*
X447482Y426285D01*
X447531Y426335D01*
X447544Y426365D01*
X447561Y426387D01*
X447575Y426437D01*
X447602Y426500D01*
X448130Y428812D01*
X448132Y428883D01*
X448142Y428953D01*
X448135Y428984D01*
X448135Y429012D01*
X448117Y429061D01*
X448101Y429128D01*
X448099Y429133D01*
X448336Y429737D01*
X448342Y429771D01*
X448358Y429809D01*
X448503Y430442D01*
X448507Y430445D01*
X448559Y430493D01*
X448615Y430536D01*
X448632Y430563D01*
X448653Y430583D01*
X448674Y430630D01*
X448710Y430689D01*
X449577Y432896D01*
X449589Y432966D01*
X449610Y433033D01*
X449607Y433066D01*
X449612Y433093D01*
X449601Y433144D01*
X449595Y433213D01*
X449593Y433218D01*
X449918Y433780D01*
X449929Y433813D01*
X449951Y433848D01*
X450188Y434452D01*
X450193Y434454D01*
X450251Y434495D01*
X450313Y434528D01*
X450335Y434553D01*
X450358Y434569D01*
X450385Y434613D01*
X450430Y434665D01*
X451616Y436719D01*
X451639Y436786D01*
X451669Y436849D01*
X451671Y436882D01*
X451680Y436909D01*
X451676Y436960D01*
X451681Y437029D01*
X451680Y437035D01*
X452085Y437542D01*
X452101Y437573D01*
X452128Y437604D01*
X452452Y438166D01*
X452458Y438168D01*
X452502Y438190D01*
X452527Y438195D01*
X452547Y438208D01*
X452588Y438223D01*
X452612Y438244D01*
X452637Y438257D01*
X452665Y438288D01*
X452693Y438307D01*
X452704Y438324D01*
X452723Y438341D01*
X454202Y440195D01*
X454234Y440258D01*
X454274Y440316D01*
X454281Y440348D01*
X454294Y440373D01*
X454298Y440425D01*
X454313Y440492D01*
X454313Y440498D01*
X454789Y440939D01*
X454809Y440967D01*
X454840Y440994D01*
X455245Y441502D01*
X455250Y441502D01*
X455318Y441524D01*
X455387Y441537D01*
X455415Y441555D01*
X455441Y441564D01*
X455481Y441597D01*
X455539Y441634D01*
X457278Y443247D01*
X457319Y443304D01*
X457367Y443356D01*
X457378Y443387D01*
X457395Y443409D01*
X457406Y443460D01*
X457431Y443524D01*
X457432Y443530D01*
X457968Y443895D01*
X457993Y443920D01*
X458028Y443942D01*
X458503Y444384D01*
X458509Y444383D01*
X458579Y444395D01*
X458649Y444398D01*
X458679Y444411D01*
X458707Y444415D01*
X458751Y444443D01*
X458814Y444471D01*
X459934Y445234D01*
X459994Y445296D01*
X460058Y445355D01*
X460064Y445368D01*
X460074Y445378D01*
X460106Y445458D01*
X460142Y445537D01*
X460143Y445551D01*
X460148Y445564D01*
X460146Y445651D01*
X460149Y445737D01*
X460144Y445751D01*
X460143Y445764D01*
X460121Y445815D01*
X460088Y445907D01*
X441197Y478627D01*
X442516Y479251D01*
X442538Y479268D01*
X442565Y479278D01*
X442617Y479327D01*
X442675Y479370D01*
X442689Y479395D01*
X442710Y479414D01*
X442739Y479480D01*
X442775Y479542D01*
X442778Y479570D01*
X442790Y479596D01*
X442791Y479668D01*
X442800Y479739D01*
X442792Y479766D01*
X442793Y479795D01*
X442757Y479890D01*
X442746Y479930D01*
X442739Y479939D01*
X442735Y479951D01*
X433235Y496451D01*
X433183Y496510D01*
X433137Y496572D01*
X433118Y496583D01*
X433103Y496600D01*
X433033Y496634D01*
X432966Y496674D01*
X432942Y496678D01*
X432924Y496686D01*
X432879Y496688D01*
X432802Y496701D01*
X413802Y496701D01*
X413774Y496696D01*
X413746Y496698D01*
X413678Y496676D01*
X413607Y496662D01*
X413584Y496646D01*
X413557Y496637D01*
X413502Y496590D01*
X413443Y496549D01*
X413428Y496525D01*
X413407Y496507D01*
X413375Y496442D01*
X413336Y496382D01*
X413331Y496354D01*
X413319Y496328D01*
X413310Y496227D01*
X413303Y496185D01*
X413305Y496175D01*
X413304Y496162D01*
X413422Y494685D01*
X375589Y494685D01*
X375504Y494668D01*
X375419Y494656D01*
X375407Y494648D01*
X375393Y494646D01*
X375321Y494597D01*
X375247Y494552D01*
X375239Y494541D01*
X375227Y494533D01*
X375180Y494461D01*
X375129Y494390D01*
X375125Y494376D01*
X375118Y494365D01*
X375108Y494310D01*
X375084Y494216D01*
X374982Y492857D01*
X374991Y492787D01*
X374991Y492717D01*
X375003Y492686D01*
X375007Y492658D01*
X375032Y492614D01*
X375058Y492550D01*
X375061Y492545D01*
X374917Y491912D01*
X374916Y491878D01*
X374905Y491837D01*
X374857Y491190D01*
X374853Y491187D01*
X374809Y491131D01*
X374760Y491081D01*
X374747Y491051D01*
X374730Y491028D01*
X374716Y490979D01*
X374689Y490915D01*
X374162Y488605D01*
X374160Y488535D01*
X374150Y488465D01*
X374157Y488433D01*
X374157Y488405D01*
X374175Y488357D01*
X374191Y488290D01*
X374194Y488285D01*
X373957Y487681D01*
X373950Y487646D01*
X373934Y487608D01*
X373790Y486975D01*
X373785Y486972D01*
X373734Y486924D01*
X373677Y486882D01*
X373660Y486854D01*
X373640Y486834D01*
X373619Y486787D01*
X373583Y486728D01*
X372717Y484523D01*
X372705Y484453D01*
X372685Y484386D01*
X372687Y484353D01*
X372682Y484326D01*
X372694Y484275D01*
X372700Y484206D01*
X372701Y484201D01*
X372377Y483639D01*
X372365Y483606D01*
X372344Y483571D01*
X372107Y482967D01*
X372101Y482965D01*
X372044Y482924D01*
X371981Y482891D01*
X371960Y482866D01*
X371937Y482850D01*
X371910Y482806D01*
X371865Y482753D01*
X370680Y480702D01*
X370658Y480635D01*
X370628Y480571D01*
X370625Y480538D01*
X370617Y480512D01*
X370620Y480460D01*
X370616Y480391D01*
X370616Y480386D01*
X370212Y479878D01*
X370196Y479847D01*
X370169Y479816D01*
X369845Y479254D01*
X369839Y479252D01*
X369776Y479221D01*
X369710Y479197D01*
X369685Y479176D01*
X369660Y479163D01*
X369626Y479124D01*
X369590Y479092D01*
X369587Y479090D01*
X369586Y479089D01*
X369574Y479079D01*
X368097Y477226D01*
X368065Y477164D01*
X368025Y477105D01*
X368018Y477073D01*
X368005Y477048D01*
X368001Y476997D01*
X367987Y476929D01*
X367986Y476924D01*
X367511Y476482D01*
X367490Y476454D01*
X367459Y476427D01*
X367055Y475919D01*
X367049Y475919D01*
X366982Y475897D01*
X366913Y475884D01*
X366885Y475866D01*
X366858Y475857D01*
X366819Y475824D01*
X366761Y475786D01*
X365024Y474175D01*
X364983Y474118D01*
X364935Y474066D01*
X364923Y474035D01*
X364907Y474012D01*
X364895Y473962D01*
X364871Y473897D01*
X364870Y473892D01*
X364334Y473527D01*
X364309Y473502D01*
X364274Y473479D01*
X363799Y473038D01*
X363793Y473038D01*
X363724Y473027D01*
X363653Y473024D01*
X363623Y473010D01*
X363595Y473006D01*
X363552Y472979D01*
X363488Y472950D01*
X361531Y471616D01*
X361482Y471565D01*
X361427Y471521D01*
X361410Y471492D01*
X361391Y471472D01*
X361372Y471424D01*
X361338Y471364D01*
X361336Y471359D01*
X360751Y471077D01*
X360724Y471056D01*
X360686Y471039D01*
X360150Y470674D01*
X360144Y470675D01*
X360074Y470674D01*
X360003Y470682D01*
X359972Y470673D01*
X359944Y470673D01*
X359897Y470652D01*
X359830Y470634D01*
X357695Y469606D01*
X357639Y469563D01*
X357578Y469527D01*
X357558Y469502D01*
X357536Y469485D01*
X357510Y469440D01*
X357467Y469386D01*
X357464Y469381D01*
X356844Y469190D01*
X356814Y469173D01*
X356774Y469162D01*
X356189Y468880D01*
X356184Y468882D01*
X356114Y468892D01*
X356046Y468910D01*
X356013Y468906D01*
X355985Y468910D01*
X355935Y468896D01*
X355867Y468888D01*
X353603Y468190D01*
X353541Y468156D01*
X353475Y468130D01*
X353452Y468107D01*
X353427Y468094D01*
X353395Y468054D01*
X353344Y468006D01*
X353341Y468002D01*
X352700Y467905D01*
X352667Y467893D01*
X352626Y467888D01*
X352005Y467697D01*
X352001Y467700D01*
X351933Y467719D01*
X351868Y467747D01*
X351835Y467748D01*
X351808Y467756D01*
X351757Y467751D01*
X351688Y467753D01*
X351206Y467680D01*
X351142Y467657D01*
X351076Y467642D01*
X351049Y467623D01*
X351018Y467612D01*
X350968Y467565D01*
X350913Y467526D01*
X350895Y467498D01*
X350871Y467476D01*
X350843Y467414D01*
X350807Y467356D01*
X350800Y467321D01*
X350788Y467293D01*
X350786Y467243D01*
X350775Y467178D01*
X350775Y464450D01*
X334131Y447806D01*
X334127Y447800D01*
X334121Y447795D01*
X334072Y447717D01*
X334020Y447640D01*
X334019Y447632D01*
X334015Y447625D01*
X333983Y447448D01*
X333983Y444842D01*
X330874Y441733D01*
X326478Y441733D01*
X323369Y444842D01*
X323369Y449238D01*
X323955Y449824D01*
X323959Y449830D01*
X323965Y449835D01*
X324014Y449913D01*
X324066Y449991D01*
X324067Y449998D01*
X324071Y450005D01*
X324103Y450182D01*
X324103Y450712D01*
X340330Y466939D01*
X340346Y466962D01*
X340367Y466980D01*
X340401Y467045D01*
X340441Y467106D01*
X340446Y467133D01*
X340459Y467158D01*
X340465Y467231D01*
X340479Y467303D01*
X340473Y467330D01*
X340475Y467358D01*
X340452Y467427D01*
X340437Y467499D01*
X340421Y467522D01*
X340413Y467548D01*
X340365Y467604D01*
X340323Y467664D01*
X340299Y467679D01*
X340281Y467700D01*
X340201Y467741D01*
X340154Y467771D01*
X340138Y467774D01*
X340121Y467783D01*
X339778Y467888D01*
X339744Y467892D01*
X339704Y467905D01*
X339063Y468002D01*
X339060Y468006D01*
X339007Y468054D01*
X338961Y468107D01*
X338932Y468122D01*
X338911Y468141D01*
X338862Y468158D01*
X338801Y468190D01*
X336537Y468888D01*
X336467Y468895D01*
X336398Y468910D01*
X336366Y468905D01*
X336338Y468908D01*
X336288Y468893D01*
X336220Y468882D01*
X336215Y468880D01*
X335630Y469162D01*
X335597Y469170D01*
X335560Y469190D01*
X334940Y469381D01*
X334937Y469386D01*
X334892Y469440D01*
X334854Y469500D01*
X334828Y469519D01*
X334810Y469541D01*
X334765Y469565D01*
X334709Y469606D01*
X332574Y470634D01*
X332506Y470651D01*
X332440Y470677D01*
X332407Y470676D01*
X332380Y470683D01*
X332329Y470676D01*
X332260Y470675D01*
X332254Y470674D01*
X331718Y471039D01*
X331686Y471053D01*
X331653Y471077D01*
X331068Y471359D01*
X331066Y471364D01*
X331030Y471425D01*
X331002Y471489D01*
X330978Y471512D01*
X330964Y471537D01*
X330922Y471567D01*
X330873Y471616D01*
X328916Y472950D01*
X328851Y472978D01*
X328789Y473013D01*
X328757Y473017D01*
X328731Y473028D01*
X328680Y473028D01*
X328611Y473038D01*
X328605Y473038D01*
X328130Y473479D01*
X328100Y473497D01*
X328070Y473527D01*
X327534Y473892D01*
X327533Y473897D01*
X327507Y473963D01*
X327488Y474031D01*
X327468Y474057D01*
X327458Y474083D01*
X327421Y474120D01*
X327380Y474175D01*
X325643Y475786D01*
X325583Y475823D01*
X325528Y475867D01*
X325496Y475876D01*
X325472Y475891D01*
X325421Y475899D01*
X325355Y475919D01*
X325349Y475919D01*
X324945Y476427D01*
X324918Y476449D01*
X324893Y476482D01*
X324418Y476924D01*
X324417Y476929D01*
X324401Y476998D01*
X324393Y477068D01*
X324377Y477097D01*
X324371Y477124D01*
X324340Y477165D01*
X324307Y477226D01*
X322830Y479079D01*
X322808Y479097D01*
X322803Y479105D01*
X322788Y479113D01*
X322776Y479124D01*
X322728Y479175D01*
X322698Y479189D01*
X322677Y479207D01*
X322627Y479223D01*
X322565Y479252D01*
X322559Y479254D01*
X322235Y479816D01*
X322212Y479842D01*
X322192Y479878D01*
X321788Y480386D01*
X321788Y480391D01*
X321782Y480462D01*
X321784Y480532D01*
X321773Y480563D01*
X321771Y480591D01*
X321747Y480637D01*
X321724Y480702D01*
X320539Y482753D01*
X320492Y482806D01*
X320452Y482864D01*
X320425Y482883D01*
X320406Y482904D01*
X320360Y482926D01*
X320303Y482965D01*
X320297Y482967D01*
X320060Y483571D01*
X320042Y483600D01*
X320027Y483639D01*
X319703Y484201D01*
X319704Y484206D01*
X319709Y484277D01*
X319722Y484346D01*
X319715Y484378D01*
X319717Y484406D01*
X319700Y484455D01*
X319687Y484523D01*
X318821Y486728D01*
X318783Y486788D01*
X318752Y486851D01*
X318728Y486873D01*
X318713Y486897D01*
X318670Y486926D01*
X318619Y486973D01*
X318614Y486975D01*
X318470Y487608D01*
X318456Y487640D01*
X318447Y487681D01*
X318210Y488285D01*
X318213Y488290D01*
X318227Y488359D01*
X318250Y488425D01*
X318249Y488458D01*
X318255Y488486D01*
X318245Y488536D01*
X318242Y488605D01*
X317715Y490915D01*
X317686Y490979D01*
X317665Y491047D01*
X317644Y491072D01*
X317633Y491098D01*
X317595Y491133D01*
X317551Y491187D01*
X317547Y491190D01*
X317499Y491837D01*
X317489Y491871D01*
X317487Y491912D01*
X317343Y492545D01*
X317346Y492550D01*
X317371Y492616D01*
X317404Y492678D01*
X317407Y492711D01*
X317417Y492737D01*
X317415Y492789D01*
X317422Y492857D01*
X317320Y494216D01*
X317297Y494299D01*
X317278Y494384D01*
X317270Y494395D01*
X317266Y494409D01*
X317213Y494476D01*
X317162Y494547D01*
X317150Y494555D01*
X317142Y494566D01*
X317066Y494607D01*
X316992Y494653D01*
X316977Y494656D01*
X316966Y494662D01*
X316910Y494668D01*
X316815Y494685D01*
X278982Y494685D01*
X279100Y496162D01*
X279096Y496191D01*
X279101Y496219D01*
X279084Y496288D01*
X279076Y496360D01*
X279062Y496384D01*
X279055Y496412D01*
X279012Y496470D01*
X278977Y496532D01*
X278954Y496549D01*
X278937Y496572D01*
X278875Y496609D01*
X278818Y496652D01*
X278790Y496659D01*
X278766Y496674D01*
X278666Y496690D01*
X278625Y496701D01*
X278615Y496699D01*
X278602Y496701D01*
X259602Y496701D01*
X259526Y496686D01*
X259448Y496677D01*
X259429Y496666D01*
X259407Y496662D01*
X259343Y496618D01*
X259275Y496579D01*
X259259Y496560D01*
X259243Y496549D01*
X259219Y496511D01*
X259169Y496451D01*
X249669Y479951D01*
X249660Y479924D01*
X249644Y479900D01*
X249629Y479830D01*
X249606Y479762D01*
X249609Y479734D01*
X249603Y479706D01*
X249617Y479636D01*
X249622Y479564D01*
X249635Y479539D01*
X249641Y479511D01*
X249681Y479451D01*
X249714Y479388D01*
X249736Y479370D01*
X249752Y479346D01*
X249835Y479288D01*
X249867Y479261D01*
X249878Y479258D01*
X249889Y479251D01*
X251207Y478627D01*
X232316Y445907D01*
X232289Y445825D01*
X232257Y445744D01*
X232257Y445730D01*
X232252Y445717D01*
X232259Y445630D01*
X232260Y445544D01*
X232266Y445531D01*
X232267Y445517D01*
X232306Y445440D01*
X232342Y445360D01*
X232352Y445350D01*
X232358Y445338D01*
X232401Y445302D01*
X232470Y445234D01*
X233590Y444471D01*
X233655Y444444D01*
X233717Y444409D01*
X233749Y444404D01*
X233775Y444393D01*
X233827Y444393D01*
X233895Y444383D01*
X233901Y444383D01*
X234376Y443942D01*
X234406Y443924D01*
X234436Y443895D01*
X234972Y443530D01*
X234973Y443524D01*
X235000Y443459D01*
X235018Y443391D01*
X235038Y443365D01*
X235048Y443339D01*
X235085Y443302D01*
X235126Y443247D01*
X236865Y441634D01*
X236926Y441598D01*
X236981Y441554D01*
X237012Y441544D01*
X237036Y441530D01*
X237087Y441522D01*
X237154Y441502D01*
X237159Y441502D01*
X237564Y440994D01*
X237590Y440972D01*
X237615Y440939D01*
X238091Y440498D01*
X238091Y440492D01*
X238108Y440424D01*
X238116Y440353D01*
X238132Y440325D01*
X238138Y440297D01*
X238169Y440256D01*
X238202Y440195D01*
X239681Y438341D01*
X239708Y438319D01*
X239726Y438293D01*
X239754Y438276D01*
X239783Y438245D01*
X239813Y438231D01*
X239834Y438213D01*
X239877Y438199D01*
X239896Y438187D01*
X239910Y438185D01*
X239946Y438168D01*
X239952Y438166D01*
X240276Y437604D01*
X240299Y437578D01*
X240319Y437542D01*
X240724Y437035D01*
X240723Y437029D01*
X240729Y436959D01*
X240727Y436888D01*
X240738Y436857D01*
X240740Y436829D01*
X240764Y436784D01*
X240788Y436719D01*
X241974Y434665D01*
X242021Y434612D01*
X242061Y434554D01*
X242088Y434536D01*
X242107Y434515D01*
X242153Y434493D01*
X242211Y434454D01*
X242216Y434452D01*
X242453Y433848D01*
X242472Y433819D01*
X242486Y433780D01*
X242811Y433218D01*
X242809Y433213D01*
X242805Y433142D01*
X242792Y433073D01*
X242798Y433041D01*
X242797Y433013D01*
X242814Y432964D01*
X242827Y432896D01*
X243694Y430689D01*
X243732Y430630D01*
X243763Y430566D01*
X243788Y430544D01*
X243803Y430520D01*
X243845Y430491D01*
X243897Y430445D01*
X243901Y430442D01*
X244046Y429809D01*
X244060Y429778D01*
X244068Y429738D01*
X244070Y429731D01*
X244074Y429725D01*
X244075Y429719D01*
X244109Y429670D01*
X244128Y429627D01*
X244151Y429605D01*
X244179Y429562D01*
X244184Y429558D01*
X244188Y429553D01*
X244252Y429511D01*
X244275Y429490D01*
X244294Y429483D01*
X244344Y429449D01*
X244351Y429447D01*
X244356Y429444D01*
X244445Y429428D01*
X244463Y429421D01*
X244475Y429422D01*
X244540Y429408D01*
X244547Y429409D01*
X244553Y429408D01*
X244645Y429429D01*
X244651Y429430D01*
X244663Y429430D01*
X244670Y429433D01*
X244737Y429447D01*
X244743Y429450D01*
X244749Y429452D01*
X244826Y429506D01*
X244833Y429511D01*
X244844Y429516D01*
X244849Y429522D01*
X244903Y429558D01*
X244907Y429564D01*
X244912Y429568D01*
X244962Y429647D01*
X244964Y429650D01*
X244978Y429666D01*
X244982Y429678D01*
X245014Y429726D01*
X245015Y429732D01*
X245018Y429738D01*
X245036Y429834D01*
X245043Y429855D01*
X245042Y429871D01*
X245050Y429915D01*
X245050Y442879D01*
X245036Y442952D01*
X245029Y443025D01*
X245016Y443049D01*
X245011Y443076D01*
X244969Y443137D01*
X244934Y443202D01*
X244912Y443221D01*
X244898Y443241D01*
X244853Y443271D01*
X244797Y443318D01*
X241940Y444968D01*
X241613Y446188D01*
X247244Y455942D01*
X248464Y456269D01*
X259084Y450138D01*
X259411Y448917D01*
X254518Y440441D01*
X254504Y440401D01*
X254487Y440374D01*
X254485Y440371D01*
X254482Y440365D01*
X254470Y440299D01*
X254454Y440251D01*
X254456Y440222D01*
X254450Y440188D01*
X254450Y389987D01*
X251548Y387086D01*
X245046Y380583D01*
X245026Y380554D01*
X245000Y380531D01*
X244971Y380472D01*
X244935Y380416D01*
X244928Y380382D01*
X244913Y380351D01*
X244910Y380285D01*
X244897Y380219D01*
X244904Y380185D01*
X244903Y380151D01*
X244925Y380088D01*
X244939Y380023D01*
X244959Y379995D01*
X244970Y379962D01*
X245015Y379913D01*
X245053Y379859D01*
X245082Y379840D01*
X245106Y379814D01*
X245166Y379787D01*
X245222Y379751D01*
X245257Y379745D01*
X245288Y379731D01*
X245354Y379729D01*
X245420Y379718D01*
X245454Y379726D01*
X245488Y379724D01*
X245562Y379751D01*
X245615Y379763D01*
X245635Y379777D01*
X245658Y379785D01*
X249976Y382278D01*
X250467Y382147D01*
X250473Y382146D01*
X250477Y382144D01*
X250572Y382140D01*
X250667Y382134D01*
X250672Y382136D01*
X250678Y382136D01*
X250767Y382169D01*
X250857Y382200D01*
X250861Y382203D01*
X250866Y382205D01*
X250935Y382270D01*
X251006Y382334D01*
X251008Y382339D01*
X251012Y382342D01*
X251089Y382505D01*
X251220Y382997D01*
X260974Y388628D01*
X261466Y388497D01*
X261471Y388496D01*
X261476Y388494D01*
X261571Y388490D01*
X261666Y388484D01*
X261671Y388486D01*
X261676Y388486D01*
X261765Y388519D01*
X261855Y388550D01*
X261859Y388553D01*
X261864Y388555D01*
X261933Y388620D01*
X262004Y388684D01*
X262007Y388689D01*
X262010Y388692D01*
X262087Y388855D01*
X262219Y389347D01*
X271973Y394978D01*
X272464Y394847D01*
X272470Y394846D01*
X272474Y394844D01*
X272569Y394840D01*
X272665Y394834D01*
X272669Y394836D01*
X272675Y394836D01*
X272764Y394869D01*
X272854Y394900D01*
X272858Y394903D01*
X272863Y394905D01*
X272933Y394971D01*
X273003Y395034D01*
X273005Y395039D01*
X273009Y395042D01*
X273086Y395205D01*
X273217Y395697D01*
X282972Y401328D01*
X284192Y401001D01*
X291173Y388909D01*
X290846Y387689D01*
X281092Y382057D01*
X280601Y382189D01*
X280595Y382189D01*
X280591Y382192D01*
X280496Y382196D01*
X280401Y382202D01*
X280396Y382200D01*
X280390Y382200D01*
X280301Y382167D01*
X280211Y382136D01*
X280207Y382132D01*
X280202Y382130D01*
X280133Y382065D01*
X280062Y382002D01*
X280060Y381997D01*
X280056Y381993D01*
X279979Y381830D01*
X279848Y381339D01*
X270094Y375707D01*
X269602Y375839D01*
X269597Y375839D01*
X269592Y375842D01*
X269497Y375846D01*
X269402Y375852D01*
X269397Y375850D01*
X269392Y375850D01*
X269302Y375817D01*
X269213Y375786D01*
X269209Y375782D01*
X269204Y375780D01*
X269134Y375715D01*
X269064Y375652D01*
X269062Y375647D01*
X269058Y375643D01*
X268981Y375480D01*
X268849Y374989D01*
X259095Y369357D01*
X258604Y369489D01*
X258598Y369489D01*
X258594Y369492D01*
X258499Y369496D01*
X258404Y369502D01*
X258399Y369500D01*
X258393Y369500D01*
X258304Y369467D01*
X258214Y369436D01*
X258210Y369432D01*
X258205Y369430D01*
X258136Y369365D01*
X258065Y369302D01*
X258063Y369297D01*
X258059Y369293D01*
X257982Y369130D01*
X257851Y368639D01*
X248097Y363007D01*
X247605Y363139D01*
X247600Y363139D01*
X247595Y363142D01*
X247500Y363146D01*
X247405Y363152D01*
X247400Y363150D01*
X247395Y363150D01*
X247305Y363117D01*
X247216Y363086D01*
X247212Y363082D01*
X247207Y363080D01*
X247137Y363015D01*
X247067Y362952D01*
X247064Y362947D01*
X247061Y362943D01*
X246984Y362780D01*
X246852Y362289D01*
X237098Y356657D01*
X236607Y356789D01*
X236601Y356789D01*
X236597Y356792D01*
X236502Y356796D01*
X236407Y356802D01*
X236402Y356800D01*
X236396Y356800D01*
X236307Y356767D01*
X236217Y356736D01*
X236213Y356732D01*
X236208Y356730D01*
X236139Y356665D01*
X236068Y356602D01*
X236066Y356597D01*
X236062Y356593D01*
X235985Y356430D01*
X235854Y355939D01*
X226100Y350307D01*
X224879Y350634D01*
X217898Y362727D01*
X218225Y363947D01*
X227979Y369578D01*
X228470Y369447D01*
X228476Y369446D01*
X228480Y369444D01*
X228575Y369440D01*
X228670Y369434D01*
X228675Y369436D01*
X228681Y369436D01*
X228770Y369469D01*
X228860Y369500D01*
X228864Y369503D01*
X228869Y369505D01*
X228938Y369570D01*
X229009Y369634D01*
X229011Y369639D01*
X229015Y369642D01*
X229092Y369805D01*
X229223Y370297D01*
X229502Y370458D01*
X229509Y370463D01*
X229517Y370466D01*
X229584Y370530D01*
X229653Y370590D01*
X229656Y370598D01*
X229663Y370604D01*
X229700Y370688D01*
X229740Y370771D01*
X229740Y370779D01*
X229744Y370787D01*
X229746Y370879D01*
X229751Y370971D01*
X229748Y370979D01*
X229748Y370987D01*
X229685Y371156D01*
X229536Y371407D01*
X229533Y371410D01*
X229531Y371415D01*
X229466Y371484D01*
X229402Y371556D01*
X229397Y371558D01*
X229394Y371561D01*
X229231Y371638D01*
X226787Y372293D01*
X225663Y374239D01*
X225600Y374310D01*
X225539Y374383D01*
X225534Y374385D01*
X225531Y374390D01*
X225445Y374431D01*
X225361Y374474D01*
X225355Y374474D01*
X225350Y374477D01*
X225255Y374482D01*
X225161Y374489D01*
X225155Y374487D01*
X225150Y374487D01*
X225109Y374473D01*
X224989Y374435D01*
X224183Y374013D01*
X224171Y374003D01*
X224156Y373998D01*
X224093Y373941D01*
X224027Y373887D01*
X224020Y373873D01*
X224008Y373862D01*
X223973Y373785D01*
X223932Y373710D01*
X223931Y373695D01*
X223924Y373680D01*
X223922Y373595D01*
X223914Y373511D01*
X223918Y373496D01*
X223918Y373480D01*
X223961Y373361D01*
X223974Y373320D01*
X223977Y373316D01*
X223979Y373310D01*
X224033Y373217D01*
X223706Y371997D01*
X213085Y365866D01*
X211865Y366193D01*
X206234Y375947D01*
X206561Y377167D01*
X217181Y383298D01*
X218401Y382971D01*
X218767Y382337D01*
X218830Y382266D01*
X218891Y382193D01*
X218896Y382191D01*
X218900Y382186D01*
X218985Y382145D01*
X219070Y382102D01*
X219075Y382102D01*
X219080Y382099D01*
X219176Y382094D01*
X219270Y382087D01*
X219275Y382089D01*
X219281Y382089D01*
X219321Y382103D01*
X219442Y382141D01*
X220248Y382563D01*
X220260Y382573D01*
X220275Y382578D01*
X220337Y382635D01*
X220403Y382689D01*
X220411Y382703D01*
X220423Y382714D01*
X220458Y382791D01*
X220498Y382866D01*
X220500Y382881D01*
X220506Y382896D01*
X220509Y382981D01*
X220517Y383065D01*
X220512Y383080D01*
X220513Y383096D01*
X220470Y383215D01*
X220457Y383256D01*
X220454Y383260D01*
X220452Y383266D01*
X219620Y384706D01*
X220483Y387927D01*
X227700Y392094D01*
X230021Y391472D01*
X230092Y391468D01*
X230162Y391455D01*
X230191Y391462D01*
X230221Y391460D01*
X230288Y391483D01*
X230358Y391499D01*
X230382Y391516D01*
X230410Y391526D01*
X230463Y391574D01*
X230521Y391615D01*
X230537Y391640D01*
X230559Y391660D01*
X230590Y391724D01*
X230627Y391785D01*
X230633Y391816D01*
X230645Y391841D01*
X230647Y391893D01*
X230659Y391962D01*
X230659Y394628D01*
X230938Y394907D01*
X230968Y394952D01*
X231006Y394990D01*
X231023Y395035D01*
X231049Y395074D01*
X231059Y395127D01*
X231079Y395177D01*
X231078Y395224D01*
X231087Y395271D01*
X231076Y395324D01*
X231075Y395377D01*
X231055Y395421D01*
X231045Y395467D01*
X231015Y395511D01*
X230993Y395560D01*
X230958Y395593D01*
X230931Y395632D01*
X230886Y395661D01*
X230846Y395697D01*
X230802Y395714D01*
X230762Y395739D01*
X230709Y395748D01*
X230659Y395767D01*
X230611Y395765D01*
X230564Y395773D01*
X230512Y395761D01*
X230458Y395758D01*
X230410Y395737D01*
X230369Y395727D01*
X230333Y395703D01*
X230294Y395685D01*
X230265Y395665D01*
X230260Y395666D01*
X230189Y395666D01*
X230119Y395673D01*
X230088Y395664D01*
X230060Y395664D01*
X230012Y395643D01*
X229946Y395625D01*
X227809Y394595D01*
X227753Y394553D01*
X227692Y394517D01*
X227672Y394491D01*
X227650Y394474D01*
X227624Y394430D01*
X227581Y394375D01*
X227579Y394370D01*
X226958Y394179D01*
X226928Y394162D01*
X226888Y394151D01*
X226303Y393870D01*
X226298Y393871D01*
X226228Y393881D01*
X226160Y393899D01*
X226127Y393895D01*
X226100Y393899D01*
X226050Y393886D01*
X225981Y393877D01*
X223715Y393178D01*
X223653Y393144D01*
X223588Y393118D01*
X223564Y393095D01*
X223539Y393082D01*
X223507Y393041D01*
X223457Y392994D01*
X223454Y392989D01*
X222812Y392893D01*
X222779Y392881D01*
X222738Y392876D01*
X222118Y392684D01*
X222113Y392687D01*
X222045Y392707D01*
X221981Y392735D01*
X221948Y392736D01*
X221921Y392744D01*
X221870Y392738D01*
X221800Y392740D01*
X219456Y392386D01*
X219389Y392361D01*
X219321Y392345D01*
X219294Y392327D01*
X219267Y392317D01*
X219229Y392282D01*
X219173Y392243D01*
X219169Y392239D01*
X218520Y392239D01*
X218486Y392232D01*
X218444Y392233D01*
X217803Y392136D01*
X217798Y392139D01*
X217734Y392169D01*
X217674Y392206D01*
X217642Y392212D01*
X217617Y392224D01*
X217565Y392226D01*
X217497Y392238D01*
X215126Y392237D01*
X215056Y392223D01*
X214986Y392218D01*
X214957Y392203D01*
X214929Y392198D01*
X214886Y392169D01*
X214824Y392138D01*
X214820Y392135D01*
X214178Y392231D01*
X214144Y392230D01*
X214103Y392237D01*
X213454Y392237D01*
X213450Y392241D01*
X213391Y392280D01*
X213337Y392326D01*
X213306Y392336D01*
X213283Y392352D01*
X213232Y392361D01*
X213167Y392384D01*
X210822Y392736D01*
X210751Y392733D01*
X210681Y392738D01*
X210650Y392728D01*
X210622Y392726D01*
X210575Y392704D01*
X210509Y392683D01*
X210504Y392680D01*
X209884Y392872D01*
X209850Y392875D01*
X209810Y392888D01*
X209169Y392985D01*
X209165Y392989D01*
X209113Y393037D01*
X209067Y393090D01*
X209038Y393105D01*
X209017Y393124D01*
X208968Y393141D01*
X208907Y393173D01*
X206640Y393871D01*
X206570Y393878D01*
X206501Y393893D01*
X206469Y393888D01*
X206441Y393891D01*
X206392Y393876D01*
X206323Y393865D01*
X206318Y393863D01*
X205733Y394145D01*
X205700Y394153D01*
X205663Y394172D01*
X205043Y394363D01*
X205040Y394368D01*
X204996Y394423D01*
X204958Y394482D01*
X204931Y394502D01*
X204913Y394523D01*
X204868Y394547D01*
X204812Y394588D01*
X203574Y395184D01*
X203490Y395205D01*
X203407Y395231D01*
X203393Y395230D01*
X203380Y395233D01*
X203294Y395220D01*
X203208Y395212D01*
X203195Y395206D01*
X203181Y395204D01*
X203108Y395159D01*
X203031Y395118D01*
X203021Y395106D01*
X203010Y395099D01*
X202977Y395055D01*
X202915Y394980D01*
X174900Y346456D01*
X174876Y346386D01*
X174845Y346318D01*
X174844Y346291D01*
X174836Y346266D01*
X174841Y346192D01*
X174839Y346118D01*
X174849Y346091D01*
X174850Y346066D01*
X174875Y346018D01*
X174900Y345948D01*
X260331Y197972D01*
X260380Y197917D01*
X260423Y197857D01*
X260446Y197842D01*
X260464Y197822D01*
X260530Y197790D01*
X260593Y197751D01*
X260622Y197746D01*
X260644Y197735D01*
X260698Y197732D01*
X260771Y197719D01*
X316815Y197719D01*
X316900Y197736D01*
X316985Y197748D01*
X316997Y197756D01*
X317011Y197758D01*
X317083Y197807D01*
X317157Y197852D01*
X317165Y197863D01*
X317177Y197871D01*
X317224Y197943D01*
X317275Y198014D01*
X317279Y198028D01*
X317286Y198039D01*
X317296Y198094D01*
X317320Y198188D01*
X317422Y199547D01*
X317413Y199617D01*
X317413Y199687D01*
X317401Y199718D01*
X317397Y199746D01*
X317372Y199790D01*
X317346Y199854D01*
X317343Y199859D01*
X317487Y200492D01*
X317488Y200526D01*
X317499Y200567D01*
X317547Y201214D01*
X317551Y201217D01*
X317595Y201273D01*
X317644Y201323D01*
X317657Y201353D01*
X317674Y201375D01*
X317688Y201425D01*
X317715Y201489D01*
X318242Y203799D01*
X318244Y203869D01*
X318254Y203939D01*
X318247Y203971D01*
X318247Y203999D01*
X318229Y204047D01*
X318213Y204114D01*
X318210Y204119D01*
X318447Y204723D01*
X318454Y204758D01*
X318470Y204796D01*
X318614Y205429D01*
X318619Y205431D01*
X318670Y205480D01*
X318727Y205522D01*
X318744Y205550D01*
X318764Y205570D01*
X318785Y205617D01*
X318821Y205676D01*
X319687Y207881D01*
X319699Y207951D01*
X319719Y208018D01*
X319717Y208051D01*
X319722Y208078D01*
X319710Y208129D01*
X319704Y208198D01*
X319703Y208203D01*
X320027Y208765D01*
X320039Y208798D01*
X320060Y208833D01*
X320297Y209437D01*
X320303Y209439D01*
X320360Y209480D01*
X320423Y209513D01*
X320444Y209538D01*
X320467Y209554D01*
X320494Y209598D01*
X320539Y209651D01*
X321724Y211702D01*
X321733Y211730D01*
X321736Y211735D01*
X321738Y211745D01*
X321746Y211769D01*
X321776Y211833D01*
X321779Y211866D01*
X321787Y211892D01*
X321784Y211944D01*
X321788Y212013D01*
X321788Y212018D01*
X322192Y212526D01*
X322208Y212557D01*
X322235Y212588D01*
X322559Y213150D01*
X322565Y213152D01*
X322628Y213183D01*
X322694Y213207D01*
X322719Y213228D01*
X322744Y213241D01*
X322778Y213280D01*
X322830Y213325D01*
X324307Y215178D01*
X324339Y215240D01*
X324379Y215299D01*
X324386Y215331D01*
X324399Y215356D01*
X324403Y215407D01*
X324417Y215475D01*
X324418Y215480D01*
X324893Y215922D01*
X324914Y215950D01*
X324945Y215977D01*
X325349Y216485D01*
X325355Y216485D01*
X325422Y216507D01*
X325491Y216520D01*
X325519Y216538D01*
X325546Y216547D01*
X325585Y216580D01*
X325643Y216618D01*
X327380Y218229D01*
X327421Y218286D01*
X327469Y218338D01*
X327481Y218369D01*
X327497Y218392D01*
X327509Y218442D01*
X327533Y218507D01*
X327534Y218512D01*
X328070Y218877D01*
X328095Y218902D01*
X328130Y218925D01*
X328605Y219366D01*
X328611Y219366D01*
X328680Y219377D01*
X328751Y219380D01*
X328781Y219394D01*
X328809Y219398D01*
X328852Y219425D01*
X328916Y219454D01*
X330873Y220788D01*
X330922Y220839D01*
X330977Y220883D01*
X330994Y220912D01*
X331013Y220932D01*
X331032Y220980D01*
X331066Y221040D01*
X331068Y221045D01*
X331653Y221327D01*
X331680Y221348D01*
X331718Y221365D01*
X332254Y221730D01*
X332260Y221729D01*
X332330Y221730D01*
X332401Y221722D01*
X332432Y221731D01*
X332460Y221731D01*
X332507Y221752D01*
X332574Y221770D01*
X334709Y222798D01*
X334765Y222841D01*
X334826Y222877D01*
X334846Y222902D01*
X334868Y222919D01*
X334894Y222964D01*
X334937Y223018D01*
X334940Y223023D01*
X335560Y223214D01*
X335590Y223231D01*
X335630Y223242D01*
X336215Y223524D01*
X336220Y223522D01*
X336290Y223512D01*
X336358Y223494D01*
X336391Y223498D01*
X336419Y223494D01*
X336469Y223508D01*
X336537Y223516D01*
X338801Y224214D01*
X338863Y224248D01*
X338929Y224274D01*
X338952Y224297D01*
X338977Y224310D01*
X339009Y224350D01*
X339060Y224398D01*
X339063Y224402D01*
X339705Y224499D01*
X339737Y224511D01*
X339778Y224516D01*
X340399Y224707D01*
X340403Y224704D01*
X340471Y224684D01*
X340536Y224657D01*
X340569Y224656D01*
X340596Y224648D01*
X340647Y224653D01*
X340716Y224651D01*
X343059Y225004D01*
X343125Y225029D01*
X343194Y225045D01*
X343221Y225063D01*
X343247Y225073D01*
X343285Y225108D01*
X343342Y225147D01*
X343346Y225151D01*
X343995Y225151D01*
X344029Y225158D01*
X344070Y225157D01*
X344712Y225254D01*
X344716Y225250D01*
X344780Y225221D01*
X344840Y225183D01*
X344872Y225177D01*
X344898Y225166D01*
X344949Y225164D01*
X345017Y225151D01*
X347387Y225151D01*
X347456Y225165D01*
X347526Y225171D01*
X347556Y225185D01*
X347583Y225191D01*
X347626Y225220D01*
X347688Y225250D01*
X347692Y225254D01*
X348334Y225157D01*
X348369Y225159D01*
X348409Y225151D01*
X349058Y225151D01*
X349062Y225147D01*
X349121Y225108D01*
X349175Y225062D01*
X349206Y225052D01*
X349229Y225036D01*
X349280Y225027D01*
X349345Y225004D01*
X351688Y224651D01*
X351758Y224655D01*
X351829Y224650D01*
X351860Y224660D01*
X351888Y224661D01*
X351935Y224684D01*
X352001Y224704D01*
X352005Y224707D01*
X352626Y224516D01*
X352660Y224512D01*
X352700Y224499D01*
X353341Y224402D01*
X353344Y224398D01*
X353397Y224350D01*
X353443Y224297D01*
X353472Y224282D01*
X353493Y224263D01*
X353542Y224246D01*
X353603Y224214D01*
X355867Y223516D01*
X355937Y223509D01*
X356006Y223494D01*
X356038Y223499D01*
X356066Y223496D01*
X356116Y223511D01*
X356184Y223522D01*
X356189Y223524D01*
X356774Y223242D01*
X356807Y223234D01*
X356844Y223214D01*
X357464Y223023D01*
X357467Y223018D01*
X357512Y222964D01*
X357550Y222904D01*
X357576Y222885D01*
X357594Y222863D01*
X357639Y222839D01*
X357695Y222798D01*
X359830Y221770D01*
X359898Y221753D01*
X359964Y221727D01*
X359997Y221728D01*
X360024Y221721D01*
X360075Y221728D01*
X360144Y221729D01*
X360150Y221730D01*
X360686Y221365D01*
X360718Y221351D01*
X360751Y221327D01*
X361336Y221045D01*
X361338Y221040D01*
X361374Y220979D01*
X361403Y220915D01*
X361426Y220892D01*
X361440Y220867D01*
X361482Y220837D01*
X361531Y220788D01*
X363488Y219454D01*
X363553Y219426D01*
X363615Y219391D01*
X363647Y219387D01*
X363673Y219376D01*
X363724Y219376D01*
X363793Y219366D01*
X363799Y219366D01*
X364274Y218925D01*
X364304Y218907D01*
X364334Y218877D01*
X364870Y218512D01*
X364871Y218506D01*
X364897Y218441D01*
X364916Y218373D01*
X364936Y218347D01*
X364946Y218321D01*
X364983Y218284D01*
X365024Y218229D01*
X366761Y216618D01*
X366821Y216581D01*
X366876Y216537D01*
X366908Y216528D01*
X366932Y216513D01*
X366983Y216505D01*
X367049Y216485D01*
X367055Y216485D01*
X367459Y215977D01*
X367486Y215955D01*
X367511Y215922D01*
X367986Y215480D01*
X367987Y215475D01*
X368003Y215406D01*
X368011Y215336D01*
X368027Y215307D01*
X368033Y215280D01*
X368064Y215239D01*
X368097Y215178D01*
X369574Y213325D01*
X369628Y213280D01*
X369676Y213229D01*
X369706Y213215D01*
X369727Y213197D01*
X369777Y213181D01*
X369839Y213152D01*
X369845Y213150D01*
X370169Y212588D01*
X370192Y212562D01*
X370212Y212526D01*
X370547Y212105D01*
X370573Y212084D01*
X370592Y212056D01*
X370649Y212020D01*
X370700Y211976D01*
X370733Y211966D01*
X370761Y211948D01*
X370828Y211937D01*
X370892Y211917D01*
X370926Y211920D01*
X370959Y211915D01*
X371024Y211930D01*
X371091Y211936D01*
X371121Y211953D01*
X371154Y211960D01*
X371219Y212005D01*
X371268Y212032D01*
X371281Y212049D01*
X371302Y212063D01*
X375517Y216278D01*
X375521Y216284D01*
X375527Y216289D01*
X375576Y216367D01*
X375628Y216444D01*
X375629Y216452D01*
X375633Y216459D01*
X375665Y216636D01*
X375665Y227236D01*
X375664Y227244D01*
X375665Y227251D01*
X375644Y227341D01*
X375626Y227432D01*
X375621Y227439D01*
X375619Y227446D01*
X375517Y227594D01*
X374931Y228180D01*
X374931Y232576D01*
X378040Y235685D01*
X382436Y235685D01*
X385545Y232576D01*
X385545Y228180D01*
X384959Y227594D01*
X384955Y227588D01*
X384949Y227583D01*
X384900Y227505D01*
X384848Y227427D01*
X384847Y227420D01*
X384843Y227413D01*
X384811Y227236D01*
X384811Y212638D01*
X374696Y202524D01*
X374661Y202470D01*
X374617Y202421D01*
X374606Y202387D01*
X374585Y202357D01*
X374573Y202293D01*
X374552Y202232D01*
X374554Y202192D01*
X374548Y202160D01*
X374558Y202113D01*
X374560Y202052D01*
X374689Y201489D01*
X374718Y201425D01*
X374739Y201357D01*
X374760Y201332D01*
X374771Y201306D01*
X374809Y201271D01*
X374853Y201217D01*
X374857Y201214D01*
X374905Y200567D01*
X374915Y200533D01*
X374917Y200492D01*
X375061Y199859D01*
X375058Y199854D01*
X375033Y199788D01*
X375000Y199726D01*
X374997Y199693D01*
X374987Y199667D01*
X374989Y199615D01*
X374982Y199547D01*
X375084Y198188D01*
X375107Y198105D01*
X375126Y198020D01*
X375134Y198009D01*
X375138Y197995D01*
X375191Y197927D01*
X375242Y197857D01*
X375254Y197849D01*
X375262Y197838D01*
X375338Y197797D01*
X375412Y197751D01*
X375427Y197748D01*
X375438Y197742D01*
X375494Y197736D01*
X375589Y197719D01*
X413422Y197719D01*
X413304Y196242D01*
X413308Y196213D01*
X413303Y196185D01*
X413320Y196116D01*
X413328Y196044D01*
X413343Y196020D01*
X413349Y195992D01*
X413392Y195934D01*
X413428Y195872D01*
X413450Y195855D01*
X413467Y195832D01*
X413529Y195795D01*
X413586Y195752D01*
X413614Y195745D01*
X413638Y195730D01*
X413738Y195714D01*
X413779Y195703D01*
X413789Y195705D01*
X413802Y195703D01*
X432802Y195703D01*
X432878Y195718D01*
G37*
%LPC*%
G36*
X253743Y211657D02*
X253743Y211657D01*
X244323Y227973D01*
X208797Y289506D01*
X209015Y290320D01*
X210118Y290956D01*
X210120Y290958D01*
X210122Y290959D01*
X210194Y291024D01*
X210268Y291089D01*
X210269Y291091D01*
X210271Y291093D01*
X210312Y291180D01*
X210355Y291269D01*
X210356Y291272D01*
X210357Y291274D01*
X210361Y291371D01*
X210366Y291470D01*
X210365Y291472D01*
X210365Y291475D01*
X210331Y291567D01*
X210298Y291658D01*
X210296Y291660D01*
X210296Y291663D01*
X210228Y291734D01*
X210163Y291806D01*
X210160Y291807D01*
X210158Y291809D01*
X209995Y291886D01*
X209195Y292100D01*
X203564Y301854D01*
X203695Y302346D01*
X203696Y302351D01*
X203698Y302356D01*
X203702Y302451D01*
X203708Y302546D01*
X203706Y302551D01*
X203706Y302556D01*
X203673Y302645D01*
X203642Y302735D01*
X203639Y302739D01*
X203637Y302744D01*
X203572Y302813D01*
X203508Y302884D01*
X203503Y302886D01*
X203500Y302890D01*
X203337Y302967D01*
X202845Y303099D01*
X197214Y312853D01*
X197345Y313344D01*
X197346Y313349D01*
X197348Y313354D01*
X197352Y313449D01*
X197358Y313544D01*
X197356Y313549D01*
X197356Y313554D01*
X197323Y313644D01*
X197292Y313734D01*
X197289Y313737D01*
X197287Y313742D01*
X197222Y313812D01*
X197158Y313883D01*
X197153Y313885D01*
X197150Y313889D01*
X196987Y313965D01*
X196495Y314097D01*
X190864Y323851D01*
X191191Y325071D01*
X193083Y326164D01*
X193151Y326224D01*
X193221Y326281D01*
X193226Y326290D01*
X193234Y326297D01*
X193273Y326378D01*
X193316Y326458D01*
X193317Y326468D01*
X193321Y326477D01*
X193326Y326568D01*
X193334Y326657D01*
X193331Y326668D01*
X193332Y326677D01*
X193314Y326727D01*
X193283Y326830D01*
X190074Y333244D01*
X190043Y333284D01*
X189979Y333376D01*
X187733Y335622D01*
X187733Y340018D01*
X188192Y340477D01*
X188196Y340483D01*
X188202Y340488D01*
X188251Y340566D01*
X188303Y340644D01*
X188304Y340651D01*
X188308Y340658D01*
X188340Y340835D01*
X188340Y359596D01*
X188329Y359653D01*
X188327Y359712D01*
X188308Y359754D01*
X188301Y359792D01*
X188276Y359828D01*
X188255Y359877D01*
X188049Y360186D01*
X188330Y361588D01*
X188330Y361633D01*
X188340Y361688D01*
X188340Y363118D01*
X188603Y363380D01*
X188635Y363429D01*
X188675Y363472D01*
X188692Y363515D01*
X188714Y363547D01*
X188722Y363590D01*
X188741Y363640D01*
X188814Y364003D01*
X190004Y364796D01*
X190036Y364828D01*
X190082Y364860D01*
X191093Y365871D01*
X191464Y365871D01*
X191522Y365883D01*
X191580Y365885D01*
X191623Y365903D01*
X191661Y365911D01*
X191696Y365935D01*
X191745Y365956D01*
X191802Y365994D01*
X191865Y366057D01*
X191931Y366118D01*
X191936Y366128D01*
X191944Y366136D01*
X191977Y366218D01*
X192015Y366300D01*
X192015Y366311D01*
X192019Y366321D01*
X192018Y366411D01*
X192021Y366500D01*
X192017Y366511D01*
X192017Y366522D01*
X191995Y366572D01*
X191960Y366670D01*
X191511Y367447D01*
X191838Y368667D01*
X202458Y374798D01*
X203679Y374471D01*
X209310Y364717D01*
X208983Y363497D01*
X198358Y357363D01*
X198307Y357366D01*
X198237Y357379D01*
X198208Y357372D01*
X198178Y357374D01*
X198111Y357351D01*
X198041Y357335D01*
X198017Y357318D01*
X197989Y357308D01*
X197936Y357261D01*
X197878Y357219D01*
X197862Y357194D01*
X197840Y357174D01*
X197809Y357110D01*
X197772Y357049D01*
X197766Y357018D01*
X197754Y356993D01*
X197752Y356941D01*
X197740Y356872D01*
X197740Y340835D01*
X197741Y340827D01*
X197740Y340820D01*
X197761Y340730D01*
X197779Y340639D01*
X197784Y340632D01*
X197786Y340625D01*
X197888Y340477D01*
X198347Y340018D01*
X198347Y337837D01*
X198352Y337810D01*
X198350Y337783D01*
X198375Y337696D01*
X198386Y337640D01*
X198395Y337627D01*
X198400Y337610D01*
X201411Y331593D01*
X201424Y331576D01*
X201430Y331557D01*
X201485Y331498D01*
X201534Y331435D01*
X201552Y331425D01*
X201566Y331409D01*
X201639Y331376D01*
X201709Y331337D01*
X201730Y331334D01*
X201748Y331326D01*
X201829Y331323D01*
X201908Y331314D01*
X201928Y331320D01*
X201949Y331319D01*
X202050Y331356D01*
X202101Y331371D01*
X202108Y331377D01*
X202118Y331380D01*
X203283Y332053D01*
X204503Y331726D01*
X204749Y331300D01*
X204751Y331298D01*
X204752Y331295D01*
X204817Y331223D01*
X204881Y331150D01*
X204884Y331148D01*
X204886Y331146D01*
X204974Y331105D01*
X205062Y331063D01*
X205065Y331062D01*
X205068Y331061D01*
X205166Y331057D01*
X205262Y331052D01*
X205265Y331053D01*
X205268Y331053D01*
X205438Y331113D01*
X208447Y332817D01*
X208488Y332854D01*
X208555Y332900D01*
X211162Y335507D01*
X215558Y335507D01*
X218667Y332398D01*
X218667Y328002D01*
X215558Y324893D01*
X213662Y324893D01*
X213622Y324885D01*
X213582Y324887D01*
X213516Y324864D01*
X213465Y324854D01*
X213442Y324838D01*
X213412Y324827D01*
X210145Y322976D01*
X210140Y322971D01*
X210133Y322969D01*
X210064Y322906D01*
X209994Y322845D01*
X209990Y322838D01*
X209985Y322833D01*
X209946Y322749D01*
X209905Y322665D01*
X209905Y322658D01*
X209902Y322651D01*
X209899Y322558D01*
X209893Y322465D01*
X209895Y322458D01*
X209895Y322451D01*
X209956Y322281D01*
X210135Y321972D01*
X210003Y321480D01*
X210003Y321475D01*
X210000Y321470D01*
X209996Y321375D01*
X209990Y321280D01*
X209992Y321275D01*
X209992Y321270D01*
X210025Y321181D01*
X210056Y321091D01*
X210060Y321087D01*
X210062Y321082D01*
X210127Y321012D01*
X210190Y320942D01*
X210195Y320940D01*
X210199Y320936D01*
X210362Y320859D01*
X210853Y320727D01*
X216485Y310973D01*
X216353Y310482D01*
X216353Y310477D01*
X216350Y310472D01*
X216346Y310377D01*
X216340Y310282D01*
X216342Y310277D01*
X216342Y310272D01*
X216375Y310182D01*
X216406Y310092D01*
X216410Y310089D01*
X216412Y310084D01*
X216477Y310014D01*
X216540Y309943D01*
X216545Y309941D01*
X216549Y309937D01*
X216712Y309861D01*
X217203Y309729D01*
X222835Y299975D01*
X222620Y299175D01*
X222620Y299172D01*
X222619Y299170D01*
X222614Y299072D01*
X222608Y298974D01*
X222608Y298972D01*
X222608Y298969D01*
X222642Y298877D01*
X222673Y298785D01*
X222675Y298783D01*
X222676Y298781D01*
X222743Y298708D01*
X222808Y298636D01*
X222810Y298635D01*
X222812Y298633D01*
X222901Y298592D01*
X222989Y298551D01*
X222991Y298551D01*
X222994Y298549D01*
X223091Y298546D01*
X223189Y298542D01*
X223192Y298543D01*
X223194Y298543D01*
X223364Y298604D01*
X224826Y299448D01*
X224830Y299452D01*
X224835Y299453D01*
X224905Y299518D01*
X224976Y299581D01*
X224979Y299585D01*
X224983Y299589D01*
X225022Y299676D01*
X225064Y299761D01*
X225064Y299766D01*
X225066Y299771D01*
X225069Y299866D01*
X225074Y299961D01*
X225072Y299966D01*
X225073Y299972D01*
X225012Y300141D01*
X215088Y317329D01*
X215306Y318143D01*
X251231Y338884D01*
X252044Y338666D01*
X263121Y319481D01*
X297941Y259172D01*
X297723Y258358D01*
X284929Y250972D01*
X284925Y250968D01*
X284921Y250967D01*
X284851Y250902D01*
X284779Y250839D01*
X284777Y250835D01*
X284773Y250831D01*
X284733Y250744D01*
X284692Y250659D01*
X284691Y250654D01*
X284689Y250649D01*
X284686Y250554D01*
X284681Y250459D01*
X284683Y250454D01*
X284683Y250449D01*
X284744Y250279D01*
X293717Y234736D01*
X293499Y233923D01*
X254557Y211439D01*
X253743Y211657D01*
G37*
%LPD*%
%LPC*%
G36*
X395312Y234723D02*
X395312Y234723D01*
X392203Y237832D01*
X392203Y239484D01*
X392193Y239535D01*
X392193Y239588D01*
X392172Y239638D01*
X392164Y239680D01*
X392142Y239712D01*
X392125Y239755D01*
X388460Y245556D01*
X388394Y245625D01*
X388330Y245696D01*
X388325Y245698D01*
X388322Y245701D01*
X388235Y245739D01*
X388147Y245779D01*
X388142Y245779D01*
X388138Y245781D01*
X388042Y245783D01*
X387947Y245786D01*
X387942Y245784D01*
X387937Y245784D01*
X387898Y245768D01*
X387777Y245725D01*
X385785Y244575D01*
X384565Y244901D01*
X376434Y258986D01*
X376761Y260206D01*
X385440Y265217D01*
X385495Y265266D01*
X385556Y265308D01*
X385570Y265331D01*
X385590Y265349D01*
X385622Y265416D01*
X385661Y265479D01*
X385667Y265507D01*
X385677Y265530D01*
X385680Y265583D01*
X385693Y265656D01*
X385693Y275319D01*
X385685Y275361D01*
X385686Y275403D01*
X385664Y275466D01*
X385654Y275515D01*
X385646Y275527D01*
X385644Y275534D01*
X385634Y275549D01*
X385625Y275572D01*
X381494Y282729D01*
X381821Y283949D01*
X385440Y286038D01*
X385495Y286087D01*
X385556Y286130D01*
X385570Y286153D01*
X385590Y286171D01*
X385622Y286237D01*
X385661Y286300D01*
X385667Y286329D01*
X385677Y286351D01*
X385680Y286405D01*
X385693Y286478D01*
X385693Y307147D01*
X385692Y307155D01*
X385693Y307163D01*
X385672Y307253D01*
X385654Y307344D01*
X385649Y307350D01*
X385648Y307358D01*
X385545Y307506D01*
X378389Y314662D01*
X378356Y314684D01*
X378329Y314713D01*
X378273Y314739D01*
X378222Y314773D01*
X378183Y314780D01*
X378147Y314797D01*
X378086Y314799D01*
X378025Y314810D01*
X377986Y314802D01*
X377946Y314803D01*
X377880Y314779D01*
X377829Y314769D01*
X377807Y314753D01*
X377777Y314742D01*
X375820Y313613D01*
X374600Y313940D01*
X368469Y324560D01*
X368590Y325013D01*
X368591Y325020D01*
X368594Y325027D01*
X368597Y325120D01*
X368603Y325213D01*
X368600Y325220D01*
X368600Y325228D01*
X368567Y325315D01*
X368537Y325402D01*
X368532Y325408D01*
X368529Y325415D01*
X368465Y325482D01*
X368403Y325551D01*
X368396Y325554D01*
X368390Y325560D01*
X368227Y325635D01*
X368119Y325663D01*
X368117Y325663D01*
X368115Y325664D01*
X368017Y325668D01*
X367919Y325673D01*
X367917Y325673D01*
X367915Y325673D01*
X367744Y325614D01*
X364306Y323684D01*
X364301Y323680D01*
X364296Y323679D01*
X364225Y323615D01*
X364154Y323554D01*
X364151Y323548D01*
X364147Y323544D01*
X364107Y323459D01*
X364064Y323374D01*
X364064Y323368D01*
X364061Y323363D01*
X364057Y323269D01*
X364051Y323174D01*
X364053Y323169D01*
X364053Y323163D01*
X364086Y323074D01*
X364117Y322985D01*
X364120Y322980D01*
X364122Y322975D01*
X364187Y322906D01*
X364250Y322835D01*
X364256Y322833D01*
X364260Y322829D01*
X364422Y322752D01*
X365048Y322584D01*
X371179Y311964D01*
X370852Y310744D01*
X370703Y310658D01*
X370693Y310649D01*
X370680Y310644D01*
X370618Y310583D01*
X370553Y310526D01*
X370547Y310513D01*
X370537Y310504D01*
X370504Y310424D01*
X370466Y310345D01*
X370465Y310331D01*
X370460Y310319D01*
X370460Y310232D01*
X370455Y310145D01*
X370460Y310132D01*
X370460Y310118D01*
X370512Y309988D01*
X370523Y309956D01*
X370525Y309954D01*
X370526Y309951D01*
X374251Y303966D01*
X374299Y303916D01*
X374330Y303872D01*
X374352Y303858D01*
X374383Y303824D01*
X374386Y303823D01*
X374389Y303820D01*
X374473Y303783D01*
X374500Y303766D01*
X374516Y303763D01*
X374566Y303740D01*
X374569Y303740D01*
X374572Y303739D01*
X374659Y303737D01*
X374678Y303734D01*
X374694Y303734D01*
X374704Y303736D01*
X374766Y303734D01*
X374769Y303735D01*
X374772Y303735D01*
X374804Y303748D01*
X374858Y303767D01*
X374891Y303774D01*
X374907Y303785D01*
X374936Y303795D01*
X376832Y304890D01*
X380053Y304027D01*
X384220Y296810D01*
X383357Y293589D01*
X370944Y286422D01*
X367723Y287285D01*
X363556Y294502D01*
X364419Y297723D01*
X365912Y298585D01*
X365922Y298594D01*
X365935Y298599D01*
X365997Y298660D01*
X366062Y298718D01*
X366068Y298730D01*
X366078Y298740D01*
X366112Y298820D01*
X366150Y298898D01*
X366150Y298912D01*
X366156Y298925D01*
X366155Y299011D01*
X366160Y299098D01*
X366155Y299111D01*
X366155Y299125D01*
X366103Y299256D01*
X366092Y299287D01*
X366090Y299289D01*
X366089Y299292D01*
X362364Y305277D01*
X362297Y305348D01*
X362232Y305419D01*
X362229Y305421D01*
X362226Y305423D01*
X362138Y305462D01*
X362049Y305503D01*
X362046Y305503D01*
X362043Y305504D01*
X361946Y305506D01*
X361849Y305509D01*
X361846Y305508D01*
X361843Y305508D01*
X361811Y305496D01*
X361680Y305448D01*
X361098Y305113D01*
X359878Y305440D01*
X359451Y306178D01*
X359446Y306184D01*
X359444Y306192D01*
X359381Y306259D01*
X359319Y306329D01*
X359312Y306332D01*
X359306Y306338D01*
X359222Y306376D01*
X359138Y306416D01*
X359131Y306416D01*
X359123Y306420D01*
X359031Y306422D01*
X358938Y306427D01*
X358931Y306424D01*
X358923Y306424D01*
X358754Y306361D01*
X354104Y303614D01*
X354102Y303612D01*
X354100Y303611D01*
X354028Y303545D01*
X353955Y303479D01*
X353954Y303477D01*
X353952Y303475D01*
X353911Y303386D01*
X353870Y303298D01*
X353870Y303296D01*
X353868Y303293D01*
X353865Y303195D01*
X353861Y303098D01*
X353862Y303095D01*
X353862Y303093D01*
X353923Y302923D01*
X354178Y302482D01*
X354046Y301991D01*
X354046Y301985D01*
X354043Y301981D01*
X354039Y301886D01*
X354033Y301791D01*
X354035Y301786D01*
X354035Y301780D01*
X354068Y301691D01*
X354099Y301601D01*
X354103Y301597D01*
X354104Y301592D01*
X354170Y301523D01*
X354233Y301452D01*
X354238Y301450D01*
X354242Y301446D01*
X354405Y301369D01*
X354896Y301238D01*
X360528Y291484D01*
X360201Y290264D01*
X348108Y283282D01*
X346888Y283609D01*
X341257Y293363D01*
X341388Y293855D01*
X341389Y293860D01*
X341391Y293865D01*
X341395Y293959D01*
X341401Y294055D01*
X341399Y294060D01*
X341399Y294065D01*
X341366Y294154D01*
X341335Y294244D01*
X341331Y294248D01*
X341330Y294253D01*
X341265Y294322D01*
X341201Y294393D01*
X341196Y294395D01*
X341193Y294399D01*
X341030Y294476D01*
X340538Y294607D01*
X334907Y304362D01*
X335038Y304853D01*
X335039Y304858D01*
X335041Y304863D01*
X335045Y304958D01*
X335051Y305053D01*
X335049Y305058D01*
X335049Y305063D01*
X335016Y305153D01*
X334985Y305242D01*
X334981Y305246D01*
X334980Y305251D01*
X334915Y305321D01*
X334851Y305391D01*
X334846Y305394D01*
X334843Y305397D01*
X334680Y305474D01*
X334188Y305606D01*
X328557Y315360D01*
X328688Y315852D01*
X328689Y315857D01*
X328691Y315862D01*
X328695Y315957D01*
X328701Y316052D01*
X328699Y316057D01*
X328699Y316062D01*
X328666Y316151D01*
X328635Y316241D01*
X328631Y316245D01*
X328630Y316250D01*
X328565Y316319D01*
X328501Y316390D01*
X328496Y316392D01*
X328493Y316396D01*
X328330Y316473D01*
X327838Y316604D01*
X322207Y326359D01*
X322338Y326850D01*
X322339Y326855D01*
X322341Y326860D01*
X322345Y326955D01*
X322351Y327050D01*
X322349Y327055D01*
X322349Y327060D01*
X322316Y327150D01*
X322285Y327239D01*
X322281Y327243D01*
X322280Y327248D01*
X322215Y327318D01*
X322151Y327388D01*
X322146Y327391D01*
X322143Y327395D01*
X321980Y327471D01*
X321488Y327603D01*
X315857Y337357D01*
X315988Y337849D01*
X315989Y337854D01*
X315991Y337859D01*
X315995Y337954D01*
X316001Y338049D01*
X315999Y338054D01*
X315999Y338059D01*
X315966Y338148D01*
X315935Y338238D01*
X315931Y338242D01*
X315930Y338247D01*
X315865Y338316D01*
X315801Y338387D01*
X315796Y338389D01*
X315793Y338393D01*
X315630Y338470D01*
X315138Y338602D01*
X309507Y348356D01*
X309638Y348847D01*
X309639Y348852D01*
X309641Y348857D01*
X309645Y348952D01*
X309651Y349047D01*
X309649Y349052D01*
X309649Y349057D01*
X309616Y349147D01*
X309585Y349236D01*
X309581Y349240D01*
X309580Y349245D01*
X309514Y349315D01*
X309451Y349385D01*
X309446Y349388D01*
X309443Y349392D01*
X309280Y349468D01*
X308788Y349600D01*
X303157Y359354D01*
X303288Y359846D01*
X303289Y359851D01*
X303291Y359856D01*
X303295Y359951D01*
X303301Y360046D01*
X303299Y360051D01*
X303299Y360056D01*
X303266Y360145D01*
X303235Y360235D01*
X303231Y360239D01*
X303230Y360244D01*
X303165Y360313D01*
X303101Y360384D01*
X303096Y360386D01*
X303093Y360390D01*
X302930Y360467D01*
X302438Y360599D01*
X296807Y370353D01*
X296938Y370844D01*
X296939Y370849D01*
X296941Y370854D01*
X296945Y370949D01*
X296951Y371044D01*
X296949Y371049D01*
X296949Y371054D01*
X296916Y371144D01*
X296885Y371234D01*
X296881Y371237D01*
X296880Y371242D01*
X296815Y371312D01*
X296751Y371383D01*
X296746Y371385D01*
X296743Y371389D01*
X296580Y371465D01*
X296088Y371597D01*
X290457Y381351D01*
X290783Y382571D01*
X302876Y389553D01*
X304096Y389226D01*
X309728Y379472D01*
X309596Y378980D01*
X309596Y378975D01*
X309593Y378970D01*
X309589Y378875D01*
X309583Y378780D01*
X309585Y378775D01*
X309585Y378770D01*
X309618Y378681D01*
X309649Y378591D01*
X309653Y378587D01*
X309654Y378582D01*
X309720Y378513D01*
X309783Y378442D01*
X309788Y378440D01*
X309792Y378436D01*
X309955Y378359D01*
X310475Y378220D01*
X310477Y378218D01*
X310500Y378203D01*
X310517Y378183D01*
X310584Y378151D01*
X310647Y378112D01*
X310675Y378107D01*
X310698Y378096D01*
X310751Y378093D01*
X310824Y378080D01*
X335730Y378080D01*
X335738Y378081D01*
X335745Y378080D01*
X335835Y378101D01*
X335926Y378119D01*
X335933Y378124D01*
X335941Y378126D01*
X336089Y378228D01*
X337765Y379905D01*
X352099Y379905D01*
X354457Y377547D01*
X354457Y369213D01*
X352759Y367516D01*
X352758Y367513D01*
X352756Y367512D01*
X352703Y367431D01*
X352648Y367349D01*
X352648Y367346D01*
X352647Y367344D01*
X352629Y367248D01*
X352611Y367152D01*
X352611Y367149D01*
X352611Y367147D01*
X352632Y367050D01*
X352652Y366956D01*
X352654Y366954D01*
X352655Y366951D01*
X352711Y366871D01*
X352767Y366791D01*
X352769Y366790D01*
X352771Y366788D01*
X352853Y366736D01*
X352936Y366684D01*
X352939Y366683D01*
X352941Y366682D01*
X353118Y366650D01*
X361317Y366650D01*
X361325Y366651D01*
X361333Y366650D01*
X361423Y366671D01*
X361514Y366689D01*
X361520Y366694D01*
X361528Y366696D01*
X361676Y366798D01*
X371433Y376556D01*
X376116Y376556D01*
X376124Y376557D01*
X376131Y376556D01*
X376221Y376577D01*
X376312Y376595D01*
X376319Y376600D01*
X376327Y376602D01*
X376475Y376704D01*
X378151Y378381D01*
X392485Y378381D01*
X394843Y376023D01*
X394843Y367689D01*
X392485Y365331D01*
X378151Y365331D01*
X376475Y367008D01*
X376468Y367012D01*
X376463Y367018D01*
X376385Y367067D01*
X376308Y367119D01*
X376300Y367120D01*
X376293Y367124D01*
X376116Y367156D01*
X375537Y367156D01*
X375529Y367155D01*
X375521Y367156D01*
X375431Y367135D01*
X375340Y367117D01*
X375334Y367112D01*
X375326Y367110D01*
X375178Y367008D01*
X365421Y357250D01*
X323193Y357250D01*
X323159Y357243D01*
X323124Y357246D01*
X323061Y357224D01*
X322996Y357211D01*
X322967Y357191D01*
X322935Y357180D01*
X322885Y357135D01*
X322830Y357098D01*
X322812Y357069D01*
X322786Y357046D01*
X322757Y356985D01*
X322721Y356930D01*
X322715Y356896D01*
X322700Y356864D01*
X322697Y356798D01*
X322686Y356733D01*
X322693Y356699D01*
X322692Y356664D01*
X322715Y356602D01*
X322729Y356537D01*
X322749Y356509D01*
X322761Y356476D01*
X322807Y356428D01*
X322845Y356374D01*
X322875Y356355D01*
X322899Y356330D01*
X322969Y356297D01*
X323015Y356268D01*
X323039Y356263D01*
X323062Y356253D01*
X323146Y356230D01*
X328778Y346476D01*
X328646Y345985D01*
X328646Y345980D01*
X328643Y345975D01*
X328639Y345880D01*
X328633Y345785D01*
X328635Y345780D01*
X328635Y345775D01*
X328668Y345685D01*
X328699Y345595D01*
X328703Y345592D01*
X328704Y345587D01*
X328770Y345517D01*
X328833Y345446D01*
X328838Y345444D01*
X328842Y345440D01*
X329005Y345364D01*
X329496Y345232D01*
X335128Y335478D01*
X334996Y334986D01*
X334996Y334981D01*
X334993Y334976D01*
X334989Y334881D01*
X334983Y334786D01*
X334985Y334781D01*
X334985Y334776D01*
X335018Y334687D01*
X335049Y334597D01*
X335053Y334593D01*
X335054Y334588D01*
X335120Y334519D01*
X335183Y334448D01*
X335188Y334446D01*
X335192Y334442D01*
X335355Y334365D01*
X335846Y334233D01*
X341478Y324479D01*
X341346Y323988D01*
X341346Y323982D01*
X341343Y323978D01*
X341339Y323883D01*
X341333Y323788D01*
X341335Y323783D01*
X341335Y323777D01*
X341368Y323688D01*
X341399Y323598D01*
X341403Y323594D01*
X341404Y323590D01*
X341470Y323520D01*
X341533Y323449D01*
X341538Y323447D01*
X341542Y323443D01*
X341705Y323366D01*
X342196Y323235D01*
X342459Y322778D01*
X342461Y322777D01*
X342462Y322775D01*
X342527Y322701D01*
X342592Y322628D01*
X342594Y322627D01*
X342595Y322626D01*
X342685Y322583D01*
X342772Y322541D01*
X342775Y322541D01*
X342776Y322540D01*
X342873Y322536D01*
X342973Y322530D01*
X342975Y322531D01*
X342977Y322531D01*
X343147Y322590D01*
X349631Y326228D01*
X349688Y326277D01*
X349749Y326319D01*
X349763Y326342D01*
X349783Y326359D01*
X349817Y326426D01*
X349857Y326489D01*
X349861Y326515D01*
X349873Y326538D01*
X349878Y326613D01*
X349890Y326686D01*
X349884Y326712D01*
X349886Y326738D01*
X349861Y326809D01*
X349845Y326881D01*
X349828Y326905D01*
X349820Y326928D01*
X349784Y326968D01*
X349742Y327029D01*
X349531Y327240D01*
X349531Y331636D01*
X352640Y334745D01*
X357036Y334745D01*
X359558Y332223D01*
X359589Y332202D01*
X359613Y332175D01*
X359671Y332147D01*
X359725Y332112D01*
X359761Y332105D01*
X359794Y332089D01*
X359859Y332086D01*
X359922Y332074D01*
X359958Y332082D01*
X359995Y332080D01*
X360065Y332105D01*
X360118Y332116D01*
X360138Y332130D01*
X360165Y332139D01*
X364917Y334805D01*
X364921Y334809D01*
X364926Y334811D01*
X366599Y335798D01*
X366616Y335797D01*
X366618Y335798D01*
X366620Y335798D01*
X366622Y335799D01*
X368484Y335275D01*
X368489Y335275D01*
X368495Y335272D01*
X374117Y333824D01*
X374123Y333824D01*
X374128Y333821D01*
X376017Y333379D01*
X376029Y333367D01*
X376031Y333366D01*
X376032Y333364D01*
X376034Y333363D01*
X377018Y331697D01*
X377021Y331693D01*
X377024Y331687D01*
X377293Y331253D01*
X377360Y331182D01*
X377426Y331110D01*
X377428Y331109D01*
X377430Y331107D01*
X377519Y331067D01*
X377608Y331027D01*
X377611Y331027D01*
X377614Y331025D01*
X377711Y331023D01*
X377808Y331020D01*
X377811Y331021D01*
X377814Y331021D01*
X377843Y331033D01*
X377978Y331081D01*
X378550Y331411D01*
X379770Y331084D01*
X385898Y320470D01*
X385935Y320429D01*
X385979Y320365D01*
X395093Y311251D01*
X395093Y287409D01*
X395101Y287367D01*
X395100Y287325D01*
X395123Y287262D01*
X395133Y287213D01*
X395149Y287188D01*
X395161Y287156D01*
X399293Y279999D01*
X398966Y278779D01*
X395347Y276690D01*
X395291Y276641D01*
X395231Y276598D01*
X395216Y276575D01*
X395196Y276557D01*
X395164Y276491D01*
X395125Y276428D01*
X395120Y276399D01*
X395109Y276377D01*
X395106Y276323D01*
X395093Y276250D01*
X395093Y258902D01*
X395101Y258860D01*
X395100Y258818D01*
X395123Y258755D01*
X395133Y258706D01*
X395149Y258681D01*
X395161Y258648D01*
X398465Y252926D01*
X398138Y251706D01*
X396803Y250936D01*
X396792Y250926D01*
X396777Y250920D01*
X396717Y250860D01*
X396653Y250803D01*
X396646Y250789D01*
X396635Y250778D01*
X396603Y250700D01*
X396566Y250623D01*
X396565Y250607D01*
X396559Y250593D01*
X396560Y250508D01*
X396555Y250423D01*
X396560Y250408D01*
X396561Y250393D01*
X396605Y250283D01*
X396609Y250267D01*
X396614Y250259D01*
X396623Y250234D01*
X396626Y250231D01*
X396628Y250226D01*
X399701Y245362D01*
X399735Y245326D01*
X399771Y245274D01*
X402817Y242228D01*
X402817Y237832D01*
X399708Y234723D01*
X395312Y234723D01*
G37*
%LPD*%
%LPC*%
G36*
X290727Y204597D02*
X290727Y204597D01*
X288369Y206955D01*
X288369Y221289D01*
X290046Y222965D01*
X290050Y222972D01*
X290056Y222977D01*
X290105Y223055D01*
X290157Y223132D01*
X290158Y223140D01*
X290162Y223147D01*
X290194Y223324D01*
X290194Y226991D01*
X296471Y233268D01*
X312771Y233268D01*
X312779Y233269D01*
X312786Y233268D01*
X312876Y233289D01*
X312967Y233307D01*
X312974Y233312D01*
X312982Y233313D01*
X313130Y233416D01*
X328829Y249116D01*
X328848Y249144D01*
X328873Y249166D01*
X328903Y249226D01*
X328940Y249283D01*
X328947Y249316D01*
X328961Y249346D01*
X328965Y249413D01*
X328978Y249480D01*
X328971Y249512D01*
X328973Y249546D01*
X328948Y249622D01*
X328936Y249676D01*
X328924Y249693D01*
X328916Y249717D01*
X327480Y252354D01*
X327472Y252363D01*
X327468Y252374D01*
X327408Y252440D01*
X327351Y252508D01*
X327341Y252513D01*
X327333Y252522D01*
X327252Y252559D01*
X327173Y252600D01*
X327161Y252601D01*
X327151Y252606D01*
X327062Y252608D01*
X326973Y252615D01*
X326962Y252612D01*
X326950Y252612D01*
X326798Y252557D01*
X326783Y252552D01*
X326782Y252551D01*
X326781Y252551D01*
X326595Y252444D01*
X326104Y252576D01*
X326098Y252576D01*
X326094Y252578D01*
X325999Y252582D01*
X325904Y252588D01*
X325899Y252586D01*
X325893Y252587D01*
X325804Y252554D01*
X325714Y252522D01*
X325710Y252519D01*
X325705Y252517D01*
X325636Y252452D01*
X325565Y252388D01*
X325563Y252383D01*
X325559Y252380D01*
X325482Y252217D01*
X325351Y251725D01*
X315597Y246094D01*
X315105Y246226D01*
X315100Y246226D01*
X315095Y246228D01*
X315000Y246232D01*
X314905Y246238D01*
X314900Y246236D01*
X314895Y246237D01*
X314805Y246204D01*
X314716Y246172D01*
X314712Y246169D01*
X314707Y246167D01*
X314637Y246102D01*
X314567Y246038D01*
X314564Y246033D01*
X314561Y246030D01*
X314484Y245867D01*
X314352Y245375D01*
X304598Y239744D01*
X303378Y240071D01*
X296396Y252163D01*
X296723Y253383D01*
X306477Y259015D01*
X306969Y258883D01*
X306974Y258883D01*
X306979Y258881D01*
X307074Y258877D01*
X307169Y258871D01*
X307174Y258872D01*
X307179Y258872D01*
X307269Y258905D01*
X307358Y258936D01*
X307362Y258940D01*
X307367Y258942D01*
X307437Y259007D01*
X307507Y259071D01*
X307510Y259075D01*
X307513Y259079D01*
X307590Y259242D01*
X307722Y259733D01*
X316608Y264864D01*
X316660Y264909D01*
X316717Y264948D01*
X316734Y264975D01*
X316758Y264996D01*
X316788Y265058D01*
X316826Y265116D01*
X316832Y265148D01*
X316846Y265177D01*
X316849Y265246D01*
X316862Y265313D01*
X316855Y265345D01*
X316856Y265377D01*
X316833Y265442D01*
X316818Y265509D01*
X316799Y265535D01*
X316788Y265566D01*
X316742Y265616D01*
X316702Y265672D01*
X316675Y265689D01*
X316653Y265713D01*
X316590Y265742D01*
X316532Y265778D01*
X316498Y265784D01*
X316471Y265797D01*
X316420Y265798D01*
X316354Y265810D01*
X315553Y265810D01*
X306450Y274913D01*
X306450Y288967D01*
X311743Y294260D01*
X327185Y294260D01*
X327193Y294261D01*
X327200Y294260D01*
X327290Y294281D01*
X327381Y294299D01*
X327388Y294304D01*
X327395Y294306D01*
X327543Y294408D01*
X328002Y294867D01*
X332398Y294867D01*
X335507Y291758D01*
X335507Y287362D01*
X332952Y284807D01*
X332915Y284752D01*
X332871Y284702D01*
X332860Y284669D01*
X332841Y284640D01*
X332828Y284575D01*
X332807Y284512D01*
X332810Y284477D01*
X332803Y284443D01*
X332817Y284378D01*
X332822Y284312D01*
X332838Y284278D01*
X332845Y284247D01*
X332873Y284207D01*
X332900Y284150D01*
X333180Y283765D01*
X333207Y283741D01*
X333232Y283705D01*
X334320Y282617D01*
X334320Y282365D01*
X334334Y282297D01*
X334339Y282228D01*
X334354Y282197D01*
X334360Y282168D01*
X334388Y282127D01*
X334417Y282066D01*
X337696Y277563D01*
X337731Y277531D01*
X337757Y277495D01*
X337783Y277479D01*
X337808Y277451D01*
X337828Y277442D01*
X337844Y277427D01*
X337894Y277409D01*
X337927Y277389D01*
X337955Y277384D01*
X337990Y277368D01*
X338012Y277367D01*
X338033Y277360D01*
X338076Y277362D01*
X338105Y277357D01*
X338111Y277357D01*
X338141Y277363D01*
X338191Y277361D01*
X338212Y277369D01*
X338233Y277370D01*
X338272Y277390D01*
X338308Y277397D01*
X338329Y277411D01*
X338360Y277422D01*
X339473Y278065D01*
X340693Y277738D01*
X347675Y265646D01*
X347348Y264425D01*
X346999Y264224D01*
X346995Y264220D01*
X346989Y264218D01*
X346920Y264155D01*
X346849Y264092D01*
X346846Y264086D01*
X346842Y264082D01*
X346803Y263997D01*
X346762Y263911D01*
X346761Y263905D01*
X346759Y263900D01*
X346756Y263806D01*
X346751Y263711D01*
X346753Y263706D01*
X346753Y263700D01*
X346814Y263530D01*
X349163Y259487D01*
X349199Y259447D01*
X349243Y259384D01*
X350140Y258487D01*
X350140Y257943D01*
X350148Y257900D01*
X350147Y257857D01*
X350169Y257795D01*
X350179Y257746D01*
X350196Y257721D01*
X350208Y257688D01*
X350482Y257217D01*
X350157Y255992D01*
X350153Y255937D01*
X350140Y255862D01*
X350140Y255074D01*
X350141Y255066D01*
X350140Y255059D01*
X350161Y254969D01*
X350179Y254878D01*
X350184Y254871D01*
X350186Y254863D01*
X350288Y254715D01*
X352473Y252531D01*
X352473Y238197D01*
X350115Y235839D01*
X341781Y235839D01*
X339423Y238197D01*
X339423Y245192D01*
X339423Y245195D01*
X339423Y245197D01*
X339403Y245292D01*
X339384Y245389D01*
X339382Y245391D01*
X339382Y245394D01*
X339326Y245474D01*
X339271Y245555D01*
X339269Y245556D01*
X339267Y245558D01*
X339184Y245611D01*
X339103Y245664D01*
X339100Y245664D01*
X339098Y245666D01*
X339002Y245682D01*
X338906Y245699D01*
X338903Y245699D01*
X338901Y245699D01*
X338807Y245677D01*
X338710Y245656D01*
X338708Y245654D01*
X338705Y245654D01*
X338557Y245551D01*
X319776Y226770D01*
X316874Y223868D01*
X300575Y223868D01*
X300567Y223866D01*
X300559Y223868D01*
X300469Y223847D01*
X300378Y223828D01*
X300372Y223824D01*
X300364Y223822D01*
X300216Y223719D01*
X299961Y223464D01*
X299958Y223460D01*
X299954Y223457D01*
X299902Y223376D01*
X299850Y223297D01*
X299849Y223292D01*
X299846Y223288D01*
X299830Y223193D01*
X299812Y223101D01*
X299813Y223095D01*
X299812Y223090D01*
X299834Y222997D01*
X299854Y222904D01*
X299857Y222900D01*
X299858Y222895D01*
X299961Y222747D01*
X301419Y221289D01*
X301419Y206955D01*
X299061Y204597D01*
X290727Y204597D01*
G37*
%LPD*%
G36*
X478143Y393769D02*
X478143Y393769D01*
X478186Y393768D01*
X482179Y394369D01*
X482209Y394380D01*
X482252Y394385D01*
X486111Y395574D01*
X486139Y395589D01*
X486180Y395601D01*
X489818Y397352D01*
X489840Y397369D01*
X489866Y397378D01*
X489919Y397428D01*
X489977Y397472D01*
X489990Y397496D01*
X490010Y397515D01*
X490040Y397581D01*
X490076Y397645D01*
X490079Y397672D01*
X490090Y397697D01*
X490091Y397770D01*
X490100Y397842D01*
X490092Y397868D01*
X490092Y397896D01*
X490056Y397994D01*
X490044Y398033D01*
X490038Y398041D01*
X490034Y398052D01*
X463034Y444852D01*
X463016Y444872D01*
X463005Y444897D01*
X462951Y444946D01*
X462903Y445001D01*
X462878Y445012D01*
X462858Y445031D01*
X462789Y445055D01*
X462723Y445086D01*
X462696Y445088D01*
X462671Y445097D01*
X462598Y445092D01*
X462525Y445095D01*
X462499Y445086D01*
X462472Y445084D01*
X462376Y445040D01*
X462338Y445026D01*
X462331Y445019D01*
X462321Y445015D01*
X458984Y442741D01*
X458962Y442718D01*
X458926Y442695D01*
X455965Y439949D01*
X455946Y439923D01*
X455914Y439895D01*
X453396Y436739D01*
X453381Y436710D01*
X453354Y436677D01*
X451334Y433181D01*
X451324Y433151D01*
X451301Y433114D01*
X449825Y429356D01*
X449820Y429324D01*
X449803Y429284D01*
X448903Y425348D01*
X448903Y425316D01*
X448892Y425274D01*
X448589Y421248D01*
X448592Y421225D01*
X448589Y421205D01*
X448591Y421195D01*
X448589Y421174D01*
X448890Y417147D01*
X448898Y417116D01*
X448901Y417073D01*
X449798Y413137D01*
X449811Y413108D01*
X449820Y413065D01*
X451294Y409306D01*
X451311Y409279D01*
X451326Y409239D01*
X453344Y405742D01*
X453365Y405718D01*
X453386Y405680D01*
X455902Y402522D01*
X455927Y402502D01*
X455953Y402468D01*
X458912Y399720D01*
X458939Y399704D01*
X458970Y399674D01*
X462306Y397398D01*
X462335Y397386D01*
X462370Y397361D01*
X466008Y395608D01*
X466038Y395600D01*
X466077Y395581D01*
X469935Y394389D01*
X469967Y394386D01*
X470008Y394373D01*
X474000Y393770D01*
X474032Y393771D01*
X474074Y393764D01*
X478112Y393763D01*
X478143Y393769D01*
G37*
G36*
X218330Y393764D02*
X218330Y393764D01*
X218361Y393770D01*
X218404Y393770D01*
X222396Y394373D01*
X222426Y394384D01*
X222469Y394389D01*
X226327Y395581D01*
X226355Y395596D01*
X226397Y395608D01*
X230034Y397361D01*
X230059Y397380D01*
X230098Y397398D01*
X233434Y399674D01*
X233456Y399697D01*
X233492Y399720D01*
X236451Y402468D01*
X236470Y402493D01*
X236502Y402522D01*
X239018Y405680D01*
X239033Y405708D01*
X239060Y405742D01*
X241078Y409239D01*
X241088Y409269D01*
X241110Y409306D01*
X242584Y413065D01*
X242590Y413097D01*
X242606Y413137D01*
X243503Y417073D01*
X243504Y417105D01*
X243514Y417147D01*
X243815Y421174D01*
X243811Y421205D01*
X243812Y421221D01*
X243815Y421238D01*
X243814Y421242D01*
X243815Y421248D01*
X243512Y425274D01*
X243503Y425305D01*
X243501Y425348D01*
X242601Y429284D01*
X242588Y429313D01*
X242579Y429356D01*
X241103Y433114D01*
X241085Y433141D01*
X241070Y433181D01*
X239050Y436677D01*
X239029Y436701D01*
X239008Y436739D01*
X236490Y439895D01*
X236465Y439915D01*
X236439Y439949D01*
X233478Y442695D01*
X233451Y442711D01*
X233420Y442741D01*
X230083Y445015D01*
X230058Y445025D01*
X230037Y445042D01*
X229967Y445063D01*
X229900Y445092D01*
X229872Y445092D01*
X229846Y445099D01*
X229774Y445091D01*
X229701Y445091D01*
X229676Y445080D01*
X229649Y445077D01*
X229585Y445041D01*
X229518Y445013D01*
X229499Y444993D01*
X229476Y444980D01*
X229409Y444899D01*
X229380Y444869D01*
X229377Y444860D01*
X229370Y444852D01*
X202370Y398052D01*
X202361Y398026D01*
X202345Y398003D01*
X202330Y397932D01*
X202306Y397863D01*
X202309Y397836D01*
X202303Y397809D01*
X202316Y397738D01*
X202322Y397665D01*
X202335Y397640D01*
X202340Y397614D01*
X202380Y397553D01*
X202414Y397488D01*
X202435Y397471D01*
X202450Y397448D01*
X202536Y397387D01*
X202567Y397362D01*
X202576Y397359D01*
X202586Y397352D01*
X206224Y395601D01*
X206255Y395594D01*
X206293Y395574D01*
X210152Y394385D01*
X210184Y394382D01*
X210225Y394369D01*
X214218Y393768D01*
X214249Y393770D01*
X214292Y393763D01*
X218330Y393764D01*
G37*
G36*
X462630Y247313D02*
X462630Y247313D01*
X462703Y247313D01*
X462728Y247324D01*
X462755Y247327D01*
X462819Y247363D01*
X462886Y247391D01*
X462905Y247411D01*
X462928Y247424D01*
X462996Y247505D01*
X463024Y247535D01*
X463027Y247544D01*
X463034Y247553D01*
X490034Y294353D01*
X490043Y294378D01*
X490059Y294401D01*
X490074Y294472D01*
X490098Y294541D01*
X490095Y294568D01*
X490101Y294595D01*
X490088Y294666D01*
X490082Y294739D01*
X490069Y294764D01*
X490064Y294790D01*
X490024Y294851D01*
X489990Y294916D01*
X489969Y294933D01*
X489954Y294956D01*
X489868Y295017D01*
X489837Y295042D01*
X489828Y295045D01*
X489818Y295052D01*
X486180Y296803D01*
X486149Y296810D01*
X486111Y296830D01*
X482252Y298019D01*
X482220Y298022D01*
X482179Y298035D01*
X478186Y298636D01*
X478155Y298634D01*
X478112Y298641D01*
X474074Y298640D01*
X474043Y298634D01*
X474000Y298634D01*
X470008Y298031D01*
X469978Y298020D01*
X469935Y298015D01*
X466077Y296823D01*
X466049Y296808D01*
X466008Y296796D01*
X462370Y295043D01*
X462345Y295024D01*
X462306Y295006D01*
X458970Y292730D01*
X458948Y292707D01*
X458912Y292684D01*
X455953Y289936D01*
X455934Y289911D01*
X455902Y289882D01*
X453386Y286724D01*
X453371Y286696D01*
X453344Y286662D01*
X451326Y283165D01*
X451316Y283135D01*
X451294Y283098D01*
X449820Y279339D01*
X449814Y279307D01*
X449798Y279267D01*
X448901Y275331D01*
X448900Y275299D01*
X448890Y275257D01*
X448589Y271231D01*
X448593Y271199D01*
X448589Y271156D01*
X448892Y267130D01*
X448901Y267099D01*
X448903Y267056D01*
X449803Y263120D01*
X449816Y263091D01*
X449825Y263048D01*
X451301Y259290D01*
X451319Y259263D01*
X451334Y259223D01*
X453354Y255727D01*
X453375Y255703D01*
X453396Y255665D01*
X455914Y252509D01*
X455939Y252489D01*
X455965Y252455D01*
X458926Y249709D01*
X458953Y249693D01*
X458984Y249663D01*
X462321Y247389D01*
X462346Y247379D01*
X462367Y247362D01*
X462437Y247341D01*
X462504Y247312D01*
X462532Y247313D01*
X462558Y247305D01*
X462630Y247313D01*
G37*
G36*
X348251Y468785D02*
X348251Y468785D01*
X348294Y468784D01*
X352284Y469385D01*
X352314Y469396D01*
X352357Y469402D01*
X356213Y470591D01*
X356241Y470607D01*
X356283Y470619D01*
X359919Y472370D01*
X359944Y472389D01*
X359983Y472407D01*
X363317Y474680D01*
X363340Y474703D01*
X363376Y474727D01*
X366334Y477471D01*
X366353Y477497D01*
X366385Y477526D01*
X368901Y480681D01*
X368915Y480709D01*
X368943Y480743D01*
X370961Y484238D01*
X370971Y484268D01*
X370993Y484305D01*
X372467Y488061D01*
X372468Y488068D01*
X372470Y488069D01*
X372474Y488096D01*
X372489Y488133D01*
X373387Y492067D01*
X373388Y492099D01*
X373398Y492141D01*
X373700Y496165D01*
X373696Y496192D01*
X373701Y496219D01*
X373684Y496289D01*
X373675Y496362D01*
X373661Y496386D01*
X373655Y496412D01*
X373612Y496471D01*
X373575Y496534D01*
X373553Y496550D01*
X373537Y496572D01*
X373474Y496609D01*
X373416Y496653D01*
X373389Y496660D01*
X373366Y496674D01*
X373262Y496691D01*
X373223Y496701D01*
X373213Y496699D01*
X373202Y496701D01*
X319202Y496701D01*
X319175Y496696D01*
X319148Y496698D01*
X319079Y496676D01*
X319007Y496662D01*
X318985Y496646D01*
X318959Y496638D01*
X318903Y496590D01*
X318843Y496549D01*
X318829Y496526D01*
X318808Y496508D01*
X318776Y496443D01*
X318736Y496382D01*
X318732Y496355D01*
X318720Y496330D01*
X318710Y496226D01*
X318703Y496185D01*
X318705Y496176D01*
X318704Y496165D01*
X319006Y492141D01*
X319014Y492110D01*
X319017Y492067D01*
X319915Y488133D01*
X319928Y488104D01*
X319937Y488061D01*
X321411Y484305D01*
X321428Y484278D01*
X321443Y484238D01*
X323461Y480743D01*
X323482Y480719D01*
X323503Y480681D01*
X326019Y477526D01*
X326044Y477506D01*
X326070Y477471D01*
X329028Y474727D01*
X329055Y474710D01*
X329087Y474680D01*
X332421Y472407D01*
X332450Y472394D01*
X332485Y472370D01*
X336121Y470619D01*
X336152Y470611D01*
X336191Y470591D01*
X340047Y469402D01*
X340078Y469399D01*
X340120Y469385D01*
X344110Y468784D01*
X344142Y468785D01*
X344184Y468778D01*
X348220Y468778D01*
X348251Y468785D01*
G37*
G36*
X373229Y195708D02*
X373229Y195708D01*
X373256Y195706D01*
X373325Y195728D01*
X373397Y195742D01*
X373419Y195758D01*
X373445Y195766D01*
X373501Y195814D01*
X373561Y195855D01*
X373575Y195878D01*
X373596Y195896D01*
X373629Y195961D01*
X373668Y196022D01*
X373672Y196049D01*
X373684Y196074D01*
X373694Y196178D01*
X373701Y196219D01*
X373699Y196228D01*
X373700Y196239D01*
X373398Y200263D01*
X373390Y200294D01*
X373387Y200337D01*
X372489Y204271D01*
X372476Y204300D01*
X372467Y204343D01*
X370993Y208099D01*
X370976Y208126D01*
X370961Y208167D01*
X368943Y211661D01*
X368922Y211685D01*
X368901Y211723D01*
X366385Y214878D01*
X366360Y214898D01*
X366334Y214933D01*
X363376Y217677D01*
X363349Y217694D01*
X363317Y217724D01*
X359983Y219997D01*
X359954Y220010D01*
X359919Y220035D01*
X356283Y221785D01*
X356252Y221793D01*
X356213Y221813D01*
X352357Y223002D01*
X352326Y223005D01*
X352284Y223019D01*
X348294Y223620D01*
X348262Y223619D01*
X348220Y223626D01*
X344184Y223626D01*
X344153Y223619D01*
X344110Y223620D01*
X340120Y223019D01*
X340090Y223008D01*
X340047Y223002D01*
X336191Y221813D01*
X336163Y221797D01*
X336121Y221785D01*
X332485Y220035D01*
X332460Y220015D01*
X332421Y219997D01*
X329087Y217724D01*
X329064Y217701D01*
X329028Y217677D01*
X326070Y214933D01*
X326052Y214907D01*
X326019Y214878D01*
X323503Y211723D01*
X323489Y211695D01*
X323461Y211661D01*
X321443Y208167D01*
X321433Y208136D01*
X321411Y208099D01*
X319937Y204343D01*
X319931Y204311D01*
X319915Y204271D01*
X319017Y200337D01*
X319016Y200305D01*
X319006Y200263D01*
X318704Y196239D01*
X318708Y196212D01*
X318703Y196185D01*
X318720Y196115D01*
X318729Y196042D01*
X318743Y196018D01*
X318749Y195992D01*
X318792Y195933D01*
X318829Y195870D01*
X318851Y195854D01*
X318867Y195832D01*
X318930Y195795D01*
X318988Y195751D01*
X319015Y195744D01*
X319038Y195730D01*
X319142Y195713D01*
X319181Y195703D01*
X319191Y195705D01*
X319202Y195703D01*
X373202Y195703D01*
X373229Y195708D01*
G37*
%LPC*%
G36*
X321072Y412424D02*
X321072Y412424D01*
X320179Y413317D01*
X320179Y424580D01*
X321072Y425474D01*
X322124Y425474D01*
X322129Y425475D01*
X322134Y425474D01*
X322227Y425494D01*
X322320Y425513D01*
X322325Y425516D01*
X322330Y425517D01*
X322408Y425572D01*
X322486Y425626D01*
X322489Y425630D01*
X322493Y425633D01*
X322544Y425715D01*
X322595Y425794D01*
X322596Y425799D01*
X322599Y425803D01*
X322631Y425981D01*
X322631Y429390D01*
X322630Y429398D01*
X322631Y429405D01*
X322610Y429495D01*
X322591Y429586D01*
X322587Y429593D01*
X322585Y429601D01*
X322483Y429749D01*
X314992Y437239D01*
X314986Y437243D01*
X314981Y437249D01*
X314903Y437298D01*
X314826Y437350D01*
X314818Y437351D01*
X314811Y437355D01*
X314634Y437387D01*
X278986Y437387D01*
X278978Y437386D01*
X278971Y437387D01*
X278881Y437366D01*
X278790Y437348D01*
X278783Y437343D01*
X278776Y437341D01*
X278628Y437239D01*
X278042Y436653D01*
X273646Y436653D01*
X270537Y439762D01*
X270537Y444158D01*
X273646Y447267D01*
X278042Y447267D01*
X278628Y446681D01*
X278634Y446677D01*
X278639Y446671D01*
X278717Y446622D01*
X278795Y446570D01*
X278802Y446569D01*
X278809Y446565D01*
X278986Y446533D01*
X318632Y446533D01*
X331777Y433388D01*
X331777Y425981D01*
X331778Y425976D01*
X331777Y425971D01*
X331777Y425970D01*
X331797Y425877D01*
X331816Y425784D01*
X331819Y425780D01*
X331820Y425775D01*
X331875Y425697D01*
X331929Y425618D01*
X331933Y425616D01*
X331936Y425611D01*
X332018Y425561D01*
X332097Y425509D01*
X332102Y425508D01*
X332106Y425506D01*
X332284Y425474D01*
X333335Y425474D01*
X334229Y424580D01*
X334229Y413317D01*
X333335Y412424D01*
X321072Y412424D01*
G37*
%LPD*%
%LPC*%
G36*
X469988Y337847D02*
X469988Y337847D01*
X466879Y340956D01*
X466879Y345352D01*
X467465Y345938D01*
X467469Y345944D01*
X467475Y345949D01*
X467524Y346027D01*
X467576Y346105D01*
X467577Y346112D01*
X467581Y346119D01*
X467613Y346296D01*
X467613Y367225D01*
X467612Y367232D01*
X467613Y367238D01*
X467592Y367330D01*
X467574Y367422D01*
X467570Y367427D01*
X467569Y367433D01*
X467467Y367582D01*
X465641Y369428D01*
X465640Y369429D01*
X465639Y369430D01*
X464301Y370768D01*
X464311Y372662D01*
X464311Y372664D01*
X464311Y372665D01*
X464311Y378874D01*
X464310Y378882D01*
X464311Y378889D01*
X464290Y378979D01*
X464272Y379070D01*
X464267Y379077D01*
X464265Y379085D01*
X464163Y379233D01*
X463577Y379818D01*
X463577Y384214D01*
X466686Y387323D01*
X471082Y387323D01*
X474191Y384214D01*
X474191Y379818D01*
X473605Y379232D01*
X473601Y379226D01*
X473594Y379221D01*
X473546Y379143D01*
X473494Y379065D01*
X473493Y379058D01*
X473489Y379051D01*
X473457Y378874D01*
X473457Y374740D01*
X473457Y374739D01*
X473458Y374734D01*
X473458Y374733D01*
X473457Y374727D01*
X473478Y374635D01*
X473496Y374543D01*
X473500Y374538D01*
X473501Y374531D01*
X473603Y374383D01*
X475429Y372537D01*
X475430Y372536D01*
X475431Y372535D01*
X476769Y371197D01*
X476759Y369302D01*
X476759Y369301D01*
X476759Y369299D01*
X476759Y346296D01*
X476760Y346288D01*
X476759Y346281D01*
X476780Y346191D01*
X476798Y346100D01*
X476803Y346093D01*
X476805Y346086D01*
X476907Y345938D01*
X477493Y345352D01*
X477493Y340956D01*
X474384Y337847D01*
X469988Y337847D01*
G37*
%LPD*%
%LPC*%
G36*
X464261Y304249D02*
X464261Y304249D01*
X463368Y305142D01*
X463368Y305567D01*
X463367Y305572D01*
X463368Y305577D01*
X463347Y305670D01*
X463328Y305763D01*
X463326Y305768D01*
X463324Y305773D01*
X463269Y305850D01*
X463216Y305929D01*
X463211Y305932D01*
X463208Y305936D01*
X463127Y305987D01*
X463048Y306038D01*
X463043Y306039D01*
X463038Y306042D01*
X462861Y306074D01*
X449026Y306074D01*
X443102Y311997D01*
X443102Y317787D01*
X443101Y317795D01*
X443102Y317802D01*
X443081Y317892D01*
X443063Y317983D01*
X443058Y317990D01*
X443056Y317997D01*
X442954Y318145D01*
X442495Y318604D01*
X442495Y323000D01*
X445604Y326109D01*
X450000Y326109D01*
X453109Y323000D01*
X453109Y318604D01*
X452650Y318145D01*
X452646Y318139D01*
X452640Y318134D01*
X452591Y318056D01*
X452539Y317978D01*
X452538Y317971D01*
X452534Y317964D01*
X452502Y317787D01*
X452502Y316101D01*
X452503Y316093D01*
X452502Y316085D01*
X452523Y315995D01*
X452541Y315904D01*
X452546Y315898D01*
X452548Y315890D01*
X452650Y315742D01*
X452770Y315622D01*
X452777Y315618D01*
X452782Y315611D01*
X452860Y315562D01*
X452937Y315511D01*
X452945Y315510D01*
X452952Y315505D01*
X453129Y315473D01*
X462861Y315473D01*
X462866Y315474D01*
X462871Y315473D01*
X462964Y315494D01*
X463057Y315513D01*
X463062Y315516D01*
X463067Y315517D01*
X463145Y315572D01*
X463223Y315626D01*
X463226Y315630D01*
X463230Y315633D01*
X463281Y315714D01*
X463332Y315794D01*
X463333Y315799D01*
X463336Y315803D01*
X463368Y315981D01*
X463368Y316405D01*
X464261Y317298D01*
X476524Y317298D01*
X477418Y316405D01*
X477418Y305142D01*
X476524Y304249D01*
X464261Y304249D01*
G37*
%LPD*%
%LPC*%
G36*
X424776Y410491D02*
X424776Y410491D01*
X421667Y413600D01*
X421667Y414248D01*
X421666Y414256D01*
X421667Y414264D01*
X421646Y414354D01*
X421628Y414445D01*
X421623Y414451D01*
X421621Y414459D01*
X421519Y414607D01*
X416083Y420043D01*
X416076Y420047D01*
X416072Y420054D01*
X415993Y420103D01*
X415916Y420154D01*
X415908Y420155D01*
X415901Y420159D01*
X415724Y420191D01*
X414236Y420191D01*
X414228Y420190D01*
X414220Y420191D01*
X414130Y420170D01*
X414039Y420152D01*
X414033Y420147D01*
X414025Y420146D01*
X413877Y420043D01*
X412201Y418366D01*
X397866Y418366D01*
X395509Y420724D01*
X395509Y429058D01*
X397866Y431416D01*
X412201Y431416D01*
X413877Y429739D01*
X413884Y429735D01*
X413888Y429729D01*
X413967Y429680D01*
X414044Y429629D01*
X414052Y429627D01*
X414058Y429623D01*
X414236Y429591D01*
X419828Y429591D01*
X428165Y421253D01*
X428172Y421249D01*
X428176Y421243D01*
X428255Y421194D01*
X428332Y421142D01*
X428340Y421141D01*
X428347Y421137D01*
X428524Y421105D01*
X429172Y421105D01*
X432281Y417996D01*
X432281Y413600D01*
X429172Y410491D01*
X424776Y410491D01*
G37*
%LPD*%
%LPC*%
G36*
X360260Y439955D02*
X360260Y439955D01*
X357151Y443064D01*
X357151Y447460D01*
X357610Y447919D01*
X357614Y447925D01*
X357620Y447930D01*
X357669Y448008D01*
X357721Y448086D01*
X357722Y448093D01*
X357726Y448100D01*
X357758Y448277D01*
X357758Y452035D01*
X366353Y460630D01*
X370274Y460630D01*
X370282Y460631D01*
X370289Y460630D01*
X370379Y460651D01*
X370470Y460669D01*
X370477Y460674D01*
X370485Y460676D01*
X370633Y460778D01*
X372309Y462455D01*
X386643Y462455D01*
X389001Y460097D01*
X389001Y451763D01*
X386643Y449405D01*
X372309Y449405D01*
X370724Y450990D01*
X370720Y450993D01*
X370717Y450997D01*
X370636Y451049D01*
X370557Y451101D01*
X370552Y451102D01*
X370547Y451105D01*
X370454Y451121D01*
X370360Y451139D01*
X370355Y451138D01*
X370350Y451139D01*
X370257Y451117D01*
X370164Y451097D01*
X370160Y451094D01*
X370155Y451093D01*
X370007Y450990D01*
X367479Y448463D01*
X367476Y448458D01*
X367472Y448455D01*
X367421Y448375D01*
X367368Y448296D01*
X367367Y448291D01*
X367365Y448286D01*
X367349Y448193D01*
X367331Y448099D01*
X367332Y448094D01*
X367331Y448089D01*
X367352Y447997D01*
X367372Y447903D01*
X367375Y447899D01*
X367377Y447894D01*
X367479Y447746D01*
X367765Y447460D01*
X367765Y443064D01*
X364656Y439955D01*
X360260Y439955D01*
G37*
%LPD*%
%LPC*%
G36*
X321072Y395424D02*
X321072Y395424D01*
X320179Y396317D01*
X320179Y407580D01*
X321072Y408474D01*
X333335Y408474D01*
X334229Y407580D01*
X334229Y407046D01*
X334230Y407041D01*
X334229Y407035D01*
X334249Y406942D01*
X334268Y406849D01*
X334271Y406845D01*
X334272Y406840D01*
X334327Y406762D01*
X334381Y406683D01*
X334385Y406681D01*
X334388Y406676D01*
X334470Y406626D01*
X334549Y406574D01*
X334554Y406573D01*
X334558Y406571D01*
X334736Y406539D01*
X343774Y406539D01*
X343782Y406540D01*
X343789Y406539D01*
X343879Y406560D01*
X343970Y406578D01*
X343977Y406583D01*
X343985Y406584D01*
X344133Y406687D01*
X344936Y407491D01*
X354199Y407491D01*
X355092Y406597D01*
X355092Y397334D01*
X354199Y396441D01*
X344936Y396441D01*
X344133Y397245D01*
X344126Y397249D01*
X344121Y397255D01*
X344043Y397304D01*
X343966Y397355D01*
X343958Y397357D01*
X343951Y397361D01*
X343774Y397393D01*
X334736Y397393D01*
X334731Y397392D01*
X334725Y397393D01*
X334632Y397372D01*
X334539Y397353D01*
X334535Y397351D01*
X334530Y397349D01*
X334452Y397294D01*
X334373Y397241D01*
X334371Y397236D01*
X334366Y397233D01*
X334316Y397152D01*
X334264Y397073D01*
X334263Y397068D01*
X334261Y397063D01*
X334229Y396886D01*
X334229Y396317D01*
X333335Y395424D01*
X321072Y395424D01*
G37*
%LPD*%
%LPC*%
G36*
X287981Y420703D02*
X287981Y420703D01*
X286178Y422507D01*
X286171Y422511D01*
X286166Y422517D01*
X286088Y422566D01*
X286011Y422618D01*
X286003Y422619D01*
X285996Y422623D01*
X285819Y422655D01*
X278986Y422655D01*
X278978Y422654D01*
X278971Y422655D01*
X278881Y422634D01*
X278790Y422616D01*
X278783Y422611D01*
X278776Y422609D01*
X278628Y422507D01*
X278042Y421921D01*
X273646Y421921D01*
X270537Y425030D01*
X270537Y429426D01*
X273646Y432535D01*
X278042Y432535D01*
X278628Y431949D01*
X278634Y431945D01*
X278639Y431939D01*
X278717Y431890D01*
X278794Y431838D01*
X278802Y431837D01*
X278809Y431833D01*
X278986Y431801D01*
X285819Y431801D01*
X285827Y431802D01*
X285834Y431801D01*
X285924Y431822D01*
X286015Y431840D01*
X286022Y431845D01*
X286030Y431847D01*
X286178Y431949D01*
X287981Y433753D01*
X302315Y433753D01*
X304673Y431395D01*
X304673Y423061D01*
X302315Y420703D01*
X287981Y420703D01*
G37*
%LPD*%
%LPC*%
G36*
X312381Y450341D02*
X312381Y450341D01*
X309272Y453450D01*
X309272Y453771D01*
X309271Y453776D01*
X309272Y453781D01*
X309251Y453874D01*
X309233Y453968D01*
X309230Y453972D01*
X309229Y453977D01*
X309173Y454055D01*
X309120Y454133D01*
X309116Y454136D01*
X309113Y454140D01*
X309031Y454191D01*
X308952Y454243D01*
X308947Y454243D01*
X308942Y454246D01*
X308765Y454278D01*
X306890Y454278D01*
X306882Y454277D01*
X306875Y454278D01*
X306785Y454257D01*
X306694Y454239D01*
X306687Y454234D01*
X306679Y454232D01*
X306531Y454130D01*
X304855Y452453D01*
X290521Y452453D01*
X288163Y454811D01*
X288163Y463145D01*
X290521Y465503D01*
X304855Y465503D01*
X306531Y463826D01*
X306538Y463822D01*
X306543Y463816D01*
X306621Y463767D01*
X306698Y463715D01*
X306706Y463714D01*
X306713Y463710D01*
X306890Y463678D01*
X313196Y463678D01*
X315770Y461103D01*
X315777Y461099D01*
X315781Y461093D01*
X315860Y461044D01*
X315937Y460992D01*
X315945Y460991D01*
X315952Y460987D01*
X316129Y460955D01*
X316777Y460955D01*
X319886Y457846D01*
X319886Y453450D01*
X316777Y450341D01*
X312381Y450341D01*
G37*
%LPD*%
%LPC*%
G36*
X344936Y411441D02*
X344936Y411441D01*
X344043Y412334D01*
X344043Y421597D01*
X344846Y422401D01*
X344851Y422407D01*
X344857Y422412D01*
X344906Y422490D01*
X344957Y422568D01*
X344959Y422575D01*
X344963Y422582D01*
X344995Y422759D01*
X344995Y428340D01*
X344993Y428348D01*
X344995Y428356D01*
X344974Y428446D01*
X344955Y428537D01*
X344951Y428543D01*
X344949Y428551D01*
X344846Y428699D01*
X344197Y429348D01*
X344197Y433744D01*
X347306Y436853D01*
X351702Y436853D01*
X354811Y433744D01*
X354811Y429348D01*
X354289Y428826D01*
X354284Y428819D01*
X354278Y428815D01*
X354229Y428736D01*
X354178Y428659D01*
X354176Y428651D01*
X354172Y428645D01*
X354140Y428467D01*
X354140Y422759D01*
X354142Y422752D01*
X354140Y422744D01*
X354161Y422654D01*
X354180Y422563D01*
X354184Y422556D01*
X354186Y422549D01*
X354289Y422401D01*
X355092Y421597D01*
X355092Y412334D01*
X354199Y411441D01*
X344936Y411441D01*
G37*
%LPD*%
D10*
X349568Y401966D03*
X349568Y416966D03*
D11*
X470393Y310774D03*
X470393Y327774D03*
X327204Y401949D03*
X327204Y418949D03*
D12*
X300648Y429728D02*
X289648Y429728D01*
X300648Y429728D02*
X300648Y424728D01*
X289648Y424728D01*
X289648Y429728D01*
X289648Y429478D02*
X300648Y429478D01*
X303188Y456478D02*
X292188Y456478D01*
X292188Y461478D01*
X303188Y461478D01*
X303188Y456478D01*
X303188Y461228D02*
X292188Y461228D01*
X373976Y453430D02*
X384976Y453430D01*
X373976Y453430D02*
X373976Y458430D01*
X384976Y458430D01*
X384976Y453430D01*
X384976Y458180D02*
X373976Y458180D01*
X399534Y422391D02*
X410534Y422391D01*
X399534Y422391D02*
X399534Y427391D01*
X410534Y427391D01*
X410534Y422391D01*
X410534Y427141D02*
X399534Y427141D01*
D13*
X428802Y489302D03*
X511402Y346202D03*
X428802Y203102D03*
X263602Y489302D03*
X470102Y417702D03*
X470102Y274702D03*
X346202Y203102D03*
X222302Y417702D03*
X346202Y489302D03*
D14*
G36*
X306693Y257378D02*
X313043Y246380D01*
X304383Y241380D01*
X298033Y252378D01*
X306693Y257378D01*
G37*
G36*
X317691Y263728D02*
X324041Y252730D01*
X315381Y247730D01*
X309031Y258728D01*
X317691Y263728D01*
G37*
G36*
X328690Y270078D02*
X335040Y259080D01*
X326380Y254080D01*
X320030Y265078D01*
X328690Y270078D01*
G37*
G36*
X339688Y276428D02*
X346038Y265430D01*
X337378Y260430D01*
X331028Y271428D01*
X339688Y276428D01*
G37*
G36*
X350687Y282778D02*
X357037Y271780D01*
X348377Y266780D01*
X342027Y277778D01*
X350687Y282778D01*
G37*
G36*
X342893Y293578D02*
X353891Y299928D01*
X358891Y291268D01*
X347893Y284918D01*
X342893Y293578D01*
G37*
G36*
X336543Y304577D02*
X347541Y310927D01*
X352541Y302267D01*
X341543Y295917D01*
X336543Y304577D01*
G37*
G36*
X330193Y315575D02*
X341191Y321925D01*
X346191Y313265D01*
X335193Y306915D01*
X330193Y315575D01*
G37*
G36*
X323843Y326574D02*
X334841Y332924D01*
X339841Y324264D01*
X328843Y317914D01*
X323843Y326574D01*
G37*
G36*
X317493Y337572D02*
X328491Y343922D01*
X333491Y335262D01*
X322493Y328912D01*
X317493Y337572D01*
G37*
G36*
X311143Y348571D02*
X322141Y354921D01*
X327141Y346261D01*
X316143Y339911D01*
X311143Y348571D01*
G37*
G36*
X304793Y359569D02*
X315791Y365919D01*
X320791Y357259D01*
X309793Y350909D01*
X304793Y359569D01*
G37*
G36*
X298443Y370568D02*
X309441Y376918D01*
X314441Y368258D01*
X303443Y361908D01*
X298443Y370568D01*
G37*
G36*
X292093Y381567D02*
X303091Y387917D01*
X308091Y379257D01*
X297093Y372907D01*
X292093Y381567D01*
G37*
G36*
X280877Y383694D02*
X274527Y394692D01*
X283187Y399692D01*
X289537Y388694D01*
X280877Y383694D01*
G37*
G36*
X269878Y377344D02*
X263528Y388342D01*
X272188Y393342D01*
X278538Y382344D01*
X269878Y377344D01*
G37*
G36*
X258880Y370994D02*
X252530Y381992D01*
X261190Y386992D01*
X267540Y375994D01*
X258880Y370994D01*
G37*
G36*
X247881Y364644D02*
X241531Y375642D01*
X250191Y380642D01*
X256541Y369644D01*
X247881Y364644D01*
G37*
G36*
X236883Y358294D02*
X230533Y369292D01*
X239193Y374292D01*
X245543Y363294D01*
X236883Y358294D01*
G37*
G36*
X225884Y351944D02*
X219534Y362942D01*
X228194Y367942D01*
X234544Y356944D01*
X225884Y351944D01*
G37*
G36*
X208498Y321757D02*
X197500Y315407D01*
X192500Y324067D01*
X203498Y330417D01*
X208498Y321757D01*
G37*
G36*
X214848Y310758D02*
X203850Y304408D01*
X198850Y313068D01*
X209848Y319418D01*
X214848Y310758D01*
G37*
G36*
X221198Y299759D02*
X210200Y293409D01*
X205200Y302069D01*
X216198Y308419D01*
X221198Y299759D01*
G37*
D15*
G36*
X380374Y243211D02*
X369116Y236711D01*
X361616Y249701D01*
X372874Y256201D01*
X380374Y243211D01*
G37*
G36*
X396828Y252711D02*
X385570Y246211D01*
X378070Y259201D01*
X389328Y265701D01*
X396828Y252711D01*
G37*
D11*
G36*
X382934Y271284D02*
X373408Y265784D01*
X368408Y274444D01*
X377934Y279944D01*
X382934Y271284D01*
G37*
G36*
X397656Y279784D02*
X388130Y274284D01*
X383130Y282944D01*
X392656Y288444D01*
X397656Y279784D01*
G37*
D16*
G36*
X370105Y324775D02*
X378765Y329775D01*
X384265Y320249D01*
X375605Y315249D01*
X370105Y324775D01*
G37*
G36*
X355383Y316275D02*
X364043Y321275D01*
X369543Y311749D01*
X360883Y306749D01*
X355383Y316275D01*
G37*
D12*
X367875Y295072D02*
X377401Y300571D01*
X379901Y296240D01*
X370375Y290741D01*
X367875Y295072D01*
X368601Y295491D02*
X378603Y295491D01*
X377591Y300241D02*
X376829Y300241D01*
X350432Y375880D02*
X339432Y375880D01*
X350432Y375880D02*
X350432Y370880D01*
X339432Y370880D01*
X339432Y375880D01*
X339432Y375630D02*
X350432Y375630D01*
X379818Y369356D02*
X390818Y369356D01*
X379818Y369356D02*
X379818Y374356D01*
X390818Y374356D01*
X390818Y369356D01*
X390818Y374106D02*
X379818Y374106D01*
D16*
G36*
X257775Y449133D02*
X252775Y440473D01*
X243249Y445973D01*
X248249Y454633D01*
X257775Y449133D01*
G37*
G36*
X266275Y463855D02*
X261275Y455195D01*
X251749Y460695D01*
X256749Y469355D01*
X266275Y463855D01*
G37*
D11*
G36*
X207674Y364502D02*
X198148Y359002D01*
X193148Y367662D01*
X202674Y373162D01*
X207674Y364502D01*
G37*
G36*
X222396Y373002D02*
X212870Y367502D01*
X207870Y376162D01*
X217396Y381662D01*
X222396Y373002D01*
G37*
D12*
X233769Y378249D02*
X228270Y387775D01*
X233769Y378249D02*
X229438Y375749D01*
X223939Y385275D01*
X228270Y387775D01*
X226696Y380499D02*
X232470Y380499D01*
X229728Y385249D02*
X223954Y385249D01*
X297394Y219622D02*
X297394Y208622D01*
X292394Y208622D01*
X292394Y219622D01*
X297394Y219622D01*
X297394Y213372D02*
X292394Y213372D01*
X292394Y218122D02*
X297394Y218122D01*
X348448Y239864D02*
X348448Y250864D01*
X348448Y239864D02*
X343448Y239864D01*
X343448Y250864D01*
X348448Y250864D01*
X348448Y244614D02*
X343448Y244614D01*
X343448Y249364D02*
X348448Y249364D01*
D17*
X349568Y416966D02*
X349568Y431483D01*
D18*
X349504Y431546D01*
D19*
X349504Y431546D03*
D18*
X390393Y309304D02*
X390393Y281364D01*
X390393Y309304D02*
X377185Y322512D01*
X390393Y258900D02*
X387449Y255956D01*
X390393Y258900D02*
X390393Y281364D01*
X200411Y366082D02*
X193040Y361171D01*
X193040Y337820D01*
X387449Y255956D02*
X397510Y240030D01*
D19*
X397510Y240030D03*
D18*
X200499Y322912D02*
X193040Y337820D01*
D19*
X193040Y337820D03*
D18*
X200499Y322912D02*
X213360Y330200D01*
D19*
X213360Y330200D03*
D18*
X338192Y314420D02*
X356879Y324906D01*
X357186Y325078D01*
X367267Y330735D01*
X373000Y329259D01*
X377185Y322512D01*
D19*
X423418Y269748D03*
X423672Y247650D03*
D18*
X423672Y268986D01*
X423418Y269748D01*
D19*
X354838Y329438D03*
D18*
X357186Y325078D01*
D19*
X391160Y403352D03*
X296418Y409956D03*
X300228Y272796D03*
D18*
X327535Y262079D02*
X334010Y250190D01*
X334010Y247650D01*
X314928Y228568D01*
X298418Y228568D01*
X294894Y225044D01*
X294894Y214122D01*
D19*
X330200Y289560D03*
D18*
X313690Y289560D01*
X311150Y287020D01*
X311150Y276860D01*
X317500Y270510D01*
X322580Y270510D01*
X327535Y262079D01*
D19*
X235966Y392430D03*
D17*
X235966Y404038D01*
X222302Y417702D01*
D18*
X338533Y268429D02*
X345440Y256540D01*
X345440Y245872D01*
X345948Y245364D01*
D19*
X321310Y280670D03*
D18*
X329621Y280670D02*
X338533Y268429D01*
X329621Y280670D02*
X321310Y280670D01*
D19*
X275844Y441960D03*
D17*
X316738Y441960D01*
X327204Y431494D02*
X327204Y418949D01*
X327204Y431494D02*
X316738Y441960D01*
X327221Y401966D02*
X349568Y401966D01*
D18*
X327221Y401966D02*
X327204Y401949D01*
X450972Y310774D02*
X470393Y310774D01*
X450972Y310774D02*
X447802Y313944D01*
X447802Y320802D01*
D19*
X447802Y320802D03*
X328676Y447040D03*
D17*
X328676Y448818D01*
X346202Y466344D02*
X346202Y489302D01*
X346202Y466344D02*
X328676Y448818D01*
D19*
X362458Y445262D03*
D18*
X368300Y455930D02*
X379476Y455930D01*
X368300Y455930D02*
X362458Y450088D01*
X362458Y445262D01*
D19*
X426974Y415798D03*
D18*
X417881Y424891D02*
X405034Y424891D01*
X417881Y424891D02*
X426974Y415798D01*
D19*
X409956Y274574D03*
D20*
X465276Y279528D02*
X470102Y274702D01*
D17*
X465276Y279528D02*
X414910Y279528D01*
X409956Y274574D01*
D19*
X380238Y230378D03*
D17*
X380238Y214532D01*
X368808Y203102D01*
X346202Y203102D01*
X450342Y397942D02*
X470102Y417702D01*
D19*
X450342Y333502D03*
D17*
X450342Y397942D01*
D19*
X472186Y343154D03*
D17*
X472186Y369313D01*
X468884Y372652D01*
X468884Y382016D01*
D19*
X468884Y382016D03*
X275844Y427228D03*
D17*
X295148Y427228D01*
D18*
X297688Y458978D02*
X311249Y458978D01*
X314579Y455648D01*
D19*
X314579Y455648D03*
D18*
X362463Y314012D02*
X344542Y303422D01*
X362463Y314012D02*
X373888Y295656D01*
X312792Y358414D02*
X316328Y361950D01*
X363474Y361950D01*
X373380Y371856D01*
X385318Y371856D01*
X310409Y373380D02*
X306442Y369413D01*
X310409Y373380D02*
X344932Y373380D01*
X238038Y366293D02*
X228854Y381762D01*
X215133Y374582D01*
X228953Y381663D02*
X239479Y381663D01*
X228953Y381663D02*
X228854Y381762D01*
X239479Y381663D02*
X249750Y391934D01*
X249750Y446791D02*
X250512Y447553D01*
X249750Y446791D02*
X249750Y391934D01*
M02*
