G04 EAGLE Gerber RS-274X export*
G75*
%MOMM*%
%FSLAX34Y34*%
%LPD*%
%INBottom Copper*%
%IPPOS*%
%AMOC8*
5,1,8,0,0,1.08239X$1,22.5*%
G01*
%ADD10R,1.000000X1.100000*%
%ADD11R,1.500000X1.300000*%
%ADD12C,0.124994*%
%ADD13R,5.699988X5.699988*%
%ADD14R,1.399997X0.400000*%
%ADD15R,1.100000X1.000000*%
%ADD16R,1.300000X1.500000*%
%ADD17C,0.499997*%
%ADD18C,1.000000*%
%ADD19C,0.254000*%
%ADD20C,0.756400*%
%ADD21C,0.635000*%
%ADD22C,0.457200*%
%ADD23C,0.609600*%
%ADD24C,0.508000*%
%ADD25C,0.406400*%

G36*
X316900Y197736D02*
X316900Y197736D01*
X316985Y197748D01*
X316997Y197756D01*
X317011Y197758D01*
X317083Y197807D01*
X317157Y197852D01*
X317165Y197863D01*
X317177Y197871D01*
X317224Y197943D01*
X317275Y198014D01*
X317279Y198028D01*
X317286Y198039D01*
X317296Y198094D01*
X317320Y198188D01*
X317422Y199547D01*
X317413Y199617D01*
X317413Y199687D01*
X317401Y199718D01*
X317397Y199746D01*
X317372Y199790D01*
X317346Y199854D01*
X317343Y199859D01*
X317487Y200492D01*
X317488Y200526D01*
X317499Y200567D01*
X317547Y201214D01*
X317551Y201217D01*
X317595Y201273D01*
X317644Y201323D01*
X317657Y201353D01*
X317674Y201376D01*
X317688Y201425D01*
X317715Y201489D01*
X318242Y203799D01*
X318244Y203869D01*
X318254Y203939D01*
X318247Y203971D01*
X318247Y203999D01*
X318228Y204047D01*
X318213Y204114D01*
X318210Y204119D01*
X318447Y204723D01*
X318454Y204758D01*
X318470Y204796D01*
X318614Y205429D01*
X318619Y205431D01*
X318670Y205480D01*
X318727Y205522D01*
X318744Y205550D01*
X318764Y205570D01*
X318785Y205617D01*
X318821Y205676D01*
X319687Y207881D01*
X319699Y207951D01*
X319719Y208018D01*
X319717Y208051D01*
X319722Y208078D01*
X319710Y208129D01*
X319704Y208198D01*
X319703Y208203D01*
X320027Y208765D01*
X320039Y208798D01*
X320060Y208833D01*
X320297Y209437D01*
X320303Y209439D01*
X320360Y209480D01*
X320423Y209513D01*
X320444Y209538D01*
X320467Y209554D01*
X320494Y209598D01*
X320539Y209651D01*
X321724Y211702D01*
X321733Y211730D01*
X321736Y211735D01*
X321738Y211745D01*
X321746Y211769D01*
X321776Y211833D01*
X321779Y211866D01*
X321787Y211892D01*
X321784Y211944D01*
X321788Y212013D01*
X321788Y212018D01*
X322192Y212526D01*
X322208Y212557D01*
X322235Y212588D01*
X322559Y213150D01*
X322565Y213152D01*
X322628Y213183D01*
X322694Y213207D01*
X322719Y213228D01*
X322744Y213241D01*
X322778Y213280D01*
X322830Y213325D01*
X324307Y215178D01*
X324339Y215240D01*
X324379Y215299D01*
X324386Y215331D01*
X324399Y215356D01*
X324403Y215407D01*
X324417Y215475D01*
X324418Y215480D01*
X324893Y215922D01*
X324914Y215950D01*
X324945Y215977D01*
X325349Y216485D01*
X325355Y216485D01*
X325422Y216507D01*
X325491Y216520D01*
X325519Y216538D01*
X325546Y216547D01*
X325585Y216580D01*
X325643Y216618D01*
X327380Y218229D01*
X327421Y218286D01*
X327469Y218338D01*
X327481Y218369D01*
X327497Y218392D01*
X327509Y218442D01*
X327533Y218507D01*
X327534Y218512D01*
X328070Y218877D01*
X328095Y218902D01*
X328130Y218925D01*
X328605Y219366D01*
X328611Y219366D01*
X328680Y219377D01*
X328751Y219380D01*
X328781Y219394D01*
X328809Y219398D01*
X328852Y219425D01*
X328916Y219454D01*
X330873Y220788D01*
X330922Y220839D01*
X330977Y220883D01*
X330993Y220912D01*
X331013Y220932D01*
X331032Y220980D01*
X331066Y221040D01*
X331068Y221045D01*
X331653Y221327D01*
X331680Y221348D01*
X331718Y221365D01*
X332254Y221730D01*
X332260Y221729D01*
X332330Y221730D01*
X332401Y221722D01*
X332432Y221731D01*
X332460Y221731D01*
X332507Y221752D01*
X332574Y221770D01*
X334709Y222798D01*
X334765Y222841D01*
X334826Y222877D01*
X334846Y222902D01*
X334868Y222919D01*
X334894Y222964D01*
X334937Y223018D01*
X334940Y223023D01*
X335560Y223214D01*
X335590Y223231D01*
X335630Y223242D01*
X336215Y223524D01*
X336220Y223522D01*
X336290Y223512D01*
X336358Y223494D01*
X336391Y223498D01*
X336419Y223494D01*
X336469Y223508D01*
X336537Y223516D01*
X338801Y224214D01*
X338863Y224248D01*
X338929Y224274D01*
X338952Y224297D01*
X338977Y224310D01*
X339009Y224350D01*
X339060Y224398D01*
X339063Y224402D01*
X339704Y224499D01*
X339737Y224511D01*
X339778Y224516D01*
X340399Y224707D01*
X340403Y224704D01*
X340471Y224684D01*
X340536Y224657D01*
X340569Y224656D01*
X340596Y224648D01*
X340647Y224653D01*
X340716Y224651D01*
X341960Y224839D01*
X342023Y224862D01*
X342090Y224877D01*
X342117Y224896D01*
X342148Y224907D01*
X342198Y224953D01*
X342253Y224993D01*
X342271Y225021D01*
X342295Y225043D01*
X342323Y225105D01*
X342359Y225163D01*
X342366Y225198D01*
X342378Y225226D01*
X342380Y225276D01*
X342391Y225340D01*
X342391Y283010D01*
X359076Y299695D01*
X360232Y299695D01*
X360240Y299696D01*
X360248Y299695D01*
X360338Y299716D01*
X360429Y299734D01*
X360435Y299739D01*
X360443Y299741D01*
X360591Y299843D01*
X360759Y300011D01*
X360763Y300018D01*
X360769Y300022D01*
X360818Y300101D01*
X360870Y300178D01*
X360871Y300186D01*
X360875Y300192D01*
X360907Y300370D01*
X360907Y306170D01*
X360906Y306175D01*
X360907Y306180D01*
X360886Y306273D01*
X360868Y306366D01*
X360865Y306371D01*
X360864Y306376D01*
X360808Y306454D01*
X360755Y306532D01*
X360751Y306535D01*
X360748Y306539D01*
X360666Y306590D01*
X360587Y306641D01*
X360582Y306642D01*
X360577Y306645D01*
X360400Y306677D01*
X357187Y306677D01*
X356561Y307303D01*
X356556Y307306D01*
X356553Y307310D01*
X356473Y307361D01*
X356394Y307414D01*
X356389Y307415D01*
X356384Y307418D01*
X356290Y307434D01*
X356197Y307452D01*
X356192Y307451D01*
X356187Y307451D01*
X356094Y307430D01*
X356001Y307410D01*
X355996Y307407D01*
X355991Y307406D01*
X355843Y307303D01*
X355217Y306677D01*
X352187Y306677D01*
X351561Y307303D01*
X351556Y307306D01*
X351553Y307310D01*
X351473Y307361D01*
X351394Y307414D01*
X351389Y307415D01*
X351384Y307418D01*
X351290Y307434D01*
X351197Y307452D01*
X351192Y307451D01*
X351187Y307451D01*
X351094Y307430D01*
X351001Y307410D01*
X350996Y307407D01*
X350991Y307406D01*
X350843Y307303D01*
X350217Y306677D01*
X347187Y306677D01*
X346561Y307303D01*
X346556Y307306D01*
X346553Y307310D01*
X346473Y307361D01*
X346394Y307414D01*
X346389Y307415D01*
X346384Y307418D01*
X346290Y307434D01*
X346197Y307452D01*
X346192Y307451D01*
X346187Y307451D01*
X346094Y307430D01*
X346001Y307410D01*
X345996Y307407D01*
X345991Y307406D01*
X345843Y307303D01*
X345217Y306677D01*
X342187Y306677D01*
X341561Y307303D01*
X341556Y307306D01*
X341553Y307310D01*
X341473Y307361D01*
X341394Y307414D01*
X341389Y307415D01*
X341384Y307418D01*
X341290Y307434D01*
X341197Y307452D01*
X341192Y307451D01*
X341187Y307451D01*
X341094Y307430D01*
X341001Y307410D01*
X340996Y307407D01*
X340991Y307406D01*
X340843Y307303D01*
X340217Y306677D01*
X337004Y306677D01*
X336999Y306676D01*
X336994Y306677D01*
X336901Y306656D01*
X336807Y306638D01*
X336803Y306635D01*
X336798Y306634D01*
X336720Y306578D01*
X336642Y306525D01*
X336639Y306521D01*
X336635Y306518D01*
X336584Y306436D01*
X336532Y306357D01*
X336532Y306352D01*
X336529Y306347D01*
X336497Y306170D01*
X336497Y302833D01*
X336498Y302825D01*
X336497Y302817D01*
X336518Y302727D01*
X336536Y302636D01*
X336541Y302630D01*
X336543Y302622D01*
X336645Y302474D01*
X337821Y301298D01*
X337821Y291792D01*
X335655Y289626D01*
X335651Y289620D01*
X335645Y289615D01*
X335596Y289536D01*
X335544Y289459D01*
X335543Y289451D01*
X335539Y289445D01*
X335507Y289267D01*
X335507Y287362D01*
X332398Y284253D01*
X328002Y284253D01*
X324971Y287285D01*
X324968Y287286D01*
X324967Y287288D01*
X324886Y287341D01*
X324804Y287395D01*
X324801Y287396D01*
X324799Y287397D01*
X324703Y287415D01*
X324607Y287433D01*
X324604Y287433D01*
X324602Y287433D01*
X324505Y287412D01*
X324411Y287391D01*
X324409Y287390D01*
X324406Y287389D01*
X324326Y287333D01*
X324246Y287277D01*
X324245Y287275D01*
X324243Y287273D01*
X324191Y287191D01*
X324139Y287108D01*
X324138Y287105D01*
X324137Y287103D01*
X324105Y286926D01*
X324105Y285590D01*
X324106Y285582D01*
X324105Y285575D01*
X324126Y285485D01*
X324144Y285394D01*
X324149Y285387D01*
X324151Y285380D01*
X324253Y285232D01*
X326617Y282868D01*
X326617Y278472D01*
X323508Y275363D01*
X319112Y275363D01*
X316003Y278472D01*
X316003Y282868D01*
X318367Y285232D01*
X318371Y285238D01*
X318377Y285243D01*
X318426Y285321D01*
X318478Y285399D01*
X318479Y285406D01*
X318483Y285413D01*
X318515Y285590D01*
X318515Y291988D01*
X325759Y299231D01*
X325763Y299238D01*
X325769Y299242D01*
X325818Y299321D01*
X325870Y299398D01*
X325871Y299406D01*
X325875Y299412D01*
X325907Y299590D01*
X325907Y312979D01*
X325927Y313090D01*
X325927Y315467D01*
X327187Y316727D01*
X330217Y316727D01*
X330843Y316101D01*
X330848Y316098D01*
X330851Y316094D01*
X330931Y316042D01*
X331010Y315990D01*
X331015Y315989D01*
X331020Y315986D01*
X331114Y315970D01*
X331207Y315952D01*
X331212Y315953D01*
X331218Y315952D01*
X331310Y315974D01*
X331403Y315994D01*
X331408Y315997D01*
X331413Y315998D01*
X331561Y316101D01*
X332187Y316727D01*
X335217Y316727D01*
X335843Y316101D01*
X335848Y316098D01*
X335851Y316094D01*
X335931Y316042D01*
X336010Y315990D01*
X336015Y315989D01*
X336020Y315986D01*
X336114Y315970D01*
X336207Y315952D01*
X336212Y315953D01*
X336218Y315952D01*
X336310Y315974D01*
X336403Y315994D01*
X336408Y315997D01*
X336413Y315998D01*
X336561Y316101D01*
X337187Y316727D01*
X340217Y316727D01*
X340843Y316101D01*
X340848Y316098D01*
X340851Y316094D01*
X340931Y316042D01*
X341010Y315990D01*
X341015Y315989D01*
X341020Y315986D01*
X341114Y315970D01*
X341207Y315952D01*
X341212Y315953D01*
X341218Y315952D01*
X341310Y315974D01*
X341403Y315994D01*
X341408Y315997D01*
X341413Y315998D01*
X341561Y316101D01*
X342187Y316727D01*
X345217Y316727D01*
X345843Y316101D01*
X345848Y316098D01*
X345851Y316094D01*
X345931Y316042D01*
X346010Y315990D01*
X346015Y315989D01*
X346020Y315986D01*
X346114Y315970D01*
X346207Y315952D01*
X346212Y315953D01*
X346218Y315952D01*
X346310Y315974D01*
X346403Y315994D01*
X346408Y315997D01*
X346413Y315998D01*
X346561Y316101D01*
X347187Y316727D01*
X350217Y316727D01*
X350843Y316101D01*
X350848Y316098D01*
X350851Y316094D01*
X350931Y316042D01*
X351010Y315990D01*
X351015Y315989D01*
X351020Y315986D01*
X351114Y315970D01*
X351207Y315952D01*
X351212Y315953D01*
X351218Y315952D01*
X351310Y315974D01*
X351403Y315994D01*
X351408Y315997D01*
X351413Y315998D01*
X351561Y316101D01*
X352187Y316727D01*
X355217Y316727D01*
X355843Y316101D01*
X355848Y316098D01*
X355851Y316094D01*
X355931Y316042D01*
X356010Y315990D01*
X356015Y315989D01*
X356020Y315986D01*
X356114Y315970D01*
X356207Y315952D01*
X356212Y315953D01*
X356218Y315952D01*
X356310Y315974D01*
X356403Y315994D01*
X356408Y315997D01*
X356413Y315998D01*
X356561Y316101D01*
X357187Y316727D01*
X360217Y316727D01*
X360843Y316101D01*
X360848Y316098D01*
X360851Y316094D01*
X360931Y316042D01*
X361010Y315990D01*
X361015Y315989D01*
X361020Y315986D01*
X361114Y315970D01*
X361207Y315952D01*
X361212Y315953D01*
X361218Y315952D01*
X361310Y315974D01*
X361403Y315994D01*
X361408Y315997D01*
X361413Y315998D01*
X361561Y316101D01*
X362187Y316727D01*
X365217Y316727D01*
X365843Y316101D01*
X365848Y316098D01*
X365851Y316094D01*
X365931Y316042D01*
X366010Y315990D01*
X366015Y315989D01*
X366020Y315986D01*
X366114Y315970D01*
X366207Y315952D01*
X366212Y315953D01*
X366218Y315952D01*
X366310Y315974D01*
X366403Y315994D01*
X366408Y315997D01*
X366413Y315998D01*
X366561Y316101D01*
X367187Y316727D01*
X370217Y316727D01*
X370843Y316101D01*
X370848Y316098D01*
X370851Y316094D01*
X370931Y316042D01*
X371010Y315990D01*
X371015Y315989D01*
X371020Y315986D01*
X371114Y315970D01*
X371207Y315952D01*
X371212Y315953D01*
X371218Y315952D01*
X371310Y315974D01*
X371403Y315994D01*
X371408Y315997D01*
X371413Y315998D01*
X371561Y316101D01*
X372187Y316727D01*
X375170Y316727D01*
X375175Y316728D01*
X375180Y316727D01*
X375273Y316748D01*
X375367Y316766D01*
X375371Y316769D01*
X375376Y316770D01*
X375454Y316826D01*
X375532Y316879D01*
X375535Y316883D01*
X375540Y316886D01*
X375590Y316968D01*
X375642Y317047D01*
X375643Y317052D01*
X375645Y317057D01*
X375677Y317234D01*
X375677Y320217D01*
X376303Y320843D01*
X376306Y320848D01*
X376310Y320851D01*
X376362Y320931D01*
X376414Y321010D01*
X376415Y321015D01*
X376418Y321020D01*
X376434Y321114D01*
X376452Y321207D01*
X376451Y321212D01*
X376452Y321218D01*
X376430Y321310D01*
X376410Y321403D01*
X376407Y321408D01*
X376406Y321413D01*
X376303Y321561D01*
X375677Y322187D01*
X375677Y325217D01*
X376303Y325843D01*
X376306Y325848D01*
X376310Y325851D01*
X376362Y325931D01*
X376414Y326010D01*
X376415Y326015D01*
X376418Y326020D01*
X376434Y326114D01*
X376452Y326207D01*
X376451Y326212D01*
X376452Y326218D01*
X376430Y326310D01*
X376410Y326403D01*
X376407Y326408D01*
X376406Y326413D01*
X376303Y326561D01*
X375677Y327187D01*
X375677Y330217D01*
X376303Y330843D01*
X376306Y330848D01*
X376310Y330851D01*
X376362Y330931D01*
X376414Y331010D01*
X376415Y331015D01*
X376418Y331020D01*
X376434Y331114D01*
X376452Y331207D01*
X376451Y331212D01*
X376452Y331218D01*
X376430Y331310D01*
X376410Y331403D01*
X376407Y331408D01*
X376406Y331413D01*
X376303Y331561D01*
X375677Y332187D01*
X375677Y335217D01*
X376303Y335843D01*
X376306Y335848D01*
X376310Y335851D01*
X376362Y335931D01*
X376414Y336010D01*
X376415Y336015D01*
X376418Y336020D01*
X376434Y336114D01*
X376452Y336207D01*
X376451Y336212D01*
X376452Y336218D01*
X376430Y336310D01*
X376410Y336403D01*
X376407Y336408D01*
X376406Y336413D01*
X376303Y336561D01*
X375677Y337187D01*
X375677Y340217D01*
X376303Y340843D01*
X376306Y340848D01*
X376310Y340851D01*
X376362Y340931D01*
X376414Y341010D01*
X376415Y341015D01*
X376418Y341020D01*
X376434Y341114D01*
X376452Y341207D01*
X376451Y341212D01*
X376452Y341218D01*
X376430Y341310D01*
X376410Y341403D01*
X376407Y341408D01*
X376406Y341413D01*
X376303Y341561D01*
X375677Y342187D01*
X375677Y345217D01*
X376303Y345843D01*
X376306Y345848D01*
X376310Y345851D01*
X376362Y345931D01*
X376414Y346010D01*
X376415Y346015D01*
X376418Y346020D01*
X376434Y346114D01*
X376452Y346207D01*
X376451Y346212D01*
X376452Y346218D01*
X376430Y346310D01*
X376410Y346403D01*
X376407Y346408D01*
X376406Y346413D01*
X376303Y346561D01*
X375677Y347187D01*
X375677Y350217D01*
X376303Y350843D01*
X376306Y350848D01*
X376310Y350851D01*
X376362Y350931D01*
X376414Y351010D01*
X376415Y351015D01*
X376418Y351020D01*
X376434Y351114D01*
X376452Y351207D01*
X376451Y351212D01*
X376452Y351218D01*
X376430Y351310D01*
X376410Y351403D01*
X376407Y351408D01*
X376406Y351413D01*
X376303Y351561D01*
X375677Y352187D01*
X375677Y355217D01*
X376303Y355843D01*
X376306Y355848D01*
X376310Y355851D01*
X376362Y355931D01*
X376414Y356010D01*
X376415Y356015D01*
X376418Y356020D01*
X376434Y356114D01*
X376452Y356207D01*
X376451Y356212D01*
X376452Y356218D01*
X376430Y356310D01*
X376410Y356403D01*
X376407Y356408D01*
X376406Y356413D01*
X376303Y356561D01*
X375677Y357187D01*
X375677Y360217D01*
X376303Y360843D01*
X376306Y360848D01*
X376310Y360851D01*
X376362Y360931D01*
X376414Y361010D01*
X376415Y361015D01*
X376418Y361020D01*
X376434Y361114D01*
X376452Y361207D01*
X376451Y361212D01*
X376452Y361218D01*
X376430Y361310D01*
X376410Y361403D01*
X376407Y361408D01*
X376406Y361413D01*
X376303Y361561D01*
X375677Y362187D01*
X375677Y365217D01*
X376303Y365843D01*
X376306Y365848D01*
X376310Y365851D01*
X376362Y365931D01*
X376414Y366010D01*
X376415Y366015D01*
X376418Y366020D01*
X376434Y366114D01*
X376452Y366207D01*
X376451Y366212D01*
X376452Y366218D01*
X376430Y366310D01*
X376410Y366403D01*
X376407Y366408D01*
X376406Y366413D01*
X376303Y366561D01*
X375677Y367187D01*
X375677Y370217D01*
X376303Y370843D01*
X376306Y370848D01*
X376310Y370851D01*
X376362Y370931D01*
X376414Y371010D01*
X376415Y371015D01*
X376418Y371020D01*
X376434Y371114D01*
X376452Y371207D01*
X376451Y371212D01*
X376452Y371218D01*
X376430Y371310D01*
X376410Y371403D01*
X376407Y371408D01*
X376406Y371413D01*
X376303Y371561D01*
X375677Y372187D01*
X375677Y375170D01*
X375676Y375175D01*
X375677Y375180D01*
X375656Y375273D01*
X375638Y375367D01*
X375635Y375371D01*
X375634Y375376D01*
X375578Y375454D01*
X375525Y375532D01*
X375521Y375535D01*
X375518Y375540D01*
X375436Y375590D01*
X375357Y375642D01*
X375352Y375643D01*
X375347Y375645D01*
X375170Y375677D01*
X372187Y375677D01*
X370927Y376937D01*
X370927Y379314D01*
X370926Y379319D01*
X370927Y379325D01*
X370927Y379327D01*
X370927Y379330D01*
X370907Y379415D01*
X370907Y387773D01*
X370906Y387781D01*
X370907Y387788D01*
X370886Y387878D01*
X370868Y387970D01*
X370863Y387976D01*
X370861Y387984D01*
X370759Y388132D01*
X370152Y388738D01*
X370152Y401001D01*
X371045Y401895D01*
X382308Y401895D01*
X383202Y401001D01*
X383202Y399301D01*
X383203Y399296D01*
X383202Y399290D01*
X383222Y399197D01*
X383241Y399104D01*
X383244Y399100D01*
X383245Y399095D01*
X383301Y399017D01*
X383354Y398938D01*
X383358Y398936D01*
X383361Y398931D01*
X383443Y398881D01*
X383522Y398829D01*
X383527Y398828D01*
X383532Y398825D01*
X383709Y398793D01*
X385953Y398793D01*
X385958Y398794D01*
X385963Y398794D01*
X386056Y398814D01*
X386150Y398833D01*
X386154Y398836D01*
X386159Y398837D01*
X386237Y398892D01*
X386315Y398946D01*
X386318Y398950D01*
X386322Y398953D01*
X386373Y399035D01*
X386425Y399114D01*
X386425Y399119D01*
X386428Y399123D01*
X386460Y399301D01*
X386460Y400337D01*
X386459Y400345D01*
X386460Y400352D01*
X386439Y400442D01*
X386421Y400533D01*
X386416Y400540D01*
X386414Y400547D01*
X386312Y400695D01*
X385853Y401154D01*
X385853Y405550D01*
X388962Y408659D01*
X393358Y408659D01*
X396467Y405550D01*
X396467Y401154D01*
X396008Y400695D01*
X396004Y400689D01*
X395998Y400684D01*
X395949Y400606D01*
X395897Y400528D01*
X395896Y400521D01*
X395892Y400514D01*
X395860Y400337D01*
X395860Y393506D01*
X395861Y393501D01*
X395860Y393495D01*
X395881Y393402D01*
X395899Y393309D01*
X395902Y393305D01*
X395903Y393300D01*
X395959Y393222D01*
X396012Y393143D01*
X396016Y393141D01*
X396019Y393136D01*
X396101Y393086D01*
X396180Y393034D01*
X396185Y393033D01*
X396190Y393030D01*
X396367Y392998D01*
X403790Y392998D01*
X404683Y392105D01*
X404683Y380842D01*
X403790Y379949D01*
X394462Y379949D01*
X394457Y379948D01*
X394452Y379949D01*
X394359Y379928D01*
X394265Y379909D01*
X394261Y379906D01*
X394256Y379905D01*
X394178Y379850D01*
X394100Y379797D01*
X394097Y379792D01*
X394093Y379789D01*
X394042Y379708D01*
X393990Y379629D01*
X393990Y379624D01*
X393987Y379619D01*
X393955Y379442D01*
X393955Y379080D01*
X392169Y377295D01*
X385768Y370894D01*
X385765Y370889D01*
X385761Y370886D01*
X385710Y370806D01*
X385657Y370727D01*
X385656Y370721D01*
X385653Y370717D01*
X385637Y370624D01*
X385619Y370530D01*
X385620Y370525D01*
X385620Y370519D01*
X385641Y370426D01*
X385661Y370334D01*
X385664Y370329D01*
X385665Y370324D01*
X385727Y370235D01*
X385727Y367187D01*
X385101Y366561D01*
X385098Y366556D01*
X385094Y366553D01*
X385043Y366473D01*
X384990Y366394D01*
X384989Y366389D01*
X384986Y366384D01*
X384970Y366290D01*
X384952Y366197D01*
X384953Y366192D01*
X384953Y366187D01*
X384974Y366094D01*
X384994Y366001D01*
X384997Y365996D01*
X384998Y365991D01*
X385101Y365843D01*
X385727Y365217D01*
X385727Y362187D01*
X385101Y361561D01*
X385098Y361556D01*
X385094Y361553D01*
X385043Y361473D01*
X384990Y361394D01*
X384989Y361389D01*
X384986Y361384D01*
X384970Y361290D01*
X384952Y361197D01*
X384953Y361192D01*
X384953Y361187D01*
X384974Y361094D01*
X384994Y361001D01*
X384997Y360996D01*
X384998Y360991D01*
X385101Y360843D01*
X385727Y360217D01*
X385727Y357004D01*
X385728Y356999D01*
X385727Y356994D01*
X385748Y356901D01*
X385766Y356807D01*
X385769Y356803D01*
X385770Y356798D01*
X385826Y356720D01*
X385879Y356642D01*
X385883Y356639D01*
X385886Y356635D01*
X385968Y356584D01*
X386047Y356532D01*
X386052Y356532D01*
X386057Y356529D01*
X386234Y356497D01*
X387858Y356497D01*
X387863Y356498D01*
X387868Y356497D01*
X387961Y356518D01*
X388055Y356536D01*
X388059Y356539D01*
X388064Y356540D01*
X388142Y356596D01*
X388220Y356649D01*
X388223Y356653D01*
X388227Y356656D01*
X388278Y356738D01*
X388330Y356817D01*
X388330Y356822D01*
X388333Y356827D01*
X388365Y357004D01*
X388365Y368113D01*
X389845Y370676D01*
X392407Y372155D01*
X395764Y372155D01*
X395771Y372156D01*
X395779Y372155D01*
X395869Y372176D01*
X395960Y372195D01*
X395967Y372199D01*
X395974Y372201D01*
X396122Y372303D01*
X396704Y372885D01*
X411967Y372885D01*
X412860Y371992D01*
X412860Y366729D01*
X411967Y365835D01*
X396704Y365835D01*
X396122Y366417D01*
X396116Y366421D01*
X396111Y366428D01*
X396033Y366476D01*
X395955Y366528D01*
X395948Y366529D01*
X395941Y366533D01*
X395764Y366565D01*
X394462Y366565D01*
X394457Y366564D01*
X394452Y366565D01*
X394359Y366545D01*
X394265Y366526D01*
X394261Y366523D01*
X394256Y366522D01*
X394178Y366467D01*
X394100Y366413D01*
X394097Y366409D01*
X394093Y366406D01*
X394042Y366324D01*
X393990Y366245D01*
X393990Y366240D01*
X393987Y366236D01*
X393955Y366058D01*
X393955Y354548D01*
X392632Y352258D01*
X392621Y352222D01*
X392600Y352191D01*
X392589Y352128D01*
X392568Y352068D01*
X392571Y352030D01*
X392565Y351994D01*
X392578Y351931D01*
X392583Y351868D01*
X392600Y351835D01*
X392608Y351798D01*
X392645Y351746D01*
X392674Y351689D01*
X392703Y351665D01*
X392724Y351635D01*
X392778Y351601D01*
X392827Y351560D01*
X392863Y351548D01*
X392894Y351529D01*
X392967Y351516D01*
X393018Y351500D01*
X393043Y351502D01*
X393072Y351497D01*
X394310Y351497D01*
X396095Y349711D01*
X396096Y349711D01*
X396773Y349034D01*
X396780Y349029D01*
X396784Y349023D01*
X396863Y348974D01*
X396940Y348923D01*
X396948Y348921D01*
X396954Y348917D01*
X397132Y348885D01*
X411967Y348885D01*
X412860Y347992D01*
X412860Y342729D01*
X412580Y342449D01*
X412579Y342447D01*
X412577Y342445D01*
X412524Y342364D01*
X412469Y342282D01*
X412469Y342279D01*
X412467Y342277D01*
X412450Y342181D01*
X412432Y342085D01*
X412432Y342083D01*
X412432Y342080D01*
X412453Y341983D01*
X412473Y341889D01*
X412475Y341887D01*
X412475Y341884D01*
X412532Y341804D01*
X412588Y341724D01*
X412590Y341723D01*
X412591Y341721D01*
X412674Y341669D01*
X412757Y341617D01*
X412759Y341616D01*
X412762Y341615D01*
X412939Y341583D01*
X414829Y341583D01*
X414837Y341585D01*
X414844Y341583D01*
X414934Y341604D01*
X415025Y341623D01*
X415032Y341627D01*
X415040Y341629D01*
X415188Y341732D01*
X428385Y354929D01*
X428389Y354935D01*
X428396Y354940D01*
X428444Y355019D01*
X428496Y355096D01*
X428497Y355103D01*
X428501Y355110D01*
X428533Y355287D01*
X428533Y361989D01*
X428532Y361994D01*
X428533Y361999D01*
X428513Y362092D01*
X428494Y362185D01*
X428491Y362189D01*
X428490Y362195D01*
X428434Y362272D01*
X428381Y362351D01*
X428377Y362354D01*
X428374Y362358D01*
X428292Y362409D01*
X428213Y362460D01*
X428208Y362461D01*
X428203Y362464D01*
X428026Y362496D01*
X426459Y362496D01*
X425565Y363389D01*
X425565Y375652D01*
X426459Y376545D01*
X437722Y376545D01*
X438576Y375691D01*
X438579Y375689D01*
X438580Y375687D01*
X438660Y375635D01*
X438743Y375580D01*
X438746Y375579D01*
X438748Y375578D01*
X438844Y375560D01*
X438940Y375542D01*
X438943Y375543D01*
X438945Y375542D01*
X439042Y375564D01*
X439136Y375584D01*
X439138Y375585D01*
X439141Y375586D01*
X439221Y375642D01*
X439301Y375698D01*
X439302Y375700D01*
X439304Y375702D01*
X439356Y375785D01*
X439408Y375867D01*
X439409Y375870D01*
X439410Y375872D01*
X439442Y376049D01*
X439442Y390580D01*
X439441Y390588D01*
X439442Y390595D01*
X439421Y390685D01*
X439403Y390776D01*
X439398Y390783D01*
X439396Y390790D01*
X439294Y390938D01*
X422401Y407831D01*
X422401Y412656D01*
X422400Y412664D01*
X422401Y412671D01*
X422380Y412761D01*
X422362Y412852D01*
X422357Y412859D01*
X422355Y412866D01*
X422253Y413014D01*
X421667Y413600D01*
X421667Y414248D01*
X421666Y414256D01*
X421667Y414264D01*
X421646Y414354D01*
X421628Y414445D01*
X421623Y414451D01*
X421621Y414459D01*
X421519Y414607D01*
X416083Y420043D01*
X416076Y420047D01*
X416072Y420054D01*
X415993Y420103D01*
X415916Y420154D01*
X415908Y420155D01*
X415901Y420159D01*
X415724Y420191D01*
X414236Y420191D01*
X414228Y420190D01*
X414220Y420191D01*
X414130Y420170D01*
X414039Y420152D01*
X414033Y420147D01*
X414025Y420146D01*
X413877Y420043D01*
X412201Y418366D01*
X397866Y418366D01*
X395509Y420724D01*
X395509Y429058D01*
X397866Y431416D01*
X412201Y431416D01*
X413877Y429739D01*
X413884Y429735D01*
X413888Y429729D01*
X413967Y429680D01*
X414044Y429629D01*
X414052Y429627D01*
X414058Y429623D01*
X414236Y429591D01*
X419828Y429591D01*
X428165Y421253D01*
X428172Y421249D01*
X428176Y421243D01*
X428255Y421194D01*
X428332Y421142D01*
X428340Y421141D01*
X428347Y421137D01*
X428524Y421105D01*
X429172Y421105D01*
X432281Y417996D01*
X432281Y413600D01*
X431695Y413014D01*
X431691Y413008D01*
X431685Y413003D01*
X431636Y412925D01*
X431584Y412847D01*
X431583Y412840D01*
X431579Y412833D01*
X431547Y412656D01*
X431547Y411829D01*
X431548Y411821D01*
X431547Y411814D01*
X431568Y411724D01*
X431586Y411633D01*
X431591Y411626D01*
X431593Y411619D01*
X431695Y411471D01*
X448588Y394578D01*
X448588Y369985D01*
X443551Y364948D01*
X439122Y364948D01*
X439117Y364947D01*
X439112Y364948D01*
X439019Y364927D01*
X438926Y364908D01*
X438921Y364905D01*
X438916Y364904D01*
X438838Y364849D01*
X438760Y364796D01*
X438757Y364791D01*
X438753Y364788D01*
X438702Y364707D01*
X438651Y364628D01*
X438650Y364622D01*
X438647Y364618D01*
X438615Y364441D01*
X438615Y363389D01*
X437722Y362496D01*
X436154Y362496D01*
X436149Y362495D01*
X436144Y362496D01*
X436051Y362475D01*
X435958Y362456D01*
X435953Y362453D01*
X435948Y362452D01*
X435870Y362397D01*
X435792Y362344D01*
X435789Y362339D01*
X435785Y362336D01*
X435734Y362255D01*
X435683Y362176D01*
X435682Y362170D01*
X435679Y362166D01*
X435647Y361989D01*
X435647Y358637D01*
X435647Y358635D01*
X435647Y358632D01*
X435667Y358537D01*
X435686Y358441D01*
X435688Y358439D01*
X435688Y358436D01*
X435744Y358356D01*
X435799Y358275D01*
X435801Y358274D01*
X435803Y358272D01*
X435887Y358218D01*
X435967Y358166D01*
X435970Y358165D01*
X435972Y358164D01*
X436068Y358148D01*
X436164Y358130D01*
X436167Y358131D01*
X436170Y358130D01*
X436264Y358152D01*
X436360Y358174D01*
X436362Y358175D01*
X436365Y358176D01*
X436513Y358279D01*
X437465Y359231D01*
X448728Y359231D01*
X449622Y358338D01*
X449622Y346075D01*
X448728Y345182D01*
X440490Y345182D01*
X440482Y345180D01*
X440474Y345182D01*
X440385Y345161D01*
X440293Y345142D01*
X440287Y345138D01*
X440279Y345136D01*
X440131Y345033D01*
X438182Y343084D01*
X438177Y343077D01*
X438171Y343073D01*
X438122Y342994D01*
X438071Y342917D01*
X438069Y342909D01*
X438065Y342902D01*
X438033Y342725D01*
X438033Y339686D01*
X438034Y339681D01*
X438033Y339676D01*
X438054Y339583D01*
X438073Y339489D01*
X438076Y339485D01*
X438077Y339480D01*
X438132Y339402D01*
X438185Y339324D01*
X438190Y339321D01*
X438193Y339316D01*
X438274Y339266D01*
X438353Y339214D01*
X438359Y339213D01*
X438363Y339211D01*
X438540Y339179D01*
X441465Y339179D01*
X442358Y338286D01*
X442358Y324088D01*
X442359Y324085D01*
X442358Y324082D01*
X442378Y323988D01*
X442398Y323891D01*
X442399Y323889D01*
X442400Y323886D01*
X442456Y323806D01*
X442510Y323725D01*
X442513Y323724D01*
X442514Y323722D01*
X442598Y323668D01*
X442678Y323616D01*
X442681Y323616D01*
X442683Y323614D01*
X442780Y323598D01*
X442876Y323580D01*
X442878Y323581D01*
X442881Y323581D01*
X442975Y323602D01*
X443071Y323624D01*
X443074Y323626D01*
X443076Y323626D01*
X443224Y323729D01*
X445604Y326109D01*
X449195Y326109D01*
X449197Y326109D01*
X449200Y326109D01*
X449295Y326129D01*
X449391Y326148D01*
X449393Y326150D01*
X449396Y326150D01*
X449477Y326206D01*
X449557Y326261D01*
X449558Y326263D01*
X449561Y326265D01*
X449614Y326348D01*
X449666Y326429D01*
X449667Y326432D01*
X449668Y326434D01*
X449684Y326530D01*
X449702Y326626D01*
X449701Y326629D01*
X449702Y326631D01*
X449680Y326726D01*
X449658Y326822D01*
X449657Y326824D01*
X449656Y326827D01*
X449553Y326975D01*
X448481Y328047D01*
X448475Y328051D01*
X448470Y328057D01*
X448392Y328106D01*
X448314Y328158D01*
X448307Y328159D01*
X448300Y328163D01*
X448149Y328191D01*
X445035Y331304D01*
X445035Y335700D01*
X448144Y338809D01*
X452540Y338809D01*
X455649Y335700D01*
X455649Y331149D01*
X455650Y331142D01*
X455649Y331134D01*
X455670Y331044D01*
X455688Y330953D01*
X455693Y330946D01*
X455695Y330939D01*
X455797Y330791D01*
X458746Y327842D01*
X458751Y327839D01*
X458754Y327834D01*
X458834Y327783D01*
X458913Y327731D01*
X458918Y327730D01*
X458923Y327727D01*
X459017Y327711D01*
X459110Y327693D01*
X459115Y327694D01*
X459121Y327693D01*
X459213Y327715D01*
X459306Y327735D01*
X459311Y327738D01*
X459316Y327739D01*
X459464Y327842D01*
X461209Y329587D01*
X468481Y336859D01*
X468485Y336865D01*
X468491Y336870D01*
X468540Y336948D01*
X468592Y337026D01*
X468593Y337033D01*
X468597Y337040D01*
X468629Y337217D01*
X468629Y338996D01*
X468628Y339004D01*
X468629Y339011D01*
X468608Y339101D01*
X468590Y339192D01*
X468585Y339199D01*
X468583Y339206D01*
X468481Y339354D01*
X466879Y340956D01*
X466879Y345352D01*
X469988Y348461D01*
X474384Y348461D01*
X477493Y345352D01*
X477493Y340956D01*
X475891Y339354D01*
X475887Y339348D01*
X475881Y339343D01*
X475832Y339265D01*
X475780Y339187D01*
X475779Y339180D01*
X475775Y339173D01*
X475743Y338996D01*
X475743Y334061D01*
X466239Y324557D01*
X466235Y324551D01*
X466229Y324546D01*
X466180Y324468D01*
X466128Y324390D01*
X466127Y324383D01*
X466123Y324376D01*
X466091Y324199D01*
X466091Y311201D01*
X439369Y284479D01*
X399847Y284479D01*
X388471Y295855D01*
X388468Y295857D01*
X388467Y295859D01*
X388386Y295911D01*
X388304Y295966D01*
X388301Y295967D01*
X388299Y295968D01*
X388203Y295986D01*
X388107Y296004D01*
X388104Y296003D01*
X388102Y296004D01*
X388005Y295982D01*
X387911Y295962D01*
X387909Y295961D01*
X387906Y295960D01*
X387826Y295904D01*
X387746Y295848D01*
X387745Y295846D01*
X387743Y295844D01*
X387691Y295761D01*
X387639Y295679D01*
X387638Y295676D01*
X387637Y295674D01*
X387605Y295497D01*
X387605Y291349D01*
X387606Y291341D01*
X387605Y291333D01*
X387626Y291243D01*
X387644Y291152D01*
X387649Y291146D01*
X387651Y291138D01*
X387753Y290990D01*
X400210Y278533D01*
X400216Y278529D01*
X400221Y278523D01*
X400300Y278474D01*
X400377Y278422D01*
X400385Y278421D01*
X400391Y278417D01*
X400569Y278385D01*
X406052Y278385D01*
X406060Y278386D01*
X406067Y278385D01*
X406157Y278406D01*
X406248Y278424D01*
X406255Y278429D01*
X406262Y278431D01*
X406410Y278533D01*
X407758Y279881D01*
X412154Y279881D01*
X415263Y276772D01*
X415263Y272376D01*
X412154Y269267D01*
X407758Y269267D01*
X406410Y270615D01*
X406404Y270619D01*
X406400Y270625D01*
X406399Y270625D01*
X406321Y270674D01*
X406244Y270726D01*
X406236Y270727D01*
X406229Y270731D01*
X406052Y270763D01*
X398283Y270763D01*
X398280Y270763D01*
X398277Y270763D01*
X398182Y270743D01*
X398086Y270724D01*
X398084Y270722D01*
X398081Y270722D01*
X398001Y270666D01*
X397920Y270611D01*
X397919Y270609D01*
X397917Y270607D01*
X397863Y270524D01*
X397811Y270443D01*
X397811Y270440D01*
X397809Y270438D01*
X397793Y270342D01*
X397775Y270246D01*
X397776Y270243D01*
X397776Y270241D01*
X397797Y270147D01*
X397819Y270050D01*
X397820Y270048D01*
X397821Y270045D01*
X397924Y269897D01*
X403130Y264691D01*
X403136Y264687D01*
X403141Y264681D01*
X403220Y264632D01*
X403297Y264580D01*
X403305Y264579D01*
X403311Y264575D01*
X403489Y264543D01*
X447277Y264543D01*
X447338Y264555D01*
X447400Y264558D01*
X447435Y264575D01*
X447473Y264582D01*
X447525Y264617D01*
X447581Y264644D01*
X447607Y264673D01*
X447639Y264695D01*
X447673Y264747D01*
X447714Y264793D01*
X447727Y264830D01*
X447748Y264863D01*
X447759Y264924D01*
X447779Y264983D01*
X447778Y265025D01*
X447784Y265060D01*
X447774Y265105D01*
X447771Y265163D01*
X447602Y265904D01*
X447573Y265968D01*
X447552Y266035D01*
X447531Y266061D01*
X447519Y266086D01*
X447482Y266121D01*
X447438Y266175D01*
X447434Y266179D01*
X447385Y266826D01*
X447376Y266859D01*
X447374Y266901D01*
X447229Y267533D01*
X447232Y267538D01*
X447257Y267604D01*
X447290Y267667D01*
X447293Y267699D01*
X447303Y267726D01*
X447301Y267777D01*
X447308Y267846D01*
X447131Y270211D01*
X447111Y270278D01*
X447101Y270348D01*
X447084Y270377D01*
X447076Y270404D01*
X447044Y270444D01*
X447009Y270504D01*
X447005Y270508D01*
X447054Y271155D01*
X447049Y271189D01*
X447054Y271231D01*
X447005Y271878D01*
X447009Y271882D01*
X447043Y271943D01*
X447085Y272000D01*
X447093Y272032D01*
X447107Y272057D01*
X447113Y272108D01*
X447130Y272175D01*
X447306Y274540D01*
X447298Y274610D01*
X447297Y274680D01*
X447285Y274711D01*
X447281Y274739D01*
X447256Y274783D01*
X447230Y274847D01*
X447227Y274852D01*
X447371Y275485D01*
X447372Y275519D01*
X447382Y275560D01*
X447431Y276207D01*
X447435Y276210D01*
X447478Y276266D01*
X447528Y276316D01*
X447541Y276346D01*
X447558Y276369D01*
X447571Y276419D01*
X447598Y276482D01*
X448125Y278794D01*
X448127Y278864D01*
X448132Y278889D01*
X448131Y278891D01*
X448137Y278935D01*
X448130Y278966D01*
X448130Y278994D01*
X448112Y279043D01*
X448096Y279110D01*
X448093Y279115D01*
X448330Y279719D01*
X448336Y279753D01*
X448353Y279791D01*
X448497Y280424D01*
X448502Y280427D01*
X448553Y280476D01*
X448609Y280518D01*
X448626Y280546D01*
X448647Y280565D01*
X448667Y280612D01*
X448704Y280671D01*
X449569Y282879D01*
X449582Y282949D01*
X449602Y283016D01*
X449599Y283049D01*
X449604Y283076D01*
X449593Y283127D01*
X449587Y283196D01*
X449586Y283201D01*
X449910Y283763D01*
X449921Y283796D01*
X449943Y283831D01*
X450180Y284435D01*
X450185Y284438D01*
X450243Y284478D01*
X450305Y284511D01*
X450326Y284536D01*
X450349Y284553D01*
X450376Y284596D01*
X450421Y284649D01*
X451606Y286703D01*
X451629Y286770D01*
X451659Y286834D01*
X451661Y286866D01*
X451670Y286893D01*
X451666Y286944D01*
X451671Y287014D01*
X451670Y287019D01*
X452075Y287526D01*
X452091Y287557D01*
X452117Y287589D01*
X452442Y288151D01*
X452447Y288153D01*
X452510Y288184D01*
X452577Y288208D01*
X452601Y288229D01*
X452626Y288242D01*
X452660Y288281D01*
X452712Y288326D01*
X454190Y290181D01*
X454222Y290244D01*
X454262Y290302D01*
X454269Y290334D01*
X454282Y290359D01*
X454285Y290411D01*
X454300Y290478D01*
X454300Y290484D01*
X454776Y290925D01*
X454796Y290953D01*
X454828Y290981D01*
X455232Y291488D01*
X455237Y291489D01*
X455305Y291511D01*
X455374Y291524D01*
X455402Y291542D01*
X455428Y291550D01*
X455467Y291584D01*
X455526Y291621D01*
X457263Y293235D01*
X457305Y293292D01*
X457352Y293344D01*
X457364Y293375D01*
X457380Y293397D01*
X457392Y293448D01*
X457417Y293512D01*
X457418Y293518D01*
X457954Y293883D01*
X457978Y293908D01*
X458013Y293931D01*
X458489Y294372D01*
X458494Y294372D01*
X458564Y294383D01*
X458634Y294386D01*
X458664Y294400D01*
X458692Y294404D01*
X458736Y294432D01*
X458799Y294460D01*
X460758Y295796D01*
X460807Y295847D01*
X460862Y295891D01*
X460878Y295920D01*
X460898Y295940D01*
X460917Y295988D01*
X460951Y296048D01*
X460952Y296053D01*
X461537Y296335D01*
X461565Y296356D01*
X461603Y296373D01*
X462139Y296739D01*
X462144Y296738D01*
X462215Y296738D01*
X462285Y296731D01*
X462316Y296740D01*
X462344Y296740D01*
X462392Y296761D01*
X462458Y296779D01*
X464595Y297809D01*
X464651Y297851D01*
X464712Y297887D01*
X464732Y297913D01*
X464754Y297930D01*
X464780Y297974D01*
X464823Y298029D01*
X464825Y298034D01*
X465446Y298225D01*
X465476Y298242D01*
X465516Y298253D01*
X466101Y298534D01*
X466106Y298533D01*
X466176Y298523D01*
X466244Y298505D01*
X466277Y298509D01*
X466304Y298505D01*
X466354Y298518D01*
X466423Y298527D01*
X468689Y299226D01*
X468751Y299260D01*
X468816Y299286D01*
X468840Y299309D01*
X468865Y299322D01*
X468897Y299363D01*
X468947Y299410D01*
X468950Y299415D01*
X469592Y299511D01*
X469625Y299523D01*
X469666Y299528D01*
X470286Y299720D01*
X470291Y299717D01*
X470313Y299711D01*
X470317Y299708D01*
X470330Y299706D01*
X470359Y299697D01*
X470423Y299669D01*
X470456Y299668D01*
X470483Y299660D01*
X470534Y299666D01*
X470604Y299664D01*
X472948Y300018D01*
X473015Y300043D01*
X473083Y300059D01*
X473110Y300077D01*
X473137Y300087D01*
X473175Y300122D01*
X473231Y300161D01*
X473235Y300165D01*
X473884Y300165D01*
X473918Y300172D01*
X473960Y300171D01*
X474601Y300268D01*
X474606Y300265D01*
X474670Y300235D01*
X474730Y300198D01*
X474762Y300192D01*
X474787Y300180D01*
X474839Y300178D01*
X474907Y300166D01*
X477278Y300167D01*
X477348Y300181D01*
X477418Y300186D01*
X477447Y300201D01*
X477475Y300206D01*
X477518Y300235D01*
X477580Y300266D01*
X477584Y300269D01*
X478226Y300173D01*
X478260Y300174D01*
X478301Y300167D01*
X478950Y300167D01*
X478954Y300163D01*
X479013Y300124D01*
X479067Y300078D01*
X479098Y300068D01*
X479121Y300052D01*
X479172Y300043D01*
X479237Y300020D01*
X481582Y299668D01*
X481653Y299671D01*
X481723Y299666D01*
X481754Y299676D01*
X481782Y299678D01*
X481829Y299700D01*
X481874Y299714D01*
X481880Y299716D01*
X481883Y299717D01*
X481895Y299721D01*
X481900Y299724D01*
X482520Y299532D01*
X482554Y299529D01*
X482594Y299516D01*
X483235Y299419D01*
X483239Y299415D01*
X483291Y299367D01*
X483337Y299314D01*
X483366Y299299D01*
X483387Y299280D01*
X483436Y299263D01*
X483497Y299231D01*
X485764Y298533D01*
X485834Y298526D01*
X485903Y298511D01*
X485935Y298516D01*
X485963Y298513D01*
X486012Y298528D01*
X486081Y298539D01*
X486086Y298541D01*
X486671Y298259D01*
X486704Y298251D01*
X486741Y298232D01*
X487361Y298041D01*
X487364Y298036D01*
X487408Y297981D01*
X487446Y297922D01*
X487473Y297902D01*
X487491Y297881D01*
X487536Y297857D01*
X487592Y297816D01*
X488830Y297220D01*
X488914Y297199D01*
X488997Y297173D01*
X489011Y297174D01*
X489024Y297171D01*
X489110Y297184D01*
X489196Y297192D01*
X489209Y297198D01*
X489223Y297200D01*
X489296Y297245D01*
X489373Y297286D01*
X489383Y297298D01*
X489394Y297305D01*
X489427Y297349D01*
X489489Y297424D01*
X508381Y330145D01*
X509618Y329291D01*
X509645Y329280D01*
X509667Y329261D01*
X509736Y329241D01*
X509801Y329213D01*
X509830Y329213D01*
X509858Y329205D01*
X509929Y329213D01*
X510000Y329213D01*
X510027Y329224D01*
X510056Y329227D01*
X510118Y329262D01*
X510183Y329290D01*
X510204Y329310D01*
X510229Y329325D01*
X510292Y329402D01*
X510322Y329432D01*
X510326Y329442D01*
X510335Y329453D01*
X519835Y345953D01*
X519845Y345985D01*
X519854Y345998D01*
X519858Y346022D01*
X519859Y346026D01*
X519890Y346096D01*
X519890Y346120D01*
X519898Y346142D01*
X519892Y346218D01*
X519893Y346295D01*
X519883Y346319D01*
X519882Y346340D01*
X519861Y346379D01*
X519835Y346451D01*
X510335Y362951D01*
X510316Y362973D01*
X510303Y362999D01*
X510250Y363047D01*
X510203Y363100D01*
X510177Y363113D01*
X510156Y363132D01*
X510088Y363155D01*
X510024Y363186D01*
X509995Y363188D01*
X509968Y363197D01*
X509896Y363192D01*
X509825Y363195D01*
X509798Y363185D01*
X509769Y363183D01*
X509679Y363141D01*
X509639Y363126D01*
X509631Y363119D01*
X509618Y363113D01*
X508381Y362259D01*
X489489Y394980D01*
X489432Y395045D01*
X489378Y395113D01*
X489366Y395120D01*
X489357Y395131D01*
X489279Y395168D01*
X489203Y395210D01*
X489189Y395212D01*
X489176Y395218D01*
X489090Y395222D01*
X489004Y395232D01*
X488989Y395228D01*
X488976Y395228D01*
X488924Y395210D01*
X488830Y395184D01*
X487592Y394588D01*
X487536Y394545D01*
X487475Y394510D01*
X487455Y394484D01*
X487432Y394467D01*
X487406Y394422D01*
X487364Y394368D01*
X487361Y394363D01*
X486741Y394172D01*
X486711Y394156D01*
X486671Y394145D01*
X486086Y393863D01*
X486081Y393865D01*
X486011Y393875D01*
X485942Y393893D01*
X485910Y393889D01*
X485882Y393893D01*
X485832Y393879D01*
X485764Y393871D01*
X483497Y393173D01*
X483435Y393139D01*
X483370Y393113D01*
X483346Y393090D01*
X483321Y393077D01*
X483289Y393037D01*
X483239Y392989D01*
X483235Y392985D01*
X482594Y392888D01*
X482561Y392877D01*
X482520Y392872D01*
X481900Y392680D01*
X481895Y392683D01*
X481827Y392703D01*
X481762Y392731D01*
X481730Y392732D01*
X481703Y392740D01*
X481651Y392734D01*
X481582Y392736D01*
X479237Y392384D01*
X479171Y392360D01*
X479102Y392343D01*
X479075Y392325D01*
X479049Y392315D01*
X479011Y392280D01*
X478954Y392241D01*
X478950Y392237D01*
X478301Y392237D01*
X478267Y392230D01*
X478226Y392231D01*
X477584Y392135D01*
X477580Y392138D01*
X477516Y392168D01*
X477456Y392205D01*
X477423Y392211D01*
X477398Y392223D01*
X477346Y392225D01*
X477278Y392237D01*
X474907Y392238D01*
X474838Y392224D01*
X474767Y392219D01*
X474738Y392204D01*
X474711Y392199D01*
X474668Y392170D01*
X474606Y392139D01*
X474601Y392136D01*
X474040Y392221D01*
X473996Y392219D01*
X473954Y392226D01*
X473897Y392214D01*
X473840Y392211D01*
X473800Y392192D01*
X473758Y392183D01*
X473711Y392149D01*
X473659Y392124D01*
X473630Y392092D01*
X473595Y392067D01*
X473564Y392018D01*
X473526Y391974D01*
X473512Y391933D01*
X473489Y391897D01*
X473477Y391832D01*
X473461Y391785D01*
X473463Y391754D01*
X473457Y391719D01*
X473457Y385158D01*
X473458Y385150D01*
X473457Y385143D01*
X473478Y385053D01*
X473496Y384962D01*
X473501Y384955D01*
X473503Y384948D01*
X473605Y384800D01*
X474191Y384214D01*
X474191Y379818D01*
X471082Y376709D01*
X466686Y376709D01*
X463577Y379818D01*
X463577Y384214D01*
X464163Y384800D01*
X464167Y384806D01*
X464173Y384811D01*
X464222Y384889D01*
X464274Y384967D01*
X464275Y384974D01*
X464279Y384981D01*
X464311Y385158D01*
X464311Y394413D01*
X464293Y394505D01*
X464278Y394595D01*
X464273Y394602D01*
X464272Y394610D01*
X464219Y394687D01*
X464170Y394765D01*
X464163Y394769D01*
X464159Y394776D01*
X464117Y394803D01*
X464024Y394870D01*
X462458Y395625D01*
X462390Y395642D01*
X462324Y395668D01*
X462291Y395668D01*
X462264Y395675D01*
X462213Y395667D01*
X462144Y395666D01*
X462139Y395665D01*
X461603Y396031D01*
X461571Y396045D01*
X461537Y396069D01*
X460952Y396351D01*
X460951Y396356D01*
X460915Y396417D01*
X460886Y396481D01*
X460863Y396504D01*
X460848Y396528D01*
X460807Y396559D01*
X460758Y396608D01*
X458799Y397944D01*
X458734Y397972D01*
X458672Y398007D01*
X458640Y398011D01*
X458614Y398022D01*
X458563Y398022D01*
X458494Y398032D01*
X458489Y398032D01*
X458013Y398473D01*
X457984Y398491D01*
X457954Y398521D01*
X457418Y398886D01*
X457417Y398892D01*
X457390Y398957D01*
X457372Y399025D01*
X457352Y399051D01*
X457341Y399077D01*
X457305Y399114D01*
X457263Y399169D01*
X455526Y400783D01*
X455466Y400820D01*
X455410Y400863D01*
X455379Y400873D01*
X455355Y400887D01*
X455304Y400895D01*
X455237Y400915D01*
X455232Y400916D01*
X454828Y401423D01*
X454801Y401446D01*
X454776Y401479D01*
X454300Y401920D01*
X454300Y401926D01*
X454284Y401995D01*
X454276Y402065D01*
X454260Y402093D01*
X454253Y402121D01*
X454223Y402162D01*
X454190Y402223D01*
X452712Y404078D01*
X452658Y404123D01*
X452610Y404175D01*
X452580Y404189D01*
X452559Y404207D01*
X452509Y404222D01*
X452447Y404251D01*
X452442Y404253D01*
X452117Y404815D01*
X452094Y404841D01*
X452075Y404878D01*
X451670Y405385D01*
X451671Y405390D01*
X451665Y405461D01*
X451667Y405531D01*
X451656Y405562D01*
X451654Y405590D01*
X451630Y405636D01*
X451606Y405701D01*
X450421Y407755D01*
X450374Y407808D01*
X450334Y407866D01*
X450307Y407884D01*
X450289Y407905D01*
X450242Y407928D01*
X450185Y407966D01*
X450180Y407969D01*
X449943Y408573D01*
X449924Y408602D01*
X449910Y408641D01*
X449586Y409203D01*
X449587Y409208D01*
X449592Y409279D01*
X449604Y409348D01*
X449598Y409380D01*
X449600Y409408D01*
X449583Y409457D01*
X449569Y409525D01*
X448704Y411733D01*
X448666Y411792D01*
X448635Y411855D01*
X448610Y411878D01*
X448595Y411901D01*
X448553Y411930D01*
X448502Y411977D01*
X448497Y411980D01*
X448353Y412613D01*
X448338Y412644D01*
X448330Y412685D01*
X448093Y413289D01*
X448096Y413294D01*
X448111Y413363D01*
X448134Y413430D01*
X448132Y413463D01*
X448138Y413490D01*
X448129Y413541D01*
X448125Y413610D01*
X447598Y415922D01*
X447570Y415986D01*
X447548Y416054D01*
X447528Y416079D01*
X447516Y416105D01*
X447478Y416140D01*
X447435Y416194D01*
X447431Y416197D01*
X447382Y416844D01*
X447373Y416878D01*
X447371Y416919D01*
X447227Y417552D01*
X447230Y417557D01*
X447255Y417623D01*
X447288Y417685D01*
X447291Y417718D01*
X447301Y417744D01*
X447299Y417796D01*
X447306Y417864D01*
X447130Y420229D01*
X447111Y420297D01*
X447100Y420367D01*
X447083Y420395D01*
X447076Y420422D01*
X447044Y420463D01*
X447009Y420522D01*
X447005Y420526D01*
X447054Y421173D01*
X447049Y421208D01*
X447054Y421249D01*
X447005Y421896D01*
X447009Y421900D01*
X447044Y421962D01*
X447085Y422019D01*
X447094Y422051D01*
X447107Y422075D01*
X447113Y422127D01*
X447131Y422193D01*
X447308Y424558D01*
X447300Y424628D01*
X447299Y424699D01*
X447287Y424729D01*
X447284Y424757D01*
X447258Y424802D01*
X447232Y424866D01*
X447229Y424871D01*
X447374Y425503D01*
X447375Y425538D01*
X447385Y425578D01*
X447434Y426225D01*
X447438Y426229D01*
X447482Y426285D01*
X447531Y426335D01*
X447544Y426365D01*
X447561Y426387D01*
X447575Y426437D01*
X447602Y426500D01*
X448130Y428812D01*
X448132Y428883D01*
X448142Y428953D01*
X448135Y428984D01*
X448135Y429012D01*
X448117Y429061D01*
X448101Y429128D01*
X448099Y429133D01*
X448336Y429737D01*
X448342Y429771D01*
X448358Y429809D01*
X448503Y430442D01*
X448507Y430445D01*
X448559Y430493D01*
X448615Y430536D01*
X448632Y430563D01*
X448653Y430583D01*
X448674Y430630D01*
X448710Y430689D01*
X449577Y432896D01*
X449589Y432966D01*
X449610Y433033D01*
X449607Y433066D01*
X449612Y433093D01*
X449601Y433144D01*
X449595Y433213D01*
X449593Y433218D01*
X449918Y433780D01*
X449929Y433813D01*
X449951Y433848D01*
X450188Y434452D01*
X450193Y434454D01*
X450251Y434495D01*
X450313Y434528D01*
X450335Y434553D01*
X450358Y434569D01*
X450385Y434613D01*
X450430Y434665D01*
X451616Y436719D01*
X451639Y436786D01*
X451669Y436849D01*
X451671Y436882D01*
X451680Y436909D01*
X451676Y436960D01*
X451681Y437029D01*
X451680Y437035D01*
X452085Y437542D01*
X452101Y437573D01*
X452128Y437604D01*
X452452Y438166D01*
X452458Y438168D01*
X452502Y438190D01*
X452527Y438195D01*
X452547Y438208D01*
X452588Y438223D01*
X452612Y438244D01*
X452637Y438257D01*
X452665Y438288D01*
X452693Y438307D01*
X452704Y438324D01*
X452723Y438341D01*
X454202Y440195D01*
X454234Y440258D01*
X454274Y440316D01*
X454281Y440348D01*
X454294Y440373D01*
X454298Y440425D01*
X454313Y440492D01*
X454313Y440498D01*
X454789Y440939D01*
X454809Y440967D01*
X454840Y440994D01*
X455245Y441502D01*
X455250Y441502D01*
X455318Y441524D01*
X455387Y441537D01*
X455415Y441555D01*
X455441Y441564D01*
X455481Y441597D01*
X455539Y441634D01*
X457278Y443247D01*
X457319Y443304D01*
X457367Y443356D01*
X457378Y443387D01*
X457395Y443409D01*
X457406Y443460D01*
X457431Y443524D01*
X457432Y443530D01*
X457968Y443895D01*
X457993Y443920D01*
X458028Y443942D01*
X458503Y444384D01*
X458509Y444383D01*
X458579Y444395D01*
X458649Y444398D01*
X458679Y444411D01*
X458707Y444415D01*
X458751Y444443D01*
X458814Y444471D01*
X459934Y445234D01*
X459994Y445296D01*
X460058Y445355D01*
X460064Y445368D01*
X460074Y445378D01*
X460106Y445458D01*
X460142Y445537D01*
X460143Y445551D01*
X460148Y445564D01*
X460146Y445651D01*
X460149Y445737D01*
X460144Y445751D01*
X460143Y445764D01*
X460121Y445815D01*
X460088Y445907D01*
X441197Y478627D01*
X442516Y479251D01*
X442538Y479268D01*
X442565Y479278D01*
X442617Y479327D01*
X442675Y479370D01*
X442689Y479395D01*
X442710Y479414D01*
X442739Y479480D01*
X442775Y479542D01*
X442778Y479570D01*
X442790Y479596D01*
X442791Y479668D01*
X442800Y479739D01*
X442792Y479766D01*
X442793Y479795D01*
X442757Y479890D01*
X442746Y479930D01*
X442739Y479939D01*
X442735Y479951D01*
X433235Y496451D01*
X433183Y496510D01*
X433137Y496572D01*
X433118Y496583D01*
X433103Y496600D01*
X433033Y496634D01*
X432966Y496674D01*
X432942Y496678D01*
X432924Y496686D01*
X432879Y496688D01*
X432802Y496701D01*
X413802Y496701D01*
X413774Y496696D01*
X413746Y496698D01*
X413678Y496676D01*
X413607Y496662D01*
X413584Y496646D01*
X413557Y496637D01*
X413502Y496590D01*
X413443Y496549D01*
X413428Y496525D01*
X413407Y496507D01*
X413375Y496442D01*
X413336Y496382D01*
X413331Y496354D01*
X413319Y496328D01*
X413310Y496227D01*
X413303Y496185D01*
X413305Y496175D01*
X413304Y496162D01*
X413422Y494685D01*
X375589Y494685D01*
X375504Y494668D01*
X375419Y494656D01*
X375407Y494648D01*
X375393Y494646D01*
X375321Y494597D01*
X375247Y494552D01*
X375239Y494541D01*
X375227Y494533D01*
X375180Y494461D01*
X375129Y494390D01*
X375125Y494376D01*
X375118Y494365D01*
X375108Y494310D01*
X375084Y494216D01*
X374982Y492857D01*
X374991Y492787D01*
X374991Y492717D01*
X375003Y492686D01*
X375007Y492658D01*
X375032Y492614D01*
X375058Y492550D01*
X375061Y492545D01*
X374917Y491912D01*
X374916Y491878D01*
X374905Y491837D01*
X374857Y491190D01*
X374853Y491187D01*
X374809Y491131D01*
X374760Y491081D01*
X374747Y491051D01*
X374730Y491029D01*
X374716Y490979D01*
X374689Y490915D01*
X374162Y488605D01*
X374160Y488535D01*
X374150Y488465D01*
X374157Y488433D01*
X374157Y488405D01*
X374175Y488357D01*
X374191Y488290D01*
X374194Y488285D01*
X373957Y487681D01*
X373950Y487646D01*
X373934Y487608D01*
X373790Y486975D01*
X373785Y486973D01*
X373734Y486924D01*
X373677Y486882D01*
X373660Y486854D01*
X373640Y486834D01*
X373619Y486787D01*
X373583Y486728D01*
X372717Y484523D01*
X372705Y484453D01*
X372685Y484386D01*
X372687Y484353D01*
X372682Y484326D01*
X372694Y484275D01*
X372700Y484206D01*
X372701Y484201D01*
X372377Y483639D01*
X372365Y483606D01*
X372344Y483571D01*
X372107Y482967D01*
X372101Y482965D01*
X372044Y482924D01*
X371981Y482891D01*
X371960Y482866D01*
X371937Y482850D01*
X371910Y482806D01*
X371865Y482753D01*
X370680Y480702D01*
X370658Y480635D01*
X370628Y480571D01*
X370625Y480538D01*
X370617Y480512D01*
X370620Y480460D01*
X370616Y480391D01*
X370616Y480386D01*
X370212Y479878D01*
X370196Y479847D01*
X370169Y479816D01*
X369845Y479254D01*
X369839Y479252D01*
X369776Y479221D01*
X369710Y479197D01*
X369685Y479176D01*
X369660Y479163D01*
X369626Y479124D01*
X369590Y479092D01*
X369587Y479090D01*
X369586Y479089D01*
X369574Y479079D01*
X368097Y477226D01*
X368065Y477164D01*
X368025Y477105D01*
X368018Y477073D01*
X368005Y477048D01*
X368001Y476997D01*
X367987Y476929D01*
X367986Y476924D01*
X367511Y476482D01*
X367490Y476454D01*
X367459Y476427D01*
X367055Y475919D01*
X367049Y475919D01*
X366982Y475897D01*
X366913Y475884D01*
X366885Y475866D01*
X366858Y475857D01*
X366819Y475824D01*
X366761Y475786D01*
X365024Y474175D01*
X364983Y474118D01*
X364935Y474066D01*
X364923Y474035D01*
X364907Y474012D01*
X364895Y473962D01*
X364871Y473897D01*
X364870Y473892D01*
X364334Y473527D01*
X364309Y473502D01*
X364274Y473479D01*
X363799Y473038D01*
X363793Y473038D01*
X363724Y473027D01*
X363653Y473024D01*
X363623Y473010D01*
X363595Y473006D01*
X363552Y472979D01*
X363488Y472950D01*
X361531Y471616D01*
X361482Y471565D01*
X361427Y471521D01*
X361411Y471492D01*
X361391Y471472D01*
X361372Y471424D01*
X361338Y471364D01*
X361336Y471359D01*
X360751Y471077D01*
X360724Y471056D01*
X360686Y471039D01*
X360150Y470674D01*
X360144Y470675D01*
X360074Y470674D01*
X360003Y470682D01*
X359972Y470673D01*
X359944Y470673D01*
X359897Y470652D01*
X359830Y470634D01*
X357695Y469606D01*
X357639Y469563D01*
X357578Y469527D01*
X357558Y469502D01*
X357536Y469485D01*
X357510Y469440D01*
X357467Y469386D01*
X357464Y469381D01*
X356844Y469190D01*
X356814Y469173D01*
X356774Y469162D01*
X356189Y468880D01*
X356184Y468882D01*
X356114Y468892D01*
X356046Y468910D01*
X356013Y468906D01*
X355985Y468910D01*
X355935Y468896D01*
X355867Y468888D01*
X353603Y468190D01*
X353541Y468156D01*
X353475Y468130D01*
X353452Y468107D01*
X353427Y468094D01*
X353395Y468054D01*
X353344Y468006D01*
X353341Y468002D01*
X352700Y467905D01*
X352667Y467893D01*
X352626Y467888D01*
X352005Y467697D01*
X352001Y467700D01*
X351933Y467720D01*
X351868Y467747D01*
X351835Y467748D01*
X351808Y467756D01*
X351757Y467751D01*
X351688Y467753D01*
X350444Y467565D01*
X350380Y467542D01*
X350314Y467527D01*
X350287Y467508D01*
X350256Y467497D01*
X350206Y467451D01*
X350151Y467411D01*
X350133Y467383D01*
X350109Y467361D01*
X350081Y467299D01*
X350045Y467241D01*
X350038Y467206D01*
X350026Y467178D01*
X350024Y467128D01*
X350013Y467064D01*
X350013Y450542D01*
X339693Y440222D01*
X339689Y440216D01*
X339683Y440211D01*
X339634Y440132D01*
X339582Y440055D01*
X339581Y440047D01*
X339577Y440041D01*
X339545Y439863D01*
X339545Y389030D01*
X337312Y386797D01*
X337004Y386797D01*
X336999Y386796D01*
X336994Y386797D01*
X336901Y386776D01*
X336807Y386758D01*
X336803Y386755D01*
X336798Y386754D01*
X336720Y386698D01*
X336642Y386645D01*
X336639Y386641D01*
X336635Y386638D01*
X336584Y386556D01*
X336532Y386477D01*
X336532Y386472D01*
X336529Y386467D01*
X336497Y386290D01*
X336497Y386234D01*
X336498Y386229D01*
X336497Y386224D01*
X336518Y386131D01*
X336536Y386038D01*
X336539Y386033D01*
X336540Y386028D01*
X336596Y385950D01*
X336649Y385872D01*
X336653Y385869D01*
X336656Y385865D01*
X336738Y385814D01*
X336817Y385763D01*
X336822Y385762D01*
X336827Y385759D01*
X337004Y385727D01*
X340217Y385727D01*
X340843Y385101D01*
X340848Y385098D01*
X340851Y385094D01*
X340931Y385043D01*
X341010Y384990D01*
X341015Y384989D01*
X341020Y384986D01*
X341114Y384970D01*
X341207Y384952D01*
X341212Y384953D01*
X341217Y384953D01*
X341310Y384974D01*
X341403Y384994D01*
X341408Y384997D01*
X341413Y384998D01*
X341561Y385101D01*
X342187Y385727D01*
X345217Y385727D01*
X345843Y385101D01*
X345848Y385098D01*
X345851Y385094D01*
X345931Y385043D01*
X346010Y384990D01*
X346015Y384989D01*
X346020Y384986D01*
X346114Y384970D01*
X346207Y384952D01*
X346212Y384953D01*
X346217Y384953D01*
X346310Y384974D01*
X346403Y384994D01*
X346408Y384997D01*
X346413Y384998D01*
X346561Y385101D01*
X347187Y385727D01*
X350400Y385727D01*
X350405Y385728D01*
X350410Y385727D01*
X350503Y385748D01*
X350597Y385766D01*
X350601Y385769D01*
X350606Y385770D01*
X350684Y385826D01*
X350762Y385879D01*
X350765Y385883D01*
X350769Y385886D01*
X350820Y385968D01*
X350872Y386047D01*
X350872Y386052D01*
X350875Y386057D01*
X350907Y386234D01*
X350907Y387940D01*
X350906Y387944D01*
X350907Y387948D01*
X350907Y387949D01*
X350907Y387950D01*
X350886Y388043D01*
X350868Y388136D01*
X350865Y388140D01*
X350864Y388145D01*
X350808Y388223D01*
X350755Y388302D01*
X350751Y388305D01*
X350748Y388309D01*
X350666Y388360D01*
X350587Y388411D01*
X350582Y388412D01*
X350577Y388415D01*
X350400Y388447D01*
X345968Y388447D01*
X345075Y389340D01*
X345075Y400603D01*
X345968Y401496D01*
X357886Y401496D01*
X357891Y401497D01*
X357896Y401496D01*
X357989Y401517D01*
X358083Y401536D01*
X358087Y401539D01*
X358092Y401540D01*
X358170Y401595D01*
X358248Y401648D01*
X358251Y401653D01*
X358255Y401656D01*
X358306Y401737D01*
X358358Y401817D01*
X358358Y401822D01*
X358361Y401826D01*
X358393Y402003D01*
X358393Y441612D01*
X358392Y441620D01*
X358393Y441627D01*
X358372Y441717D01*
X358354Y441808D01*
X358349Y441815D01*
X358347Y441822D01*
X358245Y441970D01*
X357151Y443064D01*
X357151Y447460D01*
X357610Y447919D01*
X357614Y447925D01*
X357620Y447930D01*
X357669Y448008D01*
X357721Y448086D01*
X357722Y448093D01*
X357726Y448100D01*
X357758Y448277D01*
X357758Y452035D01*
X366353Y460630D01*
X370274Y460630D01*
X370282Y460631D01*
X370289Y460630D01*
X370379Y460651D01*
X370470Y460669D01*
X370477Y460674D01*
X370485Y460676D01*
X370633Y460778D01*
X372309Y462455D01*
X386643Y462455D01*
X389001Y460097D01*
X389001Y451763D01*
X386643Y449405D01*
X372309Y449405D01*
X370724Y450990D01*
X370720Y450993D01*
X370717Y450997D01*
X370636Y451049D01*
X370557Y451101D01*
X370552Y451102D01*
X370547Y451105D01*
X370454Y451121D01*
X370360Y451139D01*
X370355Y451138D01*
X370350Y451139D01*
X370257Y451117D01*
X370164Y451097D01*
X370160Y451094D01*
X370155Y451093D01*
X370007Y450990D01*
X367479Y448463D01*
X367476Y448458D01*
X367472Y448455D01*
X367421Y448375D01*
X367368Y448296D01*
X367367Y448291D01*
X367365Y448286D01*
X367349Y448193D01*
X367331Y448099D01*
X367332Y448094D01*
X367331Y448089D01*
X367352Y447997D01*
X367372Y447903D01*
X367375Y447899D01*
X367377Y447894D01*
X367479Y447746D01*
X367765Y447460D01*
X367765Y443064D01*
X366671Y441970D01*
X366667Y441964D01*
X366661Y441959D01*
X366612Y441881D01*
X366560Y441803D01*
X366559Y441796D01*
X366555Y441789D01*
X366523Y441612D01*
X366523Y396334D01*
X361094Y390905D01*
X359632Y390905D01*
X359627Y390904D01*
X359622Y390905D01*
X359528Y390884D01*
X359435Y390866D01*
X359431Y390863D01*
X359426Y390862D01*
X359348Y390806D01*
X359270Y390753D01*
X359267Y390749D01*
X359262Y390746D01*
X359212Y390664D01*
X359160Y390585D01*
X359159Y390580D01*
X359157Y390575D01*
X359125Y390398D01*
X359125Y389340D01*
X358231Y388447D01*
X357004Y388447D01*
X356999Y388446D01*
X356994Y388447D01*
X356901Y388426D01*
X356807Y388407D01*
X356803Y388404D01*
X356798Y388403D01*
X356720Y388348D01*
X356642Y388295D01*
X356639Y388290D01*
X356635Y388287D01*
X356584Y388206D01*
X356532Y388126D01*
X356532Y388121D01*
X356529Y388117D01*
X356497Y387940D01*
X356497Y386234D01*
X356498Y386229D01*
X356497Y386224D01*
X356518Y386131D01*
X356536Y386038D01*
X356539Y386033D01*
X356540Y386028D01*
X356596Y385950D01*
X356649Y385872D01*
X356653Y385869D01*
X356656Y385865D01*
X356738Y385814D01*
X356817Y385763D01*
X356822Y385762D01*
X356827Y385759D01*
X357004Y385727D01*
X360217Y385727D01*
X360843Y385101D01*
X360848Y385098D01*
X360851Y385094D01*
X360931Y385043D01*
X361010Y384990D01*
X361015Y384989D01*
X361020Y384986D01*
X361114Y384970D01*
X361207Y384952D01*
X361212Y384953D01*
X361217Y384953D01*
X361310Y384974D01*
X361403Y384994D01*
X361408Y384997D01*
X361413Y384998D01*
X361561Y385101D01*
X362187Y385727D01*
X365217Y385727D01*
X366477Y384468D01*
X366477Y376937D01*
X365217Y375677D01*
X362187Y375677D01*
X361561Y376303D01*
X361556Y376306D01*
X361553Y376310D01*
X361473Y376362D01*
X361394Y376414D01*
X361389Y376415D01*
X361384Y376418D01*
X361290Y376434D01*
X361197Y376452D01*
X361192Y376451D01*
X361186Y376452D01*
X361094Y376430D01*
X361001Y376410D01*
X360996Y376407D01*
X360991Y376406D01*
X360843Y376303D01*
X360217Y375677D01*
X357187Y375677D01*
X356561Y376303D01*
X356556Y376306D01*
X356553Y376310D01*
X356473Y376362D01*
X356394Y376414D01*
X356389Y376415D01*
X356384Y376418D01*
X356290Y376434D01*
X356197Y376452D01*
X356192Y376451D01*
X356186Y376452D01*
X356094Y376430D01*
X356001Y376410D01*
X355996Y376407D01*
X355991Y376406D01*
X355843Y376303D01*
X355217Y375677D01*
X352187Y375677D01*
X351561Y376303D01*
X351556Y376306D01*
X351553Y376310D01*
X351473Y376362D01*
X351394Y376414D01*
X351389Y376415D01*
X351384Y376418D01*
X351290Y376434D01*
X351197Y376452D01*
X351192Y376451D01*
X351186Y376452D01*
X351094Y376430D01*
X351001Y376410D01*
X350996Y376407D01*
X350991Y376406D01*
X350843Y376303D01*
X350217Y375677D01*
X347187Y375677D01*
X346561Y376303D01*
X346556Y376306D01*
X346553Y376310D01*
X346473Y376362D01*
X346394Y376414D01*
X346389Y376415D01*
X346384Y376418D01*
X346290Y376434D01*
X346197Y376452D01*
X346192Y376451D01*
X346186Y376452D01*
X346094Y376430D01*
X346001Y376410D01*
X345996Y376407D01*
X345991Y376406D01*
X345843Y376303D01*
X345217Y375677D01*
X342187Y375677D01*
X341561Y376303D01*
X341556Y376306D01*
X341553Y376310D01*
X341473Y376362D01*
X341394Y376414D01*
X341389Y376415D01*
X341384Y376418D01*
X341290Y376434D01*
X341197Y376452D01*
X341192Y376451D01*
X341186Y376452D01*
X341094Y376430D01*
X341001Y376410D01*
X340996Y376407D01*
X340991Y376406D01*
X340843Y376303D01*
X340217Y375677D01*
X337187Y375677D01*
X336561Y376303D01*
X336556Y376306D01*
X336553Y376310D01*
X336473Y376362D01*
X336394Y376414D01*
X336389Y376415D01*
X336384Y376418D01*
X336290Y376434D01*
X336197Y376452D01*
X336192Y376451D01*
X336186Y376452D01*
X336094Y376430D01*
X336001Y376410D01*
X335996Y376407D01*
X335991Y376406D01*
X335843Y376303D01*
X335217Y375677D01*
X332187Y375677D01*
X331561Y376303D01*
X331556Y376306D01*
X331553Y376310D01*
X331473Y376362D01*
X331394Y376414D01*
X331389Y376415D01*
X331384Y376418D01*
X331290Y376434D01*
X331197Y376452D01*
X331192Y376451D01*
X331186Y376452D01*
X331094Y376430D01*
X331001Y376410D01*
X330996Y376407D01*
X330991Y376406D01*
X330843Y376303D01*
X330217Y375677D01*
X327187Y375677D01*
X326561Y376303D01*
X326556Y376306D01*
X326553Y376310D01*
X326473Y376362D01*
X326394Y376414D01*
X326389Y376415D01*
X326384Y376418D01*
X326290Y376434D01*
X326197Y376452D01*
X326192Y376451D01*
X326186Y376452D01*
X326094Y376430D01*
X326001Y376410D01*
X325996Y376407D01*
X325991Y376406D01*
X325843Y376303D01*
X325217Y375677D01*
X322187Y375677D01*
X321561Y376303D01*
X321556Y376306D01*
X321553Y376310D01*
X321473Y376362D01*
X321394Y376414D01*
X321389Y376415D01*
X321384Y376418D01*
X321290Y376434D01*
X321197Y376452D01*
X321192Y376451D01*
X321186Y376452D01*
X321094Y376430D01*
X321001Y376410D01*
X320996Y376407D01*
X320991Y376406D01*
X320843Y376303D01*
X320217Y375677D01*
X317234Y375677D01*
X317229Y375676D01*
X317224Y375677D01*
X317131Y375656D01*
X317037Y375638D01*
X317033Y375635D01*
X317028Y375634D01*
X316950Y375578D01*
X316872Y375525D01*
X316869Y375521D01*
X316864Y375518D01*
X316814Y375436D01*
X316762Y375357D01*
X316761Y375352D01*
X316759Y375347D01*
X316727Y375170D01*
X316727Y372187D01*
X315467Y370927D01*
X313090Y370927D01*
X313082Y370926D01*
X313074Y370927D01*
X312989Y370907D01*
X306622Y370907D01*
X305823Y371707D01*
X304374Y373156D01*
X304367Y373160D01*
X304363Y373167D01*
X304284Y373215D01*
X304207Y373267D01*
X304199Y373268D01*
X304192Y373272D01*
X304015Y373304D01*
X302508Y373304D01*
X302502Y373303D01*
X302497Y373304D01*
X302404Y373284D01*
X302311Y373265D01*
X302307Y373262D01*
X302302Y373261D01*
X302224Y373206D01*
X302145Y373152D01*
X302142Y373148D01*
X302138Y373145D01*
X302088Y373063D01*
X302036Y372984D01*
X302035Y372979D01*
X302032Y372974D01*
X302000Y372797D01*
X302000Y370984D01*
X301107Y370090D01*
X289844Y370090D01*
X288951Y370984D01*
X288951Y371908D01*
X288950Y371913D01*
X288951Y371918D01*
X288930Y372012D01*
X288911Y372105D01*
X288908Y372109D01*
X288907Y372114D01*
X288852Y372192D01*
X288799Y372270D01*
X288794Y372273D01*
X288791Y372278D01*
X288710Y372328D01*
X288631Y372380D01*
X288625Y372381D01*
X288621Y372383D01*
X288444Y372415D01*
X273972Y372415D01*
X269112Y377275D01*
X269112Y380357D01*
X269111Y380362D01*
X269112Y380367D01*
X269091Y380460D01*
X269073Y380553D01*
X269070Y380557D01*
X269069Y380563D01*
X269013Y380640D01*
X268960Y380719D01*
X268956Y380722D01*
X268953Y380726D01*
X268871Y380777D01*
X268792Y380828D01*
X268787Y380829D01*
X268782Y380832D01*
X268605Y380864D01*
X265741Y380864D01*
X264848Y381757D01*
X264848Y396020D01*
X265741Y396913D01*
X282005Y396913D01*
X282898Y396020D01*
X282898Y382322D01*
X282899Y382317D01*
X282898Y382312D01*
X282919Y382219D01*
X282937Y382126D01*
X282940Y382121D01*
X282941Y382116D01*
X282997Y382038D01*
X283050Y381960D01*
X283054Y381957D01*
X283057Y381953D01*
X283139Y381902D01*
X283218Y381851D01*
X283223Y381850D01*
X283228Y381847D01*
X283405Y381815D01*
X288444Y381815D01*
X288449Y381816D01*
X288454Y381815D01*
X288547Y381836D01*
X288640Y381854D01*
X288644Y381857D01*
X288650Y381859D01*
X288727Y381914D01*
X288806Y381967D01*
X288809Y381972D01*
X288813Y381975D01*
X288864Y382056D01*
X288915Y382135D01*
X288916Y382140D01*
X288919Y382145D01*
X288951Y382322D01*
X288951Y383247D01*
X289844Y384140D01*
X301107Y384140D01*
X302000Y383247D01*
X302000Y381433D01*
X302001Y381428D01*
X302000Y381423D01*
X302021Y381330D01*
X302040Y381237D01*
X302043Y381232D01*
X302044Y381227D01*
X302099Y381149D01*
X302153Y381071D01*
X302157Y381068D01*
X302160Y381064D01*
X302241Y381013D01*
X302321Y380962D01*
X302326Y380961D01*
X302330Y380958D01*
X302508Y380926D01*
X302514Y380926D01*
X302516Y380926D01*
X302518Y380926D01*
X302521Y380927D01*
X302524Y380926D01*
X302617Y380947D01*
X302711Y380965D01*
X302715Y380968D01*
X302720Y380970D01*
X302798Y381025D01*
X302876Y381078D01*
X302879Y381083D01*
X302883Y381086D01*
X302934Y381167D01*
X302986Y381246D01*
X302986Y381251D01*
X302989Y381256D01*
X303021Y381433D01*
X303021Y404611D01*
X303020Y404619D01*
X303021Y404627D01*
X303000Y404716D01*
X302982Y404808D01*
X302977Y404814D01*
X302975Y404822D01*
X302873Y404970D01*
X301846Y405997D01*
X301840Y406001D01*
X301835Y406007D01*
X301756Y406056D01*
X301679Y406108D01*
X301671Y406109D01*
X301665Y406113D01*
X301487Y406145D01*
X300322Y406145D01*
X300314Y406144D01*
X300307Y406145D01*
X300217Y406124D01*
X300126Y406106D01*
X300119Y406101D01*
X300112Y406099D01*
X299964Y405997D01*
X298616Y404649D01*
X294220Y404649D01*
X291111Y407758D01*
X291111Y412154D01*
X294220Y415263D01*
X298616Y415263D01*
X299964Y413915D01*
X299970Y413911D01*
X299975Y413905D01*
X300053Y413856D01*
X300131Y413804D01*
X300138Y413803D01*
X300145Y413799D01*
X300322Y413767D01*
X304854Y413767D01*
X308262Y410359D01*
X309140Y409481D01*
X309143Y409479D01*
X309144Y409477D01*
X309224Y409425D01*
X309307Y409370D01*
X309310Y409369D01*
X309312Y409368D01*
X309408Y409351D01*
X309504Y409332D01*
X309507Y409333D01*
X309509Y409332D01*
X309606Y409354D01*
X309700Y409374D01*
X309702Y409375D01*
X309705Y409376D01*
X309785Y409432D01*
X309865Y409488D01*
X309866Y409490D01*
X309868Y409492D01*
X309920Y409575D01*
X309972Y409657D01*
X309973Y409660D01*
X309974Y409662D01*
X310006Y409840D01*
X310006Y452506D01*
X310005Y452514D01*
X310006Y452521D01*
X309985Y452611D01*
X309967Y452702D01*
X309962Y452709D01*
X309960Y452716D01*
X309858Y452864D01*
X309272Y453450D01*
X309272Y453997D01*
X309271Y454002D01*
X309272Y454007D01*
X309251Y454100D01*
X309233Y454194D01*
X309230Y454198D01*
X309229Y454203D01*
X309173Y454281D01*
X309120Y454359D01*
X309116Y454362D01*
X309113Y454366D01*
X309031Y454417D01*
X308952Y454469D01*
X308947Y454469D01*
X308942Y454472D01*
X308765Y454504D01*
X307116Y454504D01*
X307108Y454503D01*
X307101Y454504D01*
X307011Y454483D01*
X306920Y454465D01*
X306913Y454460D01*
X306905Y454458D01*
X306757Y454356D01*
X304855Y452453D01*
X290521Y452453D01*
X288163Y454811D01*
X288163Y463145D01*
X290521Y465503D01*
X304855Y465503D01*
X306305Y464052D01*
X306312Y464048D01*
X306317Y464042D01*
X306395Y463993D01*
X306472Y463941D01*
X306480Y463940D01*
X306487Y463936D01*
X306664Y463904D01*
X312970Y463904D01*
X315770Y461103D01*
X315777Y461099D01*
X315781Y461093D01*
X315860Y461044D01*
X315937Y460992D01*
X315945Y460991D01*
X315952Y460987D01*
X316129Y460955D01*
X316777Y460955D01*
X319886Y457846D01*
X319886Y453450D01*
X319300Y452864D01*
X319296Y452858D01*
X319290Y452853D01*
X319241Y452775D01*
X319189Y452697D01*
X319188Y452690D01*
X319184Y452683D01*
X319152Y452506D01*
X319152Y397227D01*
X319153Y397219D01*
X319152Y397211D01*
X319173Y397121D01*
X319191Y397030D01*
X319196Y397024D01*
X319198Y397016D01*
X319300Y396868D01*
X321497Y394672D01*
X321497Y386234D01*
X321498Y386229D01*
X321497Y386224D01*
X321518Y386131D01*
X321536Y386038D01*
X321539Y386033D01*
X321540Y386028D01*
X321596Y385950D01*
X321649Y385872D01*
X321653Y385869D01*
X321656Y385865D01*
X321738Y385814D01*
X321817Y385763D01*
X321822Y385762D01*
X321827Y385759D01*
X322004Y385727D01*
X325400Y385727D01*
X325405Y385728D01*
X325410Y385727D01*
X325503Y385748D01*
X325597Y385766D01*
X325601Y385769D01*
X325606Y385770D01*
X325684Y385826D01*
X325762Y385879D01*
X325765Y385883D01*
X325769Y385886D01*
X325820Y385968D01*
X325872Y386047D01*
X325872Y386052D01*
X325875Y386057D01*
X325907Y386234D01*
X325907Y389257D01*
X325906Y389265D01*
X325907Y389273D01*
X325886Y389363D01*
X325868Y389454D01*
X325863Y389461D01*
X325861Y389468D01*
X325759Y389616D01*
X324865Y390510D01*
X324865Y443136D01*
X324864Y443144D01*
X324865Y443151D01*
X324844Y443241D01*
X324826Y443332D01*
X324821Y443339D01*
X324819Y443346D01*
X324717Y443494D01*
X323369Y444842D01*
X323369Y449238D01*
X326478Y452347D01*
X330874Y452347D01*
X333983Y449238D01*
X333983Y446515D01*
X333983Y446512D01*
X333983Y446509D01*
X334003Y446414D01*
X334022Y446318D01*
X334024Y446316D01*
X334024Y446313D01*
X334081Y446232D01*
X334135Y446152D01*
X334137Y446151D01*
X334139Y446149D01*
X334222Y446095D01*
X334303Y446043D01*
X334306Y446043D01*
X334308Y446041D01*
X334404Y446025D01*
X334500Y446007D01*
X334503Y446008D01*
X334505Y446008D01*
X334599Y446029D01*
X334696Y446051D01*
X334698Y446052D01*
X334701Y446053D01*
X334849Y446156D01*
X342243Y453550D01*
X342247Y453556D01*
X342253Y453561D01*
X342302Y453640D01*
X342354Y453717D01*
X342355Y453725D01*
X342359Y453731D01*
X342391Y453909D01*
X342391Y467064D01*
X342378Y467130D01*
X342373Y467198D01*
X342358Y467228D01*
X342352Y467260D01*
X342313Y467316D01*
X342283Y467377D01*
X342258Y467399D01*
X342239Y467426D01*
X342182Y467463D01*
X342130Y467507D01*
X342096Y467519D01*
X342071Y467535D01*
X342031Y467542D01*
X342029Y467544D01*
X342016Y467546D01*
X341960Y467565D01*
X340716Y467753D01*
X340646Y467749D01*
X340575Y467754D01*
X340544Y467744D01*
X340516Y467743D01*
X340469Y467720D01*
X340403Y467700D01*
X340399Y467697D01*
X339778Y467888D01*
X339744Y467892D01*
X339704Y467905D01*
X339063Y468002D01*
X339060Y468006D01*
X339007Y468054D01*
X338961Y468107D01*
X338932Y468122D01*
X338911Y468141D01*
X338862Y468158D01*
X338801Y468190D01*
X336537Y468888D01*
X336467Y468895D01*
X336398Y468910D01*
X336366Y468905D01*
X336338Y468908D01*
X336288Y468893D01*
X336220Y468882D01*
X336215Y468880D01*
X335630Y469162D01*
X335597Y469170D01*
X335560Y469190D01*
X334940Y469381D01*
X334937Y469386D01*
X334892Y469440D01*
X334854Y469500D01*
X334828Y469519D01*
X334810Y469541D01*
X334765Y469565D01*
X334709Y469606D01*
X332574Y470634D01*
X332506Y470651D01*
X332440Y470677D01*
X332407Y470676D01*
X332380Y470683D01*
X332329Y470676D01*
X332260Y470675D01*
X332254Y470674D01*
X331718Y471039D01*
X331686Y471053D01*
X331653Y471077D01*
X331068Y471359D01*
X331066Y471364D01*
X331030Y471425D01*
X331001Y471489D01*
X330978Y471512D01*
X330964Y471537D01*
X330922Y471567D01*
X330873Y471616D01*
X328916Y472950D01*
X328851Y472978D01*
X328789Y473013D01*
X328757Y473017D01*
X328731Y473028D01*
X328680Y473028D01*
X328611Y473038D01*
X328605Y473038D01*
X328130Y473479D01*
X328100Y473497D01*
X328070Y473527D01*
X327534Y473892D01*
X327533Y473897D01*
X327507Y473963D01*
X327488Y474031D01*
X327468Y474057D01*
X327458Y474083D01*
X327421Y474120D01*
X327380Y474175D01*
X325643Y475786D01*
X325583Y475823D01*
X325528Y475867D01*
X325496Y475876D01*
X325472Y475891D01*
X325421Y475899D01*
X325355Y475919D01*
X325349Y475919D01*
X324945Y476427D01*
X324918Y476449D01*
X324893Y476482D01*
X324418Y476924D01*
X324417Y476929D01*
X324401Y476998D01*
X324393Y477068D01*
X324377Y477097D01*
X324371Y477124D01*
X324340Y477165D01*
X324307Y477226D01*
X322830Y479079D01*
X322808Y479097D01*
X322803Y479105D01*
X322788Y479113D01*
X322776Y479124D01*
X322728Y479175D01*
X322698Y479189D01*
X322677Y479207D01*
X322627Y479223D01*
X322565Y479252D01*
X322559Y479254D01*
X322235Y479816D01*
X322212Y479842D01*
X322192Y479878D01*
X321788Y480386D01*
X321788Y480391D01*
X321782Y480462D01*
X321784Y480532D01*
X321773Y480563D01*
X321771Y480591D01*
X321747Y480637D01*
X321724Y480702D01*
X320539Y482753D01*
X320492Y482806D01*
X320452Y482864D01*
X320425Y482883D01*
X320406Y482904D01*
X320360Y482926D01*
X320303Y482965D01*
X320297Y482967D01*
X320060Y483571D01*
X320042Y483600D01*
X320027Y483639D01*
X319703Y484201D01*
X319704Y484206D01*
X319709Y484277D01*
X319722Y484346D01*
X319715Y484378D01*
X319717Y484406D01*
X319700Y484455D01*
X319687Y484523D01*
X318821Y486728D01*
X318783Y486788D01*
X318752Y486851D01*
X318728Y486873D01*
X318713Y486897D01*
X318670Y486926D01*
X318619Y486973D01*
X318614Y486975D01*
X318470Y487608D01*
X318456Y487640D01*
X318447Y487680D01*
X318210Y488285D01*
X318213Y488290D01*
X318228Y488359D01*
X318250Y488425D01*
X318249Y488458D01*
X318255Y488486D01*
X318245Y488536D01*
X318242Y488605D01*
X317715Y490915D01*
X317686Y490979D01*
X317665Y491047D01*
X317644Y491072D01*
X317633Y491098D01*
X317595Y491133D01*
X317551Y491187D01*
X317547Y491190D01*
X317499Y491837D01*
X317489Y491871D01*
X317487Y491912D01*
X317343Y492545D01*
X317346Y492550D01*
X317371Y492616D01*
X317404Y492678D01*
X317407Y492711D01*
X317417Y492737D01*
X317415Y492789D01*
X317422Y492857D01*
X317320Y494216D01*
X317297Y494299D01*
X317278Y494384D01*
X317270Y494395D01*
X317266Y494409D01*
X317213Y494476D01*
X317162Y494547D01*
X317150Y494555D01*
X317142Y494566D01*
X317066Y494607D01*
X316992Y494653D01*
X316977Y494656D01*
X316966Y494662D01*
X316910Y494668D01*
X316815Y494685D01*
X278982Y494685D01*
X279100Y496162D01*
X279096Y496191D01*
X279101Y496219D01*
X279084Y496288D01*
X279076Y496360D01*
X279062Y496384D01*
X279055Y496412D01*
X279012Y496470D01*
X278977Y496532D01*
X278954Y496549D01*
X278937Y496572D01*
X278875Y496609D01*
X278818Y496652D01*
X278790Y496659D01*
X278766Y496674D01*
X278666Y496690D01*
X278625Y496701D01*
X278615Y496699D01*
X278602Y496701D01*
X259602Y496701D01*
X259526Y496686D01*
X259448Y496677D01*
X259429Y496666D01*
X259407Y496662D01*
X259343Y496618D01*
X259275Y496579D01*
X259259Y496560D01*
X259243Y496549D01*
X259219Y496511D01*
X259169Y496451D01*
X249669Y479951D01*
X249660Y479924D01*
X249644Y479900D01*
X249629Y479830D01*
X249606Y479762D01*
X249609Y479734D01*
X249603Y479706D01*
X249617Y479636D01*
X249622Y479564D01*
X249635Y479539D01*
X249641Y479511D01*
X249681Y479451D01*
X249714Y479388D01*
X249736Y479370D01*
X249752Y479346D01*
X249835Y479288D01*
X249867Y479261D01*
X249878Y479258D01*
X249889Y479251D01*
X251207Y478627D01*
X232316Y445907D01*
X232289Y445825D01*
X232257Y445744D01*
X232257Y445730D01*
X232252Y445717D01*
X232259Y445630D01*
X232260Y445544D01*
X232266Y445531D01*
X232267Y445517D01*
X232306Y445440D01*
X232342Y445360D01*
X232352Y445350D01*
X232358Y445338D01*
X232401Y445303D01*
X232470Y445234D01*
X233590Y444471D01*
X233655Y444444D01*
X233717Y444409D01*
X233749Y444404D01*
X233775Y444393D01*
X233827Y444393D01*
X233895Y444383D01*
X233901Y444384D01*
X234376Y443942D01*
X234406Y443924D01*
X234436Y443895D01*
X234972Y443530D01*
X234973Y443524D01*
X235000Y443459D01*
X235018Y443391D01*
X235038Y443365D01*
X235048Y443339D01*
X235085Y443302D01*
X235126Y443247D01*
X236865Y441634D01*
X236925Y441598D01*
X236981Y441554D01*
X237012Y441544D01*
X237036Y441530D01*
X237087Y441522D01*
X237154Y441502D01*
X237159Y441502D01*
X237564Y440994D01*
X237590Y440972D01*
X237615Y440939D01*
X238091Y440498D01*
X238091Y440492D01*
X238108Y440424D01*
X238116Y440353D01*
X238132Y440325D01*
X238138Y440297D01*
X238169Y440256D01*
X238202Y440195D01*
X239681Y438341D01*
X239708Y438319D01*
X239726Y438293D01*
X239754Y438276D01*
X239783Y438245D01*
X239813Y438231D01*
X239834Y438213D01*
X239877Y438199D01*
X239896Y438187D01*
X239910Y438185D01*
X239946Y438168D01*
X239952Y438166D01*
X240276Y437604D01*
X240299Y437578D01*
X240319Y437542D01*
X240724Y437035D01*
X240723Y437029D01*
X240729Y436959D01*
X240727Y436888D01*
X240738Y436857D01*
X240740Y436829D01*
X240764Y436784D01*
X240788Y436719D01*
X241974Y434665D01*
X242021Y434612D01*
X242061Y434554D01*
X242088Y434536D01*
X242107Y434515D01*
X242153Y434493D01*
X242211Y434454D01*
X242216Y434452D01*
X242453Y433848D01*
X242472Y433819D01*
X242486Y433780D01*
X242811Y433218D01*
X242809Y433213D01*
X242805Y433142D01*
X242792Y433073D01*
X242798Y433041D01*
X242797Y433013D01*
X242814Y432964D01*
X242827Y432896D01*
X243694Y430689D01*
X243732Y430630D01*
X243763Y430566D01*
X243788Y430544D01*
X243803Y430520D01*
X243845Y430491D01*
X243897Y430445D01*
X243901Y430442D01*
X244046Y429809D01*
X244060Y429778D01*
X244068Y429737D01*
X244305Y429133D01*
X244303Y429128D01*
X244288Y429059D01*
X244265Y428992D01*
X244267Y428959D01*
X244261Y428932D01*
X244271Y428881D01*
X244274Y428812D01*
X244802Y426500D01*
X244831Y426436D01*
X244852Y426369D01*
X244873Y426343D01*
X244885Y426318D01*
X244922Y426283D01*
X244966Y426229D01*
X244970Y426225D01*
X245019Y425578D01*
X245028Y425545D01*
X245030Y425503D01*
X245175Y424871D01*
X245172Y424866D01*
X245147Y424800D01*
X245114Y424737D01*
X245111Y424705D01*
X245101Y424678D01*
X245103Y424627D01*
X245096Y424558D01*
X245273Y422193D01*
X245293Y422126D01*
X245303Y422056D01*
X245320Y422027D01*
X245328Y422000D01*
X245360Y421960D01*
X245395Y421900D01*
X245399Y421896D01*
X245350Y421249D01*
X245355Y421215D01*
X245350Y421173D01*
X245399Y420526D01*
X245395Y420522D01*
X245361Y420461D01*
X245319Y420404D01*
X245311Y420372D01*
X245297Y420347D01*
X245291Y420296D01*
X245274Y420229D01*
X245098Y417864D01*
X245106Y417794D01*
X245107Y417724D01*
X245119Y417693D01*
X245123Y417665D01*
X245148Y417621D01*
X245174Y417557D01*
X245177Y417552D01*
X245033Y416919D01*
X245032Y416885D01*
X245022Y416844D01*
X244973Y416197D01*
X244969Y416194D01*
X244926Y416138D01*
X244876Y416088D01*
X244863Y416058D01*
X244846Y416035D01*
X244833Y415986D01*
X244806Y415922D01*
X244279Y413610D01*
X244277Y413539D01*
X244267Y413469D01*
X244274Y413438D01*
X244274Y413410D01*
X244292Y413361D01*
X244308Y413294D01*
X244311Y413289D01*
X244074Y412685D01*
X244068Y412651D01*
X244051Y412613D01*
X243922Y412043D01*
X243920Y411979D01*
X243909Y411915D01*
X243917Y411879D01*
X243916Y411843D01*
X243940Y411783D01*
X243955Y411720D01*
X243977Y411687D01*
X243989Y411656D01*
X244023Y411622D01*
X244057Y411572D01*
X246021Y409608D01*
X246024Y409606D01*
X246025Y409604D01*
X246106Y409552D01*
X246188Y409497D01*
X246191Y409496D01*
X246193Y409495D01*
X246289Y409478D01*
X246385Y409459D01*
X246388Y409460D01*
X246390Y409459D01*
X246487Y409481D01*
X246581Y409501D01*
X246583Y409502D01*
X246586Y409503D01*
X246666Y409559D01*
X246746Y409615D01*
X246747Y409617D01*
X246749Y409619D01*
X246801Y409702D01*
X246853Y409784D01*
X246854Y409787D01*
X246855Y409789D01*
X246887Y409967D01*
X246887Y426934D01*
X265724Y445771D01*
X271940Y445771D01*
X271948Y445772D01*
X271955Y445771D01*
X272045Y445792D01*
X272136Y445810D01*
X272143Y445815D01*
X272150Y445817D01*
X272298Y445919D01*
X273646Y447267D01*
X278042Y447267D01*
X281151Y444158D01*
X281151Y439762D01*
X278042Y436653D01*
X273646Y436653D01*
X272298Y438001D01*
X272292Y438005D01*
X272287Y438011D01*
X272209Y438060D01*
X272131Y438112D01*
X272124Y438113D01*
X272117Y438117D01*
X271940Y438149D01*
X269091Y438149D01*
X269083Y438148D01*
X269076Y438149D01*
X268986Y438128D01*
X268895Y438110D01*
X268888Y438105D01*
X268881Y438103D01*
X268733Y438001D01*
X262636Y431905D01*
X262635Y431902D01*
X262633Y431901D01*
X262580Y431820D01*
X262526Y431738D01*
X262525Y431735D01*
X262524Y431733D01*
X262506Y431637D01*
X262488Y431541D01*
X262488Y431538D01*
X262488Y431536D01*
X262509Y431439D01*
X262530Y431345D01*
X262531Y431343D01*
X262532Y431340D01*
X262589Y431260D01*
X262644Y431180D01*
X262646Y431179D01*
X262648Y431177D01*
X262730Y431125D01*
X262813Y431073D01*
X262816Y431072D01*
X262818Y431071D01*
X262995Y431039D01*
X271940Y431039D01*
X271948Y431040D01*
X271955Y431039D01*
X272045Y431060D01*
X272136Y431078D01*
X272143Y431083D01*
X272150Y431085D01*
X272298Y431187D01*
X273646Y432535D01*
X278042Y432535D01*
X278501Y432076D01*
X278507Y432072D01*
X278512Y432066D01*
X278590Y432017D01*
X278668Y431965D01*
X278675Y431964D01*
X278682Y431960D01*
X278859Y431928D01*
X285946Y431928D01*
X285954Y431929D01*
X285961Y431928D01*
X286051Y431949D01*
X286142Y431967D01*
X286149Y431972D01*
X286157Y431974D01*
X286305Y432076D01*
X287981Y433753D01*
X302315Y433753D01*
X304673Y431395D01*
X304673Y423061D01*
X302315Y420703D01*
X287981Y420703D01*
X286305Y422380D01*
X286298Y422384D01*
X286293Y422390D01*
X286215Y422439D01*
X286138Y422491D01*
X286130Y422492D01*
X286123Y422496D01*
X285946Y422528D01*
X278859Y422528D01*
X278851Y422527D01*
X278844Y422528D01*
X278754Y422507D01*
X278663Y422489D01*
X278656Y422484D01*
X278649Y422482D01*
X278501Y422380D01*
X278042Y421921D01*
X273646Y421921D01*
X272298Y423269D01*
X272292Y423273D01*
X272287Y423279D01*
X272209Y423328D01*
X272131Y423380D01*
X272124Y423381D01*
X272117Y423385D01*
X271940Y423417D01*
X264425Y423417D01*
X264417Y423416D01*
X264409Y423417D01*
X264319Y423396D01*
X264228Y423378D01*
X264222Y423373D01*
X264214Y423371D01*
X264066Y423269D01*
X260753Y419956D01*
X260749Y419950D01*
X260743Y419945D01*
X260694Y419866D01*
X260642Y419789D01*
X260641Y419781D01*
X260637Y419775D01*
X260605Y419597D01*
X260605Y379233D01*
X260606Y379225D01*
X260605Y379217D01*
X260626Y379127D01*
X260644Y379036D01*
X260649Y379030D01*
X260651Y379022D01*
X260753Y378874D01*
X273998Y365629D01*
X274004Y365625D01*
X274009Y365619D01*
X274088Y365570D01*
X274165Y365518D01*
X274173Y365517D01*
X274179Y365513D01*
X274357Y365481D01*
X300682Y365481D01*
X300690Y365482D01*
X300698Y365481D01*
X300788Y365502D01*
X300879Y365520D01*
X300885Y365525D01*
X300893Y365527D01*
X301041Y365629D01*
X301908Y366497D01*
X312979Y366497D01*
X313090Y366477D01*
X315467Y366477D01*
X316727Y365217D01*
X316727Y362187D01*
X316101Y361561D01*
X316098Y361556D01*
X316094Y361553D01*
X316042Y361473D01*
X315990Y361394D01*
X315989Y361389D01*
X315986Y361384D01*
X315970Y361290D01*
X315952Y361197D01*
X315953Y361192D01*
X315952Y361186D01*
X315974Y361094D01*
X315994Y361001D01*
X315997Y360996D01*
X315998Y360991D01*
X316101Y360843D01*
X316727Y360217D01*
X316727Y357187D01*
X316101Y356561D01*
X316098Y356556D01*
X316094Y356553D01*
X316042Y356473D01*
X315990Y356394D01*
X315989Y356389D01*
X315986Y356384D01*
X315970Y356290D01*
X315952Y356197D01*
X315953Y356192D01*
X315952Y356186D01*
X315974Y356094D01*
X315994Y356001D01*
X315997Y355996D01*
X315998Y355991D01*
X316101Y355843D01*
X316727Y355217D01*
X316727Y352187D01*
X316101Y351561D01*
X316098Y351556D01*
X316094Y351553D01*
X316042Y351473D01*
X315990Y351394D01*
X315989Y351389D01*
X315986Y351384D01*
X315970Y351290D01*
X315952Y351197D01*
X315953Y351192D01*
X315952Y351186D01*
X315974Y351094D01*
X315994Y351001D01*
X315997Y350996D01*
X315998Y350991D01*
X316101Y350843D01*
X316727Y350217D01*
X316727Y347187D01*
X316101Y346561D01*
X316098Y346556D01*
X316094Y346553D01*
X316042Y346473D01*
X315990Y346394D01*
X315989Y346389D01*
X315986Y346384D01*
X315970Y346290D01*
X315952Y346197D01*
X315953Y346192D01*
X315952Y346186D01*
X315974Y346094D01*
X315994Y346001D01*
X315997Y345996D01*
X315998Y345991D01*
X316101Y345843D01*
X316727Y345217D01*
X316727Y342187D01*
X316101Y341561D01*
X316098Y341556D01*
X316094Y341553D01*
X316042Y341473D01*
X315990Y341394D01*
X315989Y341389D01*
X315986Y341384D01*
X315970Y341290D01*
X315952Y341197D01*
X315953Y341192D01*
X315952Y341186D01*
X315974Y341094D01*
X315994Y341001D01*
X315997Y340996D01*
X315998Y340991D01*
X316101Y340843D01*
X316727Y340217D01*
X316727Y337187D01*
X316101Y336561D01*
X316098Y336556D01*
X316094Y336553D01*
X316042Y336473D01*
X315990Y336394D01*
X315989Y336389D01*
X315986Y336384D01*
X315970Y336290D01*
X315952Y336197D01*
X315953Y336192D01*
X315952Y336186D01*
X315974Y336094D01*
X315994Y336001D01*
X315997Y335996D01*
X315998Y335991D01*
X316101Y335843D01*
X316727Y335217D01*
X316727Y332187D01*
X316101Y331561D01*
X316098Y331556D01*
X316094Y331553D01*
X316042Y331473D01*
X315990Y331394D01*
X315989Y331389D01*
X315986Y331384D01*
X315970Y331290D01*
X315952Y331197D01*
X315953Y331192D01*
X315952Y331186D01*
X315974Y331094D01*
X315994Y331001D01*
X315997Y330996D01*
X315998Y330991D01*
X316101Y330843D01*
X316727Y330217D01*
X316727Y327187D01*
X316101Y326561D01*
X316098Y326556D01*
X316094Y326553D01*
X316042Y326473D01*
X315990Y326394D01*
X315989Y326389D01*
X315986Y326384D01*
X315970Y326290D01*
X315952Y326197D01*
X315953Y326192D01*
X315952Y326186D01*
X315974Y326093D01*
X315994Y326001D01*
X315997Y325996D01*
X315998Y325991D01*
X316101Y325843D01*
X316727Y325217D01*
X316727Y322187D01*
X316101Y321561D01*
X316098Y321556D01*
X316094Y321553D01*
X316042Y321472D01*
X315990Y321394D01*
X315989Y321389D01*
X315986Y321384D01*
X315970Y321290D01*
X315952Y321197D01*
X315953Y321192D01*
X315952Y321186D01*
X315974Y321094D01*
X315994Y321001D01*
X315997Y320996D01*
X315998Y320991D01*
X316101Y320843D01*
X316727Y320217D01*
X316727Y317234D01*
X316728Y317229D01*
X316727Y317224D01*
X316748Y317131D01*
X316766Y317037D01*
X316769Y317033D01*
X316770Y317028D01*
X316826Y316950D01*
X316879Y316872D01*
X316883Y316869D01*
X316886Y316864D01*
X316968Y316814D01*
X317047Y316762D01*
X317052Y316761D01*
X317057Y316759D01*
X317234Y316727D01*
X320217Y316727D01*
X321477Y315467D01*
X321477Y313090D01*
X321478Y313082D01*
X321477Y313074D01*
X321497Y312989D01*
X321497Y305860D01*
X320191Y304554D01*
X320186Y304548D01*
X320180Y304543D01*
X320131Y304464D01*
X320080Y304387D01*
X320078Y304380D01*
X320074Y304373D01*
X320042Y304196D01*
X320042Y301891D01*
X317363Y299213D01*
X296100Y299213D01*
X296095Y299211D01*
X296090Y299212D01*
X295997Y299192D01*
X295904Y299173D01*
X295899Y299170D01*
X295894Y299169D01*
X295816Y299114D01*
X295738Y299060D01*
X295735Y299056D01*
X295731Y299053D01*
X295680Y298971D01*
X295629Y298892D01*
X295628Y298887D01*
X295625Y298883D01*
X295593Y298705D01*
X295593Y288277D01*
X294700Y287384D01*
X293811Y287384D01*
X293804Y287382D01*
X293798Y287384D01*
X293706Y287363D01*
X293614Y287344D01*
X293609Y287340D01*
X293602Y287339D01*
X293526Y287284D01*
X293448Y287232D01*
X293445Y287226D01*
X293439Y287222D01*
X293390Y287142D01*
X293339Y287063D01*
X293338Y287057D01*
X293334Y287051D01*
X293303Y286874D01*
X293306Y286297D01*
X293308Y286290D01*
X293307Y286282D01*
X293328Y286192D01*
X293347Y286100D01*
X293351Y286094D01*
X293353Y286087D01*
X293456Y285940D01*
X301182Y278250D01*
X301188Y278246D01*
X301193Y278241D01*
X301271Y278191D01*
X301350Y278140D01*
X301357Y278139D01*
X301363Y278135D01*
X301540Y278103D01*
X302426Y278103D01*
X305535Y274994D01*
X305535Y270598D01*
X302426Y267489D01*
X298030Y267489D01*
X294921Y270598D01*
X294921Y271010D01*
X294920Y271018D01*
X294921Y271026D01*
X294900Y271115D01*
X294882Y271206D01*
X294877Y271213D01*
X294875Y271221D01*
X294772Y271369D01*
X288373Y277737D01*
X288344Y277756D01*
X288322Y277782D01*
X288261Y277811D01*
X288205Y277848D01*
X288172Y277854D01*
X288141Y277869D01*
X288074Y277873D01*
X288008Y277885D01*
X287975Y277878D01*
X287941Y277880D01*
X287878Y277857D01*
X287812Y277843D01*
X287784Y277823D01*
X287752Y277812D01*
X287703Y277767D01*
X287648Y277728D01*
X287630Y277699D01*
X287605Y277676D01*
X287577Y277615D01*
X287541Y277559D01*
X287535Y277525D01*
X287521Y277494D01*
X287519Y277427D01*
X287508Y277361D01*
X287516Y277328D01*
X287515Y277294D01*
X287541Y277220D01*
X287554Y277166D01*
X287563Y277153D01*
X287563Y277151D01*
X287569Y277144D01*
X287576Y277124D01*
X307466Y242674D01*
X307248Y241860D01*
X254557Y211439D01*
X253743Y211657D01*
X198322Y307649D01*
X198540Y308463D01*
X251231Y338884D01*
X252044Y338666D01*
X280597Y289211D01*
X280643Y289160D01*
X280681Y289103D01*
X280708Y289085D01*
X280730Y289061D01*
X280792Y289031D01*
X280849Y288994D01*
X280881Y288988D01*
X280910Y288974D01*
X280979Y288970D01*
X281047Y288958D01*
X281078Y288965D01*
X281110Y288963D01*
X281175Y288986D01*
X281242Y289001D01*
X281269Y289020D01*
X281299Y289031D01*
X281349Y289078D01*
X281406Y289117D01*
X281423Y289145D01*
X281446Y289167D01*
X281475Y289229D01*
X281512Y289288D01*
X281518Y289322D01*
X281530Y289349D01*
X281532Y289399D01*
X281544Y289465D01*
X281544Y299540D01*
X282437Y300433D01*
X283477Y300433D01*
X283478Y300433D01*
X283479Y300433D01*
X283573Y300453D01*
X283673Y300473D01*
X283674Y300473D01*
X283675Y300474D01*
X283755Y300528D01*
X283839Y300585D01*
X283840Y300586D01*
X283840Y300587D01*
X283894Y300670D01*
X283948Y300754D01*
X283948Y300755D01*
X283949Y300755D01*
X283984Y300932D01*
X284064Y305809D01*
X286863Y308516D01*
X287230Y308510D01*
X287240Y308512D01*
X287249Y308510D01*
X287338Y308530D01*
X287428Y308547D01*
X287436Y308552D01*
X287445Y308554D01*
X287519Y308607D01*
X287595Y308657D01*
X287601Y308664D01*
X287608Y308670D01*
X287657Y308748D01*
X287707Y308823D01*
X287709Y308832D01*
X287714Y308840D01*
X287746Y309018D01*
X287746Y321110D01*
X287745Y321115D01*
X287746Y321120D01*
X287725Y321213D01*
X287707Y321306D01*
X287704Y321311D01*
X287702Y321316D01*
X287647Y321394D01*
X287594Y321472D01*
X287589Y321475D01*
X287586Y321479D01*
X287505Y321530D01*
X287426Y321581D01*
X287421Y321582D01*
X287416Y321585D01*
X287239Y321617D01*
X285187Y321617D01*
X284294Y322510D01*
X284294Y338368D01*
X284293Y338373D01*
X284294Y338378D01*
X284273Y338471D01*
X284255Y338565D01*
X284252Y338569D01*
X284250Y338574D01*
X284195Y338652D01*
X284142Y338730D01*
X284137Y338733D01*
X284134Y338737D01*
X284053Y338788D01*
X283974Y338840D01*
X283969Y338840D01*
X283964Y338843D01*
X283787Y338875D01*
X258826Y338875D01*
X232155Y365546D01*
X232155Y388526D01*
X232154Y388534D01*
X232155Y388541D01*
X232134Y388631D01*
X232116Y388722D01*
X232111Y388729D01*
X232109Y388736D01*
X232007Y388884D01*
X230659Y390232D01*
X230659Y394628D01*
X230938Y394907D01*
X230968Y394952D01*
X231006Y394990D01*
X231023Y395035D01*
X231049Y395074D01*
X231059Y395127D01*
X231079Y395177D01*
X231078Y395224D01*
X231087Y395271D01*
X231076Y395324D01*
X231075Y395377D01*
X231055Y395421D01*
X231045Y395467D01*
X231015Y395511D01*
X230993Y395560D01*
X230958Y395593D01*
X230931Y395632D01*
X230886Y395661D01*
X230847Y395697D01*
X230802Y395714D01*
X230762Y395739D01*
X230709Y395748D01*
X230659Y395767D01*
X230611Y395765D01*
X230564Y395773D01*
X230512Y395761D01*
X230458Y395758D01*
X230410Y395737D01*
X230369Y395727D01*
X230333Y395703D01*
X230294Y395685D01*
X230265Y395665D01*
X230260Y395666D01*
X230189Y395666D01*
X230119Y395673D01*
X230088Y395664D01*
X230060Y395664D01*
X230012Y395643D01*
X229946Y395625D01*
X227809Y394595D01*
X227753Y394553D01*
X227692Y394517D01*
X227672Y394491D01*
X227650Y394474D01*
X227624Y394430D01*
X227581Y394375D01*
X227579Y394370D01*
X226958Y394179D01*
X226928Y394162D01*
X226888Y394151D01*
X226303Y393870D01*
X226298Y393871D01*
X226228Y393881D01*
X226160Y393899D01*
X226127Y393895D01*
X226100Y393899D01*
X226050Y393886D01*
X225981Y393877D01*
X223715Y393178D01*
X223653Y393144D01*
X223588Y393118D01*
X223564Y393095D01*
X223539Y393082D01*
X223507Y393041D01*
X223457Y392994D01*
X223454Y392989D01*
X222812Y392893D01*
X222779Y392881D01*
X222738Y392876D01*
X222118Y392684D01*
X222113Y392687D01*
X222045Y392707D01*
X221981Y392735D01*
X221948Y392736D01*
X221921Y392744D01*
X221870Y392738D01*
X221800Y392740D01*
X219456Y392386D01*
X219389Y392361D01*
X219321Y392345D01*
X219294Y392327D01*
X219267Y392317D01*
X219229Y392282D01*
X219173Y392243D01*
X219169Y392239D01*
X218520Y392239D01*
X218486Y392232D01*
X218444Y392233D01*
X217803Y392136D01*
X217798Y392139D01*
X217734Y392169D01*
X217674Y392206D01*
X217642Y392212D01*
X217617Y392224D01*
X217565Y392226D01*
X217497Y392238D01*
X215126Y392237D01*
X215056Y392223D01*
X214986Y392218D01*
X214957Y392203D01*
X214929Y392198D01*
X214886Y392169D01*
X214824Y392138D01*
X214820Y392135D01*
X214178Y392231D01*
X214144Y392230D01*
X214103Y392237D01*
X213454Y392237D01*
X213450Y392241D01*
X213391Y392280D01*
X213337Y392326D01*
X213306Y392336D01*
X213283Y392352D01*
X213232Y392361D01*
X213167Y392384D01*
X210822Y392736D01*
X210751Y392733D01*
X210681Y392738D01*
X210650Y392728D01*
X210622Y392726D01*
X210575Y392704D01*
X210509Y392683D01*
X210504Y392680D01*
X209884Y392872D01*
X209850Y392875D01*
X209810Y392888D01*
X209169Y392985D01*
X209165Y392989D01*
X209113Y393037D01*
X209067Y393090D01*
X209038Y393105D01*
X209017Y393124D01*
X208968Y393141D01*
X208907Y393173D01*
X206640Y393871D01*
X206570Y393878D01*
X206501Y393893D01*
X206469Y393888D01*
X206441Y393891D01*
X206392Y393876D01*
X206323Y393865D01*
X206318Y393863D01*
X205733Y394145D01*
X205700Y394153D01*
X205663Y394172D01*
X205043Y394363D01*
X205040Y394368D01*
X204996Y394423D01*
X204958Y394482D01*
X204931Y394502D01*
X204913Y394523D01*
X204868Y394547D01*
X204812Y394588D01*
X203574Y395184D01*
X203490Y395205D01*
X203407Y395231D01*
X203393Y395230D01*
X203380Y395233D01*
X203294Y395220D01*
X203208Y395212D01*
X203195Y395206D01*
X203181Y395204D01*
X203108Y395159D01*
X203031Y395118D01*
X203021Y395106D01*
X203010Y395099D01*
X202977Y395055D01*
X202915Y394980D01*
X174900Y346456D01*
X174876Y346386D01*
X174845Y346318D01*
X174844Y346291D01*
X174836Y346266D01*
X174841Y346192D01*
X174839Y346118D01*
X174849Y346091D01*
X174850Y346066D01*
X174875Y346018D01*
X174900Y345948D01*
X260331Y197972D01*
X260380Y197917D01*
X260423Y197857D01*
X260446Y197842D01*
X260464Y197822D01*
X260530Y197790D01*
X260593Y197751D01*
X260622Y197746D01*
X260644Y197735D01*
X260698Y197732D01*
X260771Y197719D01*
X316815Y197719D01*
X316900Y197736D01*
G37*
G36*
X432878Y195718D02*
X432878Y195718D01*
X432956Y195727D01*
X432975Y195738D01*
X432997Y195742D01*
X433061Y195786D01*
X433129Y195825D01*
X433145Y195844D01*
X433161Y195855D01*
X433185Y195893D01*
X433235Y195953D01*
X442735Y212453D01*
X442744Y212480D01*
X442760Y212504D01*
X442775Y212574D01*
X442798Y212642D01*
X442795Y212670D01*
X442801Y212698D01*
X442788Y212769D01*
X442782Y212840D01*
X442769Y212865D01*
X442763Y212893D01*
X442723Y212953D01*
X442690Y213016D01*
X442668Y213034D01*
X442652Y213058D01*
X442569Y213116D01*
X442537Y213143D01*
X442526Y213146D01*
X442516Y213153D01*
X441197Y213777D01*
X460088Y246497D01*
X460115Y246579D01*
X460147Y246660D01*
X460147Y246674D01*
X460152Y246687D01*
X460145Y246774D01*
X460144Y246860D01*
X460138Y246873D01*
X460137Y246887D01*
X460098Y246964D01*
X460062Y247044D01*
X460052Y247054D01*
X460046Y247066D01*
X460003Y247102D01*
X459934Y247170D01*
X458814Y247933D01*
X458749Y247960D01*
X458687Y247995D01*
X458655Y248000D01*
X458629Y248011D01*
X458577Y248011D01*
X458509Y248021D01*
X458503Y248021D01*
X458028Y248462D01*
X457998Y248480D01*
X457968Y248509D01*
X457432Y248874D01*
X457431Y248880D01*
X457404Y248945D01*
X457386Y249013D01*
X457366Y249039D01*
X457356Y249065D01*
X457319Y249102D01*
X457278Y249157D01*
X455539Y250770D01*
X455478Y250806D01*
X455423Y250850D01*
X455392Y250860D01*
X455368Y250874D01*
X455317Y250882D01*
X455250Y250902D01*
X455245Y250902D01*
X454840Y251410D01*
X454814Y251432D01*
X454789Y251465D01*
X454313Y251906D01*
X454313Y251912D01*
X454296Y251980D01*
X454288Y252051D01*
X454272Y252079D01*
X454266Y252107D01*
X454235Y252148D01*
X454202Y252209D01*
X452723Y254063D01*
X452669Y254108D01*
X452621Y254160D01*
X452591Y254173D01*
X452570Y254192D01*
X452520Y254207D01*
X452458Y254236D01*
X452452Y254238D01*
X452128Y254800D01*
X452105Y254826D01*
X452085Y254862D01*
X451680Y255369D01*
X451681Y255375D01*
X451675Y255445D01*
X451677Y255516D01*
X451666Y255547D01*
X451664Y255574D01*
X451640Y255620D01*
X451616Y255685D01*
X451048Y256668D01*
X450999Y256723D01*
X450957Y256783D01*
X450934Y256798D01*
X450916Y256818D01*
X450849Y256850D01*
X450786Y256889D01*
X450758Y256894D01*
X450735Y256905D01*
X450682Y256908D01*
X450609Y256921D01*
X400122Y256921D01*
X384915Y272128D01*
X384912Y272130D01*
X384911Y272132D01*
X384830Y272184D01*
X384748Y272239D01*
X384745Y272240D01*
X384743Y272241D01*
X384647Y272258D01*
X384551Y272277D01*
X384548Y272276D01*
X384546Y272277D01*
X384449Y272255D01*
X384355Y272235D01*
X384353Y272234D01*
X384350Y272233D01*
X384270Y272177D01*
X384190Y272121D01*
X384189Y272119D01*
X384187Y272117D01*
X384135Y272034D01*
X384083Y271952D01*
X384082Y271949D01*
X384081Y271947D01*
X384049Y271769D01*
X384049Y234282D01*
X384050Y234274D01*
X384049Y234267D01*
X384070Y234177D01*
X384088Y234086D01*
X384093Y234079D01*
X384095Y234072D01*
X384197Y233924D01*
X385545Y232576D01*
X385545Y228180D01*
X382436Y225071D01*
X378040Y225071D01*
X374931Y228180D01*
X374931Y232576D01*
X376279Y233924D01*
X376283Y233930D01*
X376289Y233935D01*
X376338Y234013D01*
X376390Y234091D01*
X376391Y234098D01*
X376395Y234105D01*
X376427Y234282D01*
X376427Y268213D01*
X376426Y268221D01*
X376427Y268229D01*
X376406Y268319D01*
X376388Y268410D01*
X376383Y268416D01*
X376381Y268424D01*
X376279Y268572D01*
X363367Y281484D01*
X363367Y291983D01*
X363367Y291986D01*
X363367Y291989D01*
X363347Y292084D01*
X363328Y292180D01*
X363326Y292182D01*
X363326Y292185D01*
X363270Y292265D01*
X363215Y292346D01*
X363213Y292347D01*
X363211Y292349D01*
X363128Y292403D01*
X363047Y292455D01*
X363044Y292455D01*
X363042Y292457D01*
X362946Y292473D01*
X362850Y292491D01*
X362847Y292490D01*
X362845Y292490D01*
X362751Y292469D01*
X362654Y292447D01*
X362652Y292446D01*
X362649Y292445D01*
X362501Y292342D01*
X350161Y280002D01*
X350157Y279996D01*
X350151Y279991D01*
X350102Y279912D01*
X350050Y279835D01*
X350049Y279827D01*
X350045Y279821D01*
X350013Y279643D01*
X350013Y225340D01*
X350026Y225274D01*
X350031Y225206D01*
X350046Y225176D01*
X350052Y225144D01*
X350091Y225088D01*
X350121Y225027D01*
X350146Y225005D01*
X350165Y224978D01*
X350222Y224941D01*
X350274Y224897D01*
X350308Y224885D01*
X350333Y224869D01*
X350382Y224860D01*
X350444Y224839D01*
X351688Y224651D01*
X351759Y224655D01*
X351829Y224650D01*
X351860Y224660D01*
X351888Y224661D01*
X351935Y224683D01*
X352001Y224704D01*
X352005Y224707D01*
X352626Y224516D01*
X352660Y224512D01*
X352700Y224499D01*
X353341Y224402D01*
X353344Y224398D01*
X353397Y224350D01*
X353443Y224297D01*
X353472Y224282D01*
X353493Y224263D01*
X353542Y224246D01*
X353603Y224214D01*
X355867Y223516D01*
X355937Y223509D01*
X356006Y223494D01*
X356038Y223499D01*
X356066Y223496D01*
X356116Y223511D01*
X356184Y223522D01*
X356189Y223524D01*
X356774Y223242D01*
X356807Y223234D01*
X356844Y223214D01*
X357464Y223023D01*
X357467Y223018D01*
X357512Y222964D01*
X357550Y222904D01*
X357576Y222885D01*
X357594Y222863D01*
X357639Y222839D01*
X357695Y222798D01*
X359830Y221770D01*
X359898Y221753D01*
X359964Y221727D01*
X359997Y221728D01*
X360024Y221721D01*
X360075Y221728D01*
X360144Y221729D01*
X360150Y221730D01*
X360686Y221365D01*
X360718Y221351D01*
X360751Y221327D01*
X361336Y221045D01*
X361338Y221040D01*
X361374Y220979D01*
X361403Y220915D01*
X361426Y220892D01*
X361440Y220867D01*
X361482Y220837D01*
X361531Y220788D01*
X363488Y219454D01*
X363553Y219426D01*
X363615Y219391D01*
X363647Y219387D01*
X363673Y219376D01*
X363724Y219376D01*
X363793Y219366D01*
X363799Y219366D01*
X364274Y218925D01*
X364304Y218907D01*
X364334Y218877D01*
X364870Y218512D01*
X364871Y218507D01*
X364897Y218441D01*
X364916Y218373D01*
X364936Y218347D01*
X364946Y218321D01*
X364983Y218284D01*
X365024Y218229D01*
X366761Y216618D01*
X366821Y216581D01*
X366876Y216537D01*
X366908Y216528D01*
X366932Y216513D01*
X366983Y216505D01*
X367049Y216485D01*
X367055Y216485D01*
X367459Y215977D01*
X367486Y215955D01*
X367511Y215922D01*
X367986Y215480D01*
X367987Y215475D01*
X368003Y215406D01*
X368011Y215336D01*
X368027Y215307D01*
X368033Y215280D01*
X368064Y215239D01*
X368097Y215178D01*
X369574Y213325D01*
X369628Y213280D01*
X369676Y213229D01*
X369706Y213215D01*
X369727Y213197D01*
X369777Y213181D01*
X369839Y213152D01*
X369845Y213150D01*
X370169Y212588D01*
X370192Y212562D01*
X370212Y212526D01*
X370616Y212018D01*
X370616Y212013D01*
X370622Y211942D01*
X370620Y211872D01*
X370631Y211841D01*
X370633Y211813D01*
X370657Y211767D01*
X370680Y211702D01*
X371865Y209651D01*
X371912Y209598D01*
X371952Y209540D01*
X371979Y209521D01*
X371998Y209500D01*
X372044Y209478D01*
X372101Y209439D01*
X372107Y209437D01*
X372344Y208833D01*
X372362Y208804D01*
X372377Y208765D01*
X372701Y208203D01*
X372700Y208198D01*
X372695Y208127D01*
X372682Y208058D01*
X372689Y208026D01*
X372687Y207998D01*
X372704Y207949D01*
X372717Y207881D01*
X373583Y205676D01*
X373621Y205616D01*
X373652Y205553D01*
X373676Y205531D01*
X373691Y205507D01*
X373734Y205478D01*
X373785Y205431D01*
X373790Y205429D01*
X373934Y204796D01*
X373948Y204764D01*
X373957Y204723D01*
X374194Y204119D01*
X374191Y204114D01*
X374177Y204045D01*
X374154Y203979D01*
X374155Y203946D01*
X374149Y203918D01*
X374159Y203868D01*
X374162Y203799D01*
X374689Y201489D01*
X374718Y201425D01*
X374739Y201357D01*
X374760Y201332D01*
X374771Y201306D01*
X374809Y201271D01*
X374853Y201217D01*
X374857Y201214D01*
X374905Y200567D01*
X374915Y200533D01*
X374917Y200492D01*
X375061Y199859D01*
X375058Y199854D01*
X375033Y199788D01*
X375000Y199726D01*
X374997Y199693D01*
X374987Y199667D01*
X374989Y199615D01*
X374982Y199547D01*
X375084Y198188D01*
X375107Y198105D01*
X375126Y198020D01*
X375134Y198009D01*
X375138Y197995D01*
X375191Y197927D01*
X375242Y197857D01*
X375254Y197849D01*
X375262Y197838D01*
X375338Y197797D01*
X375412Y197751D01*
X375427Y197748D01*
X375438Y197742D01*
X375494Y197736D01*
X375589Y197719D01*
X413422Y197719D01*
X413304Y196242D01*
X413308Y196213D01*
X413303Y196185D01*
X413320Y196116D01*
X413328Y196044D01*
X413343Y196020D01*
X413349Y195992D01*
X413392Y195934D01*
X413428Y195872D01*
X413450Y195855D01*
X413467Y195832D01*
X413529Y195795D01*
X413586Y195752D01*
X413614Y195745D01*
X413638Y195730D01*
X413738Y195714D01*
X413779Y195703D01*
X413789Y195705D01*
X413802Y195703D01*
X432802Y195703D01*
X432878Y195718D01*
G37*
G36*
X478143Y393769D02*
X478143Y393769D01*
X478186Y393768D01*
X482179Y394369D01*
X482209Y394380D01*
X482252Y394385D01*
X486111Y395574D01*
X486139Y395589D01*
X486180Y395601D01*
X489818Y397352D01*
X489840Y397369D01*
X489866Y397378D01*
X489919Y397428D01*
X489977Y397472D01*
X489990Y397496D01*
X490010Y397515D01*
X490040Y397581D01*
X490076Y397645D01*
X490079Y397672D01*
X490090Y397697D01*
X490091Y397770D01*
X490100Y397842D01*
X490092Y397868D01*
X490092Y397896D01*
X490056Y397994D01*
X490044Y398033D01*
X490038Y398041D01*
X490034Y398052D01*
X463034Y444852D01*
X463016Y444872D01*
X463005Y444897D01*
X462951Y444946D01*
X462903Y445001D01*
X462878Y445012D01*
X462858Y445031D01*
X462789Y445055D01*
X462723Y445086D01*
X462696Y445088D01*
X462671Y445097D01*
X462598Y445092D01*
X462525Y445095D01*
X462499Y445086D01*
X462472Y445084D01*
X462376Y445040D01*
X462338Y445026D01*
X462331Y445019D01*
X462321Y445015D01*
X458984Y442741D01*
X458962Y442718D01*
X458926Y442695D01*
X455965Y439949D01*
X455946Y439923D01*
X455914Y439895D01*
X453396Y436739D01*
X453381Y436710D01*
X453354Y436677D01*
X451334Y433181D01*
X451324Y433151D01*
X451301Y433114D01*
X449825Y429356D01*
X449820Y429324D01*
X449803Y429284D01*
X448903Y425348D01*
X448903Y425316D01*
X448892Y425274D01*
X448589Y421248D01*
X448592Y421225D01*
X448589Y421205D01*
X448591Y421195D01*
X448589Y421174D01*
X448890Y417147D01*
X448898Y417116D01*
X448901Y417073D01*
X449798Y413137D01*
X449811Y413108D01*
X449820Y413065D01*
X451294Y409306D01*
X451311Y409279D01*
X451326Y409239D01*
X453344Y405742D01*
X453365Y405718D01*
X453386Y405680D01*
X455902Y402522D01*
X455927Y402502D01*
X455953Y402468D01*
X458912Y399720D01*
X458939Y399704D01*
X458970Y399674D01*
X462306Y397398D01*
X462335Y397386D01*
X462370Y397361D01*
X466008Y395608D01*
X466038Y395600D01*
X466077Y395581D01*
X469935Y394389D01*
X469967Y394386D01*
X470008Y394373D01*
X474000Y393770D01*
X474032Y393771D01*
X474074Y393764D01*
X478112Y393763D01*
X478143Y393769D01*
G37*
G36*
X218330Y393764D02*
X218330Y393764D01*
X218361Y393770D01*
X218404Y393770D01*
X222396Y394373D01*
X222426Y394384D01*
X222469Y394389D01*
X226327Y395581D01*
X226355Y395596D01*
X226397Y395608D01*
X230034Y397361D01*
X230059Y397380D01*
X230098Y397398D01*
X233434Y399674D01*
X233456Y399697D01*
X233492Y399720D01*
X236451Y402468D01*
X236470Y402493D01*
X236502Y402522D01*
X239018Y405680D01*
X239033Y405708D01*
X239060Y405742D01*
X241078Y409239D01*
X241088Y409269D01*
X241110Y409306D01*
X242584Y413065D01*
X242590Y413097D01*
X242606Y413137D01*
X243503Y417073D01*
X243504Y417105D01*
X243514Y417147D01*
X243815Y421174D01*
X243811Y421205D01*
X243812Y421221D01*
X243815Y421238D01*
X243814Y421242D01*
X243815Y421248D01*
X243512Y425274D01*
X243503Y425305D01*
X243501Y425348D01*
X242601Y429284D01*
X242588Y429313D01*
X242579Y429356D01*
X241103Y433114D01*
X241085Y433141D01*
X241070Y433181D01*
X239050Y436677D01*
X239029Y436701D01*
X239008Y436739D01*
X236490Y439895D01*
X236465Y439915D01*
X236439Y439949D01*
X233478Y442695D01*
X233451Y442711D01*
X233420Y442741D01*
X230083Y445015D01*
X230058Y445025D01*
X230037Y445042D01*
X229967Y445063D01*
X229900Y445092D01*
X229872Y445092D01*
X229846Y445099D01*
X229774Y445091D01*
X229701Y445091D01*
X229676Y445080D01*
X229649Y445077D01*
X229585Y445041D01*
X229518Y445013D01*
X229499Y444993D01*
X229476Y444980D01*
X229409Y444899D01*
X229380Y444869D01*
X229377Y444860D01*
X229370Y444852D01*
X202370Y398052D01*
X202361Y398026D01*
X202345Y398003D01*
X202330Y397932D01*
X202306Y397863D01*
X202309Y397836D01*
X202303Y397809D01*
X202316Y397738D01*
X202322Y397665D01*
X202335Y397640D01*
X202340Y397614D01*
X202380Y397553D01*
X202414Y397488D01*
X202435Y397471D01*
X202450Y397448D01*
X202536Y397387D01*
X202567Y397362D01*
X202576Y397359D01*
X202586Y397352D01*
X206224Y395601D01*
X206255Y395594D01*
X206293Y395574D01*
X210152Y394385D01*
X210184Y394382D01*
X210225Y394369D01*
X214218Y393768D01*
X214249Y393770D01*
X214292Y393763D01*
X218330Y393764D01*
G37*
G36*
X462630Y247313D02*
X462630Y247313D01*
X462703Y247313D01*
X462728Y247324D01*
X462755Y247327D01*
X462819Y247363D01*
X462886Y247391D01*
X462905Y247411D01*
X462928Y247424D01*
X462996Y247505D01*
X463024Y247535D01*
X463027Y247544D01*
X463034Y247553D01*
X490034Y294353D01*
X490043Y294378D01*
X490059Y294401D01*
X490074Y294472D01*
X490098Y294541D01*
X490095Y294568D01*
X490101Y294595D01*
X490088Y294666D01*
X490082Y294739D01*
X490069Y294764D01*
X490064Y294790D01*
X490024Y294851D01*
X489990Y294916D01*
X489969Y294933D01*
X489954Y294956D01*
X489868Y295017D01*
X489837Y295042D01*
X489828Y295045D01*
X489818Y295052D01*
X486180Y296803D01*
X486149Y296810D01*
X486111Y296830D01*
X482252Y298019D01*
X482220Y298022D01*
X482179Y298035D01*
X478186Y298636D01*
X478155Y298634D01*
X478112Y298641D01*
X474074Y298640D01*
X474043Y298634D01*
X474000Y298634D01*
X470008Y298031D01*
X469978Y298020D01*
X469935Y298015D01*
X466077Y296823D01*
X466049Y296808D01*
X466008Y296796D01*
X462370Y295043D01*
X462345Y295024D01*
X462306Y295006D01*
X458970Y292730D01*
X458948Y292707D01*
X458912Y292684D01*
X455953Y289936D01*
X455934Y289911D01*
X455902Y289882D01*
X453386Y286724D01*
X453371Y286696D01*
X453344Y286662D01*
X451326Y283165D01*
X451316Y283135D01*
X451294Y283098D01*
X449820Y279339D01*
X449814Y279307D01*
X449798Y279267D01*
X448901Y275331D01*
X448900Y275299D01*
X448890Y275257D01*
X448589Y271231D01*
X448593Y271199D01*
X448589Y271156D01*
X448892Y267130D01*
X448901Y267099D01*
X448903Y267056D01*
X449803Y263120D01*
X449816Y263091D01*
X449825Y263048D01*
X451301Y259290D01*
X451319Y259263D01*
X451334Y259223D01*
X453354Y255727D01*
X453375Y255703D01*
X453396Y255665D01*
X455914Y252509D01*
X455939Y252489D01*
X455965Y252455D01*
X458926Y249709D01*
X458953Y249693D01*
X458984Y249663D01*
X462321Y247389D01*
X462346Y247379D01*
X462367Y247362D01*
X462437Y247341D01*
X462504Y247312D01*
X462532Y247313D01*
X462558Y247305D01*
X462630Y247313D01*
G37*
G36*
X348251Y468785D02*
X348251Y468785D01*
X348294Y468784D01*
X352284Y469385D01*
X352314Y469396D01*
X352357Y469402D01*
X356213Y470591D01*
X356241Y470607D01*
X356283Y470619D01*
X359919Y472370D01*
X359944Y472389D01*
X359983Y472407D01*
X363317Y474680D01*
X363340Y474703D01*
X363376Y474727D01*
X366334Y477471D01*
X366353Y477497D01*
X366385Y477526D01*
X368901Y480681D01*
X368915Y480709D01*
X368943Y480743D01*
X370961Y484238D01*
X370971Y484268D01*
X370993Y484305D01*
X372467Y488061D01*
X372468Y488068D01*
X372470Y488069D01*
X372474Y488096D01*
X372489Y488133D01*
X373387Y492067D01*
X373388Y492099D01*
X373398Y492141D01*
X373700Y496165D01*
X373696Y496192D01*
X373701Y496219D01*
X373684Y496289D01*
X373675Y496362D01*
X373661Y496386D01*
X373655Y496412D01*
X373612Y496471D01*
X373575Y496534D01*
X373553Y496550D01*
X373537Y496572D01*
X373474Y496609D01*
X373416Y496653D01*
X373389Y496660D01*
X373366Y496674D01*
X373262Y496691D01*
X373223Y496701D01*
X373213Y496699D01*
X373202Y496701D01*
X319202Y496701D01*
X319175Y496696D01*
X319148Y496698D01*
X319079Y496676D01*
X319007Y496662D01*
X318985Y496646D01*
X318959Y496638D01*
X318903Y496590D01*
X318843Y496549D01*
X318829Y496526D01*
X318808Y496508D01*
X318776Y496443D01*
X318736Y496382D01*
X318732Y496355D01*
X318720Y496330D01*
X318710Y496226D01*
X318703Y496185D01*
X318705Y496176D01*
X318704Y496165D01*
X319006Y492141D01*
X319014Y492110D01*
X319017Y492067D01*
X319915Y488133D01*
X319928Y488104D01*
X319937Y488061D01*
X321411Y484305D01*
X321428Y484278D01*
X321443Y484238D01*
X323461Y480743D01*
X323482Y480719D01*
X323503Y480681D01*
X326019Y477526D01*
X326044Y477506D01*
X326070Y477471D01*
X329028Y474727D01*
X329055Y474710D01*
X329087Y474680D01*
X332421Y472407D01*
X332450Y472394D01*
X332485Y472370D01*
X336121Y470619D01*
X336152Y470611D01*
X336191Y470591D01*
X340047Y469402D01*
X340078Y469399D01*
X340120Y469385D01*
X344110Y468784D01*
X344142Y468785D01*
X344184Y468778D01*
X348220Y468778D01*
X348251Y468785D01*
G37*
G36*
X373229Y195708D02*
X373229Y195708D01*
X373256Y195706D01*
X373325Y195728D01*
X373397Y195742D01*
X373419Y195758D01*
X373445Y195766D01*
X373501Y195814D01*
X373561Y195855D01*
X373575Y195878D01*
X373596Y195896D01*
X373629Y195961D01*
X373668Y196022D01*
X373672Y196049D01*
X373684Y196074D01*
X373694Y196178D01*
X373701Y196219D01*
X373699Y196228D01*
X373700Y196239D01*
X373398Y200263D01*
X373390Y200294D01*
X373387Y200337D01*
X372489Y204271D01*
X372476Y204300D01*
X372467Y204343D01*
X370993Y208099D01*
X370976Y208126D01*
X370961Y208167D01*
X368943Y211661D01*
X368922Y211685D01*
X368901Y211723D01*
X366385Y214878D01*
X366360Y214898D01*
X366334Y214933D01*
X363376Y217677D01*
X363349Y217694D01*
X363317Y217724D01*
X359983Y219997D01*
X359954Y220010D01*
X359919Y220035D01*
X356283Y221785D01*
X356252Y221793D01*
X356213Y221813D01*
X352357Y223002D01*
X352326Y223005D01*
X352284Y223019D01*
X348294Y223620D01*
X348262Y223619D01*
X348220Y223626D01*
X344184Y223626D01*
X344153Y223619D01*
X344110Y223620D01*
X340120Y223019D01*
X340090Y223008D01*
X340047Y223002D01*
X336191Y221813D01*
X336163Y221797D01*
X336121Y221785D01*
X332485Y220035D01*
X332460Y220015D01*
X332421Y219997D01*
X329087Y217724D01*
X329064Y217701D01*
X329028Y217677D01*
X326070Y214933D01*
X326052Y214907D01*
X326019Y214878D01*
X323503Y211723D01*
X323489Y211695D01*
X323461Y211661D01*
X321443Y208167D01*
X321433Y208136D01*
X321411Y208099D01*
X319937Y204343D01*
X319931Y204311D01*
X319915Y204271D01*
X319017Y200337D01*
X319016Y200305D01*
X319006Y200263D01*
X318704Y196239D01*
X318708Y196212D01*
X318703Y196185D01*
X318720Y196115D01*
X318729Y196042D01*
X318743Y196018D01*
X318749Y195992D01*
X318792Y195933D01*
X318829Y195870D01*
X318851Y195854D01*
X318867Y195832D01*
X318930Y195795D01*
X318988Y195751D01*
X319015Y195744D01*
X319038Y195730D01*
X319142Y195713D01*
X319181Y195703D01*
X319191Y195705D01*
X319202Y195703D01*
X373202Y195703D01*
X373229Y195708D01*
G37*
D10*
X432090Y369521D03*
X432090Y386521D03*
D11*
X433333Y312154D03*
X433333Y331154D03*
D12*
X377827Y373077D02*
X377827Y374327D01*
X383577Y374327D01*
X383577Y373077D01*
X377827Y373077D01*
X377827Y374264D02*
X383577Y374264D01*
X377827Y369327D02*
X377827Y368077D01*
X377827Y369327D02*
X383577Y369327D01*
X383577Y368077D01*
X377827Y368077D01*
X377827Y369264D02*
X383577Y369264D01*
X377827Y364327D02*
X377827Y363077D01*
X377827Y364327D02*
X383577Y364327D01*
X383577Y363077D01*
X377827Y363077D01*
X377827Y364264D02*
X383577Y364264D01*
X377827Y359327D02*
X377827Y358077D01*
X377827Y359327D02*
X383577Y359327D01*
X383577Y358077D01*
X377827Y358077D01*
X377827Y359264D02*
X383577Y359264D01*
X377827Y354327D02*
X377827Y353077D01*
X377827Y354327D02*
X383577Y354327D01*
X383577Y353077D01*
X377827Y353077D01*
X377827Y354264D02*
X383577Y354264D01*
X377827Y349327D02*
X377827Y348077D01*
X377827Y349327D02*
X383577Y349327D01*
X383577Y348077D01*
X377827Y348077D01*
X377827Y349264D02*
X383577Y349264D01*
X377827Y344327D02*
X377827Y343077D01*
X377827Y344327D02*
X383577Y344327D01*
X383577Y343077D01*
X377827Y343077D01*
X377827Y344264D02*
X383577Y344264D01*
X377827Y339327D02*
X377827Y338077D01*
X377827Y339327D02*
X383577Y339327D01*
X383577Y338077D01*
X377827Y338077D01*
X377827Y339264D02*
X383577Y339264D01*
X377827Y334327D02*
X377827Y333077D01*
X377827Y334327D02*
X383577Y334327D01*
X383577Y333077D01*
X377827Y333077D01*
X377827Y334264D02*
X383577Y334264D01*
X377827Y329327D02*
X377827Y328077D01*
X377827Y329327D02*
X383577Y329327D01*
X383577Y328077D01*
X377827Y328077D01*
X377827Y329264D02*
X383577Y329264D01*
X377827Y324327D02*
X377827Y323077D01*
X377827Y324327D02*
X383577Y324327D01*
X383577Y323077D01*
X377827Y323077D01*
X377827Y324264D02*
X383577Y324264D01*
X377827Y319327D02*
X377827Y318077D01*
X377827Y319327D02*
X383577Y319327D01*
X383577Y318077D01*
X377827Y318077D01*
X377827Y319264D02*
X383577Y319264D01*
X374327Y314577D02*
X373077Y314577D01*
X374327Y314577D02*
X374327Y308827D01*
X373077Y308827D01*
X373077Y314577D01*
X373077Y310014D02*
X374327Y310014D01*
X374327Y311201D02*
X373077Y311201D01*
X373077Y312388D02*
X374327Y312388D01*
X374327Y313575D02*
X373077Y313575D01*
X369327Y314577D02*
X368077Y314577D01*
X369327Y314577D02*
X369327Y308827D01*
X368077Y308827D01*
X368077Y314577D01*
X368077Y310014D02*
X369327Y310014D01*
X369327Y311201D02*
X368077Y311201D01*
X368077Y312388D02*
X369327Y312388D01*
X369327Y313575D02*
X368077Y313575D01*
X364327Y314577D02*
X363077Y314577D01*
X364327Y314577D02*
X364327Y308827D01*
X363077Y308827D01*
X363077Y314577D01*
X363077Y310014D02*
X364327Y310014D01*
X364327Y311201D02*
X363077Y311201D01*
X363077Y312388D02*
X364327Y312388D01*
X364327Y313575D02*
X363077Y313575D01*
X359327Y314577D02*
X358077Y314577D01*
X359327Y314577D02*
X359327Y308827D01*
X358077Y308827D01*
X358077Y314577D01*
X358077Y310014D02*
X359327Y310014D01*
X359327Y311201D02*
X358077Y311201D01*
X358077Y312388D02*
X359327Y312388D01*
X359327Y313575D02*
X358077Y313575D01*
X354327Y314577D02*
X353077Y314577D01*
X354327Y314577D02*
X354327Y308827D01*
X353077Y308827D01*
X353077Y314577D01*
X353077Y310014D02*
X354327Y310014D01*
X354327Y311201D02*
X353077Y311201D01*
X353077Y312388D02*
X354327Y312388D01*
X354327Y313575D02*
X353077Y313575D01*
X349327Y314577D02*
X348077Y314577D01*
X349327Y314577D02*
X349327Y308827D01*
X348077Y308827D01*
X348077Y314577D01*
X348077Y310014D02*
X349327Y310014D01*
X349327Y311201D02*
X348077Y311201D01*
X348077Y312388D02*
X349327Y312388D01*
X349327Y313575D02*
X348077Y313575D01*
X344327Y314577D02*
X343077Y314577D01*
X344327Y314577D02*
X344327Y308827D01*
X343077Y308827D01*
X343077Y314577D01*
X343077Y310014D02*
X344327Y310014D01*
X344327Y311201D02*
X343077Y311201D01*
X343077Y312388D02*
X344327Y312388D01*
X344327Y313575D02*
X343077Y313575D01*
X339327Y314577D02*
X338077Y314577D01*
X339327Y314577D02*
X339327Y308827D01*
X338077Y308827D01*
X338077Y314577D01*
X338077Y310014D02*
X339327Y310014D01*
X339327Y311201D02*
X338077Y311201D01*
X338077Y312388D02*
X339327Y312388D01*
X339327Y313575D02*
X338077Y313575D01*
X334327Y314577D02*
X333077Y314577D01*
X334327Y314577D02*
X334327Y308827D01*
X333077Y308827D01*
X333077Y314577D01*
X333077Y310014D02*
X334327Y310014D01*
X334327Y311201D02*
X333077Y311201D01*
X333077Y312388D02*
X334327Y312388D01*
X334327Y313575D02*
X333077Y313575D01*
X329327Y314577D02*
X328077Y314577D01*
X329327Y314577D02*
X329327Y308827D01*
X328077Y308827D01*
X328077Y314577D01*
X328077Y310014D02*
X329327Y310014D01*
X329327Y311201D02*
X328077Y311201D01*
X328077Y312388D02*
X329327Y312388D01*
X329327Y313575D02*
X328077Y313575D01*
X324327Y314577D02*
X323077Y314577D01*
X324327Y314577D02*
X324327Y308827D01*
X323077Y308827D01*
X323077Y314577D01*
X323077Y310014D02*
X324327Y310014D01*
X324327Y311201D02*
X323077Y311201D01*
X323077Y312388D02*
X324327Y312388D01*
X324327Y313575D02*
X323077Y313575D01*
X319327Y314577D02*
X318077Y314577D01*
X319327Y314577D02*
X319327Y308827D01*
X318077Y308827D01*
X318077Y314577D01*
X318077Y310014D02*
X319327Y310014D01*
X319327Y311201D02*
X318077Y311201D01*
X318077Y312388D02*
X319327Y312388D01*
X319327Y313575D02*
X318077Y313575D01*
X314577Y318077D02*
X314577Y319327D01*
X314577Y318077D02*
X308827Y318077D01*
X308827Y319327D01*
X314577Y319327D01*
X314577Y319264D02*
X308827Y319264D01*
X314577Y323077D02*
X314577Y324327D01*
X314577Y323077D02*
X308827Y323077D01*
X308827Y324327D01*
X314577Y324327D01*
X314577Y324264D02*
X308827Y324264D01*
X314577Y328077D02*
X314577Y329327D01*
X314577Y328077D02*
X308827Y328077D01*
X308827Y329327D01*
X314577Y329327D01*
X314577Y329264D02*
X308827Y329264D01*
X314577Y333077D02*
X314577Y334327D01*
X314577Y333077D02*
X308827Y333077D01*
X308827Y334327D01*
X314577Y334327D01*
X314577Y334264D02*
X308827Y334264D01*
X314577Y338077D02*
X314577Y339327D01*
X314577Y338077D02*
X308827Y338077D01*
X308827Y339327D01*
X314577Y339327D01*
X314577Y339264D02*
X308827Y339264D01*
X314577Y343077D02*
X314577Y344327D01*
X314577Y343077D02*
X308827Y343077D01*
X308827Y344327D01*
X314577Y344327D01*
X314577Y344264D02*
X308827Y344264D01*
X314577Y348077D02*
X314577Y349327D01*
X314577Y348077D02*
X308827Y348077D01*
X308827Y349327D01*
X314577Y349327D01*
X314577Y349264D02*
X308827Y349264D01*
X314577Y353077D02*
X314577Y354327D01*
X314577Y353077D02*
X308827Y353077D01*
X308827Y354327D01*
X314577Y354327D01*
X314577Y354264D02*
X308827Y354264D01*
X314577Y358077D02*
X314577Y359327D01*
X314577Y358077D02*
X308827Y358077D01*
X308827Y359327D01*
X314577Y359327D01*
X314577Y359264D02*
X308827Y359264D01*
X314577Y363077D02*
X314577Y364327D01*
X314577Y363077D02*
X308827Y363077D01*
X308827Y364327D01*
X314577Y364327D01*
X314577Y364264D02*
X308827Y364264D01*
X314577Y368077D02*
X314577Y369327D01*
X314577Y368077D02*
X308827Y368077D01*
X308827Y369327D01*
X314577Y369327D01*
X314577Y369264D02*
X308827Y369264D01*
X314577Y373077D02*
X314577Y374327D01*
X314577Y373077D02*
X308827Y373077D01*
X308827Y374327D01*
X314577Y374327D01*
X314577Y374264D02*
X308827Y374264D01*
X318077Y377827D02*
X319327Y377827D01*
X318077Y377827D02*
X318077Y383577D01*
X319327Y383577D01*
X319327Y377827D01*
X319327Y379014D02*
X318077Y379014D01*
X318077Y380201D02*
X319327Y380201D01*
X319327Y381388D02*
X318077Y381388D01*
X318077Y382575D02*
X319327Y382575D01*
X323077Y377827D02*
X324327Y377827D01*
X323077Y377827D02*
X323077Y383577D01*
X324327Y383577D01*
X324327Y377827D01*
X324327Y379014D02*
X323077Y379014D01*
X323077Y380201D02*
X324327Y380201D01*
X324327Y381388D02*
X323077Y381388D01*
X323077Y382575D02*
X324327Y382575D01*
X328077Y377827D02*
X329327Y377827D01*
X328077Y377827D02*
X328077Y383577D01*
X329327Y383577D01*
X329327Y377827D01*
X329327Y379014D02*
X328077Y379014D01*
X328077Y380201D02*
X329327Y380201D01*
X329327Y381388D02*
X328077Y381388D01*
X328077Y382575D02*
X329327Y382575D01*
X333077Y377827D02*
X334327Y377827D01*
X333077Y377827D02*
X333077Y383577D01*
X334327Y383577D01*
X334327Y377827D01*
X334327Y379014D02*
X333077Y379014D01*
X333077Y380201D02*
X334327Y380201D01*
X334327Y381388D02*
X333077Y381388D01*
X333077Y382575D02*
X334327Y382575D01*
X338077Y377827D02*
X339327Y377827D01*
X338077Y377827D02*
X338077Y383577D01*
X339327Y383577D01*
X339327Y377827D01*
X339327Y379014D02*
X338077Y379014D01*
X338077Y380201D02*
X339327Y380201D01*
X339327Y381388D02*
X338077Y381388D01*
X338077Y382575D02*
X339327Y382575D01*
X343077Y377827D02*
X344327Y377827D01*
X343077Y377827D02*
X343077Y383577D01*
X344327Y383577D01*
X344327Y377827D01*
X344327Y379014D02*
X343077Y379014D01*
X343077Y380201D02*
X344327Y380201D01*
X344327Y381388D02*
X343077Y381388D01*
X343077Y382575D02*
X344327Y382575D01*
X348077Y377827D02*
X349327Y377827D01*
X348077Y377827D02*
X348077Y383577D01*
X349327Y383577D01*
X349327Y377827D01*
X349327Y379014D02*
X348077Y379014D01*
X348077Y380201D02*
X349327Y380201D01*
X349327Y381388D02*
X348077Y381388D01*
X348077Y382575D02*
X349327Y382575D01*
X353077Y377827D02*
X354327Y377827D01*
X353077Y377827D02*
X353077Y383577D01*
X354327Y383577D01*
X354327Y377827D01*
X354327Y379014D02*
X353077Y379014D01*
X353077Y380201D02*
X354327Y380201D01*
X354327Y381388D02*
X353077Y381388D01*
X353077Y382575D02*
X354327Y382575D01*
X358077Y377827D02*
X359327Y377827D01*
X358077Y377827D02*
X358077Y383577D01*
X359327Y383577D01*
X359327Y377827D01*
X359327Y379014D02*
X358077Y379014D01*
X358077Y380201D02*
X359327Y380201D01*
X359327Y381388D02*
X358077Y381388D01*
X358077Y382575D02*
X359327Y382575D01*
X363077Y377827D02*
X364327Y377827D01*
X363077Y377827D02*
X363077Y383577D01*
X364327Y383577D01*
X364327Y377827D01*
X364327Y379014D02*
X363077Y379014D01*
X363077Y380201D02*
X364327Y380201D01*
X364327Y381388D02*
X363077Y381388D01*
X363077Y382575D02*
X364327Y382575D01*
X368077Y377827D02*
X369327Y377827D01*
X368077Y377827D02*
X368077Y383577D01*
X369327Y383577D01*
X369327Y377827D01*
X369327Y379014D02*
X368077Y379014D01*
X368077Y380201D02*
X369327Y380201D01*
X369327Y381388D02*
X368077Y381388D01*
X368077Y382575D02*
X369327Y382575D01*
X373077Y377827D02*
X374327Y377827D01*
X373077Y377827D02*
X373077Y383577D01*
X374327Y383577D01*
X374327Y377827D01*
X374327Y379014D02*
X373077Y379014D01*
X373077Y380201D02*
X374327Y380201D01*
X374327Y381388D02*
X373077Y381388D01*
X373077Y382575D02*
X374327Y382575D01*
D13*
X346202Y346202D03*
D14*
X404335Y369360D03*
X404335Y357360D03*
X404335Y345360D03*
D15*
X352100Y411972D03*
X352100Y394972D03*
D16*
X292319Y330642D03*
X273319Y330642D03*
D11*
X273873Y388889D03*
X273873Y407889D03*
D10*
X411076Y310694D03*
X411076Y327694D03*
X376677Y394870D03*
X376677Y411870D03*
X295476Y377115D03*
X295476Y394115D03*
D15*
X288568Y293909D03*
X305568Y293909D03*
X397659Y386474D03*
X414659Y386474D03*
D10*
X460097Y352207D03*
X443097Y352207D03*
D17*
X300648Y424728D02*
X289648Y424728D01*
X289648Y429728D01*
X300648Y429728D01*
X300648Y424728D01*
X300648Y429478D02*
X289648Y429478D01*
X292188Y461478D02*
X303188Y461478D01*
X303188Y456478D01*
X292188Y456478D01*
X292188Y461478D01*
X292188Y461228D02*
X303188Y461228D01*
X373976Y458430D02*
X384976Y458430D01*
X384976Y453430D01*
X373976Y453430D01*
X373976Y458430D01*
X373976Y458180D02*
X384976Y458180D01*
X399534Y427391D02*
X410534Y427391D01*
X410534Y422391D01*
X399534Y422391D01*
X399534Y427391D01*
X399534Y427141D02*
X410534Y427141D01*
D18*
X428802Y489302D03*
X511402Y346202D03*
X428802Y203102D03*
X263602Y489302D03*
X470102Y417702D03*
X470102Y274702D03*
X346202Y203102D03*
X222302Y417702D03*
X346202Y489302D03*
D19*
X311702Y368702D02*
X274172Y368702D01*
X261874Y381000D01*
X261874Y406654D01*
X263144Y407924D01*
X273838Y407924D01*
X273873Y407889D01*
X311702Y368702D02*
X346202Y368702D01*
X346202Y346202D01*
X368702Y346202D02*
X368702Y380702D01*
X368702Y346202D02*
X346202Y346202D01*
X323702Y346202D02*
X323702Y311702D01*
X323702Y346202D02*
X346202Y346202D01*
D20*
X349504Y431546D03*
D19*
X318039Y293909D02*
X305568Y293909D01*
X318039Y293909D02*
X323702Y299572D01*
X323702Y311702D01*
D20*
X397510Y240030D03*
X193040Y337820D03*
X213360Y330200D03*
X423418Y269748D03*
X423672Y247650D03*
X354838Y329438D03*
D19*
X373702Y380702D02*
X373702Y394943D01*
X376677Y394870D01*
X380702Y373702D02*
X384624Y373702D01*
X391160Y380238D01*
X391160Y386474D01*
D21*
X391160Y394094D01*
X288731Y303785D02*
X288568Y293909D01*
X292385Y330708D02*
X295377Y330708D01*
X292385Y330708D02*
X292319Y330642D01*
X295476Y377115D02*
X275919Y377115D01*
X273812Y379222D01*
X273812Y388828D01*
X273873Y388889D01*
D19*
X373702Y394094D02*
X373702Y380702D01*
D20*
X391160Y403352D03*
D21*
X391160Y394094D01*
X391160Y386474D02*
X397659Y386474D01*
D20*
X296418Y409956D03*
X300228Y272796D03*
D21*
X300001Y272796D01*
X288617Y284124D01*
X288568Y293909D01*
D22*
X296418Y409956D02*
X303276Y409956D01*
X306832Y406400D01*
D19*
X318702Y311702D02*
X318702Y307018D01*
X315469Y303785D01*
D23*
X292319Y303785D01*
D21*
X376677Y394094D02*
X391160Y394094D01*
X376677Y394094D02*
X376677Y394870D01*
D22*
X306832Y377115D02*
X295476Y377115D01*
X306832Y377115D02*
X306832Y406400D01*
D19*
X307780Y373702D02*
X311702Y373702D01*
X307780Y373702D02*
X306832Y374650D01*
X306832Y377115D01*
D23*
X292319Y330642D02*
X292319Y303785D01*
X288731Y303785D01*
D20*
X330200Y289560D03*
D19*
X333702Y300028D02*
X333702Y311702D01*
X333702Y300028D02*
X334010Y299720D01*
D22*
X334010Y293370D01*
X330200Y289560D01*
D19*
X311702Y343702D02*
X299764Y343702D01*
X298748Y342686D01*
D22*
X260405Y342686D01*
X235966Y367125D02*
X235966Y392430D01*
D20*
X235966Y392430D03*
D22*
X235966Y367125D02*
X260405Y342686D01*
D19*
X328702Y311702D02*
X328702Y298222D01*
X321310Y290830D01*
X321310Y280670D01*
D20*
X321310Y280670D03*
D23*
X232538Y417702D02*
X222302Y417702D01*
D19*
X298240Y348702D02*
X311702Y348702D01*
X298240Y348702D02*
X297986Y348956D01*
D22*
X264454Y348956D01*
X244320Y369090D01*
X244320Y405920D01*
X232538Y417702D01*
D19*
X302812Y353702D02*
X311702Y353702D01*
X302812Y353702D02*
X301288Y355226D01*
D22*
X268344Y355226D01*
X250698Y372872D01*
D20*
X275844Y441960D03*
D22*
X267303Y441960D02*
X250698Y425355D01*
X267303Y441960D02*
X275844Y441960D01*
X250698Y425355D02*
X250698Y372872D01*
D19*
X408940Y310694D02*
X411076Y310694D01*
D24*
X408940Y310694D02*
X403300Y310694D01*
D23*
X401320Y312674D01*
X401320Y320040D01*
D19*
X387658Y333702D01*
X380702Y333702D01*
D21*
X431873Y310694D02*
X433333Y312154D01*
X431873Y310694D02*
X408940Y310694D01*
D20*
X447802Y320802D03*
D24*
X447802Y317246D01*
X442710Y312154D01*
X433333Y312154D01*
D22*
X328676Y392088D02*
X328676Y447040D01*
D20*
X328676Y447040D03*
D19*
X328702Y391580D02*
X328702Y380702D01*
X328702Y391580D02*
X328676Y392088D01*
X333702Y388576D02*
X333702Y380702D01*
X333702Y388576D02*
X335734Y390608D01*
D22*
X335734Y441652D01*
X346202Y452120D02*
X346202Y489302D01*
X346202Y452120D02*
X335734Y441652D01*
D19*
X380702Y353702D02*
X388982Y353702D01*
X389074Y353704D01*
X389167Y353710D01*
X389259Y353720D01*
X389350Y353733D01*
X389441Y353751D01*
X389531Y353772D01*
X389620Y353797D01*
X389708Y353826D01*
X389794Y353859D01*
X389879Y353895D01*
X389963Y353935D01*
X390044Y353979D01*
X390124Y354025D01*
X390202Y354076D01*
X390277Y354129D01*
X390350Y354185D01*
X390421Y354245D01*
X390489Y354308D01*
X390554Y354373D01*
X390617Y354441D01*
X390677Y354512D01*
X390733Y354585D01*
X390786Y354660D01*
X390837Y354738D01*
X390883Y354818D01*
X390927Y354899D01*
X390967Y354983D01*
X391003Y355068D01*
X391036Y355154D01*
X391065Y355242D01*
X391090Y355331D01*
X391111Y355421D01*
X391129Y355512D01*
X391142Y355603D01*
X391152Y355695D01*
X391158Y355788D01*
X391160Y355880D01*
X391160Y366634D01*
X391162Y366736D01*
X391168Y366838D01*
X391177Y366939D01*
X391190Y367040D01*
X391208Y367141D01*
X391228Y367241D01*
X391253Y367340D01*
X391281Y367438D01*
X391313Y367534D01*
X391348Y367630D01*
X391387Y367724D01*
X391430Y367817D01*
X391476Y367908D01*
X391525Y367997D01*
X391578Y368084D01*
X391634Y368170D01*
X391693Y368253D01*
X391755Y368334D01*
X391820Y368412D01*
X391888Y368488D01*
X391958Y368562D01*
X392032Y368632D01*
X392108Y368700D01*
X392186Y368765D01*
X392267Y368827D01*
X392350Y368886D01*
X392436Y368942D01*
X392523Y368995D01*
X392612Y369044D01*
X392703Y369090D01*
X392796Y369133D01*
X392890Y369172D01*
X392986Y369207D01*
X393082Y369239D01*
X393180Y369267D01*
X393279Y369292D01*
X393379Y369312D01*
X393480Y369330D01*
X393581Y369343D01*
X393682Y369352D01*
X393784Y369358D01*
X393886Y369360D01*
X404335Y369360D01*
X393152Y348702D02*
X380702Y348702D01*
X393152Y348702D02*
X396494Y345360D01*
X404335Y345360D01*
X353702Y380702D02*
X353702Y393369D01*
X352100Y394972D01*
D24*
X362458Y398018D02*
X362458Y445262D01*
X362458Y398018D02*
X359410Y394970D01*
X352100Y394970D01*
D19*
X352100Y394972D01*
D21*
X368300Y455930D02*
X379476Y455930D01*
X368300Y455930D02*
X362458Y450088D01*
X362458Y445262D01*
D20*
X362458Y445262D03*
D19*
X380702Y343702D02*
X391010Y343702D01*
D25*
X396686Y338026D01*
X416512Y338026D01*
X432090Y353604D02*
X432090Y369521D01*
X432090Y353604D02*
X416512Y338026D01*
D21*
X426974Y415798D02*
X417881Y424891D01*
X405034Y424891D01*
D20*
X426974Y415798D03*
D23*
X426974Y409725D01*
X444015Y392684D01*
X444015Y371879D01*
X441657Y369521D01*
X432090Y369521D01*
D24*
X411076Y327694D02*
X402186Y327694D01*
D21*
X414536Y331154D02*
X433333Y331154D01*
X414536Y331154D02*
X411076Y327694D01*
X433333Y331154D02*
X433333Y342129D01*
X433324Y342138D01*
X433324Y344873D01*
X440658Y352207D02*
X443097Y352207D01*
X440658Y352207D02*
X433324Y344873D01*
D19*
X402186Y327694D02*
X399508Y327694D01*
X388500Y338702D02*
X380702Y338702D01*
X388500Y338702D02*
X399508Y327694D01*
D20*
X409956Y274574D03*
D19*
X384810Y288544D02*
X384810Y317754D01*
X383862Y318702D01*
X380702Y318702D01*
D22*
X398780Y274574D02*
X409956Y274574D01*
X398780Y274574D02*
X384810Y288544D01*
D20*
X380238Y230378D03*
D22*
X380238Y270002D02*
X367178Y283062D01*
X380238Y270002D02*
X380238Y230378D01*
X367178Y283062D02*
X367178Y292652D01*
D19*
X368702Y294176D02*
X368702Y311702D01*
X368702Y294176D02*
X367178Y292652D01*
X456132Y260732D02*
X470102Y274702D01*
D22*
X456132Y260732D02*
X401700Y260732D01*
D19*
X373702Y288730D02*
X373702Y311702D01*
D22*
X373702Y288730D02*
X401700Y260732D01*
X346202Y281432D02*
X346202Y203102D01*
D19*
X363702Y299002D02*
X363702Y311702D01*
X363702Y299002D02*
X360654Y295954D01*
X360654Y295884D01*
D22*
X346202Y281432D01*
D20*
X450342Y333502D03*
D25*
X450342Y331216D01*
X455676Y325882D01*
X455676Y313849D01*
X437562Y295736D01*
X403018Y295736D01*
X394970Y303784D01*
D19*
X394970Y320037D02*
X386305Y328702D01*
X380702Y328702D01*
X394970Y320037D02*
X394970Y303784D01*
D25*
X437896Y288036D02*
X462534Y312674D01*
X437896Y288036D02*
X401320Y288036D01*
D19*
X389890Y319369D02*
X385557Y323702D01*
X380702Y323702D01*
D25*
X389890Y299466D02*
X401320Y288036D01*
D19*
X389890Y299466D02*
X389890Y319369D01*
D25*
X472186Y335534D02*
X472186Y343154D01*
X472186Y335534D02*
X462534Y325882D01*
X462534Y312674D01*
D20*
X472186Y343154D03*
X468884Y382016D03*
D23*
X468884Y417702D01*
X470102Y417702D01*
D19*
X311702Y363702D02*
X303066Y363702D01*
X301034Y361670D01*
D22*
X272568Y361670D01*
X256794Y377444D01*
X256794Y421386D02*
X262636Y427228D01*
X275844Y427228D01*
X256794Y421386D02*
X256794Y377444D01*
D20*
X275844Y427228D03*
D21*
X295148Y427228D01*
D20*
X314579Y455648D03*
D23*
X311023Y459204D01*
D21*
X297914Y459204D01*
X297688Y458978D01*
D19*
X314579Y397637D02*
X318702Y393514D01*
D23*
X314579Y397637D02*
X314579Y455648D01*
D19*
X318702Y393514D02*
X318702Y380702D01*
M02*
