G04 EAGLE Gerber RS-274X export*
G75*
%MOMM*%
%FSLAX34Y34*%
%LPD*%
%INSilkscreen Bottom*%
%IPPOS*%
%AMOC8*
5,1,8,0,0,1.08239X$1,22.5*%
G01*
%ADD10C,0.152400*%
%ADD11C,0.101600*%
%ADD12C,0.076200*%
%ADD13C,0.127000*%
%ADD14C,0.254000*%


D10*
X393756Y474606D02*
X388817Y474606D01*
X388677Y474604D01*
X388538Y474598D01*
X388398Y474588D01*
X388259Y474574D01*
X388120Y474557D01*
X387982Y474535D01*
X387845Y474509D01*
X387708Y474480D01*
X387572Y474447D01*
X387438Y474410D01*
X387304Y474369D01*
X387172Y474324D01*
X387040Y474275D01*
X386911Y474223D01*
X386783Y474168D01*
X386656Y474108D01*
X386531Y474045D01*
X386408Y473979D01*
X386287Y473909D01*
X386168Y473836D01*
X386051Y473759D01*
X385937Y473679D01*
X385824Y473596D01*
X385714Y473510D01*
X385607Y473420D01*
X385502Y473328D01*
X385400Y473233D01*
X385300Y473135D01*
X385203Y473034D01*
X385109Y472930D01*
X385019Y472824D01*
X384931Y472715D01*
X384846Y472604D01*
X384765Y472490D01*
X384686Y472375D01*
X384611Y472257D01*
X384540Y472137D01*
X384472Y472014D01*
X384407Y471891D01*
X384346Y471765D01*
X384288Y471637D01*
X384234Y471509D01*
X384184Y471378D01*
X384137Y471246D01*
X384094Y471113D01*
X384055Y470979D01*
X384020Y470844D01*
X383989Y470708D01*
X383961Y470570D01*
X383938Y470433D01*
X383918Y470294D01*
X383902Y470155D01*
X383890Y470016D01*
X383882Y469877D01*
X383878Y469737D01*
X383878Y469597D01*
X383882Y469457D01*
X383890Y469318D01*
X383902Y469179D01*
X383918Y469040D01*
X383938Y468901D01*
X383961Y468764D01*
X383989Y468626D01*
X384020Y468490D01*
X384055Y468355D01*
X384094Y468221D01*
X384137Y468088D01*
X384184Y467956D01*
X384234Y467825D01*
X384288Y467697D01*
X384346Y467569D01*
X384407Y467443D01*
X384472Y467320D01*
X384540Y467198D01*
X384611Y467077D01*
X384686Y466959D01*
X384765Y466844D01*
X384846Y466730D01*
X384931Y466619D01*
X385019Y466510D01*
X385109Y466404D01*
X385203Y466300D01*
X385300Y466199D01*
X385400Y466101D01*
X385502Y466006D01*
X385607Y465914D01*
X385714Y465824D01*
X385824Y465738D01*
X385937Y465655D01*
X386051Y465575D01*
X386168Y465498D01*
X386287Y465425D01*
X386408Y465355D01*
X386531Y465289D01*
X386656Y465226D01*
X386783Y465166D01*
X386911Y465111D01*
X387040Y465059D01*
X387172Y465010D01*
X387304Y464965D01*
X387438Y464924D01*
X387572Y464887D01*
X387708Y464854D01*
X387845Y464825D01*
X387982Y464799D01*
X388120Y464777D01*
X388259Y464760D01*
X388398Y464746D01*
X388538Y464736D01*
X388677Y464730D01*
X388817Y464728D01*
X388817Y464729D02*
X393756Y464729D01*
X393756Y482509D01*
X388817Y482509D01*
X388817Y482508D02*
X388693Y482506D01*
X388569Y482500D01*
X388445Y482490D01*
X388322Y482477D01*
X388199Y482459D01*
X388077Y482438D01*
X387955Y482413D01*
X387834Y482384D01*
X387715Y482351D01*
X387596Y482315D01*
X387479Y482274D01*
X387363Y482231D01*
X387248Y482183D01*
X387135Y482132D01*
X387023Y482077D01*
X386914Y482019D01*
X386806Y481958D01*
X386700Y481893D01*
X386596Y481825D01*
X386495Y481753D01*
X386395Y481679D01*
X386299Y481601D01*
X386204Y481521D01*
X386112Y481437D01*
X386023Y481351D01*
X385937Y481262D01*
X385853Y481170D01*
X385773Y481075D01*
X385695Y480979D01*
X385621Y480879D01*
X385549Y480778D01*
X385481Y480674D01*
X385416Y480568D01*
X385355Y480460D01*
X385297Y480351D01*
X385242Y480239D01*
X385191Y480126D01*
X385143Y480011D01*
X385100Y479895D01*
X385059Y479778D01*
X385023Y479659D01*
X384990Y479540D01*
X384961Y479419D01*
X384936Y479297D01*
X384915Y479175D01*
X384897Y479052D01*
X384884Y478929D01*
X384874Y478805D01*
X384868Y478681D01*
X384866Y478557D01*
X384868Y478433D01*
X384874Y478309D01*
X384884Y478185D01*
X384897Y478062D01*
X384915Y477939D01*
X384936Y477817D01*
X384961Y477695D01*
X384990Y477574D01*
X385023Y477455D01*
X385059Y477336D01*
X385100Y477219D01*
X385143Y477103D01*
X385191Y476988D01*
X385242Y476875D01*
X385297Y476763D01*
X385355Y476654D01*
X385416Y476546D01*
X385481Y476440D01*
X385549Y476336D01*
X385621Y476235D01*
X385695Y476135D01*
X385773Y476039D01*
X385853Y475944D01*
X385937Y475852D01*
X386023Y475763D01*
X386112Y475677D01*
X386204Y475593D01*
X386299Y475513D01*
X386395Y475435D01*
X386495Y475361D01*
X386596Y475289D01*
X386700Y475221D01*
X386806Y475156D01*
X386914Y475095D01*
X387023Y475037D01*
X387135Y474982D01*
X387248Y474931D01*
X387363Y474883D01*
X387479Y474840D01*
X387596Y474799D01*
X387715Y474763D01*
X387834Y474730D01*
X387955Y474701D01*
X388077Y474676D01*
X388199Y474655D01*
X388322Y474637D01*
X388445Y474624D01*
X388569Y474614D01*
X388693Y474608D01*
X388817Y474606D01*
X414274Y451419D02*
X414274Y433639D01*
X414274Y451419D02*
X409335Y451419D01*
X409195Y451417D01*
X409056Y451411D01*
X408916Y451401D01*
X408777Y451387D01*
X408638Y451370D01*
X408500Y451348D01*
X408363Y451322D01*
X408226Y451293D01*
X408090Y451260D01*
X407956Y451223D01*
X407822Y451182D01*
X407690Y451137D01*
X407558Y451088D01*
X407429Y451036D01*
X407301Y450981D01*
X407174Y450921D01*
X407049Y450858D01*
X406926Y450792D01*
X406805Y450722D01*
X406686Y450649D01*
X406569Y450572D01*
X406455Y450492D01*
X406342Y450409D01*
X406232Y450323D01*
X406125Y450233D01*
X406020Y450141D01*
X405918Y450046D01*
X405818Y449948D01*
X405721Y449847D01*
X405627Y449743D01*
X405537Y449637D01*
X405449Y449528D01*
X405364Y449417D01*
X405283Y449303D01*
X405204Y449188D01*
X405129Y449070D01*
X405058Y448950D01*
X404990Y448827D01*
X404925Y448704D01*
X404864Y448578D01*
X404806Y448450D01*
X404752Y448322D01*
X404702Y448191D01*
X404655Y448059D01*
X404612Y447926D01*
X404573Y447792D01*
X404538Y447657D01*
X404507Y447521D01*
X404479Y447383D01*
X404456Y447246D01*
X404436Y447107D01*
X404420Y446968D01*
X404408Y446829D01*
X404400Y446690D01*
X404396Y446550D01*
X404396Y446410D01*
X404400Y446270D01*
X404408Y446131D01*
X404420Y445992D01*
X404436Y445853D01*
X404456Y445714D01*
X404479Y445577D01*
X404507Y445439D01*
X404538Y445303D01*
X404573Y445168D01*
X404612Y445034D01*
X404655Y444901D01*
X404702Y444769D01*
X404752Y444638D01*
X404806Y444510D01*
X404864Y444382D01*
X404925Y444256D01*
X404990Y444133D01*
X405058Y444011D01*
X405129Y443890D01*
X405204Y443772D01*
X405283Y443657D01*
X405364Y443543D01*
X405449Y443432D01*
X405537Y443323D01*
X405627Y443217D01*
X405721Y443113D01*
X405818Y443012D01*
X405918Y442914D01*
X406020Y442819D01*
X406125Y442727D01*
X406232Y442637D01*
X406342Y442551D01*
X406455Y442468D01*
X406569Y442388D01*
X406686Y442311D01*
X406805Y442238D01*
X406926Y442168D01*
X407049Y442102D01*
X407174Y442039D01*
X407301Y441979D01*
X407429Y441924D01*
X407558Y441872D01*
X407690Y441823D01*
X407822Y441778D01*
X407956Y441737D01*
X408090Y441700D01*
X408226Y441667D01*
X408363Y441638D01*
X408500Y441612D01*
X408638Y441590D01*
X408777Y441573D01*
X408916Y441559D01*
X409056Y441549D01*
X409195Y441543D01*
X409335Y441541D01*
X414274Y441541D01*
X408347Y441541D02*
X404396Y433639D01*
X298668Y434327D02*
X298668Y452107D01*
X293730Y452107D01*
X293591Y452105D01*
X293453Y452099D01*
X293315Y452090D01*
X293177Y452076D01*
X293040Y452059D01*
X292903Y452037D01*
X292766Y452012D01*
X292631Y451983D01*
X292496Y451950D01*
X292363Y451914D01*
X292230Y451874D01*
X292099Y451830D01*
X291969Y451782D01*
X291840Y451731D01*
X291713Y451676D01*
X291587Y451618D01*
X291463Y451556D01*
X291341Y451491D01*
X291221Y451422D01*
X291102Y451350D01*
X290986Y451275D01*
X290872Y451196D01*
X290760Y451114D01*
X290651Y451029D01*
X290543Y450942D01*
X290439Y450851D01*
X290337Y450757D01*
X290238Y450660D01*
X290141Y450561D01*
X290047Y450459D01*
X289956Y450355D01*
X289869Y450247D01*
X289784Y450138D01*
X289702Y450026D01*
X289623Y449912D01*
X289548Y449796D01*
X289476Y449677D01*
X289407Y449557D01*
X289342Y449435D01*
X289280Y449311D01*
X289222Y449185D01*
X289167Y449058D01*
X289116Y448929D01*
X289068Y448799D01*
X289024Y448668D01*
X288984Y448535D01*
X288948Y448402D01*
X288915Y448267D01*
X288886Y448132D01*
X288861Y447995D01*
X288839Y447858D01*
X288822Y447721D01*
X288808Y447583D01*
X288799Y447445D01*
X288793Y447307D01*
X288791Y447168D01*
X288791Y439266D01*
X288793Y439127D01*
X288799Y438989D01*
X288808Y438851D01*
X288822Y438713D01*
X288839Y438576D01*
X288861Y438439D01*
X288886Y438302D01*
X288915Y438167D01*
X288948Y438032D01*
X288984Y437899D01*
X289024Y437766D01*
X289068Y437635D01*
X289116Y437505D01*
X289167Y437376D01*
X289222Y437249D01*
X289280Y437123D01*
X289342Y436999D01*
X289407Y436877D01*
X289476Y436757D01*
X289548Y436638D01*
X289623Y436522D01*
X289702Y436408D01*
X289784Y436296D01*
X289869Y436187D01*
X289956Y436079D01*
X290047Y435975D01*
X290141Y435873D01*
X290238Y435774D01*
X290337Y435677D01*
X290439Y435583D01*
X290543Y435492D01*
X290651Y435405D01*
X290760Y435320D01*
X290872Y435238D01*
X290986Y435159D01*
X291102Y435084D01*
X291221Y435012D01*
X291341Y434943D01*
X291463Y434878D01*
X291587Y434816D01*
X291713Y434758D01*
X291840Y434703D01*
X291969Y434652D01*
X292099Y434604D01*
X292230Y434560D01*
X292363Y434520D01*
X292496Y434484D01*
X292631Y434451D01*
X292766Y434422D01*
X292903Y434397D01*
X293040Y434375D01*
X293177Y434358D01*
X293315Y434344D01*
X293453Y434335D01*
X293591Y434329D01*
X293730Y434327D01*
X298668Y434327D01*
X299938Y468333D02*
X303889Y468333D01*
X304013Y468335D01*
X304137Y468341D01*
X304261Y468351D01*
X304384Y468364D01*
X304507Y468382D01*
X304629Y468403D01*
X304751Y468428D01*
X304872Y468457D01*
X304991Y468490D01*
X305110Y468526D01*
X305227Y468567D01*
X305343Y468610D01*
X305458Y468658D01*
X305571Y468709D01*
X305683Y468764D01*
X305792Y468822D01*
X305900Y468883D01*
X306006Y468948D01*
X306110Y469016D01*
X306211Y469088D01*
X306311Y469162D01*
X306407Y469240D01*
X306502Y469320D01*
X306594Y469404D01*
X306683Y469490D01*
X306769Y469579D01*
X306853Y469671D01*
X306933Y469766D01*
X307011Y469862D01*
X307085Y469962D01*
X307157Y470063D01*
X307225Y470167D01*
X307290Y470273D01*
X307351Y470381D01*
X307409Y470490D01*
X307464Y470602D01*
X307515Y470715D01*
X307563Y470830D01*
X307606Y470946D01*
X307647Y471063D01*
X307683Y471182D01*
X307716Y471301D01*
X307745Y471422D01*
X307770Y471544D01*
X307791Y471666D01*
X307809Y471789D01*
X307822Y471912D01*
X307832Y472036D01*
X307838Y472160D01*
X307840Y472284D01*
X307840Y482162D01*
X307838Y482286D01*
X307832Y482410D01*
X307822Y482534D01*
X307809Y482657D01*
X307791Y482780D01*
X307770Y482902D01*
X307745Y483024D01*
X307716Y483145D01*
X307683Y483264D01*
X307647Y483383D01*
X307606Y483500D01*
X307563Y483616D01*
X307515Y483731D01*
X307464Y483844D01*
X307409Y483956D01*
X307351Y484065D01*
X307290Y484173D01*
X307225Y484279D01*
X307157Y484383D01*
X307085Y484484D01*
X307011Y484584D01*
X306933Y484680D01*
X306853Y484775D01*
X306769Y484867D01*
X306683Y484956D01*
X306594Y485042D01*
X306502Y485126D01*
X306407Y485206D01*
X306311Y485284D01*
X306211Y485358D01*
X306110Y485430D01*
X306006Y485498D01*
X305900Y485563D01*
X305792Y485624D01*
X305683Y485682D01*
X305571Y485737D01*
X305458Y485788D01*
X305344Y485836D01*
X305227Y485879D01*
X305110Y485920D01*
X304991Y485956D01*
X304872Y485989D01*
X304751Y486018D01*
X304629Y486043D01*
X304507Y486064D01*
X304384Y486082D01*
X304261Y486095D01*
X304137Y486105D01*
X304013Y486111D01*
X303889Y486113D01*
X299938Y486113D01*
D11*
X426501Y467300D02*
X428096Y466183D01*
X426501Y467300D02*
X422778Y461983D01*
X425968Y459749D01*
X426051Y459694D01*
X426135Y459642D01*
X426222Y459593D01*
X426310Y459547D01*
X426400Y459505D01*
X426492Y459466D01*
X426585Y459431D01*
X426679Y459399D01*
X426774Y459371D01*
X426871Y459347D01*
X426968Y459326D01*
X427066Y459310D01*
X427165Y459296D01*
X427264Y459287D01*
X427363Y459282D01*
X427463Y459280D01*
X427562Y459282D01*
X427661Y459288D01*
X427760Y459298D01*
X427859Y459311D01*
X427957Y459329D01*
X428054Y459350D01*
X428150Y459374D01*
X428246Y459403D01*
X428340Y459435D01*
X428433Y459470D01*
X428524Y459509D01*
X428614Y459552D01*
X428702Y459598D01*
X428788Y459647D01*
X428873Y459700D01*
X428955Y459756D01*
X429035Y459815D01*
X429113Y459877D01*
X429188Y459942D01*
X429261Y460009D01*
X429331Y460080D01*
X429399Y460153D01*
X429463Y460229D01*
X429525Y460307D01*
X429584Y460387D01*
X433307Y465704D01*
X433362Y465787D01*
X433414Y465871D01*
X433463Y465958D01*
X433509Y466046D01*
X433551Y466136D01*
X433590Y466228D01*
X433625Y466321D01*
X433657Y466415D01*
X433685Y466510D01*
X433709Y466607D01*
X433730Y466704D01*
X433746Y466802D01*
X433760Y466901D01*
X433769Y467000D01*
X433774Y467099D01*
X433776Y467199D01*
X433774Y467298D01*
X433768Y467397D01*
X433758Y467496D01*
X433745Y467595D01*
X433727Y467693D01*
X433706Y467790D01*
X433682Y467886D01*
X433653Y467982D01*
X433621Y468076D01*
X433586Y468169D01*
X433547Y468260D01*
X433504Y468350D01*
X433458Y468438D01*
X433409Y468524D01*
X433356Y468609D01*
X433300Y468691D01*
X433241Y468771D01*
X433179Y468849D01*
X433114Y468924D01*
X433047Y468997D01*
X432976Y469067D01*
X432903Y469135D01*
X432827Y469199D01*
X432749Y469261D01*
X432669Y469320D01*
X432670Y469320D02*
X429479Y471554D01*
X424810Y474824D02*
X418108Y465253D01*
X412791Y468976D02*
X424810Y474824D01*
X419492Y478547D02*
X412791Y468976D01*
X408121Y472246D02*
X414822Y481817D01*
X412164Y483678D01*
X412164Y483679D02*
X412070Y483742D01*
X411974Y483802D01*
X411876Y483859D01*
X411776Y483912D01*
X411674Y483962D01*
X411570Y484008D01*
X411465Y484050D01*
X411359Y484089D01*
X411251Y484124D01*
X411142Y484155D01*
X411032Y484183D01*
X410921Y484206D01*
X410810Y484226D01*
X410698Y484242D01*
X410585Y484254D01*
X410472Y484262D01*
X410359Y484266D01*
X410245Y484266D01*
X410132Y484262D01*
X410019Y484254D01*
X409906Y484242D01*
X409794Y484226D01*
X409683Y484206D01*
X409572Y484183D01*
X409462Y484155D01*
X409353Y484124D01*
X409245Y484089D01*
X409139Y484050D01*
X409034Y484008D01*
X408930Y483962D01*
X408828Y483912D01*
X408728Y483859D01*
X408630Y483802D01*
X408534Y483742D01*
X408440Y483679D01*
X408349Y483612D01*
X408259Y483543D01*
X408172Y483470D01*
X408088Y483394D01*
X408007Y483315D01*
X407928Y483234D01*
X407852Y483150D01*
X407779Y483063D01*
X407710Y482974D01*
X407643Y482882D01*
X407644Y482881D02*
X404665Y478628D01*
X404602Y478534D01*
X404542Y478438D01*
X404485Y478340D01*
X404432Y478240D01*
X404382Y478138D01*
X404336Y478034D01*
X404294Y477929D01*
X404255Y477823D01*
X404220Y477715D01*
X404189Y477606D01*
X404161Y477496D01*
X404138Y477385D01*
X404118Y477274D01*
X404102Y477162D01*
X404090Y477049D01*
X404082Y476936D01*
X404078Y476823D01*
X404078Y476709D01*
X404082Y476596D01*
X404090Y476483D01*
X404102Y476370D01*
X404118Y476258D01*
X404138Y476147D01*
X404161Y476036D01*
X404189Y475926D01*
X404220Y475817D01*
X404255Y475709D01*
X404294Y475603D01*
X404336Y475498D01*
X404382Y475394D01*
X404432Y475292D01*
X404485Y475192D01*
X404542Y475094D01*
X404602Y474998D01*
X404665Y474904D01*
X404732Y474812D01*
X404801Y474723D01*
X404874Y474636D01*
X404950Y474552D01*
X405029Y474471D01*
X405110Y474392D01*
X405194Y474316D01*
X405281Y474243D01*
X405371Y474174D01*
X405462Y474107D01*
X408121Y472246D01*
X492049Y337254D02*
X492049Y335306D01*
X492049Y337254D02*
X485558Y337254D01*
X485558Y333359D01*
X485560Y333260D01*
X485566Y333160D01*
X485575Y333061D01*
X485588Y332963D01*
X485605Y332865D01*
X485626Y332767D01*
X485651Y332671D01*
X485679Y332576D01*
X485711Y332482D01*
X485746Y332389D01*
X485785Y332297D01*
X485828Y332207D01*
X485873Y332119D01*
X485923Y332032D01*
X485975Y331948D01*
X486031Y331865D01*
X486089Y331785D01*
X486151Y331707D01*
X486216Y331632D01*
X486284Y331559D01*
X486354Y331489D01*
X486427Y331421D01*
X486502Y331356D01*
X486580Y331294D01*
X486660Y331236D01*
X486743Y331180D01*
X486827Y331128D01*
X486914Y331078D01*
X487002Y331033D01*
X487092Y330990D01*
X487184Y330951D01*
X487277Y330916D01*
X487371Y330884D01*
X487466Y330856D01*
X487562Y330831D01*
X487660Y330810D01*
X487758Y330793D01*
X487856Y330780D01*
X487955Y330771D01*
X488055Y330765D01*
X488154Y330763D01*
X494646Y330763D01*
X494745Y330765D01*
X494845Y330771D01*
X494944Y330780D01*
X495042Y330793D01*
X495140Y330810D01*
X495238Y330831D01*
X495334Y330856D01*
X495429Y330884D01*
X495523Y330916D01*
X495616Y330951D01*
X495708Y330990D01*
X495798Y331033D01*
X495886Y331078D01*
X495973Y331128D01*
X496057Y331180D01*
X496140Y331236D01*
X496220Y331294D01*
X496298Y331356D01*
X496373Y331421D01*
X496446Y331489D01*
X496516Y331559D01*
X496584Y331632D01*
X496649Y331707D01*
X496711Y331785D01*
X496769Y331865D01*
X496825Y331948D01*
X496877Y332032D01*
X496927Y332119D01*
X496972Y332207D01*
X497015Y332297D01*
X497054Y332389D01*
X497089Y332481D01*
X497121Y332576D01*
X497149Y332671D01*
X497174Y332767D01*
X497195Y332865D01*
X497212Y332963D01*
X497225Y333061D01*
X497234Y333160D01*
X497240Y333260D01*
X497242Y333359D01*
X497242Y337254D01*
X497242Y342954D02*
X485558Y342954D01*
X485558Y349446D02*
X497242Y342954D01*
X497242Y349446D02*
X485558Y349446D01*
X485558Y355146D02*
X497242Y355146D01*
X497242Y358392D01*
X497240Y358505D01*
X497234Y358618D01*
X497224Y358731D01*
X497210Y358844D01*
X497193Y358956D01*
X497171Y359067D01*
X497146Y359177D01*
X497116Y359287D01*
X497083Y359395D01*
X497046Y359502D01*
X497006Y359608D01*
X496961Y359712D01*
X496913Y359815D01*
X496862Y359916D01*
X496807Y360015D01*
X496749Y360112D01*
X496687Y360207D01*
X496622Y360300D01*
X496554Y360390D01*
X496483Y360478D01*
X496408Y360564D01*
X496331Y360647D01*
X496251Y360727D01*
X496168Y360804D01*
X496082Y360879D01*
X495994Y360950D01*
X495904Y361018D01*
X495811Y361083D01*
X495716Y361145D01*
X495619Y361203D01*
X495520Y361258D01*
X495419Y361309D01*
X495316Y361357D01*
X495212Y361402D01*
X495106Y361442D01*
X494999Y361479D01*
X494891Y361512D01*
X494781Y361542D01*
X494671Y361567D01*
X494560Y361589D01*
X494448Y361606D01*
X494335Y361620D01*
X494222Y361630D01*
X494109Y361636D01*
X493996Y361638D01*
X488804Y361638D01*
X488691Y361636D01*
X488578Y361630D01*
X488465Y361620D01*
X488352Y361606D01*
X488240Y361589D01*
X488129Y361567D01*
X488019Y361542D01*
X487909Y361512D01*
X487801Y361479D01*
X487694Y361442D01*
X487588Y361402D01*
X487484Y361357D01*
X487381Y361309D01*
X487280Y361258D01*
X487181Y361203D01*
X487084Y361145D01*
X486989Y361083D01*
X486896Y361018D01*
X486806Y360950D01*
X486718Y360879D01*
X486632Y360804D01*
X486549Y360727D01*
X486469Y360647D01*
X486392Y360564D01*
X486317Y360478D01*
X486246Y360390D01*
X486178Y360300D01*
X486113Y360207D01*
X486051Y360112D01*
X485993Y360015D01*
X485938Y359916D01*
X485887Y359815D01*
X485839Y359712D01*
X485794Y359608D01*
X485754Y359502D01*
X485717Y359395D01*
X485684Y359287D01*
X485654Y359177D01*
X485629Y359067D01*
X485607Y358956D01*
X485590Y358844D01*
X485576Y358731D01*
X485566Y358618D01*
X485560Y358505D01*
X485558Y358392D01*
X485558Y355146D01*
X427351Y227280D02*
X425756Y226163D01*
X429479Y220846D01*
X432670Y223080D01*
X432669Y223080D02*
X432749Y223139D01*
X432827Y223201D01*
X432903Y223265D01*
X432976Y223333D01*
X433047Y223403D01*
X433114Y223476D01*
X433179Y223551D01*
X433241Y223629D01*
X433300Y223709D01*
X433356Y223791D01*
X433409Y223876D01*
X433458Y223962D01*
X433504Y224050D01*
X433547Y224140D01*
X433586Y224231D01*
X433621Y224324D01*
X433653Y224418D01*
X433682Y224514D01*
X433706Y224610D01*
X433727Y224707D01*
X433745Y224805D01*
X433758Y224904D01*
X433768Y225003D01*
X433774Y225102D01*
X433776Y225201D01*
X433774Y225301D01*
X433769Y225400D01*
X433759Y225499D01*
X433746Y225598D01*
X433730Y225696D01*
X433709Y225793D01*
X433685Y225890D01*
X433657Y225985D01*
X433625Y226079D01*
X433590Y226172D01*
X433551Y226264D01*
X433509Y226354D01*
X433463Y226442D01*
X433414Y226529D01*
X433362Y226613D01*
X433307Y226696D01*
X429584Y232013D01*
X429525Y232093D01*
X429463Y232171D01*
X429399Y232247D01*
X429331Y232320D01*
X429261Y232391D01*
X429188Y232458D01*
X429113Y232523D01*
X429035Y232585D01*
X428955Y232644D01*
X428873Y232700D01*
X428788Y232753D01*
X428702Y232802D01*
X428614Y232848D01*
X428524Y232891D01*
X428433Y232930D01*
X428340Y232965D01*
X428246Y232997D01*
X428150Y233026D01*
X428054Y233050D01*
X427957Y233071D01*
X427859Y233089D01*
X427760Y233102D01*
X427661Y233112D01*
X427562Y233118D01*
X427463Y233120D01*
X427363Y233118D01*
X427264Y233113D01*
X427165Y233104D01*
X427066Y233090D01*
X426968Y233074D01*
X426871Y233053D01*
X426774Y233029D01*
X426679Y233001D01*
X426585Y232969D01*
X426492Y232934D01*
X426400Y232895D01*
X426310Y232853D01*
X426222Y232807D01*
X426135Y232758D01*
X426051Y232706D01*
X425968Y232651D01*
X422778Y230417D01*
X418108Y227147D02*
X424809Y217576D01*
X419492Y213853D02*
X418108Y227147D01*
X412791Y223424D02*
X419492Y213853D01*
X414822Y210583D02*
X408121Y220154D01*
X405462Y218292D01*
X405462Y218293D02*
X405371Y218226D01*
X405281Y218157D01*
X405194Y218084D01*
X405110Y218008D01*
X405029Y217929D01*
X404950Y217848D01*
X404874Y217764D01*
X404801Y217677D01*
X404732Y217588D01*
X404665Y217496D01*
X404602Y217402D01*
X404542Y217306D01*
X404485Y217208D01*
X404432Y217108D01*
X404382Y217006D01*
X404336Y216902D01*
X404294Y216797D01*
X404255Y216691D01*
X404220Y216583D01*
X404189Y216474D01*
X404161Y216364D01*
X404138Y216253D01*
X404118Y216142D01*
X404102Y216030D01*
X404090Y215917D01*
X404082Y215804D01*
X404078Y215691D01*
X404078Y215577D01*
X404082Y215464D01*
X404090Y215351D01*
X404102Y215238D01*
X404118Y215126D01*
X404138Y215015D01*
X404161Y214904D01*
X404189Y214794D01*
X404220Y214685D01*
X404255Y214577D01*
X404294Y214471D01*
X404336Y214366D01*
X404382Y214262D01*
X404432Y214160D01*
X404485Y214060D01*
X404542Y213962D01*
X404602Y213866D01*
X404665Y213772D01*
X407644Y209518D01*
X407643Y209518D02*
X407710Y209427D01*
X407779Y209337D01*
X407852Y209250D01*
X407928Y209166D01*
X408007Y209085D01*
X408088Y209006D01*
X408172Y208930D01*
X408259Y208857D01*
X408349Y208788D01*
X408440Y208721D01*
X408534Y208658D01*
X408630Y208598D01*
X408728Y208541D01*
X408828Y208488D01*
X408930Y208438D01*
X409034Y208392D01*
X409139Y208350D01*
X409245Y208311D01*
X409353Y208276D01*
X409462Y208245D01*
X409572Y208217D01*
X409683Y208194D01*
X409794Y208174D01*
X409906Y208158D01*
X410019Y208146D01*
X410132Y208138D01*
X410245Y208134D01*
X410359Y208134D01*
X410472Y208138D01*
X410585Y208146D01*
X410698Y208158D01*
X410810Y208174D01*
X410921Y208194D01*
X411032Y208217D01*
X411142Y208245D01*
X411251Y208276D01*
X411359Y208311D01*
X411465Y208350D01*
X411570Y208392D01*
X411674Y208438D01*
X411776Y208488D01*
X411876Y208541D01*
X411974Y208598D01*
X412070Y208658D01*
X412164Y208721D01*
X414822Y210583D01*
X280556Y477563D02*
X282151Y478680D01*
X280556Y477563D02*
X284279Y472246D01*
X287470Y474480D01*
X287469Y474480D02*
X287549Y474539D01*
X287627Y474601D01*
X287703Y474665D01*
X287776Y474733D01*
X287847Y474803D01*
X287914Y474876D01*
X287979Y474951D01*
X288041Y475029D01*
X288100Y475109D01*
X288156Y475191D01*
X288209Y475276D01*
X288258Y475362D01*
X288304Y475450D01*
X288347Y475540D01*
X288386Y475631D01*
X288421Y475724D01*
X288453Y475818D01*
X288482Y475914D01*
X288506Y476010D01*
X288527Y476107D01*
X288545Y476205D01*
X288558Y476304D01*
X288568Y476403D01*
X288574Y476502D01*
X288576Y476601D01*
X288574Y476701D01*
X288569Y476800D01*
X288559Y476899D01*
X288546Y476998D01*
X288530Y477096D01*
X288509Y477193D01*
X288485Y477290D01*
X288457Y477385D01*
X288425Y477479D01*
X288390Y477572D01*
X288351Y477664D01*
X288309Y477754D01*
X288263Y477842D01*
X288214Y477929D01*
X288162Y478013D01*
X288107Y478096D01*
X284384Y483413D01*
X284325Y483493D01*
X284263Y483571D01*
X284199Y483647D01*
X284131Y483720D01*
X284061Y483791D01*
X283988Y483858D01*
X283913Y483923D01*
X283835Y483985D01*
X283755Y484044D01*
X283673Y484100D01*
X283588Y484153D01*
X283502Y484202D01*
X283414Y484248D01*
X283324Y484291D01*
X283233Y484330D01*
X283140Y484365D01*
X283046Y484397D01*
X282950Y484426D01*
X282854Y484450D01*
X282757Y484471D01*
X282659Y484489D01*
X282560Y484502D01*
X282461Y484512D01*
X282362Y484518D01*
X282263Y484520D01*
X282163Y484518D01*
X282064Y484513D01*
X281965Y484504D01*
X281866Y484490D01*
X281768Y484474D01*
X281671Y484453D01*
X281574Y484429D01*
X281479Y484401D01*
X281385Y484369D01*
X281292Y484334D01*
X281200Y484295D01*
X281110Y484253D01*
X281022Y484207D01*
X280935Y484158D01*
X280851Y484106D01*
X280768Y484051D01*
X277578Y481817D01*
X272908Y478547D02*
X279609Y468976D01*
X274292Y465253D02*
X272908Y478547D01*
X267591Y474824D02*
X274292Y465253D01*
X269622Y461983D02*
X262921Y471554D01*
X260262Y469692D01*
X260262Y469693D02*
X260171Y469626D01*
X260081Y469557D01*
X259994Y469484D01*
X259910Y469408D01*
X259829Y469329D01*
X259750Y469248D01*
X259674Y469164D01*
X259601Y469077D01*
X259532Y468988D01*
X259465Y468896D01*
X259402Y468802D01*
X259342Y468706D01*
X259285Y468608D01*
X259232Y468508D01*
X259182Y468406D01*
X259136Y468302D01*
X259094Y468197D01*
X259055Y468091D01*
X259020Y467983D01*
X258989Y467874D01*
X258961Y467764D01*
X258938Y467653D01*
X258918Y467542D01*
X258902Y467430D01*
X258890Y467317D01*
X258882Y467204D01*
X258878Y467091D01*
X258878Y466977D01*
X258882Y466864D01*
X258890Y466751D01*
X258902Y466638D01*
X258918Y466526D01*
X258938Y466415D01*
X258961Y466304D01*
X258989Y466194D01*
X259020Y466085D01*
X259055Y465977D01*
X259094Y465871D01*
X259136Y465766D01*
X259182Y465662D01*
X259232Y465560D01*
X259285Y465460D01*
X259342Y465362D01*
X259402Y465266D01*
X259465Y465172D01*
X262444Y460918D01*
X262443Y460918D02*
X262510Y460827D01*
X262579Y460737D01*
X262652Y460650D01*
X262728Y460566D01*
X262807Y460485D01*
X262888Y460406D01*
X262972Y460330D01*
X263059Y460257D01*
X263149Y460188D01*
X263240Y460121D01*
X263334Y460058D01*
X263430Y459998D01*
X263528Y459941D01*
X263628Y459888D01*
X263730Y459838D01*
X263834Y459792D01*
X263939Y459750D01*
X264045Y459711D01*
X264153Y459676D01*
X264262Y459645D01*
X264372Y459617D01*
X264483Y459594D01*
X264594Y459574D01*
X264706Y459558D01*
X264819Y459546D01*
X264932Y459538D01*
X265045Y459534D01*
X265159Y459534D01*
X265272Y459538D01*
X265385Y459546D01*
X265498Y459558D01*
X265610Y459574D01*
X265721Y459594D01*
X265832Y459617D01*
X265942Y459645D01*
X266051Y459676D01*
X266159Y459711D01*
X266265Y459750D01*
X266370Y459792D01*
X266474Y459838D01*
X266576Y459888D01*
X266676Y459941D01*
X266774Y459998D01*
X266870Y460058D01*
X266964Y460121D01*
X269622Y461983D01*
D10*
X457536Y411890D02*
X457536Y394110D01*
X457536Y411890D02*
X452598Y411890D01*
X452458Y411888D01*
X452319Y411882D01*
X452179Y411872D01*
X452040Y411858D01*
X451901Y411841D01*
X451763Y411819D01*
X451626Y411793D01*
X451489Y411764D01*
X451353Y411731D01*
X451219Y411694D01*
X451085Y411653D01*
X450953Y411608D01*
X450821Y411559D01*
X450692Y411507D01*
X450564Y411452D01*
X450437Y411392D01*
X450312Y411329D01*
X450189Y411263D01*
X450068Y411193D01*
X449949Y411120D01*
X449832Y411043D01*
X449718Y410963D01*
X449605Y410880D01*
X449495Y410794D01*
X449388Y410704D01*
X449283Y410612D01*
X449181Y410517D01*
X449081Y410419D01*
X448984Y410318D01*
X448890Y410214D01*
X448800Y410108D01*
X448712Y409999D01*
X448627Y409888D01*
X448546Y409774D01*
X448467Y409659D01*
X448392Y409541D01*
X448321Y409421D01*
X448253Y409298D01*
X448188Y409175D01*
X448127Y409049D01*
X448069Y408921D01*
X448015Y408793D01*
X447965Y408662D01*
X447918Y408530D01*
X447875Y408397D01*
X447836Y408263D01*
X447801Y408128D01*
X447770Y407992D01*
X447742Y407854D01*
X447719Y407717D01*
X447699Y407578D01*
X447683Y407439D01*
X447671Y407300D01*
X447663Y407161D01*
X447659Y407021D01*
X447659Y406881D01*
X447663Y406741D01*
X447671Y406602D01*
X447683Y406463D01*
X447699Y406324D01*
X447719Y406185D01*
X447742Y406048D01*
X447770Y405910D01*
X447801Y405774D01*
X447836Y405639D01*
X447875Y405505D01*
X447918Y405372D01*
X447965Y405240D01*
X448015Y405109D01*
X448069Y404981D01*
X448127Y404853D01*
X448188Y404727D01*
X448253Y404604D01*
X448321Y404482D01*
X448392Y404361D01*
X448467Y404243D01*
X448546Y404128D01*
X448627Y404014D01*
X448712Y403903D01*
X448800Y403794D01*
X448890Y403688D01*
X448984Y403584D01*
X449081Y403483D01*
X449181Y403385D01*
X449283Y403290D01*
X449388Y403198D01*
X449495Y403108D01*
X449605Y403022D01*
X449718Y402939D01*
X449832Y402859D01*
X449949Y402782D01*
X450068Y402709D01*
X450189Y402639D01*
X450312Y402573D01*
X450437Y402510D01*
X450564Y402450D01*
X450692Y402395D01*
X450821Y402343D01*
X450953Y402294D01*
X451085Y402249D01*
X451219Y402208D01*
X451353Y402171D01*
X451489Y402138D01*
X451626Y402109D01*
X451763Y402083D01*
X451901Y402061D01*
X452040Y402044D01*
X452179Y402030D01*
X452319Y402020D01*
X452458Y402014D01*
X452598Y402012D01*
X457536Y402012D01*
X441541Y407939D02*
X436602Y411890D01*
X436602Y394110D01*
X431664Y394110D02*
X441541Y394110D01*
X456103Y291131D02*
X456103Y285204D01*
X452645Y280759D01*
X456103Y285204D02*
X459560Y280759D01*
X456103Y285204D02*
X450670Y287180D01*
X456103Y285204D02*
X461535Y287180D01*
X442977Y278290D02*
X442977Y296070D01*
X438038Y296070D01*
X437898Y296068D01*
X437759Y296062D01*
X437619Y296052D01*
X437480Y296038D01*
X437341Y296021D01*
X437203Y295999D01*
X437066Y295973D01*
X436929Y295944D01*
X436793Y295911D01*
X436659Y295874D01*
X436525Y295833D01*
X436393Y295788D01*
X436261Y295739D01*
X436132Y295687D01*
X436004Y295632D01*
X435877Y295572D01*
X435752Y295509D01*
X435629Y295443D01*
X435508Y295373D01*
X435389Y295300D01*
X435272Y295223D01*
X435158Y295143D01*
X435045Y295060D01*
X434935Y294974D01*
X434828Y294884D01*
X434723Y294792D01*
X434621Y294697D01*
X434521Y294599D01*
X434424Y294498D01*
X434330Y294394D01*
X434240Y294288D01*
X434152Y294179D01*
X434067Y294068D01*
X433986Y293954D01*
X433907Y293839D01*
X433832Y293721D01*
X433761Y293601D01*
X433693Y293478D01*
X433628Y293355D01*
X433567Y293229D01*
X433509Y293101D01*
X433455Y292973D01*
X433405Y292842D01*
X433358Y292710D01*
X433315Y292577D01*
X433276Y292443D01*
X433241Y292308D01*
X433210Y292172D01*
X433182Y292034D01*
X433159Y291897D01*
X433139Y291758D01*
X433123Y291619D01*
X433111Y291480D01*
X433103Y291341D01*
X433099Y291201D01*
X433099Y291061D01*
X433103Y290921D01*
X433111Y290782D01*
X433123Y290643D01*
X433139Y290504D01*
X433159Y290365D01*
X433182Y290228D01*
X433210Y290090D01*
X433241Y289954D01*
X433276Y289819D01*
X433315Y289685D01*
X433358Y289552D01*
X433405Y289420D01*
X433455Y289289D01*
X433509Y289161D01*
X433567Y289033D01*
X433628Y288907D01*
X433693Y288784D01*
X433761Y288662D01*
X433832Y288541D01*
X433907Y288423D01*
X433986Y288308D01*
X434067Y288194D01*
X434152Y288083D01*
X434240Y287974D01*
X434330Y287868D01*
X434424Y287764D01*
X434521Y287663D01*
X434621Y287565D01*
X434723Y287470D01*
X434828Y287378D01*
X434935Y287288D01*
X435045Y287202D01*
X435158Y287119D01*
X435272Y287039D01*
X435389Y286962D01*
X435508Y286889D01*
X435629Y286819D01*
X435752Y286753D01*
X435877Y286690D01*
X436004Y286630D01*
X436132Y286575D01*
X436261Y286523D01*
X436393Y286474D01*
X436525Y286429D01*
X436659Y286388D01*
X436793Y286351D01*
X436929Y286318D01*
X437066Y286289D01*
X437203Y286263D01*
X437341Y286241D01*
X437480Y286224D01*
X437619Y286210D01*
X437759Y286200D01*
X437898Y286194D01*
X438038Y286192D01*
X442977Y286192D01*
X421550Y296070D02*
X421418Y296068D01*
X421287Y296062D01*
X421155Y296052D01*
X421024Y296039D01*
X420894Y296021D01*
X420764Y296000D01*
X420634Y295975D01*
X420506Y295946D01*
X420378Y295913D01*
X420252Y295876D01*
X420126Y295836D01*
X420002Y295792D01*
X419879Y295744D01*
X419758Y295693D01*
X419638Y295638D01*
X419520Y295580D01*
X419404Y295518D01*
X419290Y295452D01*
X419177Y295384D01*
X419067Y295312D01*
X418959Y295237D01*
X418853Y295158D01*
X418749Y295077D01*
X418648Y294992D01*
X418550Y294905D01*
X418454Y294814D01*
X418361Y294721D01*
X418270Y294625D01*
X418183Y294527D01*
X418098Y294426D01*
X418017Y294322D01*
X417938Y294216D01*
X417863Y294108D01*
X417791Y293998D01*
X417723Y293885D01*
X417657Y293771D01*
X417595Y293655D01*
X417537Y293537D01*
X417482Y293417D01*
X417431Y293296D01*
X417383Y293173D01*
X417339Y293049D01*
X417299Y292923D01*
X417262Y292797D01*
X417229Y292669D01*
X417200Y292541D01*
X417175Y292411D01*
X417154Y292281D01*
X417136Y292151D01*
X417123Y292020D01*
X417113Y291888D01*
X417107Y291757D01*
X417105Y291625D01*
X421550Y296070D02*
X421700Y296068D01*
X421849Y296062D01*
X421998Y296052D01*
X422147Y296039D01*
X422296Y296021D01*
X422444Y296000D01*
X422592Y295974D01*
X422738Y295945D01*
X422884Y295912D01*
X423029Y295875D01*
X423173Y295834D01*
X423316Y295790D01*
X423458Y295742D01*
X423598Y295690D01*
X423737Y295635D01*
X423875Y295576D01*
X424010Y295513D01*
X424145Y295447D01*
X424277Y295377D01*
X424407Y295304D01*
X424536Y295227D01*
X424663Y295147D01*
X424787Y295064D01*
X424909Y294978D01*
X425029Y294888D01*
X425146Y294795D01*
X425261Y294700D01*
X425374Y294601D01*
X425484Y294499D01*
X425591Y294395D01*
X425695Y294288D01*
X425797Y294178D01*
X425895Y294065D01*
X425991Y293950D01*
X426083Y293832D01*
X426173Y293712D01*
X426259Y293590D01*
X426342Y293466D01*
X426422Y293339D01*
X426498Y293211D01*
X426571Y293080D01*
X426641Y292947D01*
X426707Y292813D01*
X426769Y292677D01*
X426828Y292540D01*
X426884Y292401D01*
X426935Y292260D01*
X426983Y292119D01*
X418587Y288168D02*
X418491Y288261D01*
X418399Y288357D01*
X418309Y288456D01*
X418222Y288557D01*
X418138Y288660D01*
X418056Y288765D01*
X417978Y288873D01*
X417903Y288983D01*
X417830Y289095D01*
X417761Y289209D01*
X417695Y289325D01*
X417633Y289443D01*
X417574Y289562D01*
X417518Y289683D01*
X417465Y289806D01*
X417416Y289930D01*
X417371Y290055D01*
X417328Y290182D01*
X417290Y290309D01*
X417255Y290438D01*
X417224Y290567D01*
X417196Y290698D01*
X417172Y290829D01*
X417151Y290961D01*
X417135Y291093D01*
X417122Y291226D01*
X417112Y291359D01*
X417107Y291492D01*
X417105Y291625D01*
X418586Y288168D02*
X426982Y278290D01*
X417105Y278290D01*
X359136Y233490D02*
X359136Y215710D01*
X359136Y233490D02*
X354198Y233490D01*
X354058Y233488D01*
X353919Y233482D01*
X353779Y233472D01*
X353640Y233458D01*
X353501Y233441D01*
X353363Y233419D01*
X353226Y233393D01*
X353089Y233364D01*
X352953Y233331D01*
X352819Y233294D01*
X352685Y233253D01*
X352553Y233208D01*
X352421Y233159D01*
X352292Y233107D01*
X352164Y233052D01*
X352037Y232992D01*
X351912Y232929D01*
X351789Y232863D01*
X351668Y232793D01*
X351549Y232720D01*
X351432Y232643D01*
X351318Y232563D01*
X351205Y232480D01*
X351095Y232394D01*
X350988Y232304D01*
X350883Y232212D01*
X350781Y232117D01*
X350681Y232019D01*
X350584Y231918D01*
X350490Y231814D01*
X350400Y231708D01*
X350312Y231599D01*
X350227Y231488D01*
X350146Y231374D01*
X350067Y231259D01*
X349992Y231141D01*
X349921Y231021D01*
X349853Y230898D01*
X349788Y230775D01*
X349727Y230649D01*
X349669Y230521D01*
X349615Y230393D01*
X349565Y230262D01*
X349518Y230130D01*
X349475Y229997D01*
X349436Y229863D01*
X349401Y229728D01*
X349370Y229592D01*
X349342Y229454D01*
X349319Y229317D01*
X349299Y229178D01*
X349283Y229039D01*
X349271Y228900D01*
X349263Y228761D01*
X349259Y228621D01*
X349259Y228481D01*
X349263Y228341D01*
X349271Y228202D01*
X349283Y228063D01*
X349299Y227924D01*
X349319Y227785D01*
X349342Y227648D01*
X349370Y227510D01*
X349401Y227374D01*
X349436Y227239D01*
X349475Y227105D01*
X349518Y226972D01*
X349565Y226840D01*
X349615Y226709D01*
X349669Y226581D01*
X349727Y226453D01*
X349788Y226327D01*
X349853Y226204D01*
X349921Y226081D01*
X349992Y225961D01*
X350067Y225843D01*
X350146Y225728D01*
X350227Y225614D01*
X350312Y225503D01*
X350400Y225394D01*
X350490Y225288D01*
X350584Y225184D01*
X350681Y225083D01*
X350781Y224985D01*
X350883Y224890D01*
X350988Y224798D01*
X351095Y224708D01*
X351205Y224622D01*
X351318Y224539D01*
X351432Y224459D01*
X351549Y224382D01*
X351668Y224309D01*
X351789Y224239D01*
X351912Y224173D01*
X352037Y224110D01*
X352164Y224050D01*
X352292Y223995D01*
X352421Y223943D01*
X352553Y223894D01*
X352685Y223849D01*
X352819Y223808D01*
X352953Y223771D01*
X353089Y223738D01*
X353226Y223709D01*
X353363Y223683D01*
X353501Y223661D01*
X353640Y223644D01*
X353779Y223630D01*
X353919Y223620D01*
X354058Y223614D01*
X354198Y223612D01*
X359136Y223612D01*
X343141Y215710D02*
X338202Y215710D01*
X338062Y215712D01*
X337923Y215718D01*
X337783Y215728D01*
X337644Y215742D01*
X337505Y215759D01*
X337367Y215781D01*
X337230Y215807D01*
X337093Y215836D01*
X336957Y215869D01*
X336823Y215906D01*
X336689Y215947D01*
X336557Y215992D01*
X336425Y216041D01*
X336296Y216093D01*
X336168Y216148D01*
X336041Y216208D01*
X335916Y216271D01*
X335793Y216337D01*
X335672Y216407D01*
X335553Y216480D01*
X335436Y216557D01*
X335322Y216637D01*
X335209Y216720D01*
X335099Y216806D01*
X334992Y216896D01*
X334887Y216988D01*
X334785Y217083D01*
X334685Y217181D01*
X334588Y217282D01*
X334494Y217386D01*
X334404Y217492D01*
X334316Y217601D01*
X334231Y217712D01*
X334150Y217826D01*
X334071Y217941D01*
X333996Y218059D01*
X333925Y218179D01*
X333857Y218302D01*
X333792Y218425D01*
X333731Y218551D01*
X333673Y218679D01*
X333619Y218807D01*
X333569Y218938D01*
X333522Y219070D01*
X333479Y219203D01*
X333440Y219337D01*
X333405Y219472D01*
X333374Y219608D01*
X333346Y219746D01*
X333323Y219883D01*
X333303Y220022D01*
X333287Y220161D01*
X333275Y220300D01*
X333267Y220439D01*
X333263Y220579D01*
X333263Y220719D01*
X333267Y220859D01*
X333275Y220998D01*
X333287Y221137D01*
X333303Y221276D01*
X333323Y221415D01*
X333346Y221552D01*
X333374Y221690D01*
X333405Y221826D01*
X333440Y221961D01*
X333479Y222095D01*
X333522Y222228D01*
X333569Y222360D01*
X333619Y222491D01*
X333673Y222619D01*
X333731Y222747D01*
X333792Y222873D01*
X333857Y222996D01*
X333925Y223119D01*
X333996Y223239D01*
X334071Y223357D01*
X334150Y223472D01*
X334231Y223586D01*
X334316Y223697D01*
X334404Y223806D01*
X334494Y223912D01*
X334588Y224016D01*
X334685Y224117D01*
X334785Y224215D01*
X334887Y224310D01*
X334992Y224402D01*
X335099Y224492D01*
X335209Y224578D01*
X335322Y224661D01*
X335436Y224741D01*
X335553Y224818D01*
X335672Y224891D01*
X335793Y224961D01*
X335916Y225027D01*
X336041Y225090D01*
X336168Y225150D01*
X336296Y225205D01*
X336425Y225257D01*
X336557Y225306D01*
X336689Y225351D01*
X336823Y225392D01*
X336957Y225429D01*
X337093Y225462D01*
X337230Y225491D01*
X337367Y225517D01*
X337505Y225539D01*
X337644Y225556D01*
X337783Y225570D01*
X337923Y225580D01*
X338062Y225586D01*
X338202Y225588D01*
X337215Y233490D02*
X343141Y233490D01*
X337215Y233490D02*
X337091Y233488D01*
X336967Y233482D01*
X336843Y233472D01*
X336720Y233459D01*
X336597Y233441D01*
X336475Y233420D01*
X336353Y233395D01*
X336232Y233366D01*
X336113Y233333D01*
X335994Y233297D01*
X335877Y233256D01*
X335761Y233213D01*
X335646Y233165D01*
X335533Y233114D01*
X335421Y233059D01*
X335312Y233001D01*
X335204Y232940D01*
X335098Y232875D01*
X334994Y232807D01*
X334893Y232735D01*
X334793Y232661D01*
X334697Y232583D01*
X334602Y232503D01*
X334510Y232419D01*
X334421Y232333D01*
X334335Y232244D01*
X334251Y232152D01*
X334171Y232057D01*
X334093Y231961D01*
X334019Y231861D01*
X333947Y231760D01*
X333879Y231656D01*
X333814Y231550D01*
X333753Y231442D01*
X333695Y231333D01*
X333640Y231221D01*
X333589Y231108D01*
X333541Y230993D01*
X333498Y230877D01*
X333457Y230760D01*
X333421Y230641D01*
X333388Y230522D01*
X333359Y230401D01*
X333334Y230279D01*
X333313Y230157D01*
X333295Y230034D01*
X333282Y229911D01*
X333272Y229787D01*
X333266Y229663D01*
X333264Y229539D01*
X333266Y229415D01*
X333272Y229291D01*
X333282Y229167D01*
X333295Y229044D01*
X333313Y228921D01*
X333334Y228799D01*
X333359Y228677D01*
X333388Y228556D01*
X333421Y228437D01*
X333457Y228318D01*
X333498Y228201D01*
X333541Y228085D01*
X333589Y227970D01*
X333640Y227857D01*
X333695Y227745D01*
X333753Y227636D01*
X333814Y227528D01*
X333879Y227422D01*
X333947Y227318D01*
X334019Y227217D01*
X334093Y227117D01*
X334171Y227021D01*
X334251Y226926D01*
X334335Y226834D01*
X334421Y226745D01*
X334510Y226659D01*
X334602Y226575D01*
X334697Y226495D01*
X334793Y226417D01*
X334893Y226343D01*
X334994Y226271D01*
X335098Y226203D01*
X335204Y226138D01*
X335312Y226077D01*
X335421Y226019D01*
X335533Y225964D01*
X335646Y225913D01*
X335761Y225865D01*
X335877Y225822D01*
X335994Y225781D01*
X336113Y225745D01*
X336232Y225712D01*
X336353Y225683D01*
X336475Y225658D01*
X336597Y225637D01*
X336720Y225619D01*
X336843Y225606D01*
X336967Y225596D01*
X337091Y225590D01*
X337215Y225588D01*
X341166Y225588D01*
X260736Y394110D02*
X260736Y411890D01*
X255798Y411890D01*
X255658Y411888D01*
X255519Y411882D01*
X255379Y411872D01*
X255240Y411858D01*
X255101Y411841D01*
X254963Y411819D01*
X254826Y411793D01*
X254689Y411764D01*
X254553Y411731D01*
X254419Y411694D01*
X254285Y411653D01*
X254153Y411608D01*
X254021Y411559D01*
X253892Y411507D01*
X253764Y411452D01*
X253637Y411392D01*
X253512Y411329D01*
X253389Y411263D01*
X253268Y411193D01*
X253149Y411120D01*
X253032Y411043D01*
X252918Y410963D01*
X252805Y410880D01*
X252695Y410794D01*
X252588Y410704D01*
X252483Y410612D01*
X252381Y410517D01*
X252281Y410419D01*
X252184Y410318D01*
X252090Y410214D01*
X252000Y410108D01*
X251912Y409999D01*
X251827Y409888D01*
X251746Y409774D01*
X251667Y409659D01*
X251592Y409541D01*
X251521Y409421D01*
X251453Y409298D01*
X251388Y409175D01*
X251327Y409049D01*
X251269Y408921D01*
X251215Y408793D01*
X251165Y408662D01*
X251118Y408530D01*
X251075Y408397D01*
X251036Y408263D01*
X251001Y408128D01*
X250970Y407992D01*
X250942Y407854D01*
X250919Y407717D01*
X250899Y407578D01*
X250883Y407439D01*
X250871Y407300D01*
X250863Y407161D01*
X250859Y407021D01*
X250859Y406881D01*
X250863Y406741D01*
X250871Y406602D01*
X250883Y406463D01*
X250899Y406324D01*
X250919Y406185D01*
X250942Y406048D01*
X250970Y405910D01*
X251001Y405774D01*
X251036Y405639D01*
X251075Y405505D01*
X251118Y405372D01*
X251165Y405240D01*
X251215Y405109D01*
X251269Y404981D01*
X251327Y404853D01*
X251388Y404727D01*
X251453Y404604D01*
X251521Y404482D01*
X251592Y404361D01*
X251667Y404243D01*
X251746Y404128D01*
X251827Y404014D01*
X251912Y403903D01*
X252000Y403794D01*
X252090Y403688D01*
X252184Y403584D01*
X252281Y403483D01*
X252381Y403385D01*
X252483Y403290D01*
X252588Y403198D01*
X252695Y403108D01*
X252805Y403022D01*
X252918Y402939D01*
X253032Y402859D01*
X253149Y402782D01*
X253268Y402709D01*
X253389Y402639D01*
X253512Y402573D01*
X253637Y402510D01*
X253764Y402450D01*
X253892Y402395D01*
X254021Y402343D01*
X254153Y402294D01*
X254285Y402249D01*
X254419Y402208D01*
X254553Y402171D01*
X254689Y402138D01*
X254826Y402109D01*
X254963Y402083D01*
X255101Y402061D01*
X255240Y402044D01*
X255379Y402030D01*
X255519Y402020D01*
X255658Y402014D01*
X255798Y402012D01*
X260736Y402012D01*
X244741Y398061D02*
X240790Y411890D01*
X244741Y398061D02*
X234864Y398061D01*
X237827Y402012D02*
X237827Y394110D01*
X359136Y458910D02*
X359136Y476690D01*
X354198Y476690D01*
X354058Y476688D01*
X353919Y476682D01*
X353779Y476672D01*
X353640Y476658D01*
X353501Y476641D01*
X353363Y476619D01*
X353226Y476593D01*
X353089Y476564D01*
X352953Y476531D01*
X352819Y476494D01*
X352685Y476453D01*
X352553Y476408D01*
X352421Y476359D01*
X352292Y476307D01*
X352164Y476252D01*
X352037Y476192D01*
X351912Y476129D01*
X351789Y476063D01*
X351668Y475993D01*
X351549Y475920D01*
X351432Y475843D01*
X351318Y475763D01*
X351205Y475680D01*
X351095Y475594D01*
X350988Y475504D01*
X350883Y475412D01*
X350781Y475317D01*
X350681Y475219D01*
X350584Y475118D01*
X350490Y475014D01*
X350400Y474908D01*
X350312Y474799D01*
X350227Y474688D01*
X350146Y474574D01*
X350067Y474459D01*
X349992Y474341D01*
X349921Y474221D01*
X349853Y474098D01*
X349788Y473975D01*
X349727Y473849D01*
X349669Y473721D01*
X349615Y473593D01*
X349565Y473462D01*
X349518Y473330D01*
X349475Y473197D01*
X349436Y473063D01*
X349401Y472928D01*
X349370Y472792D01*
X349342Y472654D01*
X349319Y472517D01*
X349299Y472378D01*
X349283Y472239D01*
X349271Y472100D01*
X349263Y471961D01*
X349259Y471821D01*
X349259Y471681D01*
X349263Y471541D01*
X349271Y471402D01*
X349283Y471263D01*
X349299Y471124D01*
X349319Y470985D01*
X349342Y470848D01*
X349370Y470710D01*
X349401Y470574D01*
X349436Y470439D01*
X349475Y470305D01*
X349518Y470172D01*
X349565Y470040D01*
X349615Y469909D01*
X349669Y469781D01*
X349727Y469653D01*
X349788Y469527D01*
X349853Y469404D01*
X349921Y469282D01*
X349992Y469161D01*
X350067Y469043D01*
X350146Y468928D01*
X350227Y468814D01*
X350312Y468703D01*
X350400Y468594D01*
X350490Y468488D01*
X350584Y468384D01*
X350681Y468283D01*
X350781Y468185D01*
X350883Y468090D01*
X350988Y467998D01*
X351095Y467908D01*
X351205Y467822D01*
X351318Y467739D01*
X351432Y467659D01*
X351549Y467582D01*
X351668Y467509D01*
X351789Y467439D01*
X351912Y467373D01*
X352037Y467310D01*
X352164Y467250D01*
X352292Y467195D01*
X352421Y467143D01*
X352553Y467094D01*
X352685Y467049D01*
X352819Y467008D01*
X352953Y466971D01*
X353089Y466938D01*
X353226Y466909D01*
X353363Y466883D01*
X353501Y466861D01*
X353640Y466844D01*
X353779Y466830D01*
X353919Y466820D01*
X354058Y466814D01*
X354198Y466812D01*
X359136Y466812D01*
X343141Y458910D02*
X337215Y458910D01*
X337091Y458912D01*
X336967Y458918D01*
X336843Y458928D01*
X336720Y458941D01*
X336597Y458959D01*
X336475Y458980D01*
X336353Y459005D01*
X336232Y459034D01*
X336113Y459067D01*
X335994Y459103D01*
X335877Y459144D01*
X335761Y459187D01*
X335646Y459235D01*
X335533Y459286D01*
X335421Y459341D01*
X335312Y459399D01*
X335204Y459460D01*
X335098Y459525D01*
X334994Y459593D01*
X334893Y459665D01*
X334793Y459739D01*
X334697Y459817D01*
X334602Y459897D01*
X334510Y459981D01*
X334421Y460067D01*
X334335Y460156D01*
X334251Y460248D01*
X334171Y460343D01*
X334093Y460439D01*
X334019Y460539D01*
X333947Y460640D01*
X333879Y460744D01*
X333814Y460850D01*
X333753Y460958D01*
X333695Y461067D01*
X333640Y461179D01*
X333589Y461292D01*
X333541Y461407D01*
X333498Y461523D01*
X333457Y461640D01*
X333421Y461759D01*
X333388Y461878D01*
X333359Y461999D01*
X333334Y462121D01*
X333313Y462243D01*
X333295Y462366D01*
X333282Y462489D01*
X333272Y462613D01*
X333266Y462737D01*
X333264Y462861D01*
X333264Y464837D01*
X333266Y464961D01*
X333272Y465085D01*
X333282Y465209D01*
X333295Y465332D01*
X333313Y465455D01*
X333334Y465577D01*
X333359Y465699D01*
X333388Y465820D01*
X333421Y465939D01*
X333457Y466058D01*
X333498Y466175D01*
X333541Y466291D01*
X333589Y466406D01*
X333640Y466519D01*
X333695Y466631D01*
X333753Y466740D01*
X333814Y466848D01*
X333879Y466954D01*
X333947Y467058D01*
X334019Y467159D01*
X334093Y467259D01*
X334171Y467355D01*
X334251Y467450D01*
X334335Y467542D01*
X334421Y467631D01*
X334510Y467717D01*
X334602Y467801D01*
X334697Y467881D01*
X334793Y467959D01*
X334893Y468033D01*
X334994Y468105D01*
X335098Y468173D01*
X335204Y468238D01*
X335312Y468299D01*
X335421Y468357D01*
X335533Y468412D01*
X335646Y468463D01*
X335761Y468511D01*
X335877Y468554D01*
X335994Y468595D01*
X336113Y468631D01*
X336232Y468664D01*
X336353Y468693D01*
X336475Y468718D01*
X336597Y468739D01*
X336720Y468757D01*
X336843Y468770D01*
X336967Y468780D01*
X337091Y468786D01*
X337215Y468788D01*
X343141Y468788D01*
X343141Y476690D01*
X333264Y476690D01*
X394337Y264399D02*
X394337Y246619D01*
X394337Y256497D02*
X384460Y256497D01*
X384460Y264399D02*
X384460Y246619D01*
X367151Y259954D02*
X367153Y260086D01*
X367159Y260217D01*
X367169Y260349D01*
X367182Y260480D01*
X367200Y260610D01*
X367221Y260740D01*
X367246Y260870D01*
X367275Y260998D01*
X367308Y261126D01*
X367345Y261252D01*
X367385Y261378D01*
X367429Y261502D01*
X367477Y261625D01*
X367528Y261746D01*
X367583Y261866D01*
X367641Y261984D01*
X367703Y262100D01*
X367769Y262214D01*
X367837Y262327D01*
X367909Y262437D01*
X367984Y262545D01*
X368063Y262651D01*
X368144Y262755D01*
X368229Y262856D01*
X368316Y262954D01*
X368407Y263050D01*
X368500Y263143D01*
X368596Y263234D01*
X368694Y263321D01*
X368795Y263406D01*
X368899Y263487D01*
X369005Y263566D01*
X369113Y263641D01*
X369223Y263713D01*
X369336Y263781D01*
X369450Y263847D01*
X369566Y263909D01*
X369684Y263967D01*
X369804Y264022D01*
X369925Y264073D01*
X370048Y264121D01*
X370172Y264165D01*
X370298Y264205D01*
X370424Y264242D01*
X370552Y264275D01*
X370680Y264304D01*
X370810Y264329D01*
X370940Y264350D01*
X371070Y264368D01*
X371201Y264381D01*
X371333Y264391D01*
X371464Y264397D01*
X371596Y264399D01*
X371746Y264397D01*
X371895Y264391D01*
X372044Y264381D01*
X372193Y264368D01*
X372342Y264350D01*
X372490Y264329D01*
X372638Y264303D01*
X372784Y264274D01*
X372930Y264241D01*
X373075Y264204D01*
X373219Y264163D01*
X373362Y264119D01*
X373504Y264071D01*
X373644Y264019D01*
X373783Y263964D01*
X373921Y263905D01*
X374056Y263842D01*
X374191Y263776D01*
X374323Y263706D01*
X374453Y263633D01*
X374582Y263556D01*
X374709Y263476D01*
X374833Y263393D01*
X374955Y263307D01*
X375075Y263217D01*
X375192Y263124D01*
X375307Y263029D01*
X375420Y262930D01*
X375530Y262828D01*
X375637Y262724D01*
X375741Y262617D01*
X375843Y262507D01*
X375941Y262394D01*
X376037Y262279D01*
X376129Y262161D01*
X376219Y262041D01*
X376305Y261919D01*
X376388Y261795D01*
X376468Y261668D01*
X376544Y261540D01*
X376617Y261409D01*
X376687Y261276D01*
X376753Y261142D01*
X376815Y261006D01*
X376874Y260869D01*
X376930Y260730D01*
X376981Y260589D01*
X377029Y260448D01*
X368633Y256497D02*
X368537Y256590D01*
X368445Y256686D01*
X368355Y256785D01*
X368268Y256886D01*
X368184Y256989D01*
X368102Y257094D01*
X368024Y257202D01*
X367949Y257312D01*
X367876Y257424D01*
X367807Y257538D01*
X367741Y257654D01*
X367679Y257772D01*
X367620Y257891D01*
X367564Y258012D01*
X367511Y258135D01*
X367462Y258259D01*
X367417Y258384D01*
X367374Y258511D01*
X367336Y258638D01*
X367301Y258767D01*
X367270Y258896D01*
X367242Y259027D01*
X367218Y259158D01*
X367197Y259290D01*
X367181Y259422D01*
X367168Y259555D01*
X367158Y259688D01*
X367153Y259821D01*
X367151Y259954D01*
X368632Y256497D02*
X377029Y246619D01*
X367151Y246619D01*
X360278Y246619D02*
X355339Y246619D01*
X355199Y246621D01*
X355060Y246627D01*
X354920Y246637D01*
X354781Y246651D01*
X354642Y246668D01*
X354504Y246690D01*
X354367Y246716D01*
X354230Y246745D01*
X354094Y246778D01*
X353960Y246815D01*
X353826Y246856D01*
X353694Y246901D01*
X353562Y246950D01*
X353433Y247002D01*
X353305Y247057D01*
X353178Y247117D01*
X353053Y247180D01*
X352930Y247246D01*
X352809Y247316D01*
X352690Y247389D01*
X352573Y247466D01*
X352459Y247546D01*
X352346Y247629D01*
X352236Y247715D01*
X352129Y247805D01*
X352024Y247897D01*
X351922Y247992D01*
X351822Y248090D01*
X351725Y248191D01*
X351631Y248295D01*
X351541Y248401D01*
X351453Y248510D01*
X351368Y248621D01*
X351287Y248735D01*
X351208Y248850D01*
X351133Y248968D01*
X351062Y249088D01*
X350994Y249211D01*
X350929Y249334D01*
X350868Y249460D01*
X350810Y249588D01*
X350756Y249716D01*
X350706Y249847D01*
X350659Y249979D01*
X350616Y250112D01*
X350577Y250246D01*
X350542Y250381D01*
X350511Y250517D01*
X350483Y250655D01*
X350460Y250792D01*
X350440Y250931D01*
X350424Y251070D01*
X350412Y251209D01*
X350404Y251348D01*
X350400Y251488D01*
X350400Y251628D01*
X350404Y251768D01*
X350412Y251907D01*
X350424Y252046D01*
X350440Y252185D01*
X350460Y252324D01*
X350483Y252461D01*
X350511Y252599D01*
X350542Y252735D01*
X350577Y252870D01*
X350616Y253004D01*
X350659Y253137D01*
X350706Y253269D01*
X350756Y253400D01*
X350810Y253528D01*
X350868Y253656D01*
X350929Y253782D01*
X350994Y253905D01*
X351062Y254028D01*
X351133Y254148D01*
X351208Y254266D01*
X351287Y254381D01*
X351368Y254495D01*
X351453Y254606D01*
X351541Y254715D01*
X351631Y254821D01*
X351725Y254925D01*
X351822Y255026D01*
X351922Y255124D01*
X352024Y255219D01*
X352129Y255311D01*
X352236Y255401D01*
X352346Y255487D01*
X352459Y255570D01*
X352573Y255650D01*
X352690Y255727D01*
X352809Y255800D01*
X352930Y255870D01*
X353053Y255936D01*
X353178Y255999D01*
X353305Y256059D01*
X353433Y256114D01*
X353562Y256166D01*
X353694Y256215D01*
X353826Y256260D01*
X353960Y256301D01*
X354094Y256338D01*
X354230Y256371D01*
X354367Y256400D01*
X354504Y256426D01*
X354642Y256448D01*
X354781Y256465D01*
X354920Y256479D01*
X355060Y256489D01*
X355199Y256495D01*
X355339Y256497D01*
X354351Y264399D02*
X360278Y264399D01*
X354351Y264399D02*
X354227Y264397D01*
X354103Y264391D01*
X353979Y264381D01*
X353856Y264368D01*
X353733Y264350D01*
X353611Y264329D01*
X353489Y264304D01*
X353368Y264275D01*
X353249Y264242D01*
X353130Y264206D01*
X353013Y264165D01*
X352897Y264122D01*
X352782Y264074D01*
X352669Y264023D01*
X352557Y263968D01*
X352448Y263910D01*
X352340Y263849D01*
X352234Y263784D01*
X352130Y263716D01*
X352029Y263644D01*
X351929Y263570D01*
X351833Y263492D01*
X351738Y263412D01*
X351646Y263328D01*
X351557Y263242D01*
X351471Y263153D01*
X351387Y263061D01*
X351307Y262966D01*
X351229Y262870D01*
X351155Y262770D01*
X351083Y262669D01*
X351015Y262565D01*
X350950Y262459D01*
X350889Y262351D01*
X350831Y262242D01*
X350776Y262130D01*
X350725Y262017D01*
X350677Y261902D01*
X350634Y261786D01*
X350593Y261669D01*
X350557Y261550D01*
X350524Y261431D01*
X350495Y261310D01*
X350470Y261188D01*
X350449Y261066D01*
X350431Y260943D01*
X350418Y260820D01*
X350408Y260696D01*
X350402Y260572D01*
X350400Y260448D01*
X350402Y260324D01*
X350408Y260200D01*
X350418Y260076D01*
X350431Y259953D01*
X350449Y259830D01*
X350470Y259708D01*
X350495Y259586D01*
X350524Y259465D01*
X350557Y259346D01*
X350593Y259227D01*
X350634Y259110D01*
X350677Y258994D01*
X350725Y258879D01*
X350776Y258766D01*
X350831Y258654D01*
X350889Y258545D01*
X350950Y258437D01*
X351015Y258331D01*
X351083Y258227D01*
X351155Y258126D01*
X351229Y258026D01*
X351307Y257930D01*
X351387Y257835D01*
X351471Y257743D01*
X351557Y257654D01*
X351646Y257568D01*
X351738Y257484D01*
X351833Y257404D01*
X351929Y257326D01*
X352029Y257252D01*
X352130Y257180D01*
X352234Y257112D01*
X352340Y257047D01*
X352448Y256986D01*
X352557Y256928D01*
X352669Y256873D01*
X352782Y256822D01*
X352897Y256774D01*
X353013Y256731D01*
X353130Y256690D01*
X353249Y256654D01*
X353368Y256621D01*
X353489Y256592D01*
X353611Y256567D01*
X353733Y256546D01*
X353856Y256528D01*
X353979Y256515D01*
X354103Y256505D01*
X354227Y256499D01*
X354351Y256497D01*
X358303Y256497D01*
X342884Y264399D02*
X342884Y246619D01*
X342884Y264399D02*
X337945Y264399D01*
X337805Y264397D01*
X337666Y264391D01*
X337526Y264381D01*
X337387Y264367D01*
X337248Y264350D01*
X337110Y264328D01*
X336973Y264302D01*
X336836Y264273D01*
X336700Y264240D01*
X336566Y264203D01*
X336432Y264162D01*
X336300Y264117D01*
X336168Y264068D01*
X336039Y264016D01*
X335911Y263961D01*
X335784Y263901D01*
X335659Y263838D01*
X335536Y263772D01*
X335415Y263702D01*
X335296Y263629D01*
X335179Y263552D01*
X335065Y263472D01*
X334952Y263389D01*
X334842Y263303D01*
X334735Y263213D01*
X334630Y263121D01*
X334528Y263026D01*
X334428Y262928D01*
X334331Y262827D01*
X334237Y262723D01*
X334147Y262617D01*
X334059Y262508D01*
X333974Y262397D01*
X333893Y262283D01*
X333814Y262168D01*
X333739Y262050D01*
X333668Y261930D01*
X333600Y261807D01*
X333535Y261684D01*
X333474Y261558D01*
X333416Y261430D01*
X333362Y261302D01*
X333312Y261171D01*
X333265Y261039D01*
X333222Y260906D01*
X333183Y260772D01*
X333148Y260637D01*
X333117Y260501D01*
X333089Y260363D01*
X333066Y260226D01*
X333046Y260087D01*
X333030Y259948D01*
X333018Y259809D01*
X333010Y259670D01*
X333006Y259530D01*
X333006Y259390D01*
X333010Y259250D01*
X333018Y259111D01*
X333030Y258972D01*
X333046Y258833D01*
X333066Y258694D01*
X333089Y258557D01*
X333117Y258419D01*
X333148Y258283D01*
X333183Y258148D01*
X333222Y258014D01*
X333265Y257881D01*
X333312Y257749D01*
X333362Y257618D01*
X333416Y257490D01*
X333474Y257362D01*
X333535Y257236D01*
X333600Y257113D01*
X333668Y256990D01*
X333739Y256870D01*
X333814Y256752D01*
X333893Y256637D01*
X333974Y256523D01*
X334059Y256412D01*
X334147Y256303D01*
X334237Y256197D01*
X334331Y256093D01*
X334428Y255992D01*
X334528Y255894D01*
X334630Y255799D01*
X334735Y255707D01*
X334842Y255617D01*
X334952Y255531D01*
X335065Y255448D01*
X335179Y255368D01*
X335296Y255291D01*
X335415Y255218D01*
X335536Y255148D01*
X335659Y255082D01*
X335784Y255019D01*
X335911Y254959D01*
X336039Y254904D01*
X336168Y254852D01*
X336300Y254803D01*
X336432Y254758D01*
X336566Y254717D01*
X336700Y254680D01*
X336836Y254647D01*
X336973Y254618D01*
X337110Y254592D01*
X337248Y254570D01*
X337387Y254553D01*
X337526Y254539D01*
X337666Y254529D01*
X337805Y254523D01*
X337945Y254521D01*
X342884Y254521D01*
X336957Y254521D02*
X333006Y246619D01*
X326219Y246619D02*
X321280Y246619D01*
X321140Y246621D01*
X321001Y246627D01*
X320861Y246637D01*
X320722Y246651D01*
X320583Y246668D01*
X320445Y246690D01*
X320308Y246716D01*
X320171Y246745D01*
X320035Y246778D01*
X319901Y246815D01*
X319767Y246856D01*
X319635Y246901D01*
X319503Y246950D01*
X319374Y247002D01*
X319246Y247057D01*
X319119Y247117D01*
X318994Y247180D01*
X318871Y247246D01*
X318750Y247316D01*
X318631Y247389D01*
X318514Y247466D01*
X318400Y247546D01*
X318287Y247629D01*
X318177Y247715D01*
X318070Y247805D01*
X317965Y247897D01*
X317863Y247992D01*
X317763Y248090D01*
X317666Y248191D01*
X317572Y248295D01*
X317482Y248401D01*
X317394Y248510D01*
X317309Y248621D01*
X317228Y248735D01*
X317149Y248850D01*
X317074Y248968D01*
X317003Y249088D01*
X316935Y249211D01*
X316870Y249334D01*
X316809Y249460D01*
X316751Y249588D01*
X316697Y249716D01*
X316647Y249847D01*
X316600Y249979D01*
X316557Y250112D01*
X316518Y250246D01*
X316483Y250381D01*
X316452Y250517D01*
X316424Y250655D01*
X316401Y250792D01*
X316381Y250931D01*
X316365Y251070D01*
X316353Y251209D01*
X316345Y251348D01*
X316341Y251488D01*
X316341Y251628D01*
X316345Y251768D01*
X316353Y251907D01*
X316365Y252046D01*
X316381Y252185D01*
X316401Y252324D01*
X316424Y252461D01*
X316452Y252599D01*
X316483Y252735D01*
X316518Y252870D01*
X316557Y253004D01*
X316600Y253137D01*
X316647Y253269D01*
X316697Y253400D01*
X316751Y253528D01*
X316809Y253656D01*
X316870Y253782D01*
X316935Y253905D01*
X317003Y254028D01*
X317074Y254148D01*
X317149Y254266D01*
X317228Y254381D01*
X317309Y254495D01*
X317394Y254606D01*
X317482Y254715D01*
X317572Y254821D01*
X317666Y254925D01*
X317763Y255026D01*
X317863Y255124D01*
X317965Y255219D01*
X318070Y255311D01*
X318177Y255401D01*
X318287Y255487D01*
X318400Y255570D01*
X318514Y255650D01*
X318631Y255727D01*
X318750Y255800D01*
X318871Y255870D01*
X318994Y255936D01*
X319119Y255999D01*
X319246Y256059D01*
X319374Y256114D01*
X319503Y256166D01*
X319635Y256215D01*
X319767Y256260D01*
X319901Y256301D01*
X320035Y256338D01*
X320171Y256371D01*
X320308Y256400D01*
X320445Y256426D01*
X320583Y256448D01*
X320722Y256465D01*
X320861Y256479D01*
X321001Y256489D01*
X321140Y256495D01*
X321280Y256497D01*
X320292Y264399D02*
X326219Y264399D01*
X320292Y264399D02*
X320168Y264397D01*
X320044Y264391D01*
X319920Y264381D01*
X319797Y264368D01*
X319674Y264350D01*
X319552Y264329D01*
X319430Y264304D01*
X319309Y264275D01*
X319190Y264242D01*
X319071Y264206D01*
X318954Y264165D01*
X318838Y264122D01*
X318723Y264074D01*
X318610Y264023D01*
X318498Y263968D01*
X318389Y263910D01*
X318281Y263849D01*
X318175Y263784D01*
X318071Y263716D01*
X317970Y263644D01*
X317870Y263570D01*
X317774Y263492D01*
X317679Y263412D01*
X317587Y263328D01*
X317498Y263242D01*
X317412Y263153D01*
X317328Y263061D01*
X317248Y262966D01*
X317170Y262870D01*
X317096Y262770D01*
X317024Y262669D01*
X316956Y262565D01*
X316891Y262459D01*
X316830Y262351D01*
X316772Y262242D01*
X316717Y262130D01*
X316666Y262017D01*
X316618Y261902D01*
X316575Y261786D01*
X316534Y261669D01*
X316498Y261550D01*
X316465Y261431D01*
X316436Y261310D01*
X316411Y261188D01*
X316390Y261066D01*
X316372Y260943D01*
X316359Y260820D01*
X316349Y260696D01*
X316343Y260572D01*
X316341Y260448D01*
X316343Y260324D01*
X316349Y260200D01*
X316359Y260076D01*
X316372Y259953D01*
X316390Y259830D01*
X316411Y259708D01*
X316436Y259586D01*
X316465Y259465D01*
X316498Y259346D01*
X316534Y259227D01*
X316575Y259110D01*
X316618Y258994D01*
X316666Y258879D01*
X316717Y258766D01*
X316772Y258654D01*
X316830Y258545D01*
X316891Y258437D01*
X316956Y258331D01*
X317024Y258227D01*
X317096Y258126D01*
X317170Y258026D01*
X317248Y257930D01*
X317328Y257835D01*
X317412Y257743D01*
X317498Y257654D01*
X317587Y257568D01*
X317679Y257484D01*
X317774Y257404D01*
X317870Y257326D01*
X317970Y257252D01*
X318071Y257180D01*
X318175Y257112D01*
X318281Y257047D01*
X318389Y256986D01*
X318498Y256928D01*
X318610Y256873D01*
X318723Y256822D01*
X318838Y256774D01*
X318954Y256731D01*
X319071Y256690D01*
X319190Y256654D01*
X319309Y256621D01*
X319430Y256592D01*
X319552Y256567D01*
X319674Y256546D01*
X319797Y256528D01*
X319920Y256515D01*
X320044Y256505D01*
X320168Y256499D01*
X320292Y256497D01*
X324243Y256497D01*
X309468Y255509D02*
X309464Y255859D01*
X309451Y256208D01*
X309430Y256557D01*
X309401Y256906D01*
X309364Y257254D01*
X309318Y257601D01*
X309264Y257946D01*
X309202Y258290D01*
X309131Y258633D01*
X309052Y258974D01*
X308966Y259313D01*
X308871Y259649D01*
X308768Y259984D01*
X308657Y260315D01*
X308539Y260645D01*
X308412Y260971D01*
X308278Y261294D01*
X308136Y261613D01*
X307986Y261930D01*
X307987Y261929D02*
X307947Y262042D01*
X307903Y262152D01*
X307855Y262262D01*
X307804Y262369D01*
X307749Y262475D01*
X307691Y262580D01*
X307629Y262682D01*
X307564Y262782D01*
X307496Y262880D01*
X307425Y262976D01*
X307350Y263069D01*
X307273Y263160D01*
X307193Y263248D01*
X307110Y263333D01*
X307024Y263416D01*
X306935Y263496D01*
X306844Y263573D01*
X306750Y263647D01*
X306654Y263718D01*
X306556Y263786D01*
X306456Y263850D01*
X306353Y263912D01*
X306249Y263969D01*
X306143Y264024D01*
X306035Y264075D01*
X305925Y264122D01*
X305814Y264166D01*
X305702Y264206D01*
X305588Y264242D01*
X305474Y264275D01*
X305358Y264304D01*
X305241Y264329D01*
X305124Y264350D01*
X305006Y264368D01*
X304887Y264381D01*
X304768Y264391D01*
X304649Y264397D01*
X304530Y264399D01*
X304411Y264397D01*
X304292Y264391D01*
X304173Y264381D01*
X304054Y264368D01*
X303936Y264350D01*
X303819Y264329D01*
X303702Y264304D01*
X303586Y264275D01*
X303472Y264242D01*
X303358Y264206D01*
X303246Y264166D01*
X303135Y264122D01*
X303025Y264075D01*
X302917Y264024D01*
X302811Y263969D01*
X302707Y263912D01*
X302604Y263850D01*
X302504Y263786D01*
X302406Y263718D01*
X302310Y263647D01*
X302216Y263573D01*
X302125Y263496D01*
X302036Y263416D01*
X301951Y263333D01*
X301867Y263248D01*
X301787Y263160D01*
X301710Y263069D01*
X301635Y262976D01*
X301564Y262880D01*
X301496Y262782D01*
X301431Y262682D01*
X301369Y262580D01*
X301311Y262475D01*
X301256Y262370D01*
X301205Y262262D01*
X301157Y262152D01*
X301113Y262042D01*
X301073Y261929D01*
X301073Y261930D02*
X300923Y261613D01*
X300781Y261294D01*
X300647Y260971D01*
X300520Y260645D01*
X300402Y260315D01*
X300291Y259984D01*
X300188Y259649D01*
X300093Y259313D01*
X300007Y258974D01*
X299928Y258633D01*
X299857Y258290D01*
X299795Y257946D01*
X299741Y257601D01*
X299695Y257254D01*
X299658Y256906D01*
X299629Y256557D01*
X299608Y256208D01*
X299595Y255859D01*
X299591Y255509D01*
X309468Y255509D02*
X309464Y255159D01*
X309451Y254810D01*
X309430Y254461D01*
X309401Y254112D01*
X309364Y253764D01*
X309318Y253417D01*
X309264Y253072D01*
X309202Y252728D01*
X309131Y252385D01*
X309052Y252044D01*
X308966Y251705D01*
X308871Y251369D01*
X308768Y251034D01*
X308657Y250703D01*
X308539Y250374D01*
X308412Y250047D01*
X308278Y249724D01*
X308136Y249405D01*
X307986Y249089D01*
X307987Y249089D02*
X307947Y248976D01*
X307903Y248866D01*
X307855Y248756D01*
X307804Y248649D01*
X307749Y248543D01*
X307691Y248438D01*
X307629Y248336D01*
X307564Y248236D01*
X307496Y248138D01*
X307425Y248042D01*
X307350Y247949D01*
X307273Y247858D01*
X307193Y247770D01*
X307110Y247685D01*
X307024Y247602D01*
X306935Y247522D01*
X306844Y247445D01*
X306750Y247371D01*
X306654Y247300D01*
X306556Y247232D01*
X306456Y247168D01*
X306353Y247106D01*
X306249Y247049D01*
X306143Y246994D01*
X306035Y246943D01*
X305925Y246896D01*
X305814Y246852D01*
X305702Y246812D01*
X305588Y246776D01*
X305474Y246743D01*
X305358Y246714D01*
X305241Y246689D01*
X305124Y246668D01*
X305006Y246650D01*
X304887Y246637D01*
X304768Y246627D01*
X304649Y246621D01*
X304530Y246619D01*
X301073Y249089D02*
X300923Y249405D01*
X300781Y249724D01*
X300647Y250047D01*
X300520Y250374D01*
X300402Y250703D01*
X300291Y251034D01*
X300188Y251369D01*
X300093Y251705D01*
X300007Y252044D01*
X299928Y252385D01*
X299857Y252728D01*
X299795Y253072D01*
X299741Y253417D01*
X299695Y253764D01*
X299658Y254112D01*
X299629Y254461D01*
X299608Y254810D01*
X299595Y255159D01*
X299591Y255509D01*
X301073Y249089D02*
X301113Y248976D01*
X301157Y248866D01*
X301205Y248756D01*
X301256Y248648D01*
X301311Y248542D01*
X301369Y248438D01*
X301431Y248336D01*
X301496Y248236D01*
X301564Y248138D01*
X301635Y248042D01*
X301710Y247949D01*
X301787Y247858D01*
X301867Y247770D01*
X301951Y247685D01*
X302036Y247602D01*
X302125Y247522D01*
X302216Y247445D01*
X302310Y247371D01*
X302406Y247300D01*
X302504Y247232D01*
X302604Y247168D01*
X302707Y247106D01*
X302811Y247048D01*
X302917Y246994D01*
X303025Y246943D01*
X303135Y246896D01*
X303246Y246852D01*
X303358Y246812D01*
X303472Y246776D01*
X303586Y246743D01*
X303702Y246714D01*
X303819Y246689D01*
X303936Y246668D01*
X304054Y246650D01*
X304173Y246637D01*
X304292Y246627D01*
X304411Y246621D01*
X304530Y246619D01*
X308481Y250570D02*
X300578Y260448D01*
D12*
X445875Y371150D02*
X445875Y373239D01*
X445875Y371150D02*
X445877Y371061D01*
X445883Y370973D01*
X445892Y370885D01*
X445905Y370797D01*
X445922Y370710D01*
X445942Y370624D01*
X445967Y370539D01*
X445994Y370454D01*
X446026Y370371D01*
X446060Y370290D01*
X446099Y370210D01*
X446140Y370132D01*
X446185Y370055D01*
X446233Y369981D01*
X446284Y369908D01*
X446338Y369838D01*
X446396Y369771D01*
X446456Y369705D01*
X446518Y369643D01*
X446584Y369583D01*
X446651Y369525D01*
X446721Y369471D01*
X446794Y369420D01*
X446868Y369372D01*
X446945Y369327D01*
X447023Y369286D01*
X447103Y369247D01*
X447184Y369213D01*
X447267Y369181D01*
X447352Y369154D01*
X447437Y369129D01*
X447523Y369109D01*
X447610Y369092D01*
X447698Y369079D01*
X447786Y369070D01*
X447874Y369064D01*
X447963Y369062D01*
X453184Y369062D01*
X453275Y369064D01*
X453366Y369070D01*
X453457Y369080D01*
X453547Y369094D01*
X453636Y369111D01*
X453724Y369133D01*
X453812Y369159D01*
X453898Y369188D01*
X453983Y369221D01*
X454066Y369258D01*
X454148Y369298D01*
X454228Y369342D01*
X454306Y369389D01*
X454382Y369440D01*
X454455Y369493D01*
X454526Y369550D01*
X454595Y369611D01*
X454660Y369674D01*
X454723Y369739D01*
X454783Y369808D01*
X454841Y369879D01*
X454894Y369952D01*
X454945Y370028D01*
X454992Y370106D01*
X455036Y370186D01*
X455076Y370268D01*
X455113Y370351D01*
X455146Y370436D01*
X455175Y370522D01*
X455201Y370610D01*
X455223Y370698D01*
X455240Y370787D01*
X455254Y370877D01*
X455264Y370968D01*
X455270Y371059D01*
X455272Y371150D01*
X455273Y371150D02*
X455273Y373239D01*
X448485Y376707D02*
X448586Y376709D01*
X448687Y376715D01*
X448788Y376725D01*
X448888Y376738D01*
X448988Y376756D01*
X449087Y376777D01*
X449185Y376803D01*
X449282Y376832D01*
X449378Y376864D01*
X449472Y376901D01*
X449565Y376941D01*
X449657Y376985D01*
X449746Y377032D01*
X449834Y377083D01*
X449920Y377137D01*
X450003Y377194D01*
X450085Y377254D01*
X450163Y377318D01*
X450240Y377384D01*
X450313Y377454D01*
X450384Y377526D01*
X450452Y377601D01*
X450517Y377679D01*
X450579Y377759D01*
X450638Y377841D01*
X450694Y377926D01*
X450746Y378013D01*
X450795Y378101D01*
X450841Y378192D01*
X450882Y378284D01*
X450921Y378378D01*
X450955Y378473D01*
X450986Y378569D01*
X451013Y378667D01*
X451037Y378765D01*
X451056Y378865D01*
X451072Y378965D01*
X451084Y379065D01*
X451092Y379166D01*
X451096Y379267D01*
X451096Y379369D01*
X451092Y379470D01*
X451084Y379571D01*
X451072Y379671D01*
X451056Y379771D01*
X451037Y379871D01*
X451013Y379969D01*
X450986Y380067D01*
X450955Y380163D01*
X450921Y380258D01*
X450882Y380352D01*
X450841Y380444D01*
X450795Y380535D01*
X450746Y380623D01*
X450694Y380710D01*
X450638Y380795D01*
X450579Y380877D01*
X450517Y380957D01*
X450452Y381035D01*
X450384Y381110D01*
X450313Y381182D01*
X450240Y381252D01*
X450163Y381318D01*
X450085Y381382D01*
X450003Y381442D01*
X449920Y381499D01*
X449834Y381553D01*
X449746Y381604D01*
X449657Y381651D01*
X449565Y381695D01*
X449472Y381735D01*
X449378Y381772D01*
X449282Y381804D01*
X449185Y381833D01*
X449087Y381859D01*
X448988Y381880D01*
X448888Y381898D01*
X448788Y381911D01*
X448687Y381921D01*
X448586Y381927D01*
X448485Y381929D01*
X448384Y381927D01*
X448283Y381921D01*
X448182Y381911D01*
X448082Y381898D01*
X447982Y381880D01*
X447883Y381859D01*
X447785Y381833D01*
X447688Y381804D01*
X447592Y381772D01*
X447498Y381735D01*
X447405Y381695D01*
X447313Y381651D01*
X447224Y381604D01*
X447136Y381553D01*
X447050Y381499D01*
X446967Y381442D01*
X446885Y381382D01*
X446807Y381318D01*
X446730Y381252D01*
X446657Y381182D01*
X446586Y381110D01*
X446518Y381035D01*
X446453Y380957D01*
X446391Y380877D01*
X446332Y380795D01*
X446276Y380710D01*
X446224Y380624D01*
X446175Y380535D01*
X446129Y380444D01*
X446088Y380352D01*
X446049Y380258D01*
X446015Y380163D01*
X445984Y380067D01*
X445957Y379969D01*
X445933Y379871D01*
X445914Y379771D01*
X445898Y379671D01*
X445886Y379571D01*
X445878Y379470D01*
X445874Y379369D01*
X445874Y379267D01*
X445878Y379166D01*
X445886Y379065D01*
X445898Y378965D01*
X445914Y378865D01*
X445933Y378765D01*
X445957Y378667D01*
X445984Y378569D01*
X446015Y378473D01*
X446049Y378378D01*
X446088Y378284D01*
X446129Y378192D01*
X446175Y378101D01*
X446224Y378013D01*
X446276Y377926D01*
X446332Y377841D01*
X446391Y377759D01*
X446453Y377679D01*
X446518Y377601D01*
X446586Y377526D01*
X446657Y377454D01*
X446730Y377384D01*
X446807Y377318D01*
X446885Y377254D01*
X446967Y377194D01*
X447050Y377137D01*
X447136Y377083D01*
X447224Y377032D01*
X447313Y376985D01*
X447405Y376941D01*
X447498Y376901D01*
X447592Y376864D01*
X447688Y376832D01*
X447785Y376803D01*
X447883Y376777D01*
X447982Y376756D01*
X448082Y376738D01*
X448182Y376725D01*
X448283Y376715D01*
X448384Y376709D01*
X448485Y376707D01*
X453184Y377230D02*
X453274Y377232D01*
X453363Y377238D01*
X453453Y377247D01*
X453542Y377261D01*
X453630Y377278D01*
X453717Y377299D01*
X453804Y377324D01*
X453889Y377353D01*
X453973Y377385D01*
X454055Y377420D01*
X454136Y377460D01*
X454215Y377502D01*
X454292Y377548D01*
X454367Y377598D01*
X454440Y377650D01*
X454511Y377706D01*
X454579Y377764D01*
X454644Y377826D01*
X454707Y377890D01*
X454767Y377957D01*
X454824Y378026D01*
X454878Y378098D01*
X454929Y378172D01*
X454977Y378248D01*
X455021Y378326D01*
X455062Y378406D01*
X455100Y378488D01*
X455134Y378571D01*
X455164Y378656D01*
X455191Y378742D01*
X455214Y378828D01*
X455233Y378916D01*
X455248Y379005D01*
X455260Y379094D01*
X455268Y379183D01*
X455272Y379273D01*
X455272Y379363D01*
X455268Y379453D01*
X455260Y379542D01*
X455248Y379631D01*
X455233Y379720D01*
X455214Y379808D01*
X455191Y379894D01*
X455164Y379980D01*
X455134Y380065D01*
X455100Y380148D01*
X455062Y380230D01*
X455021Y380310D01*
X454977Y380388D01*
X454929Y380464D01*
X454878Y380538D01*
X454824Y380610D01*
X454767Y380679D01*
X454707Y380746D01*
X454644Y380810D01*
X454579Y380872D01*
X454511Y380930D01*
X454440Y380986D01*
X454367Y381038D01*
X454292Y381088D01*
X454215Y381134D01*
X454136Y381176D01*
X454055Y381216D01*
X453973Y381251D01*
X453889Y381283D01*
X453804Y381312D01*
X453717Y381337D01*
X453630Y381358D01*
X453542Y381375D01*
X453453Y381389D01*
X453363Y381398D01*
X453274Y381404D01*
X453184Y381406D01*
X453094Y381404D01*
X453005Y381398D01*
X452915Y381389D01*
X452826Y381375D01*
X452738Y381358D01*
X452651Y381337D01*
X452564Y381312D01*
X452479Y381283D01*
X452395Y381251D01*
X452313Y381216D01*
X452232Y381176D01*
X452153Y381134D01*
X452076Y381088D01*
X452001Y381038D01*
X451928Y380986D01*
X451857Y380930D01*
X451789Y380872D01*
X451724Y380810D01*
X451661Y380746D01*
X451601Y380679D01*
X451544Y380610D01*
X451490Y380538D01*
X451439Y380464D01*
X451391Y380388D01*
X451347Y380310D01*
X451306Y380230D01*
X451268Y380148D01*
X451234Y380065D01*
X451204Y379980D01*
X451177Y379894D01*
X451154Y379808D01*
X451135Y379720D01*
X451120Y379631D01*
X451108Y379542D01*
X451100Y379453D01*
X451096Y379363D01*
X451096Y379273D01*
X451100Y379183D01*
X451108Y379094D01*
X451120Y379005D01*
X451135Y378916D01*
X451154Y378828D01*
X451177Y378742D01*
X451204Y378656D01*
X451234Y378571D01*
X451268Y378488D01*
X451306Y378406D01*
X451347Y378326D01*
X451391Y378248D01*
X451439Y378172D01*
X451490Y378098D01*
X451544Y378026D01*
X451601Y377957D01*
X451661Y377890D01*
X451724Y377826D01*
X451789Y377764D01*
X451857Y377706D01*
X451928Y377650D01*
X452001Y377598D01*
X452076Y377548D01*
X452153Y377502D01*
X452232Y377460D01*
X452313Y377420D01*
X452395Y377385D01*
X452479Y377353D01*
X452564Y377324D01*
X452651Y377299D01*
X452738Y377278D01*
X452826Y377261D01*
X452915Y377247D01*
X453005Y377238D01*
X453094Y377232D01*
X453184Y377230D01*
D10*
X443290Y301499D02*
X423161Y301499D01*
D12*
X444545Y303011D02*
X444545Y305099D01*
X444545Y303011D02*
X444547Y302922D01*
X444553Y302834D01*
X444562Y302746D01*
X444575Y302658D01*
X444592Y302571D01*
X444612Y302485D01*
X444637Y302400D01*
X444664Y302315D01*
X444696Y302232D01*
X444730Y302151D01*
X444769Y302071D01*
X444810Y301993D01*
X444855Y301916D01*
X444903Y301842D01*
X444954Y301769D01*
X445008Y301699D01*
X445066Y301632D01*
X445126Y301566D01*
X445188Y301504D01*
X445254Y301444D01*
X445321Y301386D01*
X445391Y301332D01*
X445464Y301281D01*
X445538Y301233D01*
X445615Y301188D01*
X445693Y301147D01*
X445773Y301108D01*
X445854Y301074D01*
X445937Y301042D01*
X446022Y301015D01*
X446107Y300990D01*
X446193Y300970D01*
X446280Y300953D01*
X446368Y300940D01*
X446456Y300931D01*
X446544Y300925D01*
X446633Y300923D01*
X446633Y300922D02*
X451855Y300922D01*
X451855Y300923D02*
X451946Y300925D01*
X452037Y300931D01*
X452128Y300941D01*
X452218Y300955D01*
X452307Y300972D01*
X452395Y300994D01*
X452483Y301020D01*
X452569Y301049D01*
X452654Y301082D01*
X452737Y301119D01*
X452819Y301159D01*
X452899Y301203D01*
X452977Y301250D01*
X453053Y301301D01*
X453126Y301354D01*
X453197Y301411D01*
X453266Y301472D01*
X453331Y301535D01*
X453394Y301600D01*
X453454Y301669D01*
X453512Y301740D01*
X453565Y301813D01*
X453616Y301889D01*
X453663Y301967D01*
X453707Y302047D01*
X453747Y302129D01*
X453784Y302212D01*
X453817Y302297D01*
X453846Y302383D01*
X453872Y302471D01*
X453894Y302559D01*
X453911Y302648D01*
X453925Y302738D01*
X453935Y302829D01*
X453941Y302920D01*
X453943Y303011D01*
X453943Y305099D01*
X453944Y311440D02*
X453942Y311535D01*
X453936Y311629D01*
X453927Y311723D01*
X453914Y311817D01*
X453897Y311910D01*
X453876Y312002D01*
X453851Y312094D01*
X453823Y312184D01*
X453791Y312273D01*
X453756Y312361D01*
X453717Y312447D01*
X453675Y312532D01*
X453629Y312615D01*
X453580Y312696D01*
X453528Y312775D01*
X453473Y312852D01*
X453414Y312926D01*
X453353Y312998D01*
X453289Y313068D01*
X453222Y313135D01*
X453152Y313199D01*
X453080Y313260D01*
X453006Y313319D01*
X452929Y313374D01*
X452850Y313426D01*
X452769Y313475D01*
X452686Y313521D01*
X452601Y313563D01*
X452515Y313602D01*
X452427Y313637D01*
X452338Y313669D01*
X452248Y313697D01*
X452156Y313722D01*
X452064Y313743D01*
X451971Y313760D01*
X451877Y313773D01*
X451783Y313782D01*
X451689Y313788D01*
X451594Y313790D01*
X453943Y311440D02*
X453941Y311332D01*
X453935Y311223D01*
X453925Y311115D01*
X453912Y311008D01*
X453894Y310901D01*
X453873Y310794D01*
X453848Y310689D01*
X453819Y310584D01*
X453787Y310481D01*
X453750Y310379D01*
X453710Y310278D01*
X453667Y310179D01*
X453620Y310081D01*
X453569Y309985D01*
X453515Y309891D01*
X453458Y309799D01*
X453397Y309709D01*
X453333Y309621D01*
X453267Y309536D01*
X453197Y309453D01*
X453124Y309373D01*
X453048Y309295D01*
X452970Y309220D01*
X452889Y309148D01*
X452805Y309079D01*
X452719Y309013D01*
X452631Y308950D01*
X452540Y308891D01*
X452448Y308834D01*
X452353Y308781D01*
X452257Y308732D01*
X452158Y308686D01*
X452059Y308643D01*
X451957Y308604D01*
X451855Y308569D01*
X449766Y313007D02*
X449835Y313076D01*
X449906Y313142D01*
X449979Y313206D01*
X450055Y313267D01*
X450134Y313325D01*
X450214Y313379D01*
X450297Y313431D01*
X450381Y313479D01*
X450467Y313525D01*
X450555Y313566D01*
X450645Y313605D01*
X450736Y313640D01*
X450828Y313671D01*
X450921Y313699D01*
X451015Y313723D01*
X451110Y313743D01*
X451206Y313760D01*
X451303Y313773D01*
X451400Y313782D01*
X451497Y313788D01*
X451594Y313790D01*
X449766Y313006D02*
X444545Y308568D01*
X444545Y313789D01*
D13*
X381202Y376202D02*
X376202Y381202D01*
X311202Y311212D02*
X311202Y311202D01*
X311242Y381212D02*
X311242Y381222D01*
X315942Y381222D01*
X315902Y311212D02*
X311202Y311212D01*
X311242Y376522D02*
X311242Y381212D01*
X311192Y315902D02*
X311192Y311202D01*
X376522Y311202D02*
X381222Y311202D01*
X381222Y311192D02*
X381222Y315892D01*
X385972Y373852D02*
X385974Y373941D01*
X385980Y374030D01*
X385990Y374119D01*
X386004Y374207D01*
X386021Y374294D01*
X386043Y374380D01*
X386069Y374466D01*
X386098Y374550D01*
X386131Y374633D01*
X386167Y374714D01*
X386208Y374794D01*
X386251Y374871D01*
X386298Y374947D01*
X386349Y375020D01*
X386402Y375091D01*
X386459Y375160D01*
X386519Y375226D01*
X386582Y375290D01*
X386647Y375350D01*
X386715Y375408D01*
X386786Y375462D01*
X386859Y375513D01*
X386934Y375561D01*
X387011Y375606D01*
X387090Y375647D01*
X387171Y375684D01*
X387253Y375718D01*
X387337Y375749D01*
X387422Y375775D01*
X387508Y375798D01*
X387595Y375816D01*
X387683Y375831D01*
X387772Y375842D01*
X387861Y375849D01*
X387950Y375852D01*
X388039Y375851D01*
X388128Y375846D01*
X388216Y375837D01*
X388305Y375824D01*
X388392Y375807D01*
X388479Y375787D01*
X388565Y375762D01*
X388649Y375734D01*
X388732Y375702D01*
X388814Y375666D01*
X388894Y375627D01*
X388972Y375584D01*
X389048Y375538D01*
X389122Y375488D01*
X389194Y375435D01*
X389263Y375379D01*
X389330Y375320D01*
X389394Y375258D01*
X389455Y375194D01*
X389514Y375126D01*
X389569Y375056D01*
X389621Y374984D01*
X389670Y374909D01*
X389715Y374833D01*
X389757Y374754D01*
X389795Y374674D01*
X389830Y374592D01*
X389861Y374508D01*
X389889Y374423D01*
X389912Y374337D01*
X389932Y374250D01*
X389948Y374163D01*
X389960Y374074D01*
X389968Y373986D01*
X389972Y373897D01*
X389972Y373807D01*
X389968Y373718D01*
X389960Y373630D01*
X389948Y373541D01*
X389932Y373454D01*
X389912Y373367D01*
X389889Y373281D01*
X389861Y373196D01*
X389830Y373112D01*
X389795Y373030D01*
X389757Y372950D01*
X389715Y372871D01*
X389670Y372795D01*
X389621Y372720D01*
X389569Y372648D01*
X389514Y372578D01*
X389455Y372510D01*
X389394Y372446D01*
X389330Y372384D01*
X389263Y372325D01*
X389194Y372269D01*
X389122Y372216D01*
X389048Y372166D01*
X388972Y372120D01*
X388894Y372077D01*
X388814Y372038D01*
X388732Y372002D01*
X388649Y371970D01*
X388565Y371942D01*
X388479Y371917D01*
X388392Y371897D01*
X388305Y371880D01*
X388216Y371867D01*
X388128Y371858D01*
X388039Y371853D01*
X387950Y371852D01*
X387861Y371855D01*
X387772Y371862D01*
X387683Y371873D01*
X387595Y371888D01*
X387508Y371906D01*
X387422Y371929D01*
X387337Y371955D01*
X387253Y371986D01*
X387171Y372020D01*
X387090Y372057D01*
X387011Y372098D01*
X386934Y372143D01*
X386859Y372191D01*
X386786Y372242D01*
X386715Y372296D01*
X386647Y372354D01*
X386582Y372414D01*
X386519Y372478D01*
X386459Y372544D01*
X386402Y372613D01*
X386349Y372684D01*
X386298Y372757D01*
X386251Y372833D01*
X386208Y372910D01*
X386167Y372990D01*
X386131Y373071D01*
X386098Y373154D01*
X386069Y373238D01*
X386043Y373324D01*
X386021Y373410D01*
X386004Y373497D01*
X385990Y373585D01*
X385980Y373674D01*
X385974Y373763D01*
X385972Y373852D01*
D12*
X326467Y390024D02*
X326467Y396811D01*
X326467Y390024D02*
X326465Y389923D01*
X326459Y389822D01*
X326449Y389721D01*
X326436Y389621D01*
X326418Y389521D01*
X326397Y389422D01*
X326371Y389324D01*
X326342Y389227D01*
X326310Y389131D01*
X326273Y389037D01*
X326233Y388944D01*
X326189Y388852D01*
X326142Y388763D01*
X326091Y388675D01*
X326037Y388589D01*
X325980Y388506D01*
X325920Y388424D01*
X325856Y388346D01*
X325790Y388269D01*
X325720Y388196D01*
X325648Y388125D01*
X325573Y388057D01*
X325495Y387992D01*
X325415Y387930D01*
X325333Y387871D01*
X325248Y387815D01*
X325161Y387763D01*
X325073Y387714D01*
X324982Y387668D01*
X324890Y387627D01*
X324796Y387588D01*
X324701Y387554D01*
X324605Y387523D01*
X324507Y387496D01*
X324409Y387472D01*
X324309Y387453D01*
X324209Y387437D01*
X324109Y387425D01*
X324008Y387417D01*
X323907Y387413D01*
X323805Y387413D01*
X323704Y387417D01*
X323603Y387425D01*
X323503Y387437D01*
X323403Y387453D01*
X323303Y387472D01*
X323205Y387496D01*
X323107Y387523D01*
X323011Y387554D01*
X322916Y387588D01*
X322822Y387627D01*
X322730Y387668D01*
X322639Y387714D01*
X322551Y387763D01*
X322464Y387815D01*
X322379Y387871D01*
X322297Y387930D01*
X322217Y387992D01*
X322139Y388057D01*
X322064Y388125D01*
X321992Y388196D01*
X321922Y388269D01*
X321856Y388346D01*
X321792Y388424D01*
X321732Y388506D01*
X321675Y388589D01*
X321621Y388675D01*
X321570Y388763D01*
X321523Y388852D01*
X321479Y388944D01*
X321439Y389037D01*
X321402Y389131D01*
X321370Y389227D01*
X321341Y389324D01*
X321315Y389422D01*
X321294Y389521D01*
X321276Y389621D01*
X321263Y389721D01*
X321253Y389822D01*
X321247Y389923D01*
X321245Y390024D01*
X321246Y390024D02*
X321246Y396811D01*
X317018Y394723D02*
X314408Y396811D01*
X314408Y387413D01*
X317018Y387413D02*
X311797Y387413D01*
D14*
X394175Y375140D02*
X394175Y339580D01*
X414495Y339580D01*
X414495Y375140D01*
X394175Y375140D01*
D12*
X417812Y341386D02*
X427210Y347651D01*
X427210Y341386D02*
X417812Y347651D01*
X425122Y351052D02*
X427210Y353662D01*
X417812Y353662D01*
X417812Y351052D02*
X417812Y356273D01*
X340711Y402821D02*
X331313Y402821D01*
X340711Y402821D02*
X340711Y405432D01*
X340709Y405533D01*
X340703Y405634D01*
X340693Y405735D01*
X340680Y405835D01*
X340662Y405935D01*
X340641Y406034D01*
X340615Y406132D01*
X340586Y406229D01*
X340554Y406325D01*
X340517Y406419D01*
X340477Y406512D01*
X340433Y406604D01*
X340386Y406693D01*
X340335Y406781D01*
X340281Y406867D01*
X340224Y406950D01*
X340164Y407032D01*
X340100Y407110D01*
X340034Y407187D01*
X339964Y407260D01*
X339892Y407331D01*
X339817Y407399D01*
X339739Y407464D01*
X339659Y407526D01*
X339577Y407585D01*
X339492Y407641D01*
X339406Y407693D01*
X339317Y407742D01*
X339226Y407788D01*
X339134Y407829D01*
X339040Y407868D01*
X338945Y407902D01*
X338849Y407933D01*
X338751Y407960D01*
X338653Y407984D01*
X338553Y408003D01*
X338453Y408019D01*
X338353Y408031D01*
X338252Y408039D01*
X338151Y408043D01*
X338049Y408043D01*
X337948Y408039D01*
X337847Y408031D01*
X337747Y408019D01*
X337647Y408003D01*
X337547Y407984D01*
X337449Y407960D01*
X337351Y407933D01*
X337255Y407902D01*
X337160Y407868D01*
X337066Y407829D01*
X336974Y407788D01*
X336883Y407742D01*
X336795Y407693D01*
X336708Y407641D01*
X336623Y407585D01*
X336541Y407526D01*
X336461Y407464D01*
X336383Y407399D01*
X336308Y407331D01*
X336236Y407260D01*
X336166Y407187D01*
X336100Y407110D01*
X336036Y407032D01*
X335976Y406950D01*
X335919Y406867D01*
X335865Y406781D01*
X335814Y406693D01*
X335767Y406604D01*
X335723Y406512D01*
X335683Y406419D01*
X335646Y406325D01*
X335614Y406229D01*
X335585Y406132D01*
X335559Y406034D01*
X335538Y405935D01*
X335520Y405835D01*
X335507Y405735D01*
X335497Y405634D01*
X335491Y405533D01*
X335489Y405432D01*
X335489Y402821D01*
X335489Y405954D02*
X331313Y408042D01*
X331313Y411908D02*
X331313Y414518D01*
X331312Y414518D02*
X331314Y414619D01*
X331320Y414720D01*
X331330Y414821D01*
X331343Y414921D01*
X331361Y415021D01*
X331382Y415120D01*
X331408Y415218D01*
X331437Y415315D01*
X331469Y415411D01*
X331506Y415505D01*
X331546Y415598D01*
X331590Y415690D01*
X331637Y415779D01*
X331688Y415867D01*
X331742Y415953D01*
X331799Y416036D01*
X331859Y416118D01*
X331923Y416196D01*
X331989Y416273D01*
X332059Y416346D01*
X332131Y416417D01*
X332206Y416485D01*
X332284Y416550D01*
X332364Y416612D01*
X332446Y416671D01*
X332531Y416727D01*
X332618Y416779D01*
X332706Y416828D01*
X332797Y416874D01*
X332889Y416915D01*
X332983Y416954D01*
X333078Y416988D01*
X333174Y417019D01*
X333272Y417046D01*
X333370Y417070D01*
X333470Y417089D01*
X333570Y417105D01*
X333670Y417117D01*
X333771Y417125D01*
X333872Y417129D01*
X333974Y417129D01*
X334075Y417125D01*
X334176Y417117D01*
X334276Y417105D01*
X334376Y417089D01*
X334476Y417070D01*
X334574Y417046D01*
X334672Y417019D01*
X334768Y416988D01*
X334863Y416954D01*
X334957Y416915D01*
X335049Y416874D01*
X335140Y416828D01*
X335229Y416779D01*
X335315Y416727D01*
X335400Y416671D01*
X335482Y416612D01*
X335562Y416550D01*
X335640Y416485D01*
X335715Y416417D01*
X335787Y416346D01*
X335857Y416273D01*
X335923Y416196D01*
X335987Y416118D01*
X336047Y416036D01*
X336104Y415953D01*
X336158Y415867D01*
X336209Y415779D01*
X336256Y415690D01*
X336300Y415598D01*
X336340Y415505D01*
X336377Y415411D01*
X336409Y415315D01*
X336438Y415218D01*
X336464Y415120D01*
X336485Y415021D01*
X336503Y414921D01*
X336516Y414821D01*
X336526Y414720D01*
X336532Y414619D01*
X336534Y414518D01*
X340711Y415041D02*
X340711Y411908D01*
X340710Y415041D02*
X340708Y415131D01*
X340702Y415220D01*
X340693Y415310D01*
X340679Y415399D01*
X340662Y415487D01*
X340641Y415574D01*
X340616Y415661D01*
X340587Y415746D01*
X340555Y415830D01*
X340520Y415912D01*
X340480Y415993D01*
X340438Y416072D01*
X340392Y416149D01*
X340342Y416224D01*
X340290Y416297D01*
X340234Y416368D01*
X340176Y416436D01*
X340114Y416501D01*
X340050Y416564D01*
X339983Y416624D01*
X339914Y416681D01*
X339842Y416735D01*
X339768Y416786D01*
X339692Y416834D01*
X339614Y416878D01*
X339534Y416919D01*
X339452Y416957D01*
X339369Y416991D01*
X339284Y417021D01*
X339198Y417048D01*
X339112Y417071D01*
X339024Y417090D01*
X338935Y417105D01*
X338846Y417117D01*
X338757Y417125D01*
X338667Y417129D01*
X338577Y417129D01*
X338487Y417125D01*
X338398Y417117D01*
X338309Y417105D01*
X338220Y417090D01*
X338132Y417071D01*
X338046Y417048D01*
X337960Y417021D01*
X337875Y416991D01*
X337792Y416957D01*
X337710Y416919D01*
X337630Y416878D01*
X337552Y416834D01*
X337476Y416786D01*
X337402Y416735D01*
X337330Y416681D01*
X337261Y416624D01*
X337194Y416564D01*
X337130Y416501D01*
X337068Y416436D01*
X337010Y416368D01*
X336954Y416297D01*
X336902Y416224D01*
X336852Y416149D01*
X336806Y416072D01*
X336764Y415993D01*
X336724Y415912D01*
X336689Y415830D01*
X336657Y415746D01*
X336628Y415661D01*
X336603Y415574D01*
X336582Y415487D01*
X336565Y415399D01*
X336551Y415310D01*
X336542Y415220D01*
X336536Y415131D01*
X336534Y415041D01*
X336534Y412952D01*
D10*
X302974Y340599D02*
X302974Y320469D01*
D12*
X251643Y329450D02*
X251643Y331538D01*
X251643Y329450D02*
X251645Y329361D01*
X251651Y329273D01*
X251660Y329185D01*
X251673Y329097D01*
X251690Y329010D01*
X251710Y328924D01*
X251735Y328839D01*
X251762Y328754D01*
X251794Y328671D01*
X251828Y328590D01*
X251867Y328510D01*
X251908Y328432D01*
X251953Y328355D01*
X252001Y328281D01*
X252052Y328208D01*
X252106Y328138D01*
X252164Y328071D01*
X252224Y328005D01*
X252286Y327943D01*
X252352Y327883D01*
X252419Y327825D01*
X252489Y327771D01*
X252562Y327720D01*
X252636Y327672D01*
X252713Y327627D01*
X252791Y327586D01*
X252871Y327547D01*
X252952Y327513D01*
X253035Y327481D01*
X253120Y327454D01*
X253205Y327429D01*
X253291Y327409D01*
X253378Y327392D01*
X253466Y327379D01*
X253554Y327370D01*
X253642Y327364D01*
X253731Y327362D01*
X253731Y327361D02*
X258952Y327361D01*
X258952Y327362D02*
X259043Y327364D01*
X259134Y327370D01*
X259225Y327380D01*
X259315Y327394D01*
X259404Y327411D01*
X259492Y327433D01*
X259580Y327459D01*
X259666Y327488D01*
X259751Y327521D01*
X259834Y327558D01*
X259916Y327598D01*
X259996Y327642D01*
X260074Y327689D01*
X260150Y327740D01*
X260223Y327793D01*
X260294Y327850D01*
X260363Y327911D01*
X260428Y327974D01*
X260491Y328039D01*
X260551Y328108D01*
X260609Y328179D01*
X260662Y328252D01*
X260713Y328328D01*
X260760Y328406D01*
X260804Y328486D01*
X260844Y328568D01*
X260881Y328651D01*
X260914Y328736D01*
X260943Y328822D01*
X260969Y328910D01*
X260991Y328998D01*
X261008Y329087D01*
X261022Y329177D01*
X261032Y329268D01*
X261038Y329359D01*
X261040Y329450D01*
X261041Y329450D02*
X261041Y331538D01*
X261041Y337095D02*
X253731Y335007D01*
X253731Y340228D01*
X255820Y338662D02*
X251643Y338662D01*
D10*
X263700Y378234D02*
X283830Y378234D01*
D12*
X275788Y366204D02*
X273699Y366204D01*
X275788Y366205D02*
X275877Y366207D01*
X275965Y366213D01*
X276053Y366222D01*
X276141Y366235D01*
X276228Y366252D01*
X276314Y366272D01*
X276399Y366297D01*
X276484Y366324D01*
X276567Y366356D01*
X276648Y366390D01*
X276728Y366429D01*
X276806Y366470D01*
X276883Y366515D01*
X276957Y366563D01*
X277030Y366614D01*
X277100Y366668D01*
X277167Y366726D01*
X277233Y366786D01*
X277295Y366848D01*
X277355Y366914D01*
X277413Y366981D01*
X277467Y367051D01*
X277518Y367124D01*
X277566Y367198D01*
X277611Y367275D01*
X277652Y367353D01*
X277691Y367433D01*
X277725Y367514D01*
X277757Y367597D01*
X277784Y367682D01*
X277809Y367767D01*
X277829Y367853D01*
X277846Y367940D01*
X277859Y368028D01*
X277868Y368116D01*
X277874Y368204D01*
X277876Y368293D01*
X277876Y373514D01*
X277874Y373603D01*
X277868Y373691D01*
X277859Y373779D01*
X277846Y373867D01*
X277829Y373954D01*
X277809Y374040D01*
X277784Y374125D01*
X277757Y374210D01*
X277725Y374293D01*
X277691Y374374D01*
X277652Y374454D01*
X277611Y374532D01*
X277566Y374609D01*
X277518Y374683D01*
X277467Y374756D01*
X277413Y374826D01*
X277355Y374893D01*
X277295Y374959D01*
X277233Y375021D01*
X277167Y375081D01*
X277100Y375139D01*
X277030Y375193D01*
X276957Y375244D01*
X276883Y375292D01*
X276806Y375337D01*
X276728Y375378D01*
X276648Y375417D01*
X276567Y375451D01*
X276484Y375483D01*
X276399Y375510D01*
X276314Y375535D01*
X276228Y375555D01*
X276141Y375572D01*
X276053Y375585D01*
X275965Y375594D01*
X275877Y375600D01*
X275788Y375602D01*
X273699Y375602D01*
X270231Y375602D02*
X270231Y374558D01*
X270231Y375602D02*
X265010Y375602D01*
X267620Y366204D01*
X391579Y316337D02*
X391579Y314248D01*
X391580Y314248D02*
X391582Y314159D01*
X391588Y314071D01*
X391597Y313983D01*
X391610Y313895D01*
X391627Y313808D01*
X391647Y313722D01*
X391672Y313637D01*
X391699Y313552D01*
X391731Y313469D01*
X391765Y313388D01*
X391804Y313308D01*
X391845Y313230D01*
X391890Y313153D01*
X391938Y313079D01*
X391989Y313006D01*
X392043Y312936D01*
X392101Y312869D01*
X392161Y312803D01*
X392223Y312741D01*
X392289Y312681D01*
X392356Y312623D01*
X392426Y312569D01*
X392499Y312518D01*
X392573Y312470D01*
X392650Y312425D01*
X392728Y312384D01*
X392808Y312345D01*
X392889Y312311D01*
X392972Y312279D01*
X393057Y312252D01*
X393142Y312227D01*
X393228Y312207D01*
X393315Y312190D01*
X393403Y312177D01*
X393491Y312168D01*
X393579Y312162D01*
X393668Y312160D01*
X398889Y312160D01*
X398980Y312162D01*
X399071Y312168D01*
X399162Y312178D01*
X399252Y312192D01*
X399341Y312209D01*
X399429Y312231D01*
X399517Y312257D01*
X399603Y312286D01*
X399688Y312319D01*
X399771Y312356D01*
X399853Y312396D01*
X399933Y312440D01*
X400011Y312487D01*
X400087Y312538D01*
X400160Y312591D01*
X400231Y312648D01*
X400300Y312709D01*
X400365Y312772D01*
X400428Y312837D01*
X400488Y312906D01*
X400546Y312977D01*
X400599Y313050D01*
X400650Y313126D01*
X400697Y313204D01*
X400741Y313284D01*
X400781Y313366D01*
X400818Y313449D01*
X400851Y313534D01*
X400880Y313620D01*
X400906Y313708D01*
X400928Y313796D01*
X400945Y313885D01*
X400959Y313975D01*
X400969Y314066D01*
X400975Y314157D01*
X400977Y314248D01*
X400977Y316337D01*
X398889Y319805D02*
X400977Y322416D01*
X391579Y322416D01*
X391579Y319805D02*
X391579Y325027D01*
X383410Y419923D02*
X381321Y419923D01*
X383410Y419923D02*
X383499Y419925D01*
X383587Y419931D01*
X383675Y419940D01*
X383763Y419953D01*
X383850Y419970D01*
X383936Y419990D01*
X384021Y420015D01*
X384106Y420042D01*
X384189Y420074D01*
X384270Y420108D01*
X384350Y420147D01*
X384428Y420188D01*
X384505Y420233D01*
X384579Y420281D01*
X384652Y420332D01*
X384722Y420386D01*
X384789Y420444D01*
X384855Y420504D01*
X384917Y420566D01*
X384977Y420632D01*
X385035Y420699D01*
X385089Y420769D01*
X385140Y420842D01*
X385188Y420916D01*
X385233Y420993D01*
X385274Y421071D01*
X385313Y421151D01*
X385347Y421232D01*
X385379Y421315D01*
X385406Y421400D01*
X385431Y421485D01*
X385451Y421571D01*
X385468Y421658D01*
X385481Y421746D01*
X385490Y421834D01*
X385496Y421922D01*
X385498Y422011D01*
X385498Y427233D01*
X385496Y427322D01*
X385490Y427410D01*
X385481Y427498D01*
X385468Y427586D01*
X385451Y427673D01*
X385431Y427759D01*
X385406Y427844D01*
X385379Y427929D01*
X385347Y428012D01*
X385313Y428093D01*
X385274Y428173D01*
X385233Y428251D01*
X385188Y428328D01*
X385140Y428402D01*
X385089Y428475D01*
X385035Y428545D01*
X384977Y428612D01*
X384917Y428678D01*
X384855Y428740D01*
X384789Y428800D01*
X384722Y428858D01*
X384652Y428912D01*
X384579Y428963D01*
X384505Y429011D01*
X384428Y429056D01*
X384350Y429097D01*
X384270Y429136D01*
X384189Y429170D01*
X384106Y429202D01*
X384021Y429229D01*
X383936Y429254D01*
X383850Y429274D01*
X383763Y429291D01*
X383675Y429304D01*
X383587Y429313D01*
X383499Y429319D01*
X383410Y429321D01*
X381321Y429321D01*
X377853Y419923D02*
X375242Y419923D01*
X375141Y419925D01*
X375040Y419931D01*
X374939Y419941D01*
X374839Y419954D01*
X374739Y419972D01*
X374640Y419993D01*
X374542Y420019D01*
X374445Y420048D01*
X374349Y420080D01*
X374255Y420117D01*
X374162Y420157D01*
X374070Y420201D01*
X373981Y420248D01*
X373893Y420299D01*
X373807Y420353D01*
X373724Y420410D01*
X373642Y420470D01*
X373564Y420534D01*
X373487Y420600D01*
X373414Y420670D01*
X373343Y420742D01*
X373275Y420817D01*
X373210Y420895D01*
X373148Y420975D01*
X373089Y421057D01*
X373033Y421142D01*
X372981Y421229D01*
X372932Y421317D01*
X372886Y421408D01*
X372845Y421500D01*
X372806Y421594D01*
X372772Y421689D01*
X372741Y421785D01*
X372714Y421883D01*
X372690Y421981D01*
X372671Y422081D01*
X372655Y422181D01*
X372643Y422281D01*
X372635Y422382D01*
X372631Y422483D01*
X372631Y422585D01*
X372635Y422686D01*
X372643Y422787D01*
X372655Y422887D01*
X372671Y422987D01*
X372690Y423087D01*
X372714Y423185D01*
X372741Y423283D01*
X372772Y423379D01*
X372806Y423474D01*
X372845Y423568D01*
X372886Y423660D01*
X372932Y423751D01*
X372981Y423840D01*
X373033Y423926D01*
X373089Y424011D01*
X373148Y424093D01*
X373210Y424173D01*
X373275Y424251D01*
X373343Y424326D01*
X373414Y424398D01*
X373487Y424468D01*
X373564Y424534D01*
X373642Y424598D01*
X373724Y424658D01*
X373807Y424715D01*
X373893Y424769D01*
X373981Y424820D01*
X374070Y424867D01*
X374162Y424911D01*
X374255Y424951D01*
X374349Y424988D01*
X374445Y425020D01*
X374542Y425049D01*
X374640Y425075D01*
X374739Y425096D01*
X374839Y425114D01*
X374939Y425127D01*
X375040Y425137D01*
X375141Y425143D01*
X375242Y425145D01*
X374720Y429321D02*
X377853Y429321D01*
X374720Y429321D02*
X374630Y429319D01*
X374541Y429313D01*
X374451Y429304D01*
X374362Y429290D01*
X374274Y429273D01*
X374187Y429252D01*
X374100Y429227D01*
X374015Y429198D01*
X373931Y429166D01*
X373849Y429131D01*
X373768Y429091D01*
X373689Y429049D01*
X373612Y429003D01*
X373537Y428953D01*
X373464Y428901D01*
X373393Y428845D01*
X373325Y428787D01*
X373260Y428725D01*
X373197Y428661D01*
X373137Y428594D01*
X373080Y428525D01*
X373026Y428453D01*
X372975Y428379D01*
X372927Y428303D01*
X372883Y428225D01*
X372842Y428145D01*
X372804Y428063D01*
X372770Y427980D01*
X372740Y427895D01*
X372713Y427809D01*
X372690Y427723D01*
X372671Y427635D01*
X372656Y427546D01*
X372644Y427457D01*
X372636Y427368D01*
X372632Y427278D01*
X372632Y427188D01*
X372636Y427098D01*
X372644Y427009D01*
X372656Y426920D01*
X372671Y426831D01*
X372690Y426743D01*
X372713Y426657D01*
X372740Y426571D01*
X372770Y426486D01*
X372804Y426403D01*
X372842Y426321D01*
X372883Y426241D01*
X372927Y426163D01*
X372975Y426087D01*
X373026Y426013D01*
X373080Y425941D01*
X373137Y425872D01*
X373197Y425805D01*
X373260Y425741D01*
X373325Y425679D01*
X373393Y425621D01*
X373464Y425565D01*
X373537Y425513D01*
X373612Y425463D01*
X373689Y425417D01*
X373768Y425375D01*
X373849Y425335D01*
X373931Y425300D01*
X374015Y425268D01*
X374100Y425239D01*
X374187Y425214D01*
X374274Y425193D01*
X374362Y425176D01*
X374451Y425162D01*
X374541Y425153D01*
X374630Y425147D01*
X374720Y425145D01*
X374720Y425144D02*
X376808Y425144D01*
X298256Y358777D02*
X296167Y358777D01*
X298256Y358778D02*
X298345Y358780D01*
X298433Y358786D01*
X298521Y358795D01*
X298609Y358808D01*
X298696Y358825D01*
X298782Y358845D01*
X298867Y358870D01*
X298952Y358897D01*
X299035Y358929D01*
X299116Y358963D01*
X299196Y359002D01*
X299274Y359043D01*
X299351Y359088D01*
X299425Y359136D01*
X299498Y359187D01*
X299568Y359241D01*
X299635Y359299D01*
X299701Y359359D01*
X299763Y359421D01*
X299823Y359487D01*
X299881Y359554D01*
X299935Y359624D01*
X299986Y359697D01*
X300034Y359771D01*
X300079Y359848D01*
X300120Y359926D01*
X300159Y360006D01*
X300193Y360087D01*
X300225Y360170D01*
X300252Y360255D01*
X300277Y360340D01*
X300297Y360426D01*
X300314Y360513D01*
X300327Y360601D01*
X300336Y360689D01*
X300342Y360777D01*
X300344Y360866D01*
X300344Y366087D01*
X300342Y366176D01*
X300336Y366264D01*
X300327Y366352D01*
X300314Y366440D01*
X300297Y366527D01*
X300277Y366613D01*
X300252Y366698D01*
X300225Y366783D01*
X300193Y366866D01*
X300159Y366947D01*
X300120Y367027D01*
X300079Y367105D01*
X300034Y367182D01*
X299986Y367256D01*
X299935Y367329D01*
X299881Y367399D01*
X299823Y367466D01*
X299763Y367532D01*
X299701Y367594D01*
X299635Y367654D01*
X299568Y367712D01*
X299498Y367766D01*
X299425Y367817D01*
X299351Y367865D01*
X299274Y367910D01*
X299196Y367951D01*
X299116Y367990D01*
X299035Y368024D01*
X298952Y368056D01*
X298867Y368083D01*
X298782Y368108D01*
X298696Y368128D01*
X298609Y368145D01*
X298521Y368158D01*
X298433Y368167D01*
X298345Y368173D01*
X298256Y368175D01*
X296167Y368175D01*
X292698Y358777D02*
X289566Y358777D01*
X289566Y358778D02*
X289477Y358780D01*
X289389Y358786D01*
X289301Y358795D01*
X289213Y358808D01*
X289126Y358825D01*
X289040Y358845D01*
X288955Y358870D01*
X288870Y358897D01*
X288787Y358929D01*
X288706Y358963D01*
X288626Y359002D01*
X288548Y359043D01*
X288471Y359088D01*
X288397Y359136D01*
X288324Y359187D01*
X288254Y359241D01*
X288187Y359299D01*
X288121Y359359D01*
X288059Y359421D01*
X287999Y359487D01*
X287941Y359554D01*
X287887Y359624D01*
X287836Y359697D01*
X287788Y359771D01*
X287743Y359848D01*
X287702Y359926D01*
X287663Y360006D01*
X287629Y360087D01*
X287597Y360170D01*
X287570Y360255D01*
X287545Y360340D01*
X287525Y360426D01*
X287508Y360513D01*
X287495Y360601D01*
X287486Y360689D01*
X287480Y360777D01*
X287478Y360866D01*
X287477Y360866D02*
X287477Y361910D01*
X287478Y361910D02*
X287480Y361999D01*
X287486Y362087D01*
X287495Y362175D01*
X287508Y362263D01*
X287525Y362350D01*
X287545Y362436D01*
X287570Y362521D01*
X287597Y362606D01*
X287629Y362689D01*
X287663Y362770D01*
X287702Y362850D01*
X287743Y362928D01*
X287788Y363005D01*
X287836Y363079D01*
X287887Y363152D01*
X287941Y363222D01*
X287999Y363289D01*
X288059Y363355D01*
X288121Y363417D01*
X288187Y363477D01*
X288254Y363535D01*
X288324Y363589D01*
X288397Y363640D01*
X288471Y363688D01*
X288548Y363733D01*
X288626Y363774D01*
X288706Y363813D01*
X288787Y363847D01*
X288870Y363879D01*
X288955Y363906D01*
X289040Y363931D01*
X289126Y363951D01*
X289213Y363968D01*
X289301Y363981D01*
X289389Y363990D01*
X289477Y363996D01*
X289566Y363998D01*
X289566Y363999D02*
X292698Y363999D01*
X292698Y368175D01*
X287477Y368175D01*
X270151Y295354D02*
X270151Y293265D01*
X270152Y293265D02*
X270154Y293176D01*
X270160Y293088D01*
X270169Y293000D01*
X270182Y292912D01*
X270199Y292825D01*
X270219Y292739D01*
X270244Y292654D01*
X270271Y292569D01*
X270303Y292486D01*
X270337Y292405D01*
X270376Y292325D01*
X270417Y292247D01*
X270462Y292170D01*
X270510Y292096D01*
X270561Y292023D01*
X270615Y291953D01*
X270673Y291886D01*
X270733Y291820D01*
X270795Y291758D01*
X270861Y291698D01*
X270928Y291640D01*
X270998Y291586D01*
X271071Y291535D01*
X271145Y291487D01*
X271222Y291442D01*
X271300Y291401D01*
X271380Y291362D01*
X271461Y291328D01*
X271544Y291296D01*
X271629Y291269D01*
X271714Y291244D01*
X271800Y291224D01*
X271887Y291207D01*
X271975Y291194D01*
X272063Y291185D01*
X272151Y291179D01*
X272240Y291177D01*
X277461Y291177D01*
X277552Y291179D01*
X277643Y291185D01*
X277734Y291195D01*
X277824Y291209D01*
X277913Y291226D01*
X278001Y291248D01*
X278089Y291274D01*
X278175Y291303D01*
X278260Y291336D01*
X278343Y291373D01*
X278425Y291413D01*
X278505Y291457D01*
X278583Y291504D01*
X278659Y291555D01*
X278732Y291608D01*
X278803Y291665D01*
X278872Y291726D01*
X278937Y291789D01*
X279000Y291854D01*
X279060Y291923D01*
X279118Y291994D01*
X279171Y292067D01*
X279222Y292143D01*
X279269Y292221D01*
X279313Y292301D01*
X279353Y292383D01*
X279390Y292466D01*
X279423Y292551D01*
X279452Y292637D01*
X279478Y292725D01*
X279500Y292813D01*
X279517Y292902D01*
X279531Y292992D01*
X279541Y293083D01*
X279547Y293174D01*
X279549Y293265D01*
X279549Y295354D01*
X275373Y298823D02*
X275373Y301955D01*
X275372Y301955D02*
X275370Y302044D01*
X275364Y302132D01*
X275355Y302220D01*
X275342Y302308D01*
X275325Y302395D01*
X275305Y302481D01*
X275280Y302566D01*
X275253Y302651D01*
X275221Y302734D01*
X275187Y302815D01*
X275148Y302895D01*
X275107Y302973D01*
X275062Y303050D01*
X275014Y303124D01*
X274963Y303197D01*
X274909Y303267D01*
X274851Y303334D01*
X274791Y303400D01*
X274729Y303462D01*
X274663Y303522D01*
X274596Y303580D01*
X274526Y303634D01*
X274453Y303685D01*
X274379Y303733D01*
X274302Y303778D01*
X274224Y303819D01*
X274144Y303858D01*
X274063Y303892D01*
X273980Y303924D01*
X273895Y303951D01*
X273810Y303976D01*
X273724Y303996D01*
X273637Y304013D01*
X273549Y304026D01*
X273461Y304035D01*
X273373Y304041D01*
X273284Y304043D01*
X273284Y304044D02*
X272762Y304044D01*
X272661Y304042D01*
X272560Y304036D01*
X272459Y304026D01*
X272359Y304013D01*
X272259Y303995D01*
X272160Y303974D01*
X272062Y303948D01*
X271965Y303919D01*
X271869Y303887D01*
X271775Y303850D01*
X271682Y303810D01*
X271590Y303766D01*
X271501Y303719D01*
X271413Y303668D01*
X271327Y303614D01*
X271244Y303557D01*
X271162Y303497D01*
X271084Y303433D01*
X271007Y303367D01*
X270934Y303297D01*
X270863Y303225D01*
X270795Y303150D01*
X270730Y303072D01*
X270668Y302992D01*
X270609Y302910D01*
X270553Y302825D01*
X270501Y302739D01*
X270452Y302650D01*
X270406Y302559D01*
X270365Y302467D01*
X270326Y302373D01*
X270292Y302278D01*
X270261Y302182D01*
X270234Y302084D01*
X270210Y301986D01*
X270191Y301886D01*
X270175Y301786D01*
X270163Y301686D01*
X270155Y301585D01*
X270151Y301484D01*
X270151Y301382D01*
X270155Y301281D01*
X270163Y301180D01*
X270175Y301080D01*
X270191Y300980D01*
X270210Y300880D01*
X270234Y300782D01*
X270261Y300684D01*
X270292Y300588D01*
X270326Y300493D01*
X270365Y300399D01*
X270406Y300307D01*
X270452Y300216D01*
X270501Y300128D01*
X270553Y300041D01*
X270609Y299956D01*
X270668Y299874D01*
X270730Y299794D01*
X270795Y299716D01*
X270863Y299641D01*
X270934Y299569D01*
X271007Y299499D01*
X271084Y299433D01*
X271162Y299369D01*
X271244Y299309D01*
X271327Y299252D01*
X271413Y299198D01*
X271501Y299147D01*
X271590Y299100D01*
X271682Y299056D01*
X271775Y299016D01*
X271869Y298979D01*
X271965Y298947D01*
X272062Y298918D01*
X272160Y298892D01*
X272259Y298871D01*
X272359Y298853D01*
X272459Y298840D01*
X272560Y298830D01*
X272661Y298824D01*
X272762Y298822D01*
X272762Y298823D02*
X275373Y298823D01*
X275502Y298825D01*
X275630Y298831D01*
X275758Y298841D01*
X275886Y298855D01*
X276014Y298872D01*
X276141Y298894D01*
X276267Y298920D01*
X276392Y298949D01*
X276516Y298982D01*
X276639Y299020D01*
X276761Y299060D01*
X276882Y299105D01*
X277001Y299153D01*
X277119Y299205D01*
X277235Y299261D01*
X277349Y299320D01*
X277461Y299383D01*
X277572Y299449D01*
X277680Y299518D01*
X277786Y299591D01*
X277890Y299667D01*
X277992Y299746D01*
X278091Y299828D01*
X278187Y299913D01*
X278281Y300001D01*
X278372Y300092D01*
X278460Y300186D01*
X278545Y300282D01*
X278627Y300381D01*
X278706Y300483D01*
X278782Y300587D01*
X278855Y300693D01*
X278924Y300801D01*
X278990Y300911D01*
X279053Y301024D01*
X279112Y301138D01*
X279168Y301254D01*
X279220Y301372D01*
X279268Y301491D01*
X279313Y301612D01*
X279353Y301734D01*
X279391Y301857D01*
X279424Y301981D01*
X279453Y302106D01*
X279479Y302232D01*
X279501Y302359D01*
X279518Y302487D01*
X279532Y302615D01*
X279542Y302743D01*
X279548Y302871D01*
X279550Y303000D01*
X416635Y397332D02*
X418724Y397332D01*
X418724Y397333D02*
X418813Y397335D01*
X418901Y397341D01*
X418989Y397350D01*
X419077Y397363D01*
X419164Y397380D01*
X419250Y397400D01*
X419335Y397425D01*
X419420Y397452D01*
X419503Y397484D01*
X419584Y397518D01*
X419664Y397557D01*
X419742Y397598D01*
X419819Y397643D01*
X419893Y397691D01*
X419966Y397742D01*
X420036Y397796D01*
X420103Y397854D01*
X420169Y397914D01*
X420231Y397976D01*
X420291Y398042D01*
X420349Y398109D01*
X420403Y398179D01*
X420454Y398252D01*
X420502Y398326D01*
X420547Y398403D01*
X420588Y398481D01*
X420627Y398561D01*
X420661Y398642D01*
X420693Y398725D01*
X420720Y398810D01*
X420745Y398895D01*
X420765Y398981D01*
X420782Y399068D01*
X420795Y399156D01*
X420804Y399244D01*
X420810Y399332D01*
X420812Y399421D01*
X420812Y404642D01*
X420810Y404731D01*
X420804Y404819D01*
X420795Y404907D01*
X420782Y404995D01*
X420765Y405082D01*
X420745Y405168D01*
X420720Y405253D01*
X420693Y405338D01*
X420661Y405421D01*
X420627Y405502D01*
X420588Y405582D01*
X420547Y405660D01*
X420502Y405737D01*
X420454Y405811D01*
X420403Y405884D01*
X420349Y405954D01*
X420291Y406021D01*
X420231Y406087D01*
X420169Y406149D01*
X420103Y406209D01*
X420036Y406267D01*
X419966Y406321D01*
X419893Y406372D01*
X419819Y406420D01*
X419742Y406465D01*
X419664Y406506D01*
X419584Y406545D01*
X419503Y406579D01*
X419420Y406611D01*
X419335Y406638D01*
X419250Y406663D01*
X419164Y406683D01*
X419077Y406700D01*
X418989Y406713D01*
X418901Y406722D01*
X418813Y406728D01*
X418724Y406730D01*
X416635Y406730D01*
X411078Y401509D02*
X407945Y401509D01*
X411078Y401510D02*
X411167Y401512D01*
X411255Y401518D01*
X411343Y401527D01*
X411431Y401540D01*
X411518Y401557D01*
X411604Y401577D01*
X411689Y401602D01*
X411774Y401629D01*
X411857Y401661D01*
X411938Y401695D01*
X412018Y401734D01*
X412096Y401775D01*
X412173Y401820D01*
X412247Y401868D01*
X412320Y401919D01*
X412390Y401973D01*
X412457Y402031D01*
X412523Y402091D01*
X412585Y402153D01*
X412645Y402219D01*
X412703Y402286D01*
X412757Y402356D01*
X412808Y402429D01*
X412856Y402503D01*
X412901Y402580D01*
X412942Y402658D01*
X412981Y402738D01*
X413015Y402819D01*
X413047Y402902D01*
X413074Y402987D01*
X413099Y403072D01*
X413119Y403158D01*
X413136Y403245D01*
X413149Y403333D01*
X413158Y403421D01*
X413164Y403509D01*
X413166Y403598D01*
X413166Y404120D01*
X413167Y404120D02*
X413165Y404221D01*
X413159Y404322D01*
X413149Y404423D01*
X413136Y404523D01*
X413118Y404623D01*
X413097Y404722D01*
X413071Y404820D01*
X413042Y404917D01*
X413010Y405013D01*
X412973Y405107D01*
X412933Y405200D01*
X412889Y405292D01*
X412842Y405381D01*
X412791Y405469D01*
X412737Y405555D01*
X412680Y405638D01*
X412620Y405720D01*
X412556Y405798D01*
X412490Y405875D01*
X412420Y405948D01*
X412348Y406019D01*
X412273Y406087D01*
X412195Y406152D01*
X412115Y406214D01*
X412033Y406273D01*
X411948Y406329D01*
X411862Y406381D01*
X411773Y406430D01*
X411682Y406476D01*
X411590Y406517D01*
X411496Y406556D01*
X411401Y406590D01*
X411305Y406621D01*
X411207Y406648D01*
X411109Y406672D01*
X411009Y406691D01*
X410909Y406707D01*
X410809Y406719D01*
X410708Y406727D01*
X410607Y406731D01*
X410505Y406731D01*
X410404Y406727D01*
X410303Y406719D01*
X410203Y406707D01*
X410103Y406691D01*
X410003Y406672D01*
X409905Y406648D01*
X409807Y406621D01*
X409711Y406590D01*
X409616Y406556D01*
X409522Y406517D01*
X409430Y406476D01*
X409339Y406430D01*
X409251Y406381D01*
X409164Y406329D01*
X409079Y406273D01*
X408997Y406214D01*
X408917Y406152D01*
X408839Y406087D01*
X408764Y406019D01*
X408692Y405948D01*
X408622Y405875D01*
X408556Y405798D01*
X408492Y405720D01*
X408432Y405638D01*
X408375Y405555D01*
X408321Y405469D01*
X408270Y405381D01*
X408223Y405292D01*
X408179Y405200D01*
X408139Y405107D01*
X408102Y405013D01*
X408070Y404917D01*
X408041Y404820D01*
X408015Y404722D01*
X407994Y404623D01*
X407976Y404523D01*
X407963Y404423D01*
X407953Y404322D01*
X407947Y404221D01*
X407945Y404120D01*
X407945Y401509D01*
X407947Y401383D01*
X407953Y401257D01*
X407962Y401131D01*
X407975Y401006D01*
X407993Y400881D01*
X408013Y400756D01*
X408038Y400632D01*
X408066Y400509D01*
X408098Y400387D01*
X408134Y400266D01*
X408173Y400146D01*
X408216Y400028D01*
X408263Y399911D01*
X408313Y399795D01*
X408367Y399680D01*
X408423Y399568D01*
X408484Y399457D01*
X408547Y399348D01*
X408614Y399241D01*
X408684Y399136D01*
X408758Y399033D01*
X408834Y398933D01*
X408913Y398835D01*
X408995Y398739D01*
X409081Y398646D01*
X409168Y398555D01*
X409259Y398468D01*
X409352Y398382D01*
X409448Y398300D01*
X409546Y398221D01*
X409646Y398145D01*
X409749Y398071D01*
X409854Y398001D01*
X409961Y397934D01*
X410070Y397871D01*
X410181Y397810D01*
X410293Y397754D01*
X410408Y397700D01*
X410524Y397650D01*
X410641Y397603D01*
X410759Y397560D01*
X410879Y397521D01*
X411000Y397485D01*
X411122Y397453D01*
X411245Y397425D01*
X411369Y397400D01*
X411494Y397380D01*
X411619Y397362D01*
X411744Y397349D01*
X411870Y397340D01*
X411996Y397334D01*
X412122Y397332D01*
X468455Y347835D02*
X477853Y347835D01*
X477853Y350446D01*
X477851Y350547D01*
X477845Y350648D01*
X477835Y350749D01*
X477822Y350849D01*
X477804Y350949D01*
X477783Y351048D01*
X477757Y351146D01*
X477728Y351243D01*
X477696Y351339D01*
X477659Y351433D01*
X477619Y351526D01*
X477575Y351618D01*
X477528Y351707D01*
X477477Y351795D01*
X477423Y351881D01*
X477366Y351964D01*
X477306Y352046D01*
X477242Y352124D01*
X477176Y352201D01*
X477106Y352274D01*
X477034Y352345D01*
X476959Y352413D01*
X476881Y352478D01*
X476801Y352540D01*
X476719Y352599D01*
X476634Y352655D01*
X476548Y352707D01*
X476459Y352756D01*
X476368Y352802D01*
X476276Y352843D01*
X476182Y352882D01*
X476087Y352916D01*
X475991Y352947D01*
X475893Y352974D01*
X475795Y352998D01*
X475695Y353017D01*
X475595Y353033D01*
X475495Y353045D01*
X475394Y353053D01*
X475293Y353057D01*
X475191Y353057D01*
X475090Y353053D01*
X474989Y353045D01*
X474889Y353033D01*
X474789Y353017D01*
X474689Y352998D01*
X474591Y352974D01*
X474493Y352947D01*
X474397Y352916D01*
X474302Y352882D01*
X474208Y352843D01*
X474116Y352802D01*
X474025Y352756D01*
X473937Y352707D01*
X473850Y352655D01*
X473765Y352599D01*
X473683Y352540D01*
X473603Y352478D01*
X473525Y352413D01*
X473450Y352345D01*
X473378Y352274D01*
X473308Y352201D01*
X473242Y352124D01*
X473178Y352046D01*
X473118Y351964D01*
X473061Y351881D01*
X473007Y351795D01*
X472956Y351707D01*
X472909Y351618D01*
X472865Y351526D01*
X472825Y351433D01*
X472788Y351339D01*
X472756Y351243D01*
X472727Y351146D01*
X472701Y351048D01*
X472680Y350949D01*
X472662Y350849D01*
X472649Y350749D01*
X472639Y350648D01*
X472633Y350547D01*
X472631Y350446D01*
X472632Y350446D02*
X472632Y347835D01*
X472632Y350968D02*
X468455Y353056D01*
X475503Y362144D02*
X475598Y362142D01*
X475692Y362136D01*
X475786Y362127D01*
X475880Y362114D01*
X475973Y362097D01*
X476065Y362076D01*
X476157Y362051D01*
X476247Y362023D01*
X476336Y361991D01*
X476424Y361956D01*
X476510Y361917D01*
X476595Y361875D01*
X476678Y361829D01*
X476759Y361780D01*
X476838Y361728D01*
X476915Y361673D01*
X476989Y361614D01*
X477061Y361553D01*
X477131Y361489D01*
X477198Y361422D01*
X477262Y361352D01*
X477323Y361280D01*
X477382Y361206D01*
X477437Y361129D01*
X477489Y361050D01*
X477538Y360969D01*
X477584Y360886D01*
X477626Y360801D01*
X477665Y360715D01*
X477700Y360627D01*
X477732Y360538D01*
X477760Y360448D01*
X477785Y360356D01*
X477806Y360264D01*
X477823Y360171D01*
X477836Y360077D01*
X477845Y359983D01*
X477851Y359889D01*
X477853Y359794D01*
X477852Y359794D02*
X477850Y359686D01*
X477844Y359577D01*
X477834Y359469D01*
X477821Y359362D01*
X477803Y359255D01*
X477782Y359148D01*
X477757Y359043D01*
X477728Y358938D01*
X477696Y358835D01*
X477659Y358733D01*
X477619Y358632D01*
X477576Y358533D01*
X477529Y358435D01*
X477478Y358339D01*
X477424Y358245D01*
X477367Y358153D01*
X477306Y358063D01*
X477242Y357975D01*
X477176Y357890D01*
X477106Y357807D01*
X477033Y357727D01*
X476957Y357649D01*
X476879Y357574D01*
X476798Y357502D01*
X476714Y357433D01*
X476628Y357367D01*
X476540Y357304D01*
X476449Y357245D01*
X476357Y357188D01*
X476262Y357135D01*
X476166Y357086D01*
X476067Y357040D01*
X475968Y356997D01*
X475866Y356958D01*
X475764Y356923D01*
X473675Y361361D02*
X473744Y361430D01*
X473815Y361496D01*
X473888Y361560D01*
X473964Y361621D01*
X474043Y361679D01*
X474123Y361733D01*
X474206Y361785D01*
X474290Y361833D01*
X474376Y361879D01*
X474464Y361920D01*
X474554Y361959D01*
X474645Y361994D01*
X474737Y362025D01*
X474830Y362053D01*
X474924Y362077D01*
X475019Y362097D01*
X475115Y362114D01*
X475212Y362127D01*
X475309Y362136D01*
X475406Y362142D01*
X475503Y362144D01*
X473676Y361360D02*
X468455Y356922D01*
X468455Y362143D01*
M02*
